%TF.GenerationSoftware,KiCad,Pcbnew,10.0.4-10.0.4~ubuntu24.04.1*%
%TF.CreationDate,2026-07-20T17:33:23+02:00*%
%TF.ProjectId,EEZ DIB AFE3plus,45455a20-4449-4422-9041-464533706c75,r1B1*%
%TF.SameCoordinates,Original*%
%TF.FileFunction,Copper,L4,Bot*%
%TF.FilePolarity,Positive*%
%FSLAX46Y46*%
G04 Gerber Fmt 4.6, Leading zero omitted, Abs format (unit mm)*
G04 Created by KiCad (PCBNEW 10.0.4-10.0.4~ubuntu24.04.1) date 2026-07-20 17:33:23*
%MOMM*%
%LPD*%
G01*
G04 APERTURE LIST*
G04 Aperture macros list*
%AMRoundRect*
0 Rectangle with rounded corners*
0 $1 Rounding radius*
0 $2 $3 $4 $5 $6 $7 $8 $9 X,Y pos of 4 corners*
0 Add a 4 corners polygon primitive as box body*
4,1,4,$2,$3,$4,$5,$6,$7,$8,$9,$2,$3,0*
0 Add four circle primitives for the rounded corners*
1,1,$1+$1,$2,$3*
1,1,$1+$1,$4,$5*
1,1,$1+$1,$6,$7*
1,1,$1+$1,$8,$9*
0 Add four rect primitives between the rounded corners*
20,1,$1+$1,$2,$3,$4,$5,0*
20,1,$1+$1,$4,$5,$6,$7,0*
20,1,$1+$1,$6,$7,$8,$9,0*
20,1,$1+$1,$8,$9,$2,$3,0*%
G04 Aperture macros list end*
%TA.AperFunction,ComponentPad*%
%ADD10C,1.270000*%
%TD*%
%TA.AperFunction,ComponentPad*%
%ADD11RoundRect,0.170000X-0.680000X-0.680000X0.680000X-0.680000X0.680000X0.680000X-0.680000X0.680000X0*%
%TD*%
%TA.AperFunction,ComponentPad*%
%ADD12O,1.700000X1.700000*%
%TD*%
%TA.AperFunction,ComponentPad*%
%ADD13O,2.400000X1.800000*%
%TD*%
%TA.AperFunction,ViaPad*%
%ADD14C,0.450000*%
%TD*%
%TA.AperFunction,Conductor*%
%ADD15C,0.609600*%
%TD*%
%TA.AperFunction,Conductor*%
%ADD16C,1.016000*%
%TD*%
%TA.AperFunction,Conductor*%
%ADD17C,0.304800*%
%TD*%
%TA.AperFunction,Conductor*%
%ADD18C,0.203200*%
%TD*%
%TA.AperFunction,Conductor*%
%ADD19C,0.406400*%
%TD*%
%TA.AperFunction,Conductor*%
%ADD20C,1.524000*%
%TD*%
%TA.AperFunction,Conductor*%
%ADD21C,0.254000*%
%TD*%
G04 APERTURE END LIST*
D10*
%TO.P,TP3,1,P$1_1*%
%TO.N,IN1N*%
X179549768Y-114219751D03*
%TD*%
D11*
%TO.P,JP3,1,1_1*%
%TO.N,IN3N*%
X129700000Y-116776900D03*
D12*
%TO.P,JP3,2,2_2*%
%TO.N,GND*%
X129700000Y-119316900D03*
%TD*%
D11*
%TO.P,JP4,1,1_1*%
%TO.N,AIN4N*%
X95630000Y-129014300D03*
D12*
%TO.P,JP4,2,2_2*%
%TO.N,GND*%
X95630000Y-131554300D03*
%TD*%
D10*
%TO.P,TP7,1,P$1_1*%
%TO.N,-2V5_ISO*%
X200372604Y-126518773D03*
%TD*%
%TO.P,TP6,1,P$1_1*%
%TO.N,+2V5_ISO*%
X200372604Y-123790000D03*
%TD*%
%TO.P,TP2,1,P$1_1*%
%TO.N,IN1P*%
X179549768Y-115805343D03*
%TD*%
%TO.P,TP5,1,P$1_1*%
%TO.N,IN2N*%
X179549768Y-110605343D03*
%TD*%
%TO.P,TP1,1,P$1_1*%
%TO.N,GND*%
X200372604Y-129247546D03*
%TD*%
%TO.P,TP4,1,P$1_1*%
%TO.N,IN2P*%
X179549768Y-112225343D03*
%TD*%
D13*
%TO.P,X2,1,Pin_1_1*%
%TO.N,AIN4N*%
X97000000Y-124835000D03*
%TO.P,X2,2,Pin_2_2*%
%TO.N,AIN4P*%
X97000000Y-121025000D03*
%TO.P,X2,3,Pin_3_3*%
%TO.N,IN3N*%
X97000000Y-117215000D03*
%TO.P,X2,4,Pin_4_4*%
%TO.N,AIN3P*%
X97000000Y-113405000D03*
%TO.P,X2,5,Pin_5_5*%
%TO.N,/Isolated Ch#1\u002C Ch#2/AIN2N*%
X97000000Y-109595000D03*
%TO.P,X2,6,Pin_6_6*%
%TO.N,/Isolated Ch#1\u002C Ch#2/AIN2P*%
X97000000Y-105785000D03*
%TO.P,X2,7,Pin_7_7*%
%TO.N,/Isolated Ch#1\u002C Ch#2/AIN1N*%
X97000000Y-101975000D03*
%TO.P,X2,8,Pin_8_8*%
%TO.N,/Isolated Ch#1\u002C Ch#2/AIN1P*%
X97000000Y-98165000D03*
%TD*%
D14*
%TO.N,GND*%
X172600000Y-96096245D03*
X171950000Y-120280000D03*
X171830000Y-94563755D03*
X202180000Y-104520000D03*
X191810000Y-129340000D03*
X170890000Y-109365000D03*
X204520000Y-107120970D03*
X170115410Y-125720000D03*
X203640000Y-101700000D03*
X171040000Y-94563755D03*
X160320000Y-111253893D03*
X161480000Y-132150000D03*
X209160733Y-103887395D03*
X171770000Y-125640000D03*
X159140000Y-110870000D03*
X169030000Y-129980000D03*
X190520000Y-129340000D03*
X204710000Y-109460000D03*
X171640000Y-108615000D03*
X170140000Y-110115000D03*
X160090000Y-109020000D03*
X171640000Y-109365000D03*
X170868554Y-110115000D03*
X200562263Y-99314678D03*
X192240000Y-126863300D03*
X171830000Y-95330000D03*
X135832224Y-119316900D03*
X171040000Y-96096245D03*
X176300000Y-129960000D03*
X137040000Y-123370000D03*
X172600000Y-93797510D03*
X204710000Y-112220000D03*
X209165306Y-105140282D03*
X171830000Y-93797510D03*
X160170000Y-98050000D03*
X160310000Y-100100000D03*
X167380887Y-130049011D03*
X211610000Y-103880000D03*
X204710000Y-113740000D03*
X166350000Y-124970000D03*
X211600000Y-111520000D03*
X191011502Y-100414418D03*
X192473290Y-100434418D03*
X175250409Y-124940000D03*
X172600000Y-94563755D03*
X171830000Y-96862490D03*
X185597591Y-111410000D03*
X185597591Y-115000000D03*
X195250732Y-126840000D03*
X158850000Y-105660000D03*
X171040000Y-95330000D03*
X170140000Y-109365000D03*
X137000000Y-131600000D03*
X172600000Y-95330000D03*
X170900722Y-108615000D03*
X161510000Y-100590000D03*
X178070000Y-130120000D03*
X161433074Y-129675058D03*
X204520000Y-105665371D03*
X158910000Y-116580000D03*
X195310000Y-130010000D03*
X170140000Y-108615000D03*
X201912263Y-99310000D03*
X169090000Y-105100000D03*
X180150000Y-119590000D03*
X177770000Y-93910000D03*
X171640000Y-110115000D03*
X180980000Y-131642600D03*
X172600000Y-96862490D03*
X157750000Y-92010000D03*
X182590000Y-120490000D03*
X171040000Y-96862490D03*
X211545044Y-119137050D03*
X190510000Y-126863300D03*
X171830000Y-96096245D03*
X177780000Y-96630000D03*
X171040000Y-93797510D03*
X163712996Y-125872580D03*
X202530000Y-116240000D03*
X209205780Y-111044679D03*
%TO.N,AIN4N*%
X108900000Y-128000000D03*
X108900000Y-129800000D03*
X108900000Y-131000000D03*
X108900000Y-129200000D03*
X109500000Y-131000000D03*
X109500000Y-127400000D03*
X108900000Y-127400000D03*
X128030000Y-132270000D03*
X108900000Y-128600000D03*
X109500000Y-128600000D03*
X108900000Y-130400000D03*
X109500000Y-129800000D03*
X109500000Y-130400000D03*
X109500000Y-128000000D03*
X128030000Y-132770000D03*
X109500000Y-129200000D03*
%TO.N,Net-(K3B-NC)*%
X149100000Y-127740000D03*
X113870000Y-119880000D03*
X130806950Y-124361200D03*
X114400000Y-119900000D03*
X127406950Y-124361200D03*
X149100000Y-128400000D03*
X129080000Y-124361200D03*
%TO.N,/Isolated Ch#1\u002C Ch#2/AIN1N*%
X144762600Y-98800000D03*
X145600000Y-103980000D03*
X148400000Y-105300000D03*
X145500000Y-98030000D03*
X144300000Y-93900000D03*
X137280000Y-100360000D03*
%TO.N,-5V_ISO*%
X208970000Y-108968800D03*
X186920000Y-130770000D03*
%TO.N,/ADC\u002C IOexp\u002C LDOs/AVSS*%
X198700000Y-97400000D03*
X196090000Y-101870000D03*
X197420000Y-129980000D03*
X199900000Y-97400000D03*
X194794690Y-114391400D03*
X196770000Y-129980000D03*
X200100604Y-119602147D03*
X197642263Y-99314678D03*
X197230000Y-105890000D03*
X196690000Y-119568313D03*
X199300000Y-97400000D03*
X191740000Y-102616694D03*
X195850000Y-117390000D03*
X191444645Y-120250000D03*
X194700000Y-98808200D03*
X191444645Y-118780000D03*
X199610000Y-116210000D03*
X198140000Y-119568313D03*
X196167708Y-98812395D03*
%TO.N,/Isolated Ch#1\u002C Ch#2/HGND*%
X148410000Y-117060000D03*
X145580000Y-114145000D03*
X142523200Y-117000000D03*
X145570000Y-109010000D03*
X144837600Y-109720000D03*
%TO.N,Net-(IC12C-D)*%
X159200000Y-131600000D03*
X170746878Y-131420205D03*
%TO.N,+5V_ISO*%
X186020000Y-133350000D03*
X160630000Y-131920000D03*
X138020000Y-101340000D03*
X156590000Y-132540000D03*
X179410000Y-90030000D03*
X206360000Y-95570000D03*
X215980000Y-108968800D03*
X185140000Y-90030000D03*
X169110594Y-131621342D03*
X138020000Y-93260000D03*
%TO.N,Net-(K1B-COM)*%
X133200000Y-107765000D03*
X115850000Y-104405000D03*
X116555000Y-102417500D03*
X117260000Y-103742500D03*
X133200000Y-108540000D03*
X117260000Y-101755000D03*
X115850000Y-102417500D03*
X117260000Y-104405000D03*
X116555000Y-101755000D03*
X117260000Y-102417500D03*
X133200000Y-103314999D03*
X133200000Y-109314999D03*
X132000000Y-109314999D03*
X116555000Y-103080000D03*
X132000000Y-107765000D03*
X132000000Y-103314999D03*
X117260000Y-103080000D03*
X132000000Y-102540000D03*
X115850000Y-103742500D03*
X133200000Y-102540000D03*
X116555000Y-104405000D03*
X133200000Y-101765000D03*
X132000000Y-101765000D03*
X115850000Y-103080000D03*
X115850000Y-101755000D03*
X116555000Y-103742500D03*
X132000000Y-108540000D03*
%TO.N,/Isolated Ch#1\u002C Ch#2/ISEL10#2*%
X164240000Y-92110000D03*
X138040000Y-106860000D03*
%TO.N,IN4N*%
X188600000Y-110340000D03*
X183650000Y-128390000D03*
%TO.N,Net-(K4B-NC)*%
X117500000Y-131000000D03*
X141430000Y-129600000D03*
X117500000Y-127400000D03*
X117500000Y-128000000D03*
X118100000Y-131000000D03*
X142030000Y-129600000D03*
X145630000Y-129600000D03*
X117500000Y-129800000D03*
X146830000Y-129600000D03*
X117500000Y-128600000D03*
X118100000Y-129200000D03*
X146230000Y-129600000D03*
X144430000Y-129600000D03*
X118100000Y-130400000D03*
X117500000Y-130400000D03*
X140830000Y-129600000D03*
X139630000Y-129600000D03*
X143230000Y-129600000D03*
X143830000Y-129600000D03*
X118100000Y-128000000D03*
X142630000Y-129600000D03*
X138430000Y-129600000D03*
X117500000Y-129200000D03*
X140230000Y-129600000D03*
X118100000Y-129800000D03*
X118100000Y-128600000D03*
X145030000Y-129600000D03*
X139030000Y-129600000D03*
X118100000Y-127400000D03*
%TO.N,-2V5_ISO*%
X177480000Y-129276133D03*
X180340000Y-126384800D03*
X137390000Y-125520000D03*
X205600000Y-97720000D03*
X192800000Y-130037000D03*
%TO.N,Net-(OK2-S2)*%
X161330000Y-121110000D03*
X104730000Y-113300000D03*
%TO.N,Net-(IC8-INP)*%
X124910000Y-91690000D03*
X146900000Y-93120000D03*
X147130000Y-103280000D03*
%TO.N,IN1P*%
X178200000Y-113670000D03*
%TO.N,+3V3_ISO*%
X203590000Y-103650000D03*
X163320000Y-101700000D03*
X201156193Y-103654024D03*
X205260000Y-114070000D03*
X163320000Y-112855531D03*
X171460000Y-105840000D03*
X207519083Y-107650974D03*
X178360000Y-91890000D03*
X192560000Y-128740000D03*
%TO.N,DIAG#1*%
X162420000Y-100700000D03*
X171040000Y-112050000D03*
%TO.N,/ADC\u002C IOexp\u002C LDOs/ISO_AFE_EXT_CLK*%
X211500000Y-106410000D03*
X208637674Y-117522326D03*
%TO.N,-15V_ISO*%
X208970000Y-110240000D03*
X172590409Y-124940000D03*
X164230000Y-124360000D03*
%TO.N,ISEL#4*%
X173140000Y-129350000D03*
X151630000Y-131880000D03*
X174430000Y-98560000D03*
%TO.N,IN2N*%
X176018902Y-114178902D03*
X178480000Y-112000000D03*
%TO.N,IN2P*%
X175521098Y-113681098D03*
%TO.N,DIAG#2*%
X171693189Y-112054114D03*
X162460000Y-111870000D03*
%TO.N,/ADC\u002C IOexp\u002C LDOs/AVDD*%
X192997990Y-118800000D03*
X199102263Y-100864678D03*
X196720000Y-124450000D03*
X200602263Y-100864678D03*
X193843090Y-101090000D03*
X196720000Y-125100000D03*
X192994645Y-120260000D03*
%TO.N,+2V5_ISO*%
X158420000Y-131960000D03*
X180326277Y-129913723D03*
X196120000Y-128120000D03*
%TO.N,Net-(IC10A-S)*%
X165019997Y-125860000D03*
X120802080Y-114530000D03*
%TO.N,+15V_ISO*%
X167950000Y-132187153D03*
X211590000Y-110238800D03*
X176410409Y-132435600D03*
%TO.N,Net-(IC1-VREFP)*%
X194423090Y-118800000D03*
X193900000Y-97450000D03*
%TO.N,USEL20#3*%
X167285000Y-108615000D03*
X167285000Y-124950000D03*
%TO.N,IN3P*%
X181630000Y-127550000D03*
X188600000Y-111790000D03*
X184680000Y-128100000D03*
X165669996Y-128000000D03*
X179020000Y-127550000D03*
%TO.N,USEL1#3*%
X167940000Y-124742591D03*
X168160000Y-108040000D03*
X161455000Y-126425600D03*
%TO.N,Net-(IC10B-S)*%
X159200000Y-128090000D03*
X127030000Y-117400000D03*
%TO.N,USEL100#3*%
X168469800Y-125348825D03*
X168266414Y-109155457D03*
%TO.N,Net-(K2C-COM)*%
X132273304Y-96000000D03*
X132830641Y-96535000D03*
X110485137Y-97970000D03*
X111030641Y-96900000D03*
X111030641Y-97970000D03*
X132830641Y-96000000D03*
X110469359Y-97435000D03*
X132285137Y-97070000D03*
X111030641Y-97435000D03*
X110473304Y-96900000D03*
X132269359Y-96535000D03*
X132830641Y-97070000D03*
%TO.N,~{RELAY_CS}*%
X168030000Y-93060000D03*
X215046200Y-110309362D03*
%TO.N,ISO_SCK*%
X172140000Y-105120000D03*
X167840000Y-94070000D03*
X211670000Y-114060000D03*
%TO.N,ISO_MOSI*%
X168013400Y-94700000D03*
X172669800Y-102409800D03*
X171742796Y-106516252D03*
X212870200Y-112420000D03*
%TO.N,ISO_MISO*%
X167950000Y-95380000D03*
X213175374Y-111745374D03*
X173520000Y-107500000D03*
%TO.N,/Isolated Ch#1\u002C Ch#2/ISEL#2*%
X138950000Y-98060000D03*
X163590000Y-91400000D03*
%TO.N,ISEL10#4*%
X173427849Y-129936359D03*
X141040000Y-131860000D03*
X175870000Y-97470000D03*
%TO.N,~{ISO_RESET}*%
X175520000Y-95230000D03*
X209150000Y-106440000D03*
X207898211Y-96379200D03*
X169250000Y-107410000D03*
X199780000Y-112590000D03*
%TO.N,USEL#1*%
X165210000Y-105070000D03*
X162520000Y-94180000D03*
%TO.N,Net-(K4B-COM)*%
X141430000Y-127200000D03*
X125600000Y-131300000D03*
X125600000Y-126200000D03*
X126200000Y-128000000D03*
X125600000Y-132500000D03*
X140830000Y-127200000D03*
X146830000Y-127200000D03*
X142630000Y-127200000D03*
X125600000Y-126800000D03*
X138430000Y-127200000D03*
X126200000Y-126200000D03*
X146230000Y-127200000D03*
X145030000Y-127200000D03*
X145630000Y-127200000D03*
X144430000Y-127200000D03*
X140230000Y-127200000D03*
X126200000Y-127400000D03*
X142030000Y-127200000D03*
X126200000Y-132500000D03*
X125600000Y-131900000D03*
X126200000Y-130700000D03*
X125600000Y-130700000D03*
X125600000Y-127400000D03*
X143830000Y-127200000D03*
X126200000Y-126800000D03*
X139630000Y-127200000D03*
X126200000Y-131900000D03*
X139030000Y-127200000D03*
X143230000Y-127200000D03*
X125600000Y-128000000D03*
X126200000Y-131300000D03*
%TO.N,Net-(D3-A)*%
X178480000Y-126940000D03*
X184920000Y-126940000D03*
%TO.N,/ADC\u002C IOexp\u002C LDOs/~{AFE_IOEXP_CS}*%
X173790000Y-109100000D03*
X209050000Y-97400000D03*
X211520000Y-117870000D03*
%TO.N,/ADC\u002C IOexp\u002C LDOs/~{AFE_IOEXP_INT}*%
X170640000Y-106710000D03*
X208520000Y-96890000D03*
X208650000Y-116080000D03*
%TO.N,ISEL_MID#4*%
X127720000Y-118410000D03*
X168180000Y-127460000D03*
X168370000Y-111030000D03*
%TO.N,Net-(IC12B-S)*%
X169305000Y-127395000D03*
X157300000Y-122300000D03*
%TO.N,ISEL_LOW#4*%
X174890000Y-112560000D03*
X174673203Y-128600000D03*
%TO.N,IN4P*%
X184350000Y-121871600D03*
X174005407Y-131420000D03*
X188600000Y-111000000D03*
X171400000Y-131410000D03*
X181630000Y-124420000D03*
X179060000Y-124410000D03*
%TO.N,Net-(D10-A)*%
X178370000Y-124980000D03*
X182990000Y-124870000D03*
%TO.N,/Isolated Ch#1\u002C Ch#2/AIN2N*%
X109400000Y-105633333D03*
X110086690Y-109415756D03*
X111486690Y-109415756D03*
X109400000Y-106266667D03*
X109400000Y-105000000D03*
X109400000Y-106900000D03*
X109386690Y-109415756D03*
X110800000Y-108800000D03*
X109400000Y-108800000D03*
X109400000Y-107533333D03*
X111500000Y-108800000D03*
X109400000Y-108166667D03*
X110100000Y-108800000D03*
X110786690Y-109415756D03*
%TO.N,/ADC\u002C IOexp\u002C LDOs/ISO_AFE_MOSI*%
X209140000Y-115310000D03*
X202234992Y-113464135D03*
%TO.N,/ADC\u002C IOexp\u002C LDOs/~{ADC_CS}*%
X208580000Y-112810000D03*
X199958126Y-111083095D03*
%TO.N,/ADC\u002C IOexp\u002C LDOs/~{ISO_AFE_DRDY}*%
X209760000Y-119580000D03*
X203860000Y-107680000D03*
%TO.N,/ADC\u002C IOexp\u002C LDOs/ISO_AFE_SCK*%
X209140200Y-114048800D03*
X199970000Y-110430000D03*
%TO.N,/ADC\u002C IOexp\u002C LDOs/ISO_AFE_MISO*%
X200010000Y-108930000D03*
X209301339Y-116129313D03*
%TD*%
%TO.N,AIN4N*%
D15*
X127324800Y-133495200D02*
X114565200Y-133495200D01*
X128030000Y-132770000D02*
X128030000Y-132270000D01*
X128030000Y-132790000D02*
X127324800Y-133495200D01*
X113670000Y-132600000D02*
X110800000Y-132600000D01*
X114565200Y-133495200D02*
X113670000Y-132600000D01*
%TO.N,Net-(K3B-NC)*%
D16*
X148300000Y-124550000D02*
X149100000Y-125350000D01*
X116670000Y-119890000D02*
X121330000Y-124550000D01*
X113870000Y-119880000D02*
X113880000Y-119890000D01*
X121330000Y-124550000D02*
X148300000Y-124550000D01*
X113880000Y-119890000D02*
X116670000Y-119890000D01*
X149100000Y-125350000D02*
X149100000Y-128400000D01*
%TO.N,/Isolated Ch#1\u002C Ch#2/AIN1N*%
D17*
X98615000Y-100360000D02*
X97000000Y-101975000D01*
X137280000Y-100360000D02*
X98615000Y-100360000D01*
%TO.N,Net-(IC12C-D)*%
D18*
X160316953Y-132716953D02*
X169450130Y-132716953D01*
X169450130Y-132716953D02*
X170746878Y-131420205D01*
X159200000Y-131600000D02*
X160316953Y-132716953D01*
%TO.N,-2V5_ISO*%
D17*
X148020000Y-126060000D02*
X148020000Y-128890000D01*
X177466133Y-129290000D02*
X177480000Y-129276133D01*
D19*
X192787000Y-130050000D02*
X181603867Y-130050000D01*
X180830000Y-129276133D02*
X177543867Y-129276133D01*
D17*
X147480000Y-125520000D02*
X148020000Y-126060000D01*
X173390000Y-128620000D02*
X174060000Y-129290000D01*
D19*
X181603867Y-130050000D02*
X180830000Y-129276133D01*
D17*
X148020000Y-128890000D02*
X148420000Y-129290000D01*
D19*
X192800000Y-130037000D02*
X192787000Y-130050000D01*
D17*
X160720000Y-128620000D02*
X173390000Y-128620000D01*
X148420000Y-129290000D02*
X160050000Y-129290000D01*
D19*
X205600000Y-97720000D02*
X205590000Y-97720000D01*
D17*
X160050000Y-129290000D02*
X160720000Y-128620000D01*
X137390000Y-125520000D02*
X147480000Y-125520000D01*
X174060000Y-129290000D02*
X177466133Y-129290000D01*
%TO.N,Net-(OK2-S2)*%
D18*
X132280000Y-113300000D02*
X134290000Y-115310000D01*
X134290000Y-115310000D02*
X134290000Y-119630000D01*
X134290000Y-119630000D02*
X135200000Y-120540000D01*
X160760000Y-120540000D02*
X161330000Y-121110000D01*
X135200000Y-120540000D02*
X160760000Y-120540000D01*
X104730000Y-113300000D02*
X132280000Y-113300000D01*
%TO.N,Net-(IC8-INP)*%
D17*
X146900000Y-103050000D02*
X147130000Y-103280000D01*
X146900000Y-93120000D02*
X146900000Y-103050000D01*
X146900000Y-93120000D02*
X145470000Y-91690000D01*
X145470000Y-91690000D02*
X124910000Y-91690000D01*
%TO.N,IN1P*%
D18*
X178200000Y-113670000D02*
X178200000Y-114455575D01*
X178200000Y-114455575D02*
X179549768Y-115805343D01*
%TO.N,DIAG#1*%
X171040000Y-112050000D02*
X166480000Y-112050000D01*
X166480000Y-112050000D02*
X162420000Y-107990000D01*
X162420000Y-100700000D02*
X162420000Y-107990000D01*
%TO.N,ISEL#4*%
D17*
X167060000Y-129330000D02*
X173120000Y-129330000D01*
X151630000Y-131880000D02*
X155700000Y-131880000D01*
X166060395Y-130329605D02*
X167060000Y-129330000D01*
X155700000Y-131880000D02*
X157250395Y-130329605D01*
X157250395Y-130329605D02*
X166060395Y-130329605D01*
X173120000Y-129330000D02*
X173140000Y-129350000D01*
%TO.N,IN2N*%
D18*
X178470000Y-111990000D02*
X178480000Y-112000000D01*
X178470000Y-111868600D02*
X178470000Y-111990000D01*
X176018902Y-114004388D02*
X178154690Y-111868600D01*
X178154690Y-111868600D02*
X178470000Y-111868600D01*
X176018902Y-114178902D02*
X176018902Y-114004388D01*
%TO.N,IN2P*%
X175695612Y-113681098D02*
X177965310Y-111411400D01*
X175521098Y-113681098D02*
X175695612Y-113681098D01*
X177965310Y-111411400D02*
X178735825Y-111411400D01*
X178735825Y-111411400D02*
X179549768Y-112225343D01*
%TO.N,DIAG#2*%
X171693189Y-112054114D02*
X171693189Y-112146062D01*
X165490000Y-111870000D02*
X162460000Y-111870000D01*
X171693189Y-112146062D02*
X171259451Y-112579800D01*
X171259451Y-112579800D02*
X166199800Y-112579800D01*
X166199800Y-112579800D02*
X165490000Y-111870000D01*
%TO.N,+2V5_ISO*%
D17*
X180326277Y-129913723D02*
X176980000Y-133260000D01*
D19*
X181813954Y-131401400D02*
X180326277Y-129913723D01*
X196120000Y-128120000D02*
X192838600Y-131401400D01*
D17*
X159720000Y-133260000D02*
X158420000Y-131960000D01*
X176980000Y-133260000D02*
X159720000Y-133260000D01*
D19*
X192838600Y-131401400D02*
X181813954Y-131401400D01*
%TO.N,IN3N*%
D18*
X129563100Y-116640000D02*
X129700000Y-116776900D01*
D19*
X129266900Y-117210000D02*
X129700000Y-116776900D01*
D18*
X97575000Y-116640000D02*
X129563100Y-116640000D01*
D19*
X97000000Y-117215000D02*
X97005000Y-117210000D01*
D18*
X97005000Y-117210000D02*
X97575000Y-116640000D01*
%TO.N,Net-(IC10A-S)*%
X160080000Y-121460000D02*
X164480000Y-125860000D01*
X134680000Y-121460000D02*
X160080000Y-121460000D01*
X133220000Y-115990000D02*
X133220000Y-120000000D01*
X131760000Y-114530000D02*
X133220000Y-115990000D01*
X164480000Y-125860000D02*
X165019997Y-125860000D01*
X133220000Y-120000000D02*
X134680000Y-121460000D01*
X120802080Y-114530000D02*
X131760000Y-114530000D01*
%TO.N,Net-(IC1-VREFP)*%
D17*
X193900000Y-97450000D02*
X193870000Y-97480000D01*
X190220000Y-116630000D02*
X191480000Y-117890000D01*
X192220000Y-97480000D02*
X190220000Y-99480000D01*
X190220000Y-99480000D02*
X190220000Y-116630000D01*
X193513090Y-117890000D02*
X194423090Y-118800000D01*
X191480000Y-117890000D02*
X193513090Y-117890000D01*
X193870000Y-97480000D02*
X192220000Y-97480000D01*
%TO.N,IN3P*%
D18*
X173270375Y-128000000D02*
X173720375Y-127550000D01*
X173720375Y-127550000D02*
X179020000Y-127550000D01*
X179020000Y-127550000D02*
X181630000Y-127550000D01*
X184130000Y-127550000D02*
X184680000Y-128100000D01*
X165669996Y-128000000D02*
X173270375Y-128000000D01*
X181630000Y-127550000D02*
X184130000Y-127550000D01*
%TO.N,USEL1#3*%
X167940000Y-125370000D02*
X167940000Y-124742591D01*
X161455000Y-126425600D02*
X161478220Y-126402380D01*
X161478220Y-126402380D02*
X166907620Y-126402380D01*
X166907620Y-126402380D02*
X167940000Y-125370000D01*
%TO.N,Net-(IC10B-S)*%
X153950200Y-122840200D02*
X159200000Y-128090000D01*
X130250200Y-122840200D02*
X153950200Y-122840200D01*
X127030000Y-119620000D02*
X130250200Y-122840200D01*
X127030000Y-117400000D02*
X127030000Y-119620000D01*
%TO.N,Net-(K2C-COM)*%
D20*
X111150000Y-96450000D02*
X110800000Y-96800000D01*
X132220000Y-96450000D02*
X111150000Y-96450000D01*
%TO.N,AIN4P*%
D19*
X97003650Y-121630999D02*
X97452750Y-121630999D01*
%TO.N,~{RELAY_CS}*%
D18*
X215046200Y-98226200D02*
X208180200Y-91360200D01*
X208180200Y-91360200D02*
X169729800Y-91360200D01*
X215046200Y-110309362D02*
X215046200Y-98226200D01*
X169729800Y-91360200D02*
X168030000Y-93060000D01*
%TO.N,ISO_SCK*%
X178579451Y-92419800D02*
X169490200Y-92419800D01*
X214516400Y-111933600D02*
X214516400Y-110089911D01*
X169490200Y-92419800D02*
X167840000Y-94070000D01*
X178855651Y-92143600D02*
X178579451Y-92419800D01*
X214639800Y-109966511D02*
X214639800Y-98440328D01*
X214639800Y-98440328D02*
X208343072Y-92143600D01*
X212390000Y-114060000D02*
X214516400Y-111933600D01*
X214516400Y-110089911D02*
X214639800Y-109966511D01*
X211670000Y-114060000D02*
X212390000Y-114060000D01*
X208343072Y-92143600D02*
X178855651Y-92143600D01*
%TO.N,ISO_MOSI*%
X179040000Y-92550000D02*
X178760000Y-92830000D01*
X214233400Y-98608664D02*
X208174736Y-92550000D01*
X214103600Y-111566400D02*
X214103600Y-109927975D01*
X169883400Y-92830000D02*
X168013400Y-94700000D01*
X212870200Y-112420000D02*
X213250000Y-112420000D01*
X208174736Y-92550000D02*
X179040000Y-92550000D01*
X214103600Y-109927975D02*
X214233400Y-109798175D01*
X171753748Y-106516252D02*
X171742796Y-106516252D01*
X214233400Y-109798175D02*
X214233400Y-98608664D01*
X213250000Y-112420000D02*
X214103600Y-111566400D01*
X172669800Y-102409800D02*
X172669800Y-105600200D01*
X178760000Y-92830000D02*
X169883400Y-92830000D01*
X172669800Y-105600200D02*
X171753748Y-106516252D01*
%TO.N,ISO_MISO*%
X179200000Y-92980000D02*
X178930000Y-93250000D01*
X168082651Y-95380000D02*
X167950000Y-95380000D01*
X170212651Y-93250000D02*
X168082651Y-95380000D01*
X211710000Y-96660000D02*
X208030000Y-92980000D01*
X213175374Y-111745374D02*
X213190000Y-111730748D01*
X213190000Y-111730748D02*
X213190000Y-103860000D01*
X213190000Y-103860000D02*
X211710000Y-102380000D01*
X211710000Y-102380000D02*
X211710000Y-96660000D01*
X208030000Y-92980000D02*
X179200000Y-92980000D01*
X178930000Y-93250000D02*
X170212651Y-93250000D01*
%TO.N,ISEL10#4*%
D17*
X168190395Y-130839605D02*
X168469400Y-130560600D01*
X141950000Y-132770000D02*
X155538907Y-132770000D01*
X155538907Y-132770000D02*
X157469302Y-130839605D01*
X172803608Y-130560600D02*
X173427849Y-129936359D01*
X141040000Y-131860000D02*
X141950000Y-132770000D01*
X168469400Y-130560600D02*
X172803608Y-130560600D01*
X157469302Y-130839605D02*
X168190395Y-130839605D01*
%TO.N,~{ISO_RESET}*%
D18*
X199428326Y-112238326D02*
X199780000Y-112590000D01*
X169860000Y-100890000D02*
X169860000Y-106800000D01*
X207898211Y-96379200D02*
X206449200Y-96379200D01*
X175520000Y-95230000D02*
X169860000Y-100890000D01*
X175969800Y-94780200D02*
X175520000Y-95230000D01*
X169860000Y-106800000D02*
X169250000Y-107410000D01*
X199428326Y-108261674D02*
X199428326Y-112238326D01*
X204850200Y-94780200D02*
X175969800Y-94780200D01*
X201250000Y-106440000D02*
X199428326Y-108261674D01*
X209150000Y-106440000D02*
X201250000Y-106440000D01*
X206449200Y-96379200D02*
X204850200Y-94780200D01*
%TO.N,USEL#1*%
X162520000Y-94180000D02*
X165210000Y-96870000D01*
X165210000Y-96870000D02*
X165210000Y-105070000D01*
%TO.N,Net-(D3-A)*%
D21*
X184920000Y-126940000D02*
X178480000Y-126940000D01*
%TO.N,/ADC\u002C IOexp\u002C LDOs/~{AFE_IOEXP_CS}*%
D18*
X173790000Y-109100000D02*
X174049800Y-108840200D01*
X174049800Y-103330200D02*
X181750000Y-95630000D01*
X206290000Y-97400000D02*
X209050000Y-97400000D01*
X174049800Y-108840200D02*
X174049800Y-103330200D01*
X204520000Y-95630000D02*
X206290000Y-97400000D01*
X181750000Y-95630000D02*
X204520000Y-95630000D01*
%TO.N,/ADC\u002C IOexp\u002C LDOs/~{AFE_IOEXP_INT}*%
X170640000Y-106710000D02*
X170640000Y-101040000D01*
X206369800Y-96890000D02*
X208520000Y-96890000D01*
X170640000Y-101040000D02*
X176460000Y-95220000D01*
X204699800Y-95220000D02*
X206369800Y-96890000D01*
X176460000Y-95220000D02*
X204699800Y-95220000D01*
%TO.N,ISEL_MID#4*%
X130750000Y-122260000D02*
X153950000Y-122260000D01*
X127720000Y-118410000D02*
X127720000Y-119230000D01*
X127720000Y-119230000D02*
X130750000Y-122260000D01*
X159150000Y-127460000D02*
X168180000Y-127460000D01*
X153950000Y-122260000D02*
X159150000Y-127460000D01*
%TO.N,Net-(IC12B-S)*%
X157300000Y-123700000D02*
X157300000Y-122300000D01*
X169305000Y-127395000D02*
X168840000Y-126930000D01*
X168840000Y-126930000D02*
X160530000Y-126930000D01*
X160530000Y-126930000D02*
X157300000Y-123700000D01*
%TO.N,IN4P*%
X181620000Y-124410000D02*
X181630000Y-124420000D01*
X173995407Y-131410000D02*
X174005407Y-131420000D01*
X188470000Y-111000000D02*
X188600000Y-111000000D01*
X171400000Y-131410000D02*
X173995407Y-131410000D01*
%TO.N,/ADC\u002C IOexp\u002C LDOs/ISO_AFE_MOSI*%
X209140000Y-115310000D02*
X204080857Y-115310000D01*
X204080857Y-115310000D02*
X202234992Y-113464135D01*
%TO.N,/ADC\u002C IOexp\u002C LDOs/~{ADC_CS}*%
X200011221Y-111030000D02*
X199958126Y-111083095D01*
X207100000Y-111030000D02*
X200011221Y-111030000D01*
X208580000Y-112810000D02*
X208580000Y-112510000D01*
X208580000Y-112510000D02*
X207100000Y-111030000D01*
%TO.N,/ADC\u002C IOexp\u002C LDOs/~{ISO_AFE_DRDY}*%
X210060000Y-119280000D02*
X210060000Y-109190000D01*
X209160000Y-108290000D02*
X204470000Y-108290000D01*
X210060000Y-109190000D02*
X209160000Y-108290000D01*
X204470000Y-108290000D02*
X203860000Y-107680000D01*
X209760000Y-119580000D02*
X210060000Y-119280000D01*
%TO.N,/ADC\u002C IOexp\u002C LDOs/ISO_AFE_SCK*%
X207110000Y-110430000D02*
X209140200Y-112460200D01*
X199970000Y-110430000D02*
X207110000Y-110430000D01*
X209140200Y-112460200D02*
X209140200Y-114048800D01*
%TO.N,/ADC\u002C IOexp\u002C LDOs/ISO_AFE_MISO*%
X209301339Y-116129313D02*
X209540687Y-116129313D01*
X206341850Y-108930000D02*
X200010000Y-108930000D01*
X209540687Y-116129313D02*
X209670000Y-116000000D01*
X209670000Y-112258150D02*
X206341850Y-108930000D01*
X209670000Y-116000000D02*
X209670000Y-112258150D01*
%TD*%
%TA.AperFunction,Conductor*%
%TO.N,Net-(K2C-COM)*%
G36*
X132896883Y-95700643D02*
G01*
X132915585Y-95703105D01*
X133013668Y-95716018D01*
X133032621Y-95721096D01*
X133136857Y-95764272D01*
X133153852Y-95774084D01*
X133198605Y-95808424D01*
X133243355Y-95842763D01*
X133257236Y-95856644D01*
X133325913Y-95946144D01*
X133335729Y-95963145D01*
X133378901Y-96067372D01*
X133383982Y-96086334D01*
X133399357Y-96203116D01*
X133400000Y-96212932D01*
X133400000Y-98587067D01*
X133399357Y-98596882D01*
X133399357Y-98596883D01*
X133383982Y-98713665D01*
X133378901Y-98732627D01*
X133335729Y-98836854D01*
X133325913Y-98853855D01*
X133257236Y-98943355D01*
X133243355Y-98957236D01*
X133153855Y-99025913D01*
X133136854Y-99035729D01*
X133032627Y-99078901D01*
X133013665Y-99083982D01*
X132896884Y-99099357D01*
X132887068Y-99100000D01*
X132212932Y-99100000D01*
X132203116Y-99099357D01*
X132086334Y-99083982D01*
X132067372Y-99078901D01*
X131963145Y-99035729D01*
X131946144Y-99025913D01*
X131856644Y-98957236D01*
X131842763Y-98943355D01*
X131774086Y-98853855D01*
X131764272Y-98836857D01*
X131721096Y-98732621D01*
X131716018Y-98713668D01*
X131700643Y-98596882D01*
X131700000Y-98587067D01*
X131700000Y-96212932D01*
X131700643Y-96203117D01*
X131702758Y-96187048D01*
X131716018Y-96086329D01*
X131721095Y-96067380D01*
X131764273Y-95963138D01*
X131774082Y-95946150D01*
X131842764Y-95856642D01*
X131856644Y-95842763D01*
X131946150Y-95774082D01*
X131963138Y-95764273D01*
X132067380Y-95721095D01*
X132086329Y-95716018D01*
X132187048Y-95702758D01*
X132203117Y-95700643D01*
X132212932Y-95700000D01*
X132887068Y-95700000D01*
X132896883Y-95700643D01*
G37*
%TD.AperFunction*%
%TD*%
%TA.AperFunction,Conductor*%
%TO.N,Net-(K2C-COM)*%
G36*
X111096883Y-96300643D02*
G01*
X111115585Y-96303105D01*
X111213668Y-96316018D01*
X111232621Y-96321096D01*
X111336857Y-96364272D01*
X111353852Y-96374084D01*
X111398605Y-96408424D01*
X111443355Y-96442763D01*
X111457236Y-96456644D01*
X111525913Y-96546144D01*
X111535729Y-96563145D01*
X111578901Y-96667372D01*
X111583982Y-96686334D01*
X111599357Y-96803116D01*
X111600000Y-96812932D01*
X111600000Y-97787067D01*
X111599357Y-97796882D01*
X111599357Y-97796883D01*
X111583982Y-97913665D01*
X111578901Y-97932627D01*
X111535729Y-98036854D01*
X111525913Y-98053855D01*
X111457236Y-98143355D01*
X111443355Y-98157236D01*
X111353855Y-98225913D01*
X111336854Y-98235729D01*
X111232627Y-98278901D01*
X111213665Y-98283982D01*
X111096884Y-98299357D01*
X111087068Y-98300000D01*
X110412932Y-98300000D01*
X110403116Y-98299357D01*
X110286334Y-98283982D01*
X110267372Y-98278901D01*
X110163145Y-98235729D01*
X110146144Y-98225913D01*
X110056644Y-98157236D01*
X110042763Y-98143355D01*
X109974086Y-98053855D01*
X109964272Y-98036857D01*
X109921096Y-97932621D01*
X109916018Y-97913668D01*
X109900643Y-97796882D01*
X109900000Y-97787067D01*
X109900000Y-96812932D01*
X109900643Y-96803117D01*
X109902758Y-96787048D01*
X109916018Y-96686329D01*
X109921095Y-96667380D01*
X109964273Y-96563138D01*
X109974082Y-96546150D01*
X110042764Y-96456642D01*
X110056644Y-96442763D01*
X110146150Y-96374082D01*
X110163138Y-96364273D01*
X110267380Y-96321095D01*
X110286329Y-96316018D01*
X110387048Y-96302758D01*
X110403117Y-96300643D01*
X110412932Y-96300000D01*
X111087068Y-96300000D01*
X111096883Y-96300643D01*
G37*
%TD.AperFunction*%
%TD*%
%TA.AperFunction,Conductor*%
%TO.N,Net-(K1B-COM)*%
G36*
X133096883Y-101200643D02*
G01*
X133115585Y-101203105D01*
X133213668Y-101216018D01*
X133232621Y-101221096D01*
X133336857Y-101264272D01*
X133353852Y-101274084D01*
X133398605Y-101308424D01*
X133443355Y-101342763D01*
X133457236Y-101356644D01*
X133525913Y-101446144D01*
X133535729Y-101463145D01*
X133578901Y-101567372D01*
X133583982Y-101586334D01*
X133599357Y-101703116D01*
X133600000Y-101712932D01*
X133600000Y-109287067D01*
X133599357Y-109296882D01*
X133599357Y-109296883D01*
X133583982Y-109413665D01*
X133578901Y-109432627D01*
X133535729Y-109536854D01*
X133525913Y-109553855D01*
X133457236Y-109643355D01*
X133443355Y-109657236D01*
X133353855Y-109725913D01*
X133336854Y-109735729D01*
X133232627Y-109778901D01*
X133213665Y-109783982D01*
X133096884Y-109799357D01*
X133087068Y-109800000D01*
X115912932Y-109800000D01*
X115903116Y-109799357D01*
X115786334Y-109783982D01*
X115767372Y-109778901D01*
X115663145Y-109735729D01*
X115646144Y-109725913D01*
X115556644Y-109657236D01*
X115542763Y-109643355D01*
X115474086Y-109553855D01*
X115464272Y-109536857D01*
X115421096Y-109432621D01*
X115416018Y-109413668D01*
X115400643Y-109296882D01*
X115400000Y-109287067D01*
X115400000Y-101712932D01*
X115400643Y-101703117D01*
X115402758Y-101687048D01*
X115416018Y-101586329D01*
X115421095Y-101567380D01*
X115464273Y-101463138D01*
X115474082Y-101446150D01*
X115542764Y-101356642D01*
X115556644Y-101342763D01*
X115646150Y-101274082D01*
X115663138Y-101264273D01*
X115767380Y-101221095D01*
X115786329Y-101216018D01*
X115887048Y-101202758D01*
X115903117Y-101200643D01*
X115912932Y-101200000D01*
X133087068Y-101200000D01*
X133096883Y-101200643D01*
G37*
%TD.AperFunction*%
%TD*%
%TA.AperFunction,Conductor*%
%TO.N,/ADC\u002C IOexp\u002C LDOs/AVSS*%
G36*
X200596883Y-96500643D02*
G01*
X200615585Y-96503105D01*
X200713668Y-96516018D01*
X200732621Y-96521096D01*
X200836857Y-96564272D01*
X200853852Y-96574084D01*
X200898605Y-96608424D01*
X200943355Y-96642763D01*
X200957236Y-96656644D01*
X201025913Y-96746144D01*
X201035729Y-96763145D01*
X201078901Y-96867372D01*
X201083982Y-96886334D01*
X201099357Y-97003116D01*
X201100000Y-97012932D01*
X201100000Y-99108015D01*
X201082407Y-99156353D01*
X201037858Y-99182073D01*
X200987200Y-99173140D01*
X200959675Y-99145615D01*
X200905308Y-99051449D01*
X200825491Y-98971632D01*
X200727735Y-98915193D01*
X200710276Y-98910515D01*
X200618702Y-98885978D01*
X200505824Y-98885978D01*
X200396791Y-98915193D01*
X200396789Y-98915193D01*
X200299034Y-98971632D01*
X200219217Y-99051449D01*
X200162778Y-99149204D01*
X200162778Y-99149206D01*
X200133563Y-99258239D01*
X200133563Y-99371117D01*
X200161525Y-99475472D01*
X200162778Y-99480149D01*
X200162778Y-99480151D01*
X200219217Y-99577906D01*
X200299034Y-99657723D01*
X200355474Y-99690308D01*
X200396791Y-99714163D01*
X200505824Y-99743378D01*
X200505827Y-99743378D01*
X200618699Y-99743378D01*
X200618702Y-99743378D01*
X200727735Y-99714163D01*
X200825491Y-99657723D01*
X200905308Y-99577906D01*
X200959675Y-99483739D01*
X200999080Y-99450675D01*
X201050520Y-99450675D01*
X201089925Y-99483740D01*
X201100000Y-99521340D01*
X201100000Y-100588733D01*
X201082407Y-100637071D01*
X201037858Y-100662791D01*
X200987200Y-100653858D01*
X200959675Y-100626333D01*
X200945308Y-100601449D01*
X200865491Y-100521632D01*
X200767735Y-100465193D01*
X200658702Y-100435978D01*
X200545824Y-100435978D01*
X200436791Y-100465193D01*
X200436789Y-100465193D01*
X200339034Y-100521632D01*
X200259217Y-100601449D01*
X200202778Y-100699204D01*
X200202778Y-100699206D01*
X200173563Y-100808239D01*
X200173563Y-100921117D01*
X200202778Y-101030149D01*
X200202778Y-101030151D01*
X200259217Y-101127906D01*
X200339034Y-101207723D01*
X200395474Y-101240308D01*
X200436791Y-101264163D01*
X200545824Y-101293378D01*
X200545827Y-101293378D01*
X200658699Y-101293378D01*
X200658702Y-101293378D01*
X200767735Y-101264163D01*
X200865491Y-101207723D01*
X200945308Y-101127906D01*
X200959676Y-101103021D01*
X200999079Y-101069957D01*
X201050519Y-101069957D01*
X201089925Y-101103021D01*
X201100000Y-101140622D01*
X201100000Y-103167555D01*
X201082407Y-103215893D01*
X201044264Y-103240192D01*
X200990721Y-103254539D01*
X200990719Y-103254539D01*
X200892964Y-103310978D01*
X200813147Y-103390795D01*
X200756708Y-103488550D01*
X200756708Y-103488552D01*
X200727493Y-103597585D01*
X200727493Y-103710463D01*
X200756708Y-103819495D01*
X200756708Y-103819497D01*
X200813147Y-103917252D01*
X200892964Y-103997069D01*
X200990719Y-104053508D01*
X200990721Y-104053509D01*
X201044264Y-104067855D01*
X201086399Y-104097358D01*
X201100000Y-104140492D01*
X201100000Y-106130656D01*
X201082407Y-106178994D01*
X201066305Y-106192505D01*
X201066453Y-106192698D01*
X201062540Y-106195700D01*
X199184025Y-108074214D01*
X199143835Y-108143825D01*
X199143832Y-108143833D01*
X199123026Y-108221481D01*
X199123026Y-108221483D01*
X199123026Y-112278519D01*
X199130649Y-112306968D01*
X199130649Y-112306970D01*
X199130650Y-112306970D01*
X199143832Y-112356168D01*
X199184024Y-112425783D01*
X199184025Y-112425784D01*
X199184026Y-112425785D01*
X199329274Y-112571033D01*
X199351014Y-112617653D01*
X199351300Y-112624207D01*
X199351300Y-112646439D01*
X199380515Y-112755471D01*
X199380515Y-112755473D01*
X199436954Y-112853228D01*
X199516771Y-112933045D01*
X199573211Y-112965630D01*
X199614528Y-112989485D01*
X199723561Y-113018700D01*
X199723564Y-113018700D01*
X199836436Y-113018700D01*
X199836439Y-113018700D01*
X199945472Y-112989485D01*
X200043228Y-112933045D01*
X200123045Y-112853228D01*
X200179485Y-112755472D01*
X200208700Y-112646439D01*
X200208700Y-112533561D01*
X200179485Y-112424528D01*
X200140017Y-112356168D01*
X200123045Y-112326771D01*
X200043228Y-112246954D01*
X199945472Y-112190515D01*
X199836439Y-112161300D01*
X199836436Y-112161300D01*
X199814207Y-112161300D01*
X199798779Y-112155684D01*
X199782426Y-112154254D01*
X199768981Y-112144839D01*
X199765869Y-112143707D01*
X199761033Y-112139274D01*
X199755652Y-112133893D01*
X199733912Y-112087273D01*
X199733626Y-112080719D01*
X199733626Y-111564765D01*
X199751219Y-111516427D01*
X199795768Y-111490707D01*
X199828283Y-111492126D01*
X199901687Y-111511795D01*
X199901691Y-111511795D01*
X200014562Y-111511795D01*
X200014565Y-111511795D01*
X200123598Y-111482580D01*
X200221354Y-111426140D01*
X200250052Y-111397442D01*
X200290169Y-111357326D01*
X200336789Y-111335586D01*
X200343343Y-111335300D01*
X201024800Y-111335300D01*
X201073138Y-111352893D01*
X201098858Y-111397442D01*
X201100000Y-111410500D01*
X201100000Y-120684647D01*
X201099357Y-120694463D01*
X201083982Y-120811245D01*
X201078901Y-120830207D01*
X201035729Y-120934434D01*
X201025913Y-120951435D01*
X200954207Y-121044883D01*
X200947721Y-121052278D01*
X198900000Y-123099999D01*
X198900000Y-130087067D01*
X198899357Y-130096883D01*
X198883982Y-130213665D01*
X198878901Y-130232627D01*
X198835729Y-130336854D01*
X198825913Y-130353855D01*
X198757236Y-130443355D01*
X198743355Y-130457236D01*
X198653855Y-130525913D01*
X198636854Y-130535729D01*
X198532627Y-130578901D01*
X198513665Y-130583982D01*
X198396884Y-130599357D01*
X198387068Y-130600000D01*
X196078118Y-130600000D01*
X196063447Y-130598555D01*
X196020053Y-130589923D01*
X195992945Y-130578694D01*
X195962437Y-130558309D01*
X195941690Y-130537562D01*
X195921305Y-130507054D01*
X195910076Y-130479945D01*
X195901445Y-130436552D01*
X195900000Y-130421882D01*
X195900000Y-128946590D01*
X195917593Y-128898252D01*
X195922026Y-128893416D01*
X196102536Y-128712906D01*
X196303283Y-128512158D01*
X196318848Y-128500214D01*
X196383228Y-128463045D01*
X196463045Y-128383228D01*
X196519485Y-128285472D01*
X196548700Y-128176439D01*
X196548700Y-128063561D01*
X196519485Y-127954528D01*
X196505160Y-127929717D01*
X196463045Y-127856771D01*
X196383228Y-127776954D01*
X196285472Y-127720515D01*
X196176439Y-127691300D01*
X196063561Y-127691300D01*
X196027153Y-127701055D01*
X195994662Y-127709761D01*
X195943418Y-127705277D01*
X195907045Y-127668903D01*
X195900000Y-127637123D01*
X195900000Y-126100000D01*
X195392000Y-126100000D01*
X191112932Y-126100000D01*
X191103116Y-126099357D01*
X190986334Y-126083982D01*
X190967372Y-126078901D01*
X190863145Y-126035729D01*
X190846144Y-126025913D01*
X190756644Y-125957236D01*
X190742763Y-125943355D01*
X190674086Y-125853855D01*
X190664272Y-125836857D01*
X190621096Y-125732621D01*
X190616018Y-125713668D01*
X190600643Y-125596882D01*
X190600000Y-125587067D01*
X190600000Y-124393561D01*
X196291300Y-124393561D01*
X196291300Y-124506439D01*
X196320515Y-124615471D01*
X196320515Y-124615473D01*
X196376954Y-124713228D01*
X196385552Y-124721826D01*
X196407292Y-124768446D01*
X196393978Y-124818133D01*
X196385552Y-124828174D01*
X196376954Y-124836771D01*
X196320515Y-124934526D01*
X196320515Y-124934528D01*
X196291300Y-125043561D01*
X196291300Y-125156439D01*
X196320515Y-125265471D01*
X196320515Y-125265473D01*
X196376954Y-125363228D01*
X196456771Y-125443045D01*
X196513211Y-125475630D01*
X196554528Y-125499485D01*
X196663561Y-125528700D01*
X196663564Y-125528700D01*
X196776436Y-125528700D01*
X196776439Y-125528700D01*
X196885472Y-125499485D01*
X196983228Y-125443045D01*
X197063045Y-125363228D01*
X197119485Y-125265472D01*
X197148700Y-125156439D01*
X197148700Y-125043561D01*
X197119485Y-124934528D01*
X197119484Y-124934526D01*
X197063047Y-124836774D01*
X197063044Y-124836771D01*
X197054448Y-124828175D01*
X197032707Y-124781557D01*
X197046019Y-124731870D01*
X197054443Y-124721829D01*
X197063045Y-124713228D01*
X197119485Y-124615472D01*
X197148700Y-124506439D01*
X197148700Y-124393561D01*
X197119485Y-124284528D01*
X197119484Y-124284526D01*
X197063045Y-124186771D01*
X196983228Y-124106954D01*
X196885472Y-124050515D01*
X196776439Y-124021300D01*
X196663561Y-124021300D01*
X196554528Y-124050515D01*
X196554526Y-124050515D01*
X196456771Y-124106954D01*
X196376954Y-124186771D01*
X196320515Y-124284526D01*
X196320515Y-124284528D01*
X196291300Y-124393561D01*
X190600000Y-124393561D01*
X190600000Y-120203561D01*
X192565945Y-120203561D01*
X192565945Y-120316439D01*
X192595160Y-120425471D01*
X192595160Y-120425473D01*
X192651599Y-120523228D01*
X192731416Y-120603045D01*
X192787856Y-120635630D01*
X192829173Y-120659485D01*
X192938206Y-120688700D01*
X192938209Y-120688700D01*
X193051081Y-120688700D01*
X193051084Y-120688700D01*
X193160117Y-120659485D01*
X193257873Y-120603045D01*
X193337690Y-120523228D01*
X193394130Y-120425472D01*
X193423345Y-120316439D01*
X193423345Y-120203561D01*
X193394130Y-120094528D01*
X193394129Y-120094526D01*
X193337690Y-119996771D01*
X193257873Y-119916954D01*
X193160117Y-119860515D01*
X193051084Y-119831300D01*
X192938206Y-119831300D01*
X192829173Y-119860515D01*
X192829171Y-119860515D01*
X192731416Y-119916954D01*
X192651599Y-119996771D01*
X192595160Y-120094526D01*
X192595160Y-120094528D01*
X192565945Y-120203561D01*
X190600000Y-120203561D01*
X190600000Y-117695150D01*
X190617593Y-117646812D01*
X190662142Y-117621092D01*
X190712800Y-117630025D01*
X190728374Y-117641976D01*
X191195049Y-118108651D01*
X191261349Y-118174951D01*
X191261350Y-118174952D01*
X191342542Y-118221829D01*
X191342546Y-118221831D01*
X191342550Y-118221833D01*
X191433119Y-118246100D01*
X192837602Y-118246100D01*
X192885940Y-118263693D01*
X192911660Y-118308242D01*
X192902727Y-118358900D01*
X192863322Y-118391965D01*
X192857070Y-118393936D01*
X192832518Y-118400515D01*
X192832516Y-118400515D01*
X192734761Y-118456954D01*
X192654944Y-118536771D01*
X192598505Y-118634526D01*
X192598505Y-118634528D01*
X192569290Y-118743561D01*
X192569290Y-118856439D01*
X192598505Y-118965471D01*
X192598505Y-118965473D01*
X192654944Y-119063228D01*
X192734761Y-119143045D01*
X192791201Y-119175630D01*
X192832518Y-119199485D01*
X192941551Y-119228700D01*
X192941554Y-119228700D01*
X193054426Y-119228700D01*
X193054429Y-119228700D01*
X193163462Y-119199485D01*
X193261218Y-119143045D01*
X193341035Y-119063228D01*
X193397475Y-118965472D01*
X193426690Y-118856439D01*
X193426690Y-118743561D01*
X193397475Y-118634528D01*
X193397474Y-118634526D01*
X193341035Y-118536771D01*
X193261218Y-118456954D01*
X193163462Y-118400515D01*
X193163451Y-118400512D01*
X193138914Y-118393937D01*
X193096778Y-118364433D01*
X193083464Y-118314746D01*
X193105203Y-118268126D01*
X193151824Y-118246386D01*
X193158378Y-118246100D01*
X193334440Y-118246100D01*
X193382778Y-118263693D01*
X193387614Y-118268126D01*
X193986897Y-118867408D01*
X194006360Y-118901118D01*
X194023602Y-118965466D01*
X194023605Y-118965473D01*
X194080044Y-119063228D01*
X194159861Y-119143045D01*
X194216301Y-119175630D01*
X194257618Y-119199485D01*
X194366651Y-119228700D01*
X194366654Y-119228700D01*
X194479526Y-119228700D01*
X194479529Y-119228700D01*
X194588562Y-119199485D01*
X194686318Y-119143045D01*
X194766135Y-119063228D01*
X194822575Y-118965472D01*
X194851790Y-118856439D01*
X194851790Y-118743561D01*
X194822575Y-118634528D01*
X194822574Y-118634526D01*
X194766135Y-118536771D01*
X194686318Y-118456954D01*
X194588563Y-118400515D01*
X194588556Y-118400512D01*
X194524208Y-118383270D01*
X194490498Y-118363807D01*
X193731745Y-117605052D01*
X193731742Y-117605050D01*
X193731741Y-117605049D01*
X193692328Y-117582293D01*
X193650543Y-117558168D01*
X193650538Y-117558166D01*
X193593118Y-117542781D01*
X193559971Y-117533900D01*
X193559970Y-117533900D01*
X191658650Y-117533900D01*
X191610312Y-117516307D01*
X191605476Y-117511874D01*
X190622026Y-116528424D01*
X190600286Y-116481804D01*
X190600000Y-116475250D01*
X190600000Y-101033561D01*
X193414390Y-101033561D01*
X193414390Y-101146439D01*
X193430811Y-101207723D01*
X193443605Y-101255471D01*
X193443605Y-101255473D01*
X193500044Y-101353228D01*
X193579861Y-101433045D01*
X193636301Y-101465630D01*
X193677618Y-101489485D01*
X193786651Y-101518700D01*
X193786654Y-101518700D01*
X193899526Y-101518700D01*
X193899529Y-101518700D01*
X194008562Y-101489485D01*
X194106318Y-101433045D01*
X194186135Y-101353228D01*
X194242575Y-101255472D01*
X194271790Y-101146439D01*
X194271790Y-101033561D01*
X194242575Y-100924528D01*
X194207120Y-100863118D01*
X194194298Y-100840910D01*
X194194297Y-100840909D01*
X194186134Y-100826770D01*
X194167603Y-100808239D01*
X198673563Y-100808239D01*
X198673563Y-100921117D01*
X198702778Y-101030149D01*
X198702778Y-101030151D01*
X198759217Y-101127906D01*
X198839034Y-101207723D01*
X198895474Y-101240308D01*
X198936791Y-101264163D01*
X199045824Y-101293378D01*
X199045827Y-101293378D01*
X199158699Y-101293378D01*
X199158702Y-101293378D01*
X199267735Y-101264163D01*
X199365491Y-101207723D01*
X199445308Y-101127906D01*
X199501748Y-101030150D01*
X199530963Y-100921117D01*
X199530963Y-100808239D01*
X199501748Y-100699206D01*
X199465874Y-100637071D01*
X199445308Y-100601449D01*
X199365491Y-100521632D01*
X199267735Y-100465193D01*
X199158702Y-100435978D01*
X199045824Y-100435978D01*
X198936791Y-100465193D01*
X198936789Y-100465193D01*
X198839034Y-100521632D01*
X198759217Y-100601449D01*
X198702778Y-100699204D01*
X198702778Y-100699206D01*
X198673563Y-100808239D01*
X194167603Y-100808239D01*
X194106318Y-100746954D01*
X194008562Y-100690515D01*
X193899529Y-100661300D01*
X193786651Y-100661300D01*
X193677618Y-100690515D01*
X193677616Y-100690515D01*
X193579861Y-100746954D01*
X193500044Y-100826771D01*
X193443605Y-100924526D01*
X193443605Y-100924528D01*
X193414390Y-101033561D01*
X190600000Y-101033561D01*
X190600000Y-100790738D01*
X190617593Y-100742400D01*
X190662142Y-100716680D01*
X190712800Y-100725613D01*
X190728374Y-100737564D01*
X190748273Y-100757463D01*
X190804713Y-100790048D01*
X190846030Y-100813903D01*
X190955063Y-100843118D01*
X190955066Y-100843118D01*
X191067938Y-100843118D01*
X191067941Y-100843118D01*
X191176974Y-100813903D01*
X191274730Y-100757463D01*
X191354547Y-100677646D01*
X191410987Y-100579890D01*
X191440202Y-100470857D01*
X191440202Y-100377979D01*
X192044590Y-100377979D01*
X192044590Y-100490857D01*
X192070816Y-100588733D01*
X192073805Y-100599889D01*
X192073805Y-100599891D01*
X192130244Y-100697646D01*
X192210061Y-100777463D01*
X192266501Y-100810048D01*
X192307818Y-100833903D01*
X192416851Y-100863118D01*
X192416854Y-100863118D01*
X192529726Y-100863118D01*
X192529729Y-100863118D01*
X192638762Y-100833903D01*
X192736518Y-100777463D01*
X192816335Y-100697646D01*
X192872775Y-100599890D01*
X192901990Y-100490857D01*
X192901990Y-100377979D01*
X192872775Y-100268946D01*
X192861227Y-100248944D01*
X192816335Y-100171189D01*
X192736518Y-100091372D01*
X192638762Y-100034933D01*
X192529729Y-100005718D01*
X192416851Y-100005718D01*
X192307818Y-100034933D01*
X192307816Y-100034933D01*
X192210061Y-100091372D01*
X192130244Y-100171189D01*
X192073805Y-100268944D01*
X192073805Y-100268946D01*
X192044590Y-100377979D01*
X191440202Y-100377979D01*
X191440202Y-100357979D01*
X191410987Y-100248946D01*
X191410986Y-100248944D01*
X191354547Y-100151189D01*
X191274730Y-100071372D01*
X191176974Y-100014933D01*
X191067941Y-99985718D01*
X190955063Y-99985718D01*
X190846030Y-100014933D01*
X190846028Y-100014933D01*
X190748273Y-100071372D01*
X190728374Y-100091272D01*
X190681754Y-100113012D01*
X190632067Y-100099698D01*
X190602562Y-100057561D01*
X190600000Y-100038098D01*
X190600000Y-99634750D01*
X190617593Y-99586412D01*
X190622026Y-99581576D01*
X192345476Y-97858126D01*
X192392096Y-97836386D01*
X192398650Y-97836100D01*
X193691195Y-97836100D01*
X193728795Y-97846175D01*
X193734528Y-97849485D01*
X193843561Y-97878700D01*
X193843564Y-97878700D01*
X193956436Y-97878700D01*
X193956439Y-97878700D01*
X194065472Y-97849485D01*
X194163228Y-97793045D01*
X194243045Y-97713228D01*
X194299485Y-97615472D01*
X194328700Y-97506439D01*
X194328700Y-97393561D01*
X194299485Y-97284528D01*
X194247824Y-97195049D01*
X194243045Y-97186771D01*
X194163228Y-97106954D01*
X194065472Y-97050515D01*
X193956439Y-97021300D01*
X193843561Y-97021300D01*
X193734528Y-97050515D01*
X193734526Y-97050515D01*
X193636771Y-97106954D01*
X193634940Y-97108360D01*
X193633477Y-97108856D01*
X193632503Y-97109419D01*
X193632391Y-97109225D01*
X193589161Y-97123900D01*
X192266881Y-97123900D01*
X192173119Y-97123900D01*
X192148853Y-97130401D01*
X192082551Y-97148166D01*
X192082542Y-97148170D01*
X192001348Y-97195048D01*
X190728374Y-98468023D01*
X190681754Y-98489763D01*
X190632067Y-98476449D01*
X190602562Y-98434312D01*
X190600000Y-98414849D01*
X190600000Y-97012932D01*
X190600643Y-97003117D01*
X190602758Y-96987048D01*
X190616018Y-96886329D01*
X190621095Y-96867380D01*
X190664273Y-96763138D01*
X190674082Y-96746150D01*
X190742764Y-96656642D01*
X190756644Y-96642763D01*
X190846150Y-96574082D01*
X190863138Y-96564273D01*
X190967380Y-96521095D01*
X190986329Y-96516018D01*
X191087048Y-96502758D01*
X191103117Y-96500643D01*
X191112932Y-96500000D01*
X200587068Y-96500000D01*
X200596883Y-96500643D01*
G37*
%TD.AperFunction*%
%TD*%
%TA.AperFunction,Conductor*%
%TO.N,/Isolated Ch#1\u002C Ch#2/AIN2N*%
G36*
X111395235Y-104600425D02*
G01*
X111516983Y-104616454D01*
X111529536Y-104619818D01*
X111639942Y-104665550D01*
X111651200Y-104672049D01*
X111746008Y-104744798D01*
X111755201Y-104753991D01*
X111827950Y-104848799D01*
X111834450Y-104860058D01*
X111880180Y-104970461D01*
X111883545Y-104983017D01*
X111899574Y-105104763D01*
X111900000Y-105111264D01*
X111900000Y-110388735D01*
X111899574Y-110395236D01*
X111883545Y-110516982D01*
X111880180Y-110529538D01*
X111834450Y-110639941D01*
X111827951Y-110651199D01*
X111818103Y-110664033D01*
X111805839Y-110680015D01*
X111772833Y-110699074D01*
X111766331Y-110699500D01*
X95433669Y-110699500D01*
X95398455Y-110684914D01*
X95394164Y-110680021D01*
X95372048Y-110651199D01*
X95365549Y-110639941D01*
X95319819Y-110529538D01*
X95316454Y-110516983D01*
X95300426Y-110395235D01*
X95300000Y-110388735D01*
X95300000Y-108111264D01*
X95300426Y-108104764D01*
X95316454Y-107983014D01*
X95319817Y-107970465D01*
X95365551Y-107860053D01*
X95372046Y-107848803D01*
X95444802Y-107753986D01*
X95453986Y-107744802D01*
X95548803Y-107672046D01*
X95560053Y-107665551D01*
X95670465Y-107619817D01*
X95683014Y-107616454D01*
X95804764Y-107600425D01*
X95811264Y-107600000D01*
X104099999Y-107600000D01*
X104100000Y-107600000D01*
X106948911Y-104751088D01*
X106953793Y-104746807D01*
X107051223Y-104672046D01*
X107062473Y-104665551D01*
X107172885Y-104619817D01*
X107185434Y-104616454D01*
X107307184Y-104600425D01*
X107313684Y-104600000D01*
X111388736Y-104600000D01*
X111395235Y-104600425D01*
G37*
%TD.AperFunction*%
%TD*%
%TA.AperFunction,Conductor*%
%TO.N,Net-(K4B-COM)*%
G36*
X137312541Y-125944820D02*
G01*
X137325412Y-125946516D01*
X137333561Y-125948700D01*
X137333562Y-125948700D01*
X137446438Y-125948700D01*
X137446439Y-125948700D01*
X137454425Y-125946559D01*
X137467318Y-125944864D01*
X141689008Y-125946058D01*
X146891080Y-125947530D01*
X146897584Y-125947958D01*
X147019452Y-125964055D01*
X147032012Y-125967428D01*
X147142508Y-126013286D01*
X147153762Y-126019795D01*
X147248607Y-126092718D01*
X147257796Y-126101928D01*
X147330503Y-126196925D01*
X147336994Y-126208204D01*
X147382606Y-126318795D01*
X147385953Y-126331371D01*
X147401779Y-126453264D01*
X147402194Y-126459772D01*
X147397903Y-128689722D01*
X147397465Y-128696213D01*
X147381243Y-128817773D01*
X147377862Y-128830310D01*
X147332025Y-128940517D01*
X147325519Y-128951753D01*
X147252753Y-129046365D01*
X147243563Y-129055538D01*
X147148812Y-129128122D01*
X147137562Y-129134607D01*
X147027272Y-129180228D01*
X147014730Y-129183585D01*
X146969245Y-129189566D01*
X146949863Y-129188294D01*
X146886440Y-129171300D01*
X146886439Y-129171300D01*
X146773561Y-129171300D01*
X146773559Y-129171300D01*
X146672783Y-129198303D01*
X146659894Y-129200000D01*
X146400106Y-129200000D01*
X146387217Y-129198303D01*
X146286440Y-129171300D01*
X146286439Y-129171300D01*
X146173561Y-129171300D01*
X146173559Y-129171300D01*
X146072783Y-129198303D01*
X146059894Y-129200000D01*
X145800106Y-129200000D01*
X145787217Y-129198303D01*
X145686440Y-129171300D01*
X145686439Y-129171300D01*
X145573561Y-129171300D01*
X145573559Y-129171300D01*
X145472783Y-129198303D01*
X145459894Y-129200000D01*
X145200106Y-129200000D01*
X145187217Y-129198303D01*
X145086440Y-129171300D01*
X145086439Y-129171300D01*
X144973561Y-129171300D01*
X144973559Y-129171300D01*
X144872783Y-129198303D01*
X144859894Y-129200000D01*
X144600106Y-129200000D01*
X144587217Y-129198303D01*
X144486440Y-129171300D01*
X144486439Y-129171300D01*
X144373561Y-129171300D01*
X144373559Y-129171300D01*
X144272783Y-129198303D01*
X144259894Y-129200000D01*
X144000106Y-129200000D01*
X143987217Y-129198303D01*
X143886440Y-129171300D01*
X143886439Y-129171300D01*
X143773561Y-129171300D01*
X143773559Y-129171300D01*
X143672783Y-129198303D01*
X143659894Y-129200000D01*
X143400106Y-129200000D01*
X143387217Y-129198303D01*
X143286440Y-129171300D01*
X143286439Y-129171300D01*
X143173561Y-129171300D01*
X143173559Y-129171300D01*
X143072783Y-129198303D01*
X143059894Y-129200000D01*
X142800106Y-129200000D01*
X142787217Y-129198303D01*
X142686440Y-129171300D01*
X142686439Y-129171300D01*
X142573561Y-129171300D01*
X142573559Y-129171300D01*
X142472783Y-129198303D01*
X142459894Y-129200000D01*
X142200106Y-129200000D01*
X142187217Y-129198303D01*
X142086440Y-129171300D01*
X142086439Y-129171300D01*
X141973561Y-129171300D01*
X141973559Y-129171300D01*
X141872783Y-129198303D01*
X141859894Y-129200000D01*
X141600106Y-129200000D01*
X141587217Y-129198303D01*
X141486440Y-129171300D01*
X141486439Y-129171300D01*
X141373561Y-129171300D01*
X141373559Y-129171300D01*
X141272783Y-129198303D01*
X141259894Y-129200000D01*
X141000106Y-129200000D01*
X140987217Y-129198303D01*
X140886440Y-129171300D01*
X140886439Y-129171300D01*
X140773561Y-129171300D01*
X140773559Y-129171300D01*
X140672783Y-129198303D01*
X140659894Y-129200000D01*
X140400106Y-129200000D01*
X140387217Y-129198303D01*
X140286440Y-129171300D01*
X140286439Y-129171300D01*
X140173561Y-129171300D01*
X140173559Y-129171300D01*
X140072783Y-129198303D01*
X140059894Y-129200000D01*
X139800106Y-129200000D01*
X139787217Y-129198303D01*
X139686440Y-129171300D01*
X139686439Y-129171300D01*
X139573561Y-129171300D01*
X139573559Y-129171300D01*
X139472783Y-129198303D01*
X139459894Y-129200000D01*
X139200106Y-129200000D01*
X139187217Y-129198303D01*
X139086440Y-129171300D01*
X139086439Y-129171300D01*
X138973561Y-129171300D01*
X138973559Y-129171300D01*
X138872783Y-129198303D01*
X138859894Y-129200000D01*
X138600106Y-129200000D01*
X138587217Y-129198303D01*
X138486440Y-129171300D01*
X138486439Y-129171300D01*
X138373561Y-129171300D01*
X138373559Y-129171300D01*
X138272783Y-129198303D01*
X138259894Y-129200000D01*
X126500000Y-129200000D01*
X126500000Y-132388735D01*
X126499574Y-132395236D01*
X126483545Y-132516982D01*
X126480180Y-132529538D01*
X126434450Y-132639941D01*
X126427950Y-132651200D01*
X126355201Y-132746008D01*
X126346008Y-132755201D01*
X126251200Y-132827950D01*
X126239941Y-132834450D01*
X126129538Y-132880180D01*
X126116982Y-132883545D01*
X126026019Y-132895521D01*
X125995234Y-132899574D01*
X125988736Y-132900000D01*
X119110420Y-132900000D01*
X119103919Y-132899574D01*
X118982152Y-132883540D01*
X118969592Y-132880174D01*
X118859168Y-132834426D01*
X118847908Y-132827923D01*
X118753096Y-132755152D01*
X118743903Y-132745957D01*
X118671155Y-132651119D01*
X118664656Y-132639857D01*
X118618938Y-132529419D01*
X118615578Y-132516869D01*
X118599577Y-132395076D01*
X118599154Y-132388603D01*
X118600129Y-128946564D01*
X118600835Y-126450787D01*
X118601263Y-126444289D01*
X118617325Y-126322554D01*
X118620693Y-126309998D01*
X118665406Y-126202137D01*
X118666457Y-126199599D01*
X118672956Y-126188350D01*
X118745740Y-126093553D01*
X118754922Y-126084376D01*
X118849761Y-126011646D01*
X118861017Y-126005153D01*
X118971438Y-125959451D01*
X118983990Y-125956090D01*
X119105759Y-125940095D01*
X119112230Y-125939672D01*
X137312541Y-125944820D01*
G37*
%TD.AperFunction*%
%TD*%
%TA.AperFunction,Conductor*%
%TO.N,AIN4N*%
G36*
X111193733Y-123299147D02*
G01*
X111315487Y-123315157D01*
X111328043Y-123318520D01*
X111397257Y-123347176D01*
X111438458Y-123364235D01*
X111449712Y-123370730D01*
X111544537Y-123443468D01*
X111553730Y-123452659D01*
X111626491Y-123547453D01*
X111632993Y-123558710D01*
X111678742Y-123669109D01*
X111682109Y-123681666D01*
X111698156Y-123803408D01*
X111698583Y-123809908D01*
X111699920Y-132388655D01*
X111699495Y-132395156D01*
X111683482Y-132516917D01*
X111680118Y-132529476D01*
X111634397Y-132639892D01*
X111627898Y-132651153D01*
X111555149Y-132745980D01*
X111545956Y-132755174D01*
X111451143Y-132827937D01*
X111439883Y-132834438D01*
X111329474Y-132880176D01*
X111316916Y-132883542D01*
X111195156Y-132899574D01*
X111188655Y-132900000D01*
X98311264Y-132900000D01*
X98304765Y-132899574D01*
X98266330Y-132894514D01*
X98183017Y-132883545D01*
X98170461Y-132880180D01*
X98060058Y-132834450D01*
X98048799Y-132827950D01*
X97953991Y-132755201D01*
X97944798Y-132746008D01*
X97872049Y-132651200D01*
X97865549Y-132639941D01*
X97819819Y-132529538D01*
X97816454Y-132516981D01*
X97800426Y-132395235D01*
X97800000Y-132388735D01*
X97800000Y-130202808D01*
X97799999Y-130202807D01*
X97296173Y-130201975D01*
X97292842Y-130201970D01*
X97292839Y-130201970D01*
X97292837Y-130201969D01*
X94967435Y-130198129D01*
X94967152Y-130198128D01*
X94900533Y-130198018D01*
X94894034Y-130197581D01*
X94772321Y-130181353D01*
X94759770Y-130177968D01*
X94649440Y-130132055D01*
X94638191Y-130125536D01*
X94543502Y-130052629D01*
X94534325Y-130043421D01*
X94509164Y-130010518D01*
X94461733Y-129948494D01*
X94455255Y-129937231D01*
X94409702Y-129826741D01*
X94406360Y-129814184D01*
X94395690Y-129732089D01*
X94627601Y-129732089D01*
X94633780Y-129779029D01*
X94681829Y-129882072D01*
X94762227Y-129962470D01*
X94865269Y-130010518D01*
X94865271Y-130010519D01*
X94912217Y-130016699D01*
X95249000Y-130016699D01*
X96011000Y-130016699D01*
X96347775Y-130016699D01*
X96347789Y-130016698D01*
X96394729Y-130010519D01*
X96497772Y-129962470D01*
X96497774Y-129962469D01*
X96578169Y-129882074D01*
X96578170Y-129882072D01*
X96626218Y-129779030D01*
X96626219Y-129779028D01*
X96632399Y-129732088D01*
X96632400Y-129732077D01*
X96632400Y-129395300D01*
X96011000Y-129395300D01*
X96011000Y-130016699D01*
X95249000Y-130016699D01*
X95249000Y-129395300D01*
X94627601Y-129395300D01*
X94627601Y-129732089D01*
X94395690Y-129732089D01*
X94390532Y-129692405D01*
X94390118Y-129685910D01*
X94390632Y-129374590D01*
X94391336Y-128948474D01*
X95130000Y-128948474D01*
X95130000Y-129080126D01*
X95164075Y-129207293D01*
X95229901Y-129321307D01*
X95322993Y-129414399D01*
X95437007Y-129480225D01*
X95564174Y-129514300D01*
X95695826Y-129514300D01*
X95822993Y-129480225D01*
X95937007Y-129414399D01*
X96030099Y-129321307D01*
X96095925Y-129207293D01*
X96130000Y-129080126D01*
X96130000Y-128948474D01*
X96095925Y-128821307D01*
X96030099Y-128707293D01*
X95956106Y-128633300D01*
X96011000Y-128633300D01*
X96632399Y-128633300D01*
X96632399Y-128296525D01*
X96632398Y-128296510D01*
X96626219Y-128249570D01*
X96578170Y-128146527D01*
X96497772Y-128066129D01*
X96394730Y-128018081D01*
X96394728Y-128018080D01*
X96347788Y-128011900D01*
X96011000Y-128011900D01*
X96011000Y-128633300D01*
X95956106Y-128633300D01*
X95937007Y-128614201D01*
X95822993Y-128548375D01*
X95695826Y-128514300D01*
X95564174Y-128514300D01*
X95437007Y-128548375D01*
X95322993Y-128614201D01*
X95229901Y-128707293D01*
X95164075Y-128821307D01*
X95130000Y-128948474D01*
X94391336Y-128948474D01*
X94392412Y-128296511D01*
X94627600Y-128296511D01*
X94627600Y-128633300D01*
X95249000Y-128633300D01*
X95249000Y-128011900D01*
X94912225Y-128011900D01*
X94912210Y-128011901D01*
X94865270Y-128018080D01*
X94762227Y-128066129D01*
X94762226Y-128066131D01*
X94681831Y-128146526D01*
X94681829Y-128146527D01*
X94633781Y-128249569D01*
X94633780Y-128249571D01*
X94627600Y-128296511D01*
X94392412Y-128296511D01*
X94392415Y-128294807D01*
X94392882Y-128011900D01*
X94398756Y-124454000D01*
X95718706Y-124454000D01*
X96412693Y-124454000D01*
X96379668Y-124503426D01*
X96326901Y-124630818D01*
X96300000Y-124766056D01*
X96300000Y-124903944D01*
X96326901Y-125039182D01*
X96379668Y-125166574D01*
X96412693Y-125216000D01*
X95718706Y-125216000D01*
X95767374Y-125333497D01*
X95882544Y-125505862D01*
X96029137Y-125652455D01*
X96201503Y-125767625D01*
X96201502Y-125767625D01*
X96393025Y-125846956D01*
X96393035Y-125846959D01*
X96596345Y-125887399D01*
X96596353Y-125887400D01*
X96619000Y-125887400D01*
X96619000Y-125422306D01*
X96668426Y-125455332D01*
X96795818Y-125508099D01*
X96931056Y-125535000D01*
X97068944Y-125535000D01*
X97204182Y-125508099D01*
X97331574Y-125455332D01*
X97381000Y-125422306D01*
X97381000Y-125887400D01*
X97403647Y-125887400D01*
X97403654Y-125887399D01*
X97606964Y-125846959D01*
X97606974Y-125846956D01*
X97798497Y-125767625D01*
X97970862Y-125652455D01*
X97970865Y-125652453D01*
X98117453Y-125505865D01*
X98117455Y-125505862D01*
X98232625Y-125333497D01*
X98281294Y-125216000D01*
X97587307Y-125216000D01*
X97620332Y-125166574D01*
X97673099Y-125039182D01*
X97700000Y-124903944D01*
X97700000Y-124766056D01*
X97673099Y-124630818D01*
X97620332Y-124503426D01*
X97587307Y-124454000D01*
X98281294Y-124454000D01*
X98232625Y-124336502D01*
X98117455Y-124164137D01*
X97970862Y-124017544D01*
X97798496Y-123902374D01*
X97798497Y-123902374D01*
X97606974Y-123823043D01*
X97606964Y-123823040D01*
X97403654Y-123782600D01*
X97381000Y-123782600D01*
X97381000Y-124247693D01*
X97331574Y-124214668D01*
X97204182Y-124161901D01*
X97068944Y-124135000D01*
X96931056Y-124135000D01*
X96795818Y-124161901D01*
X96668426Y-124214668D01*
X96619000Y-124247693D01*
X96619000Y-123782600D01*
X96596345Y-123782600D01*
X96393035Y-123823040D01*
X96393025Y-123823043D01*
X96201502Y-123902374D01*
X96029137Y-124017544D01*
X96029135Y-124017547D01*
X95882547Y-124164135D01*
X95882544Y-124164137D01*
X95767374Y-124336502D01*
X95718706Y-124454000D01*
X94398756Y-124454000D01*
X94399817Y-123811670D01*
X94400252Y-123805198D01*
X94416446Y-123683606D01*
X94419821Y-123671075D01*
X94465635Y-123560845D01*
X94472136Y-123549611D01*
X94544890Y-123454971D01*
X94554076Y-123445799D01*
X94648826Y-123373185D01*
X94660061Y-123366705D01*
X94770364Y-123321055D01*
X94782903Y-123317697D01*
X94904518Y-123301685D01*
X94910996Y-123301260D01*
X97465034Y-123300862D01*
X111187247Y-123298723D01*
X111193733Y-123299147D01*
G37*
%TD.AperFunction*%
%TD*%
M02*
