%TF.GenerationSoftware,KiCad,Pcbnew,10.0.4-10.0.4~ubuntu24.04.1*%
%TF.CreationDate,2026-07-19T09:58:05+02:00*%
%TF.ProjectId,EEZ DIB AFE3plus,45455a20-4449-4422-9041-464533706c75,rev?*%
%TF.SameCoordinates,Original*%
%TF.FileFunction,Copper,L3,Inr*%
%TF.FilePolarity,Positive*%
%FSLAX46Y46*%
G04 Gerber Fmt 4.6, Leading zero omitted, Abs format (unit mm)*
G04 Created by KiCad (PCBNEW 10.0.4-10.0.4~ubuntu24.04.1) date 2026-07-19 09:58:05*
%MOMM*%
%LPD*%
G01*
G04 APERTURE LIST*
G04 Aperture macros list*
%AMRoundRect*
0 Rectangle with rounded corners*
0 $1 Rounding radius*
0 $2 $3 $4 $5 $6 $7 $8 $9 X,Y pos of 4 corners*
0 Add a 4 corners polygon primitive as box body*
4,1,4,$2,$3,$4,$5,$6,$7,$8,$9,$2,$3,0*
0 Add four circle primitives for the rounded corners*
1,1,$1+$1,$2,$3*
1,1,$1+$1,$4,$5*
1,1,$1+$1,$6,$7*
1,1,$1+$1,$8,$9*
0 Add four rect primitives between the rounded corners*
20,1,$1+$1,$2,$3,$4,$5,0*
20,1,$1+$1,$4,$5,$6,$7,0*
20,1,$1+$1,$6,$7,$8,$9,0*
20,1,$1+$1,$8,$9,$2,$3,0*%
G04 Aperture macros list end*
%TA.AperFunction,ComponentPad*%
%ADD10C,1.270000*%
%TD*%
%TA.AperFunction,ComponentPad*%
%ADD11RoundRect,0.170000X-0.680000X-0.680000X0.680000X-0.680000X0.680000X0.680000X-0.680000X0.680000X0*%
%TD*%
%TA.AperFunction,ComponentPad*%
%ADD12O,1.700000X1.700000*%
%TD*%
%TA.AperFunction,ComponentPad*%
%ADD13O,2.400000X1.800000*%
%TD*%
%TA.AperFunction,ViaPad*%
%ADD14C,0.450000*%
%TD*%
%TA.AperFunction,Conductor*%
%ADD15C,0.609600*%
%TD*%
%TA.AperFunction,Conductor*%
%ADD16C,0.812800*%
%TD*%
%TA.AperFunction,Conductor*%
%ADD17C,0.304800*%
%TD*%
%TA.AperFunction,Conductor*%
%ADD18C,0.406400*%
%TD*%
%TA.AperFunction,Conductor*%
%ADD19C,0.203200*%
%TD*%
%TA.AperFunction,Conductor*%
%ADD20C,0.254000*%
%TD*%
G04 APERTURE END LIST*
D10*
%TO.N,IN1N*%
%TO.C,IN1N1*%
X179549768Y-114219751D03*
%TD*%
D11*
%TO.N,IN3N*%
%TO.C,JP3*%
X129700000Y-116776900D03*
D12*
%TO.N,GND*%
X129700000Y-119316900D03*
%TD*%
D11*
%TO.N,AIN4N*%
%TO.C,JP4*%
X95630000Y-129014300D03*
D12*
%TO.N,GND*%
X95630000Y-131554300D03*
%TD*%
D10*
%TO.N,-2V5_ISO*%
%TO.C,TP3*%
X200372604Y-126518773D03*
%TD*%
%TO.N,+2V5_ISO*%
%TO.C,TP2*%
X200372604Y-123790000D03*
%TD*%
%TO.N,IN1P*%
%TO.C,IN1P1*%
X179549768Y-115805343D03*
%TD*%
%TO.N,IN2N*%
%TO.C,IN2N1*%
X179549768Y-110605343D03*
%TD*%
%TO.N,GND*%
%TO.C,TP1*%
X200372604Y-129247546D03*
%TD*%
%TO.N,IN2P*%
%TO.C,IN2P1*%
X179549768Y-112225343D03*
%TD*%
D13*
%TO.N,AIN4N*%
%TO.C,X2*%
X97000000Y-124835000D03*
%TO.N,AIN4P*%
X97000000Y-121025000D03*
%TO.N,IN3N*%
X97000000Y-117215000D03*
%TO.N,AIN3P*%
X97000000Y-113405000D03*
%TO.N,/Isolated Ch#1\u002C Ch#2/AIN2N*%
X97000000Y-109595000D03*
%TO.N,/Isolated Ch#1\u002C Ch#2/AIN2P*%
X97000000Y-105785000D03*
%TO.N,/Isolated Ch#1\u002C Ch#2/AIN1N*%
X97000000Y-101975000D03*
%TO.N,/Isolated Ch#1\u002C Ch#2/AIN1P*%
X97000000Y-98165000D03*
%TD*%
D14*
%TO.N,GND*%
X172600000Y-96096245D03*
X171950000Y-120280000D03*
X171830000Y-94563755D03*
X202180000Y-104520000D03*
X191810000Y-129340000D03*
X170890000Y-109365000D03*
X204520000Y-107120970D03*
X170115410Y-125720000D03*
X203640000Y-101700000D03*
X171040000Y-94563755D03*
X160320000Y-111253893D03*
X161480000Y-132150000D03*
X209160733Y-103887395D03*
X171770000Y-125640000D03*
X159140000Y-110870000D03*
X169030000Y-129980000D03*
X190520000Y-129340000D03*
X204710000Y-109460000D03*
X171640000Y-108615000D03*
X170140000Y-110115000D03*
X160090000Y-109020000D03*
X171640000Y-109365000D03*
X170868554Y-110115000D03*
X200562263Y-99314678D03*
X192240000Y-126863300D03*
X171830000Y-95330000D03*
X135832224Y-119316900D03*
X171040000Y-96096245D03*
X176300000Y-129960000D03*
X137040000Y-123370000D03*
X172600000Y-93797510D03*
X204710000Y-112220000D03*
X209165306Y-105140282D03*
X171830000Y-93797510D03*
X209710000Y-119640000D03*
X160170000Y-98050000D03*
X160310000Y-100100000D03*
X167380887Y-130049011D03*
X211610000Y-103880000D03*
X204710000Y-113740000D03*
X166350000Y-124970000D03*
X211600000Y-111520000D03*
X191011502Y-99690000D03*
X192473290Y-99710000D03*
X175250409Y-124940000D03*
X172600000Y-94563755D03*
X171830000Y-96862490D03*
X185597591Y-111410000D03*
X185597591Y-115000000D03*
X195250732Y-126840000D03*
X158850000Y-105660000D03*
X171040000Y-95330000D03*
X170140000Y-109365000D03*
X137000000Y-131600000D03*
X172600000Y-95330000D03*
X170900722Y-108615000D03*
X161510000Y-100590000D03*
X178070000Y-130120000D03*
X161433074Y-129675058D03*
X204520000Y-105665371D03*
X158910000Y-116580000D03*
X195310000Y-130010000D03*
X170140000Y-108615000D03*
X201912263Y-99310000D03*
X169090000Y-105100000D03*
X180150000Y-119590000D03*
X177770000Y-93910000D03*
X171640000Y-110115000D03*
X180980000Y-131642600D03*
X172600000Y-96862490D03*
X157750000Y-92010000D03*
X182590000Y-120490000D03*
X171040000Y-96862490D03*
X211545044Y-119137050D03*
X190510000Y-126863300D03*
X171830000Y-96096245D03*
X177780000Y-96630000D03*
X171040000Y-93797510D03*
X163712996Y-125872580D03*
X202530000Y-116240000D03*
X209205780Y-111044679D03*
%TO.N,AIN4N*%
X108900000Y-128000000D03*
X108900000Y-129800000D03*
X108900000Y-131000000D03*
X108900000Y-129200000D03*
X109500000Y-131000000D03*
X109500000Y-127400000D03*
X108900000Y-127400000D03*
X128030000Y-132270000D03*
X108900000Y-128600000D03*
X109500000Y-128600000D03*
X108900000Y-130400000D03*
X109500000Y-129800000D03*
X109500000Y-130400000D03*
X109500000Y-128000000D03*
X128030000Y-132770000D03*
X109500000Y-129200000D03*
%TO.N,Net-(K3B-NC)*%
X149100000Y-127740000D03*
X113870000Y-119880000D03*
X130806950Y-124361200D03*
X114400000Y-119900000D03*
X127406950Y-124361200D03*
X149100000Y-128400000D03*
X129080000Y-124361200D03*
%TO.N,/Isolated Ch#1\u002C Ch#2/AIN1N*%
X144762600Y-98800000D03*
X145600000Y-103980000D03*
X148400000Y-105300000D03*
X145500000Y-98030000D03*
X144300000Y-93900000D03*
X137280000Y-100360000D03*
%TO.N,-5V_ISO*%
X208970000Y-108968800D03*
X186920000Y-130770000D03*
%TO.N,/Isolated Ch#1\u002C Ch#2/HGND*%
X148410000Y-117060000D03*
X145580000Y-114145000D03*
X142523200Y-117000000D03*
X145570000Y-109010000D03*
X144837600Y-109720000D03*
%TO.N,Net-(IC11C-D)*%
X159200000Y-131600000D03*
X170746878Y-131420205D03*
%TO.N,+5V_ISO*%
X186020000Y-133350000D03*
X160630000Y-131920000D03*
X138020000Y-101340000D03*
X156590000Y-132540000D03*
X179410000Y-90030000D03*
X206090000Y-95570000D03*
X215980000Y-108968800D03*
X169110594Y-131621342D03*
X138020000Y-93260000D03*
%TO.N,Net-(K1B-COM)*%
X133200000Y-107765000D03*
X115850000Y-104405000D03*
X116555000Y-102417500D03*
X117260000Y-103742500D03*
X133200000Y-108540000D03*
X117260000Y-101755000D03*
X115850000Y-102417500D03*
X117260000Y-104405000D03*
X116555000Y-101755000D03*
X117260000Y-102417500D03*
X133200000Y-103314999D03*
X133200000Y-109314999D03*
X132000000Y-109314999D03*
X116555000Y-103080000D03*
X132000000Y-107765000D03*
X132000000Y-103314999D03*
X117260000Y-103080000D03*
X132000000Y-102540000D03*
X115850000Y-103742500D03*
X133200000Y-102540000D03*
X116555000Y-104405000D03*
X133200000Y-101765000D03*
X132000000Y-101765000D03*
X115850000Y-103080000D03*
X115850000Y-101755000D03*
X116555000Y-103742500D03*
X132000000Y-108540000D03*
%TO.N,/Isolated Ch#1\u002C Ch#2/ISEL10#2*%
X164240000Y-92110000D03*
X138040000Y-106860000D03*
%TO.N,IN4N*%
X188600000Y-110340000D03*
X183650000Y-128390000D03*
%TO.N,Net-(K4B-NC)*%
X117500000Y-131000000D03*
X141430000Y-129600000D03*
X117500000Y-127400000D03*
X117500000Y-128000000D03*
X118100000Y-131000000D03*
X142030000Y-129600000D03*
X145630000Y-129600000D03*
X117500000Y-129800000D03*
X146830000Y-129600000D03*
X117500000Y-128600000D03*
X118100000Y-129200000D03*
X146230000Y-129600000D03*
X144430000Y-129600000D03*
X118100000Y-130400000D03*
X117500000Y-130400000D03*
X140830000Y-129600000D03*
X139630000Y-129600000D03*
X143230000Y-129600000D03*
X143830000Y-129600000D03*
X118100000Y-128000000D03*
X142630000Y-129600000D03*
X138430000Y-129600000D03*
X117500000Y-129200000D03*
X140230000Y-129600000D03*
X118100000Y-129800000D03*
X118100000Y-128600000D03*
X145030000Y-129600000D03*
X139030000Y-129600000D03*
X118100000Y-127400000D03*
%TO.N,-2V5_ISO*%
X177480000Y-129276133D03*
X180340000Y-126384800D03*
X137390000Y-125520000D03*
X206150000Y-97140000D03*
X192800000Y-130037000D03*
%TO.N,Net-(OK2-S2)*%
X161330000Y-121110000D03*
X104730000Y-113300000D03*
%TO.N,Net-(IC7-INP)*%
X124910000Y-91690000D03*
X146900000Y-93120000D03*
X147130000Y-103280000D03*
%TO.N,IN1P*%
X178200000Y-113670000D03*
%TO.N,+3V3_ISO*%
X203590000Y-103650000D03*
X163320000Y-101700000D03*
X201156193Y-103654024D03*
X205260000Y-114070000D03*
X163320000Y-112855531D03*
X171460000Y-105840000D03*
X207519083Y-107650974D03*
X178360000Y-91890000D03*
X192560000Y-128740000D03*
%TO.N,DIAG#1*%
X162420000Y-100700000D03*
X171040000Y-112050000D03*
%TO.N,Net-(K2B-COM)*%
X139746800Y-115310000D03*
X132650000Y-93460000D03*
%TO.N,~{ISO_RESET}*%
X175520000Y-95230000D03*
X209150000Y-106440000D03*
X205850000Y-98510000D03*
X169250000Y-107410000D03*
X199780000Y-112590000D03*
%TO.N,-15V_ISO*%
X208970000Y-110240000D03*
X172590409Y-124940000D03*
X164230000Y-124360000D03*
%TO.N,ISEL#4*%
X173140000Y-129350000D03*
X151630000Y-131880000D03*
X174430000Y-98560000D03*
%TO.N,IN2N*%
X176018902Y-114178902D03*
X178480000Y-112000000D03*
%TO.N,IN2P*%
X175521098Y-113681098D03*
%TO.N,DIAG#2*%
X171693189Y-112054114D03*
X162460000Y-111870000D03*
%TO.N,+2V5_ISO*%
X158420000Y-131960000D03*
X180326277Y-129913723D03*
X196120000Y-128120000D03*
%TO.N,Net-(IC9A-S)*%
X165019997Y-125860000D03*
X120802080Y-114530000D03*
%TO.N,+15V_ISO*%
X167950000Y-132187153D03*
X211590000Y-110238800D03*
X176410409Y-132435600D03*
%TO.N,Net-(IC1-VREFP)*%
X194423090Y-118800000D03*
X191300000Y-97480000D03*
%TO.N,USEL20#3*%
X167285000Y-108615000D03*
X167285000Y-124950000D03*
%TO.N,IN3P*%
X181630000Y-127550000D03*
X188600000Y-111790000D03*
X184680000Y-128100000D03*
X165669996Y-128000000D03*
X179020000Y-127550000D03*
%TO.N,USEL1#3*%
X167940000Y-124742591D03*
X168160000Y-108040000D03*
X161455000Y-126425600D03*
%TO.N,Net-(IC9B-S)*%
X159200000Y-128090000D03*
X127030000Y-117400000D03*
%TO.N,USEL100#3*%
X168469800Y-125348825D03*
X168266414Y-109155457D03*
%TO.N,Net-(K2C-COM)*%
X132273304Y-96000000D03*
X132830641Y-96535000D03*
X110485137Y-97970000D03*
X111030641Y-96900000D03*
X111030641Y-97970000D03*
X132830641Y-96000000D03*
X110469359Y-97435000D03*
X132285137Y-97070000D03*
X111030641Y-97435000D03*
X110473304Y-96900000D03*
X132269359Y-96535000D03*
X132830641Y-97070000D03*
%TO.N,~{RELAY_CS}*%
X168030000Y-93060000D03*
X215046200Y-110309362D03*
%TO.N,ISO_SCK*%
X172140000Y-105120000D03*
X167840000Y-94070000D03*
X211670000Y-114060000D03*
%TO.N,ISO_MOSI*%
X168013400Y-94700000D03*
X172669800Y-102409800D03*
X171742796Y-106516252D03*
X212870200Y-112420000D03*
%TO.N,ISO_MISO*%
X167950000Y-95380000D03*
X213175374Y-111745374D03*
X173520000Y-107500000D03*
%TO.N,/Isolated Ch#1\u002C Ch#2/ISEL#2*%
X138950000Y-98060000D03*
X163590000Y-91400000D03*
%TO.N,ISEL10#4*%
X173427849Y-129936359D03*
X141040000Y-131860000D03*
X175870000Y-97470000D03*
%TO.N,USEL#1*%
X165210000Y-105070000D03*
X162520000Y-94180000D03*
%TO.N,Net-(K4B-COM)*%
X141430000Y-127200000D03*
X125600000Y-131300000D03*
X125600000Y-126200000D03*
X126200000Y-128000000D03*
X125600000Y-132500000D03*
X140830000Y-127200000D03*
X146830000Y-127200000D03*
X142630000Y-127200000D03*
X125600000Y-126800000D03*
X138430000Y-127200000D03*
X126200000Y-126200000D03*
X146230000Y-127200000D03*
X145030000Y-127200000D03*
X145630000Y-127200000D03*
X144430000Y-127200000D03*
X140230000Y-127200000D03*
X126200000Y-127400000D03*
X142030000Y-127200000D03*
X126200000Y-132500000D03*
X125600000Y-131900000D03*
X126200000Y-130700000D03*
X125600000Y-130700000D03*
X125600000Y-127400000D03*
X143830000Y-127200000D03*
X126200000Y-126800000D03*
X139630000Y-127200000D03*
X126200000Y-131900000D03*
X139030000Y-127200000D03*
X143230000Y-127200000D03*
X125600000Y-128000000D03*
X126200000Y-131300000D03*
%TO.N,Net-(D3-A)*%
X178480000Y-126940000D03*
X184920000Y-126940000D03*
%TO.N,~{ADC_CS}*%
X208580000Y-112810000D03*
X199958126Y-111083095D03*
%TO.N,ISO_AFE_SCK*%
X209140200Y-114048800D03*
X199970000Y-110430000D03*
%TO.N,ISO_AFE_MOSI*%
X209140000Y-115310000D03*
X202234992Y-113464135D03*
%TO.N,ISO_AFE_MISO*%
X200010000Y-108930000D03*
X209301339Y-116129313D03*
%TO.N,ISEL_MID#4*%
X127720000Y-118410000D03*
X168180000Y-127460000D03*
X168370000Y-111030000D03*
%TO.N,Net-(IC11B-S)*%
X169305000Y-127395000D03*
X157300000Y-122300000D03*
%TO.N,ISEL_LOW#4*%
X174890000Y-112560000D03*
X174673203Y-128600000D03*
%TO.N,IN4P*%
X184350000Y-121871600D03*
X174005407Y-131420000D03*
X188600000Y-111000000D03*
X171400000Y-131410000D03*
X181630000Y-124420000D03*
X179060000Y-124410000D03*
%TO.N,Net-(D10-A)*%
X178370000Y-124980000D03*
X182990000Y-124870000D03*
%TO.N,/Isolated Ch#1\u002C Ch#2/AIN2N*%
X109400000Y-105633333D03*
X110086690Y-109415756D03*
X111486690Y-109415756D03*
X109400000Y-106266667D03*
X109400000Y-105000000D03*
X109400000Y-106900000D03*
X109386690Y-109415756D03*
X110800000Y-108800000D03*
X109400000Y-108800000D03*
X109400000Y-107533333D03*
X111500000Y-108800000D03*
X109400000Y-108166667D03*
X110100000Y-108800000D03*
X110786690Y-109415756D03*
%TO.N,/ADC\u002C IOexp\u002C LDOs/AVDD*%
X192997990Y-118800000D03*
X199102263Y-100864678D03*
X196720000Y-124450000D03*
X200602263Y-100864678D03*
X193843090Y-101090000D03*
X196720000Y-125100000D03*
X192994645Y-120260000D03*
%TO.N,/ADC\u002C IOexp\u002C LDOs/AVSS*%
X198700000Y-97400000D03*
X196090000Y-101870000D03*
X197420000Y-129980000D03*
X199900000Y-97400000D03*
X194794690Y-114391400D03*
X196770000Y-129980000D03*
X200100604Y-119602147D03*
X197642263Y-99314678D03*
X197230000Y-105890000D03*
X196690000Y-119568313D03*
X199300000Y-97400000D03*
X191740000Y-101892276D03*
X195850000Y-117390000D03*
X191444645Y-120250000D03*
X194700000Y-98808200D03*
X191444645Y-118780000D03*
X199610000Y-116210000D03*
X198140000Y-119568313D03*
X196167708Y-98812395D03*
%TO.N,/ADC\u002C IOexp\u002C LDOs/~{AFE_IOEXP_INT}*%
X170640000Y-106710000D03*
X208990000Y-99170000D03*
X208650000Y-116080000D03*
%TO.N,/ADC\u002C IOexp\u002C LDOs/~{AFE_IOEXP_CS}*%
X173790000Y-109100000D03*
X210460000Y-102550000D03*
X211520000Y-117870000D03*
%TO.N,/ADC\u002C IOexp\u002C LDOs/ISO_AFE_EXT_CLK*%
X211500000Y-106410000D03*
X208637674Y-117522326D03*
%TD*%
%TO.N,GND*%
D15*
X135832224Y-119316900D02*
X129700000Y-119316900D01*
%TO.N,-5V_ISO*%
X206915600Y-128399470D02*
X206915600Y-111023200D01*
X186920000Y-130770000D02*
X204545070Y-130770000D01*
X204545070Y-130770000D02*
X206915600Y-128399470D01*
X206915600Y-111023200D02*
X208970000Y-108968800D01*
%TO.N,+5V_ISO*%
D16*
X206090000Y-95570000D02*
X200550000Y-90030000D01*
X160620000Y-133350000D02*
X157400000Y-133350000D01*
X167250000Y-133350000D02*
X160620000Y-133350000D01*
D17*
X169009252Y-131520000D02*
X167590000Y-131520000D01*
D16*
X186020000Y-133350000D02*
X205560000Y-133350000D01*
D18*
X138020000Y-101340000D02*
X138020000Y-93260000D01*
D16*
X215980000Y-122930000D02*
X215980000Y-100160000D01*
D17*
X169110594Y-131621342D02*
X169009252Y-131520000D01*
D16*
X205560000Y-133350000D02*
X215980000Y-122930000D01*
D17*
X167590000Y-131520000D02*
X167250000Y-131860000D01*
D16*
X211390000Y-95570000D02*
X206090000Y-95570000D01*
D18*
X141250000Y-90030000D02*
X138020000Y-93260000D01*
D17*
X160630000Y-131920000D02*
X160630000Y-133340000D01*
X160630000Y-133340000D02*
X160620000Y-133350000D01*
D16*
X215980000Y-100160000D02*
X211390000Y-95570000D01*
D18*
X179410000Y-90030000D02*
X141250000Y-90030000D01*
D16*
X157400000Y-133350000D02*
X156590000Y-132540000D01*
X200550000Y-90030000D02*
X179410000Y-90030000D01*
X186020000Y-133350000D02*
X167250000Y-133350000D01*
D17*
X167250000Y-131860000D02*
X167250000Y-133350000D01*
%TO.N,/Isolated Ch#1\u002C Ch#2/ISEL10#2*%
X162370000Y-91110000D02*
X163370000Y-92110000D01*
X141690000Y-91110000D02*
X162370000Y-91110000D01*
X139540000Y-93260000D02*
X141690000Y-91110000D01*
X139540000Y-105360000D02*
X139540000Y-93260000D01*
X138040000Y-106860000D02*
X139540000Y-105360000D01*
X163370000Y-92110000D02*
X164240000Y-92110000D01*
%TO.N,IN4N*%
D19*
X183650000Y-128390000D02*
X183650000Y-115060000D01*
X188370000Y-110340000D02*
X188600000Y-110340000D01*
X183650000Y-115060000D02*
X188370000Y-110340000D01*
%TO.N,-2V5_ISO*%
D18*
X206120000Y-110560000D02*
X206120000Y-123620000D01*
X203221227Y-126518773D02*
X200372604Y-126518773D01*
X208410000Y-108270000D02*
X206120000Y-110560000D01*
D19*
X177480000Y-127190749D02*
X177480000Y-129240000D01*
X180340000Y-126384800D02*
X178285949Y-126384800D01*
D18*
X206120000Y-123620000D02*
X203221227Y-126518773D01*
X208410000Y-100080000D02*
X208410000Y-108270000D01*
X206150000Y-97820000D02*
X208410000Y-100080000D01*
D19*
X178285949Y-126384800D02*
X177480000Y-127190749D01*
D18*
X206150000Y-97140000D02*
X206150000Y-97820000D01*
%TO.N,+3V3_ISO*%
D16*
X178360000Y-91890000D02*
X167370000Y-91890000D01*
D15*
X203590000Y-103650000D02*
X207510000Y-103650000D01*
D19*
X205260000Y-122280000D02*
X205260000Y-114070000D01*
D15*
X201160217Y-103650000D02*
X203590000Y-103650000D01*
D16*
X163320000Y-101700000D02*
X163320000Y-105840000D01*
X163320000Y-105840000D02*
X163320000Y-112845531D01*
X167370000Y-91890000D02*
X163320000Y-95940000D01*
X207519083Y-107650974D02*
X207520000Y-107650057D01*
D19*
X205270000Y-114060000D02*
X205260000Y-114070000D01*
X207519083Y-108255608D02*
X205270000Y-110504691D01*
D16*
X163320000Y-95940000D02*
X163320000Y-101700000D01*
D19*
X205270000Y-110504691D02*
X205270000Y-114060000D01*
X200050000Y-125140000D02*
X202400000Y-125140000D01*
X196450000Y-128740000D02*
X200050000Y-125140000D01*
D15*
X171460000Y-105840000D02*
X163320000Y-105840000D01*
D19*
X202400000Y-125140000D02*
X205260000Y-122280000D01*
D16*
X207520000Y-107650057D02*
X207520000Y-101550000D01*
X197860000Y-91890000D02*
X178360000Y-91890000D01*
D19*
X207519083Y-107650974D02*
X207519083Y-108255608D01*
D16*
X207520000Y-101550000D02*
X197860000Y-91890000D01*
D19*
X192560000Y-128740000D02*
X196450000Y-128740000D01*
%TO.N,-15V_ISO*%
D17*
X164370000Y-124500000D02*
X164230000Y-124360000D01*
D15*
X208970000Y-110240000D02*
X207830000Y-111380000D01*
D17*
X172590409Y-124940000D02*
X172660409Y-125010000D01*
D15*
X207830000Y-128634542D02*
X204864542Y-131600000D01*
X204864542Y-131600000D02*
X186180000Y-131600000D01*
D17*
X172470000Y-125010000D02*
X172470000Y-130630000D01*
X172470000Y-130630000D02*
X166590000Y-130630000D01*
X164370000Y-128410000D02*
X164370000Y-124500000D01*
D15*
X172513000Y-130673000D02*
X172470000Y-130630000D01*
X174295026Y-130673000D02*
X172513000Y-130673000D01*
X207830000Y-111380000D02*
X207830000Y-128634542D01*
X185467935Y-130887935D02*
X174509961Y-130887935D01*
X186180000Y-131600000D02*
X185467935Y-130887935D01*
D17*
X166590000Y-130630000D02*
X164370000Y-128410000D01*
D15*
X174509961Y-130887935D02*
X174295026Y-130673000D01*
%TO.N,ISEL#4*%
D17*
X173140000Y-129350000D02*
X173550000Y-128940000D01*
X173550000Y-128940000D02*
X173550000Y-111690000D01*
X174430000Y-98560000D02*
X174430000Y-110810000D01*
X174430000Y-110810000D02*
X173550000Y-111690000D01*
%TO.N,+15V_ISO*%
D15*
X210787000Y-111041800D02*
X211590000Y-110238800D01*
X168192847Y-132430000D02*
X205186844Y-132430000D01*
X167950000Y-132187153D02*
X168192847Y-132430000D01*
X210787000Y-126829844D02*
X210787000Y-111041800D01*
X205186844Y-132430000D02*
X210787000Y-126829844D01*
%TO.N,USEL20#3*%
D19*
X166977200Y-123826672D02*
X166977200Y-108922800D01*
X166977200Y-108922800D02*
X167285000Y-108615000D01*
X167285000Y-124950000D02*
X167285000Y-124134472D01*
X167285000Y-124134472D02*
X166977200Y-123826672D01*
%TO.N,IN3P*%
X188460000Y-111790000D02*
X188600000Y-111790000D01*
X186127391Y-114122609D02*
X188460000Y-111790000D01*
X184680000Y-128100000D02*
X186127391Y-126652609D01*
X186127391Y-126652609D02*
X186127391Y-114122609D01*
%TO.N,USEL1#3*%
X167940000Y-124742591D02*
X167940000Y-124214736D01*
X167383600Y-123658336D02*
X167383600Y-109265651D01*
X167383600Y-109265651D02*
X168160000Y-108489251D01*
X167940000Y-124214736D02*
X167383600Y-123658336D01*
X168160000Y-108489251D02*
X168160000Y-108040000D01*
%TO.N,USEL100#3*%
X167790000Y-109631871D02*
X168266414Y-109155457D01*
X168469800Y-125348825D02*
X168469800Y-124169800D01*
X168469800Y-124169800D02*
X167790000Y-123490000D01*
X167790000Y-123490000D02*
X167790000Y-109631871D01*
%TO.N,ISO_SCK*%
X167420200Y-99130200D02*
X172140000Y-103850000D01*
X172140000Y-103850000D02*
X172140000Y-105120000D01*
X167510000Y-94400000D02*
X167420200Y-94489800D01*
X167840000Y-94070000D02*
X167510000Y-94400000D01*
X167420200Y-94489800D02*
X167420200Y-99130200D01*
%TO.N,ISO_MOSI*%
X168013400Y-94700000D02*
X167880749Y-94700000D01*
X168019251Y-94700000D02*
X168013400Y-94700000D01*
X172669800Y-102409800D02*
X168500000Y-98240000D01*
X168500000Y-98240000D02*
X168500000Y-95180749D01*
X168500000Y-95180749D02*
X168019251Y-94700000D01*
%TO.N,ISO_MISO*%
X173520000Y-107500000D02*
X173520000Y-104655264D01*
X167950000Y-99085264D02*
X167950000Y-95380000D01*
X173520000Y-104655264D02*
X167950000Y-99085264D01*
%TO.N,/Isolated Ch#1\u002C Ch#2/ISEL#2*%
D17*
X141490000Y-90590000D02*
X162780000Y-90590000D01*
X138950000Y-98060000D02*
X138950000Y-93130000D01*
X138950000Y-93130000D02*
X141490000Y-90590000D01*
X162780000Y-90590000D02*
X163590000Y-91400000D01*
%TO.N,ISEL10#4*%
X175870000Y-97470000D02*
X175870000Y-110200000D01*
X174070000Y-112000000D02*
X174070000Y-129294208D01*
X175870000Y-110200000D02*
X174070000Y-112000000D01*
X174070000Y-129294208D02*
X173427849Y-129936359D01*
%TO.N,ISEL_MID#4*%
D19*
X169000000Y-124060000D02*
X169000000Y-125760000D01*
X168370000Y-111030000D02*
X168200000Y-111200000D01*
X168200000Y-111200000D02*
X168200000Y-123260000D01*
X168200000Y-123260000D02*
X169000000Y-124060000D01*
X168180000Y-126580000D02*
X168180000Y-127460000D01*
X169000000Y-125760000D02*
X168180000Y-126580000D01*
%TO.N,ISEL_LOW#4*%
X174890000Y-112560000D02*
X174720000Y-112730000D01*
X174720000Y-128553203D02*
X174673203Y-128600000D01*
X174720000Y-112730000D02*
X174720000Y-128553203D01*
%TO.N,IN4P*%
X184350000Y-121871600D02*
X184350000Y-115120000D01*
X179060000Y-124410000D02*
X181620000Y-124410000D01*
X184350000Y-115120000D02*
X188470000Y-111000000D01*
%TO.N,Net-(D10-A)*%
D20*
X178370000Y-124980000D02*
X182880000Y-124980000D01*
X182880000Y-124980000D02*
X182990000Y-124870000D01*
%TO.N,/ADC\u002C IOexp\u002C LDOs/~{AFE_IOEXP_INT}*%
D19*
X208610200Y-116040200D02*
X208610200Y-113729800D01*
X208610200Y-113729800D02*
X209750000Y-112590000D01*
X209750000Y-99930000D02*
X208990000Y-99170000D01*
X209750000Y-112590000D02*
X209750000Y-99930000D01*
X208650000Y-116080000D02*
X208610200Y-116040200D01*
%TO.N,/ADC\u002C IOexp\u002C LDOs/~{AFE_IOEXP_CS}*%
X212199800Y-117190200D02*
X211520000Y-117870000D01*
X212199800Y-106010200D02*
X212199800Y-117190200D01*
X210460000Y-102550000D02*
X210460000Y-104270400D01*
X210460000Y-104270400D02*
X212199800Y-106010200D01*
%TO.N,/ADC\u002C IOexp\u002C LDOs/ISO_AFE_EXT_CLK*%
X208917674Y-117522326D02*
X210160000Y-116280000D01*
X208637674Y-117522326D02*
X208917674Y-117522326D01*
X210160000Y-116280000D02*
X210160000Y-115310000D01*
X211500000Y-106410000D02*
X210160000Y-107750000D01*
X210160000Y-107750000D02*
X210160000Y-115310000D01*
%TD*%
%TA.AperFunction,Conductor*%
%TO.N,Net-(K4B-NC)*%
G36*
X124594310Y-126300425D02*
G01*
X124715937Y-126316422D01*
X124728482Y-126319780D01*
X124838795Y-126365422D01*
X124850046Y-126371910D01*
X124944812Y-126444528D01*
X124954003Y-126453705D01*
X125026763Y-126548349D01*
X125033269Y-126559590D01*
X125079084Y-126669833D01*
X125082462Y-126682374D01*
X125098647Y-126803977D01*
X125099082Y-126810469D01*
X125101605Y-128430386D01*
X125101606Y-128430386D01*
X125101606Y-128430387D01*
X125609604Y-128429595D01*
X125609605Y-128429596D01*
X126184996Y-128428700D01*
X126256439Y-128428700D01*
X126256856Y-128428588D01*
X135459971Y-128414257D01*
X146889196Y-128396461D01*
X146895706Y-128396878D01*
X146919297Y-128399951D01*
X147017673Y-128412768D01*
X147030246Y-128416121D01*
X147140876Y-128461826D01*
X147152157Y-128468329D01*
X147247150Y-128541143D01*
X147256361Y-128550348D01*
X147329233Y-128645302D01*
X147335742Y-128656579D01*
X147381510Y-128767177D01*
X147384873Y-128779757D01*
X147400833Y-128901708D01*
X147401254Y-128908218D01*
X147399710Y-130498734D01*
X147399278Y-130505234D01*
X147383131Y-130626965D01*
X147379754Y-130639519D01*
X147333917Y-130749878D01*
X147327406Y-130761131D01*
X147254565Y-130855869D01*
X147245363Y-130865053D01*
X147150484Y-130937709D01*
X147139219Y-130944198D01*
X147028768Y-130989823D01*
X147016207Y-130993175D01*
X146894454Y-131009083D01*
X146887954Y-131009503D01*
X128005042Y-130991168D01*
X127148916Y-130990336D01*
X127141130Y-130989716D01*
X127046149Y-130974587D01*
X127031345Y-130969764D01*
X126949210Y-130927845D01*
X126936617Y-130918685D01*
X126873862Y-130855869D01*
X126871443Y-130853447D01*
X126862299Y-130840852D01*
X126820456Y-130758671D01*
X126815648Y-130743862D01*
X126800612Y-130648864D01*
X126800000Y-130641079D01*
X126800000Y-130300000D01*
X126455001Y-130300000D01*
X126370106Y-130300000D01*
X126357217Y-130298303D01*
X126256440Y-130271300D01*
X126256439Y-130271300D01*
X126143561Y-130271300D01*
X126143559Y-130271300D01*
X126042783Y-130298303D01*
X126029894Y-130300000D01*
X125770106Y-130300000D01*
X125757217Y-130298303D01*
X125656440Y-130271300D01*
X125656439Y-130271300D01*
X125543561Y-130271300D01*
X125543559Y-130271300D01*
X125442783Y-130298303D01*
X125429894Y-130300000D01*
X125100000Y-130300000D01*
X125100000Y-132388735D01*
X125099574Y-132395236D01*
X125083545Y-132516982D01*
X125080180Y-132529538D01*
X125034450Y-132639941D01*
X125027950Y-132651200D01*
X124955201Y-132746008D01*
X124946008Y-132755201D01*
X124851200Y-132827950D01*
X124839941Y-132834450D01*
X124729538Y-132880180D01*
X124716982Y-132883545D01*
X124626019Y-132895521D01*
X124595234Y-132899574D01*
X124588736Y-132900000D01*
X117410665Y-132900000D01*
X117404164Y-132899574D01*
X117282412Y-132883543D01*
X117269855Y-132880178D01*
X117159443Y-132834442D01*
X117148186Y-132827943D01*
X117053373Y-132755184D01*
X117044180Y-132745990D01*
X116971433Y-132651173D01*
X116964933Y-132639913D01*
X116919224Y-132529538D01*
X116919205Y-132529492D01*
X116915844Y-132516946D01*
X116899824Y-132395178D01*
X116899400Y-132388681D01*
X116899536Y-131009083D01*
X116899949Y-126811200D01*
X116900375Y-126804721D01*
X116916414Y-126682976D01*
X116919776Y-126670429D01*
X116965519Y-126560020D01*
X116972015Y-126548772D01*
X117044767Y-126453970D01*
X117053951Y-126444786D01*
X117148766Y-126372038D01*
X117160015Y-126365544D01*
X117270425Y-126319814D01*
X117282973Y-126316452D01*
X117404714Y-126300425D01*
X117411214Y-126300000D01*
X124587816Y-126300000D01*
X124594310Y-126300425D01*
G37*
%TD.AperFunction*%
%TD*%
%TA.AperFunction,Conductor*%
%TO.N,/ADC\u002C IOexp\u002C LDOs/AVDD*%
G36*
X202196883Y-98000643D02*
G01*
X202215585Y-98003105D01*
X202313668Y-98016018D01*
X202332621Y-98021096D01*
X202436857Y-98064272D01*
X202453852Y-98074084D01*
X202498605Y-98108424D01*
X202543355Y-98142763D01*
X202557236Y-98156644D01*
X202625913Y-98246144D01*
X202635729Y-98263145D01*
X202678901Y-98367372D01*
X202683982Y-98386334D01*
X202699357Y-98503116D01*
X202700000Y-98512932D01*
X202700000Y-101384647D01*
X202699357Y-101394463D01*
X202683982Y-101511245D01*
X202678901Y-101530207D01*
X202635729Y-101634434D01*
X202625913Y-101651435D01*
X202554207Y-101744883D01*
X202547721Y-101752278D01*
X201952278Y-102347721D01*
X201944883Y-102354207D01*
X201851435Y-102425913D01*
X201834434Y-102435729D01*
X201730207Y-102478901D01*
X201711245Y-102483982D01*
X201594464Y-102499357D01*
X201584648Y-102500000D01*
X198500000Y-102500000D01*
X197474390Y-103525609D01*
X197474390Y-105413658D01*
X197456797Y-105461996D01*
X197412248Y-105487716D01*
X197379728Y-105486296D01*
X197321165Y-105470604D01*
X197286439Y-105461300D01*
X197173561Y-105461300D01*
X197064528Y-105490515D01*
X197064526Y-105490515D01*
X196966771Y-105546954D01*
X196886954Y-105626771D01*
X196830515Y-105724526D01*
X196830515Y-105724528D01*
X196801300Y-105833561D01*
X196801300Y-105946439D01*
X196830515Y-106055471D01*
X196830515Y-106055473D01*
X196886954Y-106153228D01*
X196966771Y-106233045D01*
X197023211Y-106265630D01*
X197064528Y-106289485D01*
X197173561Y-106318700D01*
X197173564Y-106318700D01*
X197286436Y-106318700D01*
X197286439Y-106318700D01*
X197379729Y-106293703D01*
X197430971Y-106298187D01*
X197467344Y-106334560D01*
X197474390Y-106366341D01*
X197474390Y-126024800D01*
X197456797Y-126073138D01*
X197412248Y-126098858D01*
X197399190Y-126100000D01*
X191395661Y-126100000D01*
X191380990Y-126098555D01*
X191323881Y-126087195D01*
X191321388Y-126086699D01*
X191294282Y-126075471D01*
X191250041Y-126045911D01*
X191229282Y-126025146D01*
X191199755Y-125980927D01*
X191188528Y-125953772D01*
X191176738Y-125894215D01*
X191175306Y-125879520D01*
X191181587Y-120721247D01*
X191199239Y-120672931D01*
X191243819Y-120647266D01*
X191276250Y-120648701D01*
X191279170Y-120649483D01*
X191279173Y-120649485D01*
X191388206Y-120678700D01*
X191388209Y-120678700D01*
X191501081Y-120678700D01*
X191501084Y-120678700D01*
X191610117Y-120649485D01*
X191707873Y-120593045D01*
X191787690Y-120513228D01*
X191844130Y-120415472D01*
X191873345Y-120306439D01*
X191873345Y-120193561D01*
X191844130Y-120084528D01*
X191793603Y-119997013D01*
X191787690Y-119986771D01*
X191707873Y-119906954D01*
X191610117Y-119850515D01*
X191595155Y-119846506D01*
X191501084Y-119821300D01*
X191388206Y-119821300D01*
X191367129Y-119826947D01*
X191277396Y-119850990D01*
X191226152Y-119846506D01*
X191189779Y-119810132D01*
X191182735Y-119778267D01*
X191183059Y-119511874D01*
X196261300Y-119511874D01*
X196261300Y-119624752D01*
X196270366Y-119658586D01*
X196290515Y-119733784D01*
X196290515Y-119733786D01*
X196346954Y-119831541D01*
X196426771Y-119911358D01*
X196483211Y-119943943D01*
X196524528Y-119967798D01*
X196633561Y-119997013D01*
X196633564Y-119997013D01*
X196746436Y-119997013D01*
X196746439Y-119997013D01*
X196855472Y-119967798D01*
X196953228Y-119911358D01*
X197033045Y-119831541D01*
X197089485Y-119733785D01*
X197118700Y-119624752D01*
X197118700Y-119511874D01*
X197089485Y-119402841D01*
X197089484Y-119402839D01*
X197033045Y-119305084D01*
X196953228Y-119225267D01*
X196855472Y-119168828D01*
X196746439Y-119139613D01*
X196633561Y-119139613D01*
X196524528Y-119168828D01*
X196524526Y-119168828D01*
X196426771Y-119225267D01*
X196346954Y-119305084D01*
X196290515Y-119402839D01*
X196290515Y-119402841D01*
X196261300Y-119511874D01*
X191183059Y-119511874D01*
X191183376Y-119251721D01*
X191201027Y-119203410D01*
X191245607Y-119177745D01*
X191278038Y-119179180D01*
X191279170Y-119179483D01*
X191279173Y-119179485D01*
X191388206Y-119208700D01*
X191388209Y-119208700D01*
X191501081Y-119208700D01*
X191501084Y-119208700D01*
X191610117Y-119179485D01*
X191707873Y-119123045D01*
X191787690Y-119043228D01*
X191844130Y-118945472D01*
X191873345Y-118836439D01*
X191873345Y-118743561D01*
X193994390Y-118743561D01*
X193994390Y-118856439D01*
X194023605Y-118965471D01*
X194023605Y-118965473D01*
X194080044Y-119063228D01*
X194159861Y-119143045D01*
X194204519Y-119168828D01*
X194257618Y-119199485D01*
X194366651Y-119228700D01*
X194366654Y-119228700D01*
X194479526Y-119228700D01*
X194479529Y-119228700D01*
X194588562Y-119199485D01*
X194686318Y-119143045D01*
X194766135Y-119063228D01*
X194822575Y-118965472D01*
X194851790Y-118856439D01*
X194851790Y-118743561D01*
X194822575Y-118634528D01*
X194811027Y-118614526D01*
X194766135Y-118536771D01*
X194686318Y-118456954D01*
X194588562Y-118400515D01*
X194479529Y-118371300D01*
X194366651Y-118371300D01*
X194257618Y-118400515D01*
X194257616Y-118400515D01*
X194159861Y-118456954D01*
X194080044Y-118536771D01*
X194023605Y-118634526D01*
X194023605Y-118634528D01*
X193994390Y-118743561D01*
X191873345Y-118743561D01*
X191873345Y-118723561D01*
X191844130Y-118614528D01*
X191844129Y-118614526D01*
X191787690Y-118516771D01*
X191707873Y-118436954D01*
X191610117Y-118380515D01*
X191593367Y-118376027D01*
X191501084Y-118351300D01*
X191388206Y-118351300D01*
X191279188Y-118380511D01*
X191227944Y-118376027D01*
X191191570Y-118339653D01*
X191184526Y-118307785D01*
X191185712Y-117333561D01*
X195421300Y-117333561D01*
X195421300Y-117446439D01*
X195450515Y-117555471D01*
X195450515Y-117555473D01*
X195506954Y-117653228D01*
X195586771Y-117733045D01*
X195643211Y-117765630D01*
X195684528Y-117789485D01*
X195793561Y-117818700D01*
X195793564Y-117818700D01*
X195906436Y-117818700D01*
X195906439Y-117818700D01*
X196015472Y-117789485D01*
X196113228Y-117733045D01*
X196193045Y-117653228D01*
X196249485Y-117555472D01*
X196278700Y-117446439D01*
X196278700Y-117333561D01*
X196249485Y-117224528D01*
X196249484Y-117224526D01*
X196193045Y-117126771D01*
X196113228Y-117046954D01*
X196015472Y-116990515D01*
X195906439Y-116961300D01*
X195793561Y-116961300D01*
X195684528Y-116990515D01*
X195684526Y-116990515D01*
X195586771Y-117046954D01*
X195506954Y-117126771D01*
X195450515Y-117224526D01*
X195450515Y-117224528D01*
X195421300Y-117333561D01*
X191185712Y-117333561D01*
X191189364Y-114334961D01*
X194365990Y-114334961D01*
X194365990Y-114447839D01*
X194395205Y-114556871D01*
X194395205Y-114556873D01*
X194451644Y-114654628D01*
X194531461Y-114734445D01*
X194587901Y-114767030D01*
X194629218Y-114790885D01*
X194738251Y-114820100D01*
X194738254Y-114820100D01*
X194851126Y-114820100D01*
X194851129Y-114820100D01*
X194960162Y-114790885D01*
X195057918Y-114734445D01*
X195137735Y-114654628D01*
X195194175Y-114556872D01*
X195223390Y-114447839D01*
X195223390Y-114334961D01*
X195194175Y-114225928D01*
X195194174Y-114225926D01*
X195137735Y-114128171D01*
X195057918Y-114048354D01*
X194960162Y-113991915D01*
X194851129Y-113962700D01*
X194738251Y-113962700D01*
X194629218Y-113991915D01*
X194629216Y-113991915D01*
X194531461Y-114048354D01*
X194451644Y-114128171D01*
X194395205Y-114225926D01*
X194395205Y-114225928D01*
X194365990Y-114334961D01*
X191189364Y-114334961D01*
X191202430Y-103604550D01*
X191202797Y-103302797D01*
X191202796Y-103302796D01*
X191202796Y-103302795D01*
X190652278Y-102752278D01*
X190645792Y-102744883D01*
X190574086Y-102651435D01*
X190564272Y-102634437D01*
X190521096Y-102530201D01*
X190516018Y-102511248D01*
X190500643Y-102394462D01*
X190500000Y-102384647D01*
X190500000Y-101835837D01*
X191311300Y-101835837D01*
X191311300Y-101948715D01*
X191340515Y-102057747D01*
X191340515Y-102057749D01*
X191396954Y-102155504D01*
X191476771Y-102235321D01*
X191533211Y-102267906D01*
X191574528Y-102291761D01*
X191683561Y-102320976D01*
X191683564Y-102320976D01*
X191796436Y-102320976D01*
X191796439Y-102320976D01*
X191905472Y-102291761D01*
X192003228Y-102235321D01*
X192083045Y-102155504D01*
X192139485Y-102057748D01*
X192168700Y-101948715D01*
X192168700Y-101835837D01*
X192162731Y-101813561D01*
X195661300Y-101813561D01*
X195661300Y-101926439D01*
X195690515Y-102035471D01*
X195690515Y-102035473D01*
X195746954Y-102133228D01*
X195826771Y-102213045D01*
X195883211Y-102245630D01*
X195924528Y-102269485D01*
X196033561Y-102298700D01*
X196033564Y-102298700D01*
X196146436Y-102298700D01*
X196146439Y-102298700D01*
X196255472Y-102269485D01*
X196353228Y-102213045D01*
X196433045Y-102133228D01*
X196489485Y-102035472D01*
X196518700Y-101926439D01*
X196518700Y-101813561D01*
X196489485Y-101704528D01*
X196489484Y-101704526D01*
X196433045Y-101606771D01*
X196353228Y-101526954D01*
X196255472Y-101470515D01*
X196146439Y-101441300D01*
X196033561Y-101441300D01*
X195924528Y-101470515D01*
X195924526Y-101470515D01*
X195826771Y-101526954D01*
X195746954Y-101606771D01*
X195690515Y-101704526D01*
X195690515Y-101704528D01*
X195661300Y-101813561D01*
X192162731Y-101813561D01*
X192139485Y-101726804D01*
X192126623Y-101704526D01*
X192083045Y-101629047D01*
X192003228Y-101549230D01*
X191905472Y-101492791D01*
X191894720Y-101489910D01*
X191796439Y-101463576D01*
X191683561Y-101463576D01*
X191574528Y-101492791D01*
X191574526Y-101492791D01*
X191476771Y-101549230D01*
X191396954Y-101629047D01*
X191340515Y-101726802D01*
X191340515Y-101726804D01*
X191311300Y-101835837D01*
X190500000Y-101835837D01*
X190500000Y-99942102D01*
X190517593Y-99893764D01*
X190562142Y-99868044D01*
X190612800Y-99876977D01*
X190640325Y-99904503D01*
X190668454Y-99953226D01*
X190748273Y-100033045D01*
X190804713Y-100065630D01*
X190846030Y-100089485D01*
X190955063Y-100118700D01*
X190955066Y-100118700D01*
X191067938Y-100118700D01*
X191067941Y-100118700D01*
X191176974Y-100089485D01*
X191274730Y-100033045D01*
X191354547Y-99953228D01*
X191410987Y-99855472D01*
X191440202Y-99746439D01*
X191440202Y-99653561D01*
X192044590Y-99653561D01*
X192044590Y-99766439D01*
X192071815Y-99868044D01*
X192073805Y-99875471D01*
X192073805Y-99875473D01*
X192130244Y-99973228D01*
X192210061Y-100053045D01*
X192266501Y-100085630D01*
X192307818Y-100109485D01*
X192416851Y-100138700D01*
X192416854Y-100138700D01*
X192529726Y-100138700D01*
X192529729Y-100138700D01*
X192638762Y-100109485D01*
X192736518Y-100053045D01*
X192816335Y-99973228D01*
X192872775Y-99875472D01*
X192901990Y-99766439D01*
X192901990Y-99653561D01*
X192872775Y-99544528D01*
X192835606Y-99480150D01*
X192816335Y-99446771D01*
X192736518Y-99366954D01*
X192638762Y-99310515D01*
X192529729Y-99281300D01*
X192416851Y-99281300D01*
X192307818Y-99310515D01*
X192307816Y-99310515D01*
X192210061Y-99366954D01*
X192130244Y-99446771D01*
X192073805Y-99544526D01*
X192073805Y-99544528D01*
X192044590Y-99653561D01*
X191440202Y-99653561D01*
X191440202Y-99633561D01*
X191410987Y-99524528D01*
X191382665Y-99475473D01*
X191354547Y-99426771D01*
X191274730Y-99346954D01*
X191176974Y-99290515D01*
X191067941Y-99261300D01*
X190955063Y-99261300D01*
X190846030Y-99290515D01*
X190846028Y-99290515D01*
X190748273Y-99346954D01*
X190668456Y-99426771D01*
X190640325Y-99475497D01*
X190600920Y-99508562D01*
X190549480Y-99508562D01*
X190510075Y-99475497D01*
X190500000Y-99437897D01*
X190500000Y-99258239D01*
X197213563Y-99258239D01*
X197213563Y-99371117D01*
X197242778Y-99480149D01*
X197242778Y-99480151D01*
X197299217Y-99577906D01*
X197379034Y-99657723D01*
X197435474Y-99690308D01*
X197476791Y-99714163D01*
X197585824Y-99743378D01*
X197585827Y-99743378D01*
X197698699Y-99743378D01*
X197698702Y-99743378D01*
X197807735Y-99714163D01*
X197905491Y-99657723D01*
X197985308Y-99577906D01*
X198041748Y-99480150D01*
X198070963Y-99371117D01*
X198070963Y-99258239D01*
X200133563Y-99258239D01*
X200133563Y-99371117D01*
X200162778Y-99480149D01*
X200162778Y-99480151D01*
X200219217Y-99577906D01*
X200299034Y-99657723D01*
X200355474Y-99690308D01*
X200396791Y-99714163D01*
X200505824Y-99743378D01*
X200505827Y-99743378D01*
X200618699Y-99743378D01*
X200618702Y-99743378D01*
X200727735Y-99714163D01*
X200825491Y-99657723D01*
X200905308Y-99577906D01*
X200961748Y-99480150D01*
X200990963Y-99371117D01*
X200990963Y-99258239D01*
X200989710Y-99253561D01*
X201483563Y-99253561D01*
X201483563Y-99366439D01*
X201502710Y-99437897D01*
X201512778Y-99475471D01*
X201512778Y-99475473D01*
X201569217Y-99573228D01*
X201649034Y-99653045D01*
X201657137Y-99657723D01*
X201746791Y-99709485D01*
X201855824Y-99738700D01*
X201855827Y-99738700D01*
X201968699Y-99738700D01*
X201968702Y-99738700D01*
X202077735Y-99709485D01*
X202175491Y-99653045D01*
X202255308Y-99573228D01*
X202311748Y-99475472D01*
X202340963Y-99366439D01*
X202340963Y-99253561D01*
X202311748Y-99144528D01*
X202311747Y-99144526D01*
X202255308Y-99046771D01*
X202175491Y-98966954D01*
X202077735Y-98910515D01*
X201968702Y-98881300D01*
X201855824Y-98881300D01*
X201746791Y-98910515D01*
X201746789Y-98910515D01*
X201649034Y-98966954D01*
X201569217Y-99046771D01*
X201512778Y-99144526D01*
X201512778Y-99144528D01*
X201483563Y-99253561D01*
X200989710Y-99253561D01*
X200961748Y-99149206D01*
X200959046Y-99144526D01*
X200905308Y-99051449D01*
X200825491Y-98971632D01*
X200727735Y-98915193D01*
X200710276Y-98910515D01*
X200618702Y-98885978D01*
X200505824Y-98885978D01*
X200396791Y-98915193D01*
X200396789Y-98915193D01*
X200299034Y-98971632D01*
X200219217Y-99051449D01*
X200162778Y-99149204D01*
X200162778Y-99149206D01*
X200133563Y-99258239D01*
X198070963Y-99258239D01*
X198041748Y-99149206D01*
X198039046Y-99144526D01*
X197985308Y-99051449D01*
X197905491Y-98971632D01*
X197807735Y-98915193D01*
X197790276Y-98910515D01*
X197698702Y-98885978D01*
X197585824Y-98885978D01*
X197476791Y-98915193D01*
X197476789Y-98915193D01*
X197379034Y-98971632D01*
X197299217Y-99051449D01*
X197242778Y-99149204D01*
X197242778Y-99149206D01*
X197213563Y-99258239D01*
X190500000Y-99258239D01*
X190500000Y-98751761D01*
X194271300Y-98751761D01*
X194271300Y-98864639D01*
X194299969Y-98971633D01*
X194300515Y-98973671D01*
X194300515Y-98973673D01*
X194356954Y-99071428D01*
X194436771Y-99151245D01*
X194493211Y-99183830D01*
X194534528Y-99207685D01*
X194643561Y-99236900D01*
X194643564Y-99236900D01*
X194756436Y-99236900D01*
X194756439Y-99236900D01*
X194865472Y-99207685D01*
X194963228Y-99151245D01*
X195043045Y-99071428D01*
X195099485Y-98973672D01*
X195128700Y-98864639D01*
X195128700Y-98755956D01*
X195739008Y-98755956D01*
X195739008Y-98868834D01*
X195768223Y-98977866D01*
X195768223Y-98977868D01*
X195824662Y-99075623D01*
X195904479Y-99155440D01*
X195960919Y-99188025D01*
X196002236Y-99211880D01*
X196111269Y-99241095D01*
X196111272Y-99241095D01*
X196224144Y-99241095D01*
X196224147Y-99241095D01*
X196333180Y-99211880D01*
X196430936Y-99155440D01*
X196510753Y-99075623D01*
X196567193Y-98977867D01*
X196596408Y-98868834D01*
X196596408Y-98755956D01*
X196567193Y-98646923D01*
X196564770Y-98642726D01*
X196510753Y-98549166D01*
X196430936Y-98469349D01*
X196333180Y-98412910D01*
X196224147Y-98383695D01*
X196111269Y-98383695D01*
X196002236Y-98412910D01*
X196002234Y-98412910D01*
X195904479Y-98469349D01*
X195824662Y-98549166D01*
X195768223Y-98646921D01*
X195768223Y-98646923D01*
X195739008Y-98755956D01*
X195128700Y-98755956D01*
X195128700Y-98751761D01*
X195099485Y-98642728D01*
X195099484Y-98642726D01*
X195043045Y-98544971D01*
X194963228Y-98465154D01*
X194865472Y-98408715D01*
X194756439Y-98379500D01*
X194643561Y-98379500D01*
X194534528Y-98408715D01*
X194534526Y-98408715D01*
X194436771Y-98465154D01*
X194356954Y-98544971D01*
X194300515Y-98642726D01*
X194300515Y-98642728D01*
X194271300Y-98751761D01*
X190500000Y-98751761D01*
X190500000Y-98512932D01*
X190500643Y-98503117D01*
X190502758Y-98487048D01*
X190516018Y-98386329D01*
X190521095Y-98367380D01*
X190564273Y-98263138D01*
X190574082Y-98246150D01*
X190642764Y-98156642D01*
X190656644Y-98142763D01*
X190746150Y-98074082D01*
X190763138Y-98064273D01*
X190867380Y-98021095D01*
X190886329Y-98016018D01*
X190987048Y-98002758D01*
X191003117Y-98000643D01*
X191012932Y-98000000D01*
X202187068Y-98000000D01*
X202196883Y-98000643D01*
G37*
%TD.AperFunction*%
%TD*%
M02*
