%TF.GenerationSoftware,KiCad,Pcbnew,10.0.4-10.0.4~ubuntu24.04.1*%
%TF.CreationDate,2026-07-19T09:58:05+02:00*%
%TF.ProjectId,EEZ DIB AFE3plus,45455a20-4449-4422-9041-464533706c75,rev?*%
%TF.SameCoordinates,Original*%
%TF.FileFunction,Soldermask,Top*%
%TF.FilePolarity,Negative*%
%FSLAX46Y46*%
G04 Gerber Fmt 4.6, Leading zero omitted, Abs format (unit mm)*
G04 Created by KiCad (PCBNEW 10.0.4-10.0.4~ubuntu24.04.1) date 2026-07-19 09:58:05*
%MOMM*%
%LPD*%
G01*
G04 APERTURE LIST*
G04 Aperture macros list*
%AMRoundRect*
0 Rectangle with rounded corners*
0 $1 Rounding radius*
0 $2 $3 $4 $5 $6 $7 $8 $9 X,Y pos of 4 corners*
0 Add a 4 corners polygon primitive as box body*
4,1,4,$2,$3,$4,$5,$6,$7,$8,$9,$2,$3,0*
0 Add four circle primitives for the rounded corners*
1,1,$1+$1,$2,$3*
1,1,$1+$1,$4,$5*
1,1,$1+$1,$6,$7*
1,1,$1+$1,$8,$9*
0 Add four rect primitives between the rounded corners*
20,1,$1+$1,$2,$3,$4,$5,0*
20,1,$1+$1,$4,$5,$6,$7,0*
20,1,$1+$1,$6,$7,$8,$9,0*
20,1,$1+$1,$8,$9,$2,$3,0*%
G04 Aperture macros list end*
%ADD10C,0.100000*%
%ADD11C,0.000000*%
%ADD12RoundRect,0.240750X-0.471250X0.416250X-0.471250X-0.416250X0.471250X-0.416250X0.471250X0.416250X0*%
%ADD13RoundRect,0.225000X-0.250000X0.225000X-0.250000X-0.225000X0.250000X-0.225000X0.250000X0.225000X0*%
%ADD14RoundRect,0.114300X0.499200X-0.449200X0.499200X0.449200X-0.499200X0.449200X-0.499200X-0.449200X0*%
%ADD15RoundRect,0.250000X-0.450000X0.262500X-0.450000X-0.262500X0.450000X-0.262500X0.450000X0.262500X0*%
%ADD16RoundRect,0.200000X-0.200000X-0.275000X0.200000X-0.275000X0.200000X0.275000X-0.200000X0.275000X0*%
%ADD17RoundRect,0.200000X0.200000X0.275000X-0.200000X0.275000X-0.200000X-0.275000X0.200000X-0.275000X0*%
%ADD18RoundRect,0.076200X0.419100X0.254000X-0.419100X0.254000X-0.419100X-0.254000X0.419100X-0.254000X0*%
%ADD19RoundRect,0.076200X0.889000X0.673100X-0.889000X0.673100X-0.889000X-0.673100X0.889000X-0.673100X0*%
%ADD20RoundRect,0.127000X0.584200X0.076200X-0.584200X0.076200X-0.584200X-0.076200X0.584200X-0.076200X0*%
%ADD21RoundRect,0.076200X-0.889000X-0.673100X0.889000X-0.673100X0.889000X0.673100X-0.889000X0.673100X0*%
%ADD22RoundRect,0.076200X-0.419100X-0.254000X0.419100X-0.254000X0.419100X0.254000X-0.419100X0.254000X0*%
%ADD23RoundRect,0.127000X-0.584200X-0.076200X0.584200X-0.076200X0.584200X0.076200X-0.584200X0.076200X0*%
%ADD24R,0.700000X2.000000*%
%ADD25RoundRect,0.225000X0.225000X0.250000X-0.225000X0.250000X-0.225000X-0.250000X0.225000X-0.250000X0*%
%ADD26RoundRect,0.114300X0.449200X0.499200X-0.449200X0.499200X-0.449200X-0.499200X0.449200X-0.499200X0*%
%ADD27RoundRect,0.225000X-0.225000X-0.250000X0.225000X-0.250000X0.225000X0.250000X-0.225000X0.250000X0*%
%ADD28RoundRect,0.114300X-1.104900X-0.228600X1.104900X-0.228600X1.104900X0.228600X-1.104900X0.228600X0*%
%ADD29C,1.270000*%
%ADD30RoundRect,0.225000X0.250000X-0.225000X0.250000X0.225000X-0.250000X0.225000X-0.250000X-0.225000X0*%
%ADD31RoundRect,0.114300X-0.377400X-0.123800X0.377400X-0.123800X0.377400X0.123800X-0.377400X0.123800X0*%
%ADD32RoundRect,0.200000X-0.275000X0.200000X-0.275000X-0.200000X0.275000X-0.200000X0.275000X0.200000X0*%
%ADD33RoundRect,0.120000X0.330000X-0.180000X0.330000X0.180000X-0.330000X0.180000X-0.330000X-0.180000X0*%
%ADD34R,2.000000X0.700000*%
%ADD35RoundRect,0.250000X0.262500X0.450000X-0.262500X0.450000X-0.262500X-0.450000X0.262500X-0.450000X0*%
%ADD36RoundRect,0.250000X-0.262500X-0.450000X0.262500X-0.450000X0.262500X0.450000X-0.262500X0.450000X0*%
%ADD37RoundRect,0.170000X-0.680000X-0.680000X0.680000X-0.680000X0.680000X0.680000X-0.680000X0.680000X0*%
%ADD38O,1.700000X1.700000*%
%ADD39C,1.500000*%
%ADD40RoundRect,0.114300X0.949200X-0.749200X0.949200X0.749200X-0.949200X0.749200X-0.949200X-0.749200X0*%
%ADD41RoundRect,0.114300X-0.949200X0.749200X-0.949200X-0.749200X0.949200X-0.749200X0.949200X0.749200X0*%
%ADD42R,0.304800X1.155700*%
%ADD43RoundRect,0.240750X0.471250X-0.416250X0.471250X0.416250X-0.471250X0.416250X-0.471250X-0.416250X0*%
%ADD44RoundRect,0.300000X2.700000X2.700000X-2.700000X2.700000X-2.700000X-2.700000X2.700000X-2.700000X0*%
%ADD45RoundRect,0.153250X-0.788750X-0.153750X0.788750X-0.153750X0.788750X0.153750X-0.788750X0.153750X0*%
%ADD46RoundRect,0.102000X-1.325000X-2.000000X1.325000X-2.000000X1.325000X2.000000X-1.325000X2.000000X0*%
%ADD47RoundRect,0.114300X0.449200X0.649200X-0.449200X0.649200X-0.449200X-0.649200X0.449200X-0.649200X0*%
%ADD48RoundRect,0.114300X0.628650X0.165100X-0.628650X0.165100X-0.628650X-0.165100X0.628650X-0.165100X0*%
%ADD49RoundRect,0.180000X1.170000X-0.420000X1.170000X0.420000X-1.170000X0.420000X-1.170000X-0.420000X0*%
%ADD50C,1.600000*%
%ADD51RoundRect,0.120000X0.280000X-0.280000X0.280000X0.280000X-0.280000X0.280000X-0.280000X-0.280000X0*%
%ADD52RoundRect,0.123536X-0.701964X-0.270164X0.701964X-0.270164X0.701964X0.270164X-0.701964X0.270164X0*%
%ADD53RoundRect,0.114300X-0.228600X0.609600X-0.228600X-0.609600X0.228600X-0.609600X0.228600X0.609600X0*%
%ADD54RoundRect,0.240750X-0.416250X-0.471250X0.416250X-0.471250X0.416250X0.471250X-0.416250X0.471250X0*%
%ADD55RoundRect,0.250000X0.475000X-0.250000X0.475000X0.250000X-0.475000X0.250000X-0.475000X-0.250000X0*%
%ADD56RoundRect,0.114300X-0.499200X0.449200X-0.499200X-0.449200X0.499200X-0.449200X0.499200X0.449200X0*%
%ADD57RoundRect,0.250000X-0.312500X-0.625000X0.312500X-0.625000X0.312500X0.625000X-0.312500X0.625000X0*%
%ADD58RoundRect,0.127000X-0.076200X-0.076200X0.076200X-0.076200X0.076200X0.076200X-0.076200X0.076200X0*%
%ADD59RoundRect,0.127000X0.076200X0.076200X-0.076200X0.076200X-0.076200X-0.076200X0.076200X-0.076200X0*%
%ADD60RoundRect,0.033750X-0.396250X-0.101250X0.396250X-0.101250X0.396250X0.101250X-0.396250X0.101250X0*%
%ADD61RoundRect,0.033750X-0.101250X-0.396250X0.101250X-0.396250X0.101250X0.396250X-0.101250X0.396250X0*%
%ADD62RoundRect,0.102000X-1.225000X-1.225000X1.225000X-1.225000X1.225000X1.225000X-1.225000X1.225000X0*%
%ADD63RoundRect,0.114300X0.127000X-0.787400X0.127000X0.787400X-0.127000X0.787400X-0.127000X-0.787400X0*%
%ADD64RoundRect,0.200000X0.275000X-0.200000X0.275000X0.200000X-0.275000X0.200000X-0.275000X-0.200000X0*%
%ADD65RoundRect,0.114300X-0.781050X0.088900X-0.781050X-0.088900X0.781050X-0.088900X0.781050X0.088900X0*%
%ADD66RoundRect,0.114300X0.088900X0.781050X-0.088900X0.781050X-0.088900X-0.781050X0.088900X-0.781050X0*%
%ADD67RoundRect,0.114300X-0.449200X-0.649200X0.449200X-0.649200X0.449200X0.649200X-0.449200X0.649200X0*%
%ADD68O,2.527000X1.927000*%
%ADD69RoundRect,0.114300X-0.609600X-0.228600X0.609600X-0.228600X0.609600X0.228600X-0.609600X0.228600X0*%
%ADD70RoundRect,0.240750X0.416250X0.471250X-0.416250X0.471250X-0.416250X-0.471250X0.416250X-0.471250X0*%
G04 APERTURE END LIST*
%TO.C,R43*%
D10*
X115487500Y-121717300D02*
X117329000Y-121717300D01*
X117329000Y-124892300D01*
X115487500Y-124892300D01*
X115487500Y-121717300D01*
%TO.C,R44*%
X109836000Y-127642500D02*
X111677500Y-127642500D01*
X111677500Y-130817500D01*
X109836000Y-130817500D01*
X109836000Y-127642500D01*
D11*
%TO.C,JP2*%
G36*
X203640004Y-117136700D02*
G01*
X202979604Y-117136700D01*
X202979604Y-116603300D01*
X203640004Y-116603300D01*
X203640004Y-117136700D01*
G37*
%TO.C,R15*%
D10*
X115487500Y-97812500D02*
X117329000Y-97812500D01*
X117329000Y-100987500D01*
X115487500Y-100987500D01*
X115487500Y-97812500D01*
D11*
%TO.C,JP1*%
G36*
X201637298Y-102754601D02*
G01*
X200976898Y-102754601D01*
X200976898Y-102221201D01*
X201637298Y-102221201D01*
X201637298Y-102754601D01*
G37*
%TO.C,R16*%
D10*
X115487500Y-105012500D02*
X117329000Y-105012500D01*
X117329000Y-108187500D01*
X115487500Y-108187500D01*
X115487500Y-105012500D01*
%TD*%
D12*
%TO.C,D4*%
X98157900Y-131467400D03*
X98157900Y-128267400D03*
%TD*%
%TO.C,D8*%
X128036950Y-127561200D03*
X128036950Y-124361200D03*
%TD*%
D13*
%TO.C,C37*%
X144807600Y-96515000D03*
X144807600Y-98065000D03*
%TD*%
D14*
%TO.C,L2*%
X188180804Y-130943245D03*
X188180804Y-129243245D03*
%TD*%
D15*
%TO.C,R41*%
X93200000Y-128387500D03*
X93200000Y-130212500D03*
%TD*%
D16*
%TO.C,R12*%
X203937743Y-110036595D03*
X205587743Y-110036595D03*
%TD*%
D17*
%TO.C,R20*%
X144810000Y-117060000D03*
X143160000Y-117060000D03*
%TD*%
D18*
%TO.C,R43*%
X116852500Y-123304800D03*
D19*
X116382500Y-124230200D03*
X116382500Y-122379400D03*
D20*
X115682500Y-123304800D03*
D21*
X110782500Y-124230200D03*
X110782500Y-122379400D03*
D22*
X110312500Y-123304800D03*
D23*
X111482500Y-123304800D03*
%TD*%
D24*
%TO.C,K1*%
X138010000Y-102540000D03*
X134810000Y-102540000D03*
X132610000Y-102540000D03*
X130410000Y-102540000D03*
X130410000Y-108540000D03*
X132610000Y-108540000D03*
X134810000Y-108540000D03*
X138010000Y-108540000D03*
%TD*%
D22*
%TO.C,R44*%
X110312500Y-129230000D03*
D21*
X110782500Y-128304600D03*
X110782500Y-130155400D03*
D23*
X111482500Y-129230000D03*
D19*
X116382500Y-128304600D03*
X116382500Y-130155400D03*
D18*
X116852500Y-129230000D03*
D20*
X115682500Y-129230000D03*
%TD*%
D13*
%TO.C,C62*%
X137029013Y-123950000D03*
X137029013Y-125500000D03*
%TD*%
D25*
%TO.C,C3*%
X185597591Y-115805343D03*
X184047591Y-115805343D03*
%TD*%
D26*
%TO.C,L5*%
X103939017Y-113350000D03*
X102239017Y-113350000D03*
%TD*%
D27*
%TO.C,C6*%
X184047591Y-110605343D03*
X185597591Y-110605343D03*
%TD*%
D28*
%TO.C,IC7*%
X148417600Y-96760000D03*
X148417600Y-98030000D03*
X148417600Y-99300000D03*
X148417600Y-100570000D03*
X148417600Y-101840000D03*
X148417600Y-103110000D03*
X148417600Y-104380000D03*
X148417600Y-105650000D03*
X157460000Y-105650000D03*
X157460000Y-104380000D03*
X157460000Y-103110000D03*
X157460000Y-101840000D03*
X157460000Y-100570000D03*
X157460000Y-99300000D03*
X157460000Y-98030000D03*
X157460000Y-96760000D03*
%TD*%
D29*
%TO.C,IN1N1*%
X179549768Y-114219751D03*
%TD*%
D17*
%TO.C,R19*%
X144810000Y-115600000D03*
X143160000Y-115600000D03*
%TD*%
D27*
%TO.C,C4*%
X184047591Y-114209751D03*
X185597591Y-114209751D03*
%TD*%
D16*
%TO.C,R39*%
X178025000Y-121059400D03*
X179675000Y-121059400D03*
%TD*%
D30*
%TO.C,C49*%
X159578800Y-101650000D03*
X159578800Y-100100000D03*
%TD*%
D13*
%TO.C,C18*%
X196900000Y-99314678D03*
X196900000Y-100864678D03*
%TD*%
D31*
%TO.C,L3*%
X139746800Y-115740000D03*
X141903200Y-115740000D03*
X141903200Y-116740000D03*
X139746800Y-116740000D03*
%TD*%
D25*
%TO.C,JP2*%
X204084804Y-116870000D03*
X202534804Y-116870000D03*
X205634804Y-116870000D03*
%TD*%
D27*
%TO.C,C42*%
X144762600Y-99500000D03*
X146312600Y-99500000D03*
%TD*%
D32*
%TO.C,R6*%
X196770852Y-129070000D03*
X196770852Y-130720000D03*
%TD*%
D33*
%TO.C,IC5*%
X191176390Y-129340000D03*
X191176390Y-130290000D03*
X191176390Y-131240000D03*
X193976390Y-131240000D03*
X193976390Y-129340000D03*
%TD*%
D13*
%TO.C,C28*%
X205596402Y-95570000D03*
X205596402Y-97120000D03*
%TD*%
D27*
%TO.C,C54*%
X164255000Y-124970000D03*
X165805000Y-124970000D03*
%TD*%
D34*
%TO.C,K3*%
X156500000Y-131890000D03*
X156500000Y-128690000D03*
X156500000Y-126490000D03*
X156500000Y-124290000D03*
X150500000Y-124290000D03*
X150500000Y-126490000D03*
X150500000Y-128690000D03*
X150500000Y-131890000D03*
%TD*%
D25*
%TO.C,C26*%
X205150000Y-105665371D03*
X203600000Y-105665371D03*
%TD*%
D28*
%TO.C,IC8*%
X148406400Y-107705000D03*
X148406400Y-108975000D03*
X148406400Y-110245000D03*
X148406400Y-111515000D03*
X148406400Y-112785000D03*
X148406400Y-114055000D03*
X148406400Y-115325000D03*
X148406400Y-116595000D03*
X157448800Y-116595000D03*
X157448800Y-115325000D03*
X157448800Y-114055000D03*
X157448800Y-112785000D03*
X157448800Y-111515000D03*
X157448800Y-110245000D03*
X157448800Y-108975000D03*
X157448800Y-107705000D03*
%TD*%
D30*
%TO.C,C14*%
X199846308Y-100864678D03*
X199846308Y-99314678D03*
%TD*%
D27*
%TO.C,C56*%
X178076300Y-130740200D03*
X179626300Y-130740200D03*
%TD*%
D35*
%TO.C,R23*%
X124173750Y-91720000D03*
X122348750Y-91720000D03*
%TD*%
D36*
%TO.C,R35*%
X160844908Y-124970304D03*
X162669908Y-124970304D03*
%TD*%
D37*
%TO.C,JP3*%
X129700000Y-116776900D03*
D38*
X129700000Y-119316900D03*
%TD*%
D17*
%TO.C,R1*%
X182674768Y-115805343D03*
X181024768Y-115805343D03*
%TD*%
D39*
%TO.C,FM3*%
X215500000Y-132500000D03*
%TD*%
D17*
%TO.C,R37*%
X182640000Y-132199400D03*
X180990000Y-132199400D03*
%TD*%
D35*
%TO.C,R31*%
X122627080Y-113310000D03*
X120802080Y-113310000D03*
%TD*%
D13*
%TO.C,C58*%
X175726710Y-130290000D03*
X175726710Y-131840000D03*
%TD*%
D40*
%TO.C,OK1*%
X157748800Y-93570650D03*
X157748800Y-91030650D03*
D41*
X148208800Y-91030650D03*
X148208800Y-93570650D03*
%TD*%
D27*
%TO.C,C22*%
X194423090Y-118060300D03*
X195973090Y-118060300D03*
%TD*%
D42*
%TO.C,IC9*%
X166319997Y-126601836D03*
X165669999Y-126601836D03*
X165019997Y-126601836D03*
X164369999Y-126601836D03*
X163720000Y-126601836D03*
X163069999Y-126601836D03*
X162420000Y-126601836D03*
X161769999Y-126601836D03*
X161769999Y-132151736D03*
X162419997Y-132151736D03*
X163069999Y-132151736D03*
X163719997Y-132151736D03*
X164369996Y-132151736D03*
X165019997Y-132151736D03*
X165669996Y-132151736D03*
X166319997Y-132151736D03*
%TD*%
D43*
%TO.C,D5*%
X100270000Y-128270000D03*
X100270000Y-131470000D03*
%TD*%
D37*
%TO.C,JP4*%
X95630000Y-129014300D03*
D38*
X95630000Y-131554300D03*
%TD*%
D30*
%TO.C,C55*%
X160650000Y-131220000D03*
X160650000Y-129670000D03*
%TD*%
D17*
%TO.C,R38*%
X179675000Y-119589400D03*
X178025000Y-119589400D03*
%TD*%
D30*
%TO.C,C17*%
X197412776Y-119569809D03*
X197412776Y-118019809D03*
%TD*%
D13*
%TO.C,C38*%
X144837600Y-107460000D03*
X144837600Y-109010000D03*
%TD*%
D29*
%TO.C,TP3*%
X200372604Y-126518773D03*
%TD*%
D35*
%TO.C,R34*%
X129722920Y-113310000D03*
X127897920Y-113310000D03*
%TD*%
D29*
%TO.C,TP2*%
X200372604Y-123790000D03*
%TD*%
D43*
%TO.C,D9*%
X130143050Y-128870000D03*
X130143050Y-132070000D03*
%TD*%
D30*
%TO.C,C50*%
X159578800Y-112803893D03*
X159578800Y-111253893D03*
%TD*%
D13*
%TO.C,C41*%
X146280000Y-96520000D03*
X146280000Y-98070000D03*
%TD*%
D36*
%TO.C,R27*%
X131270000Y-113310000D03*
X133095000Y-113310000D03*
%TD*%
D27*
%TO.C,C23*%
X194417796Y-119524155D03*
X195967796Y-119524155D03*
%TD*%
D30*
%TO.C,C53*%
X167378890Y-132187153D03*
X167378890Y-130637153D03*
%TD*%
%TO.C,C24*%
X196120000Y-95265500D03*
X196120000Y-93715500D03*
%TD*%
%TO.C,C19*%
X200849568Y-119583812D03*
X200849568Y-118033812D03*
%TD*%
D18*
%TO.C,R15*%
X116852500Y-99400000D03*
D19*
X116382500Y-100325400D03*
X116382500Y-98474600D03*
D20*
X115682500Y-99400000D03*
D21*
X110782500Y-100325400D03*
X110782500Y-98474600D03*
D22*
X110312500Y-99400000D03*
D23*
X111482500Y-99400000D03*
%TD*%
D30*
%TO.C,C31*%
X195250732Y-127402444D03*
X195250732Y-125852444D03*
%TD*%
D32*
%TO.C,R45*%
X131919013Y-125211945D03*
X131919013Y-126861945D03*
%TD*%
D13*
%TO.C,C46*%
X144861800Y-112595000D03*
X144861800Y-114145000D03*
%TD*%
D32*
%TO.C,R25*%
X162500000Y-100045000D03*
X162500000Y-101695000D03*
%TD*%
D25*
%TO.C,C59*%
X174693680Y-124970000D03*
X173143680Y-124970000D03*
%TD*%
D43*
%TO.C,D6*%
X130136950Y-124361200D03*
X130136950Y-127561200D03*
%TD*%
D39*
%TO.C,FM1*%
X92500000Y-132500000D03*
%TD*%
D44*
%TO.C,F3*%
X122382500Y-122030000D03*
X104782500Y-122030000D03*
%TD*%
D12*
%TO.C,D7*%
X128036950Y-132070000D03*
X128036950Y-128870000D03*
%TD*%
D16*
%TO.C,R14*%
X176185000Y-91820000D03*
X177835000Y-91820000D03*
%TD*%
D35*
%TO.C,R30*%
X119260000Y-113310000D03*
X117435000Y-113310000D03*
%TD*%
D45*
%TO.C,IC6*%
X169205000Y-93380000D03*
X169205000Y-94030000D03*
X169205000Y-94680000D03*
X169205000Y-95330000D03*
X169205000Y-95980000D03*
X169205000Y-96630000D03*
X169205000Y-97280000D03*
X174435000Y-97280000D03*
X174435000Y-96630000D03*
X174435000Y-95980000D03*
X174435000Y-95330000D03*
X174435000Y-94680000D03*
X174435000Y-94030000D03*
X174435000Y-93380000D03*
D46*
X171820000Y-95330000D03*
%TD*%
D13*
%TO.C,C9*%
X201321308Y-99314678D03*
X201321308Y-100864678D03*
%TD*%
D30*
%TO.C,C33*%
X195308842Y-130657967D03*
X195308842Y-129107967D03*
%TD*%
D16*
%TO.C,R36*%
X180990000Y-130739400D03*
X182640000Y-130739400D03*
%TD*%
%TO.C,R18*%
X159550850Y-93584350D03*
X161200850Y-93584350D03*
%TD*%
D29*
%TO.C,IN1P1*%
X179549768Y-115805343D03*
%TD*%
D30*
%TO.C,C61*%
X137029013Y-131075000D03*
X137029013Y-129525000D03*
%TD*%
D32*
%TO.C,R5*%
X196725280Y-125793020D03*
X196725280Y-127443020D03*
%TD*%
D13*
%TO.C,C29*%
X189916210Y-125830111D03*
X189916210Y-127380111D03*
%TD*%
D30*
%TO.C,C11*%
X193950000Y-100358200D03*
X193950000Y-98808200D03*
%TD*%
D32*
%TO.C,R7*%
X197583310Y-93675000D03*
X197583310Y-95325000D03*
%TD*%
D29*
%TO.C,IN2N1*%
X179549768Y-110605343D03*
%TD*%
D16*
%TO.C,R10*%
X203940000Y-112968877D03*
X205590000Y-112968877D03*
%TD*%
%TO.C,R11*%
X203938533Y-111492252D03*
X205588533Y-111492252D03*
%TD*%
D29*
%TO.C,TP1*%
X200372604Y-129247546D03*
%TD*%
D24*
%TO.C,K2*%
X138010000Y-92070000D03*
X134810000Y-92070000D03*
X132610000Y-92070000D03*
X130410000Y-92070000D03*
X130410000Y-98070000D03*
X132610000Y-98070000D03*
X134810000Y-98070000D03*
X138010000Y-98070000D03*
%TD*%
D44*
%TO.C,F2*%
X122382500Y-99400000D03*
X104782500Y-99400000D03*
%TD*%
D34*
%TO.C,K4*%
X146020000Y-131890000D03*
X146020000Y-128690000D03*
X146020000Y-126490000D03*
X146020000Y-124290000D03*
X140020000Y-124290000D03*
X140020000Y-126490000D03*
X140020000Y-128690000D03*
X140020000Y-131890000D03*
%TD*%
D25*
%TO.C,C5*%
X185597591Y-112225343D03*
X184047591Y-112225343D03*
%TD*%
D47*
%TO.C,D3*%
X185606463Y-126938954D03*
X183706463Y-126938954D03*
X184656463Y-129138954D03*
%TD*%
D48*
%TO.C,IC2*%
X203754540Y-96697400D03*
X203754540Y-96047400D03*
X203754540Y-95397400D03*
X203754540Y-94747400D03*
X199296840Y-94747400D03*
X199296840Y-95397400D03*
X199296840Y-96047400D03*
X199296840Y-96697400D03*
%TD*%
D49*
%TO.C,X1*%
X210600000Y-121638600D03*
X215400000Y-121638600D03*
D50*
X213000000Y-121338600D03*
X213000000Y-101678600D03*
D49*
X210600000Y-101378600D03*
X215400000Y-101378600D03*
D51*
X210993400Y-103888800D03*
X209723400Y-103888800D03*
X210993400Y-105158800D03*
X209723400Y-105158800D03*
X210993400Y-106428800D03*
X209723400Y-106428800D03*
X210993400Y-107698800D03*
X209723400Y-107698800D03*
X210993400Y-108968800D03*
X209723400Y-108968800D03*
X210993400Y-110238800D03*
X209723400Y-110238800D03*
X210993400Y-111508800D03*
X209723400Y-111508800D03*
X210993400Y-112778800D03*
X209723400Y-112778800D03*
X210993400Y-114048800D03*
X209723400Y-114048800D03*
X210993400Y-115318800D03*
X209723400Y-115318800D03*
X210993400Y-116588800D03*
X209723400Y-116588800D03*
X210993400Y-117858800D03*
X209723400Y-117858800D03*
X210993400Y-119128800D03*
X209723400Y-119128800D03*
%TD*%
D32*
%TO.C,R26*%
X162503805Y-111205531D03*
X162503805Y-112855531D03*
%TD*%
D52*
%TO.C,Q1*%
X113664500Y-115884400D03*
X113664500Y-117814800D03*
X115823500Y-116849600D03*
%TD*%
D35*
%TO.C,R32*%
X126175000Y-113310000D03*
X124350000Y-113310000D03*
%TD*%
D30*
%TO.C,C16*%
X191011502Y-101892276D03*
X191011502Y-100342276D03*
%TD*%
D53*
%TO.C,IC12*%
X135462013Y-126291045D03*
X134512013Y-126291045D03*
X133562013Y-126291045D03*
X133562013Y-128678645D03*
X135462013Y-128678645D03*
%TD*%
D16*
%TO.C,R8*%
X203558521Y-107120970D03*
X205208521Y-107120970D03*
%TD*%
D54*
%TO.C,D1*%
X135130000Y-119130000D03*
X131930000Y-119130000D03*
%TD*%
D35*
%TO.C,R28*%
X107354580Y-113300000D03*
X105529580Y-113300000D03*
%TD*%
D55*
%TO.C,C20*%
X199132106Y-119983196D03*
X199132106Y-118083196D03*
%TD*%
D56*
%TO.C,L1*%
X188260000Y-125755111D03*
X188260000Y-127455111D03*
%TD*%
D25*
%TO.C,JP1*%
X202082098Y-102487901D03*
X200532098Y-102487901D03*
X203632098Y-102487901D03*
%TD*%
D27*
%TO.C,C7*%
X191434158Y-120982772D03*
X192984158Y-120982772D03*
%TD*%
%TO.C,C44*%
X144787600Y-110450000D03*
X146337600Y-110450000D03*
%TD*%
D44*
%TO.C,F1*%
X122382500Y-106600000D03*
X104782500Y-106600000D03*
%TD*%
D35*
%TO.C,R21*%
X116911250Y-91720000D03*
X115086250Y-91720000D03*
%TD*%
D57*
%TO.C,R42*%
X110315500Y-119875200D03*
D58*
X110889000Y-119875200D03*
D57*
X113240500Y-119875200D03*
D59*
X112667000Y-119875200D03*
%TD*%
D39*
%TO.C,FM2*%
X215500000Y-90500000D03*
%TD*%
D30*
%TO.C,C60*%
X169030000Y-130931200D03*
X169030000Y-129381200D03*
%TD*%
D60*
%TO.C,IC4*%
X168955000Y-108115000D03*
X168955000Y-108615000D03*
X168955000Y-109115000D03*
X168955000Y-109615000D03*
X168955000Y-110115000D03*
X168955000Y-110615000D03*
D61*
X169640000Y-111300000D03*
X170140000Y-111300000D03*
X170640000Y-111300000D03*
X171140000Y-111300000D03*
X171640000Y-111300000D03*
X172140000Y-111300000D03*
D60*
X172825000Y-110615000D03*
X172825000Y-110115000D03*
X172825000Y-109615000D03*
X172825000Y-109115000D03*
X172825000Y-108615000D03*
X172825000Y-108115000D03*
D61*
X172140000Y-107430000D03*
X171640000Y-107430000D03*
X171140000Y-107430000D03*
X170640000Y-107430000D03*
X170140000Y-107430000D03*
X169640000Y-107430000D03*
D62*
X170890000Y-109365000D03*
%TD*%
D13*
%TO.C,C8*%
X198370353Y-99314678D03*
X198370353Y-100864678D03*
%TD*%
%TO.C,C40*%
X146321300Y-112595000D03*
X146321300Y-114145000D03*
%TD*%
D39*
%TO.C,FM4*%
X92500000Y-90500000D03*
%TD*%
D25*
%TO.C,C27*%
X202180000Y-103870000D03*
X200630000Y-103870000D03*
%TD*%
D30*
%TO.C,C52*%
X161040000Y-112803893D03*
X161040000Y-111253893D03*
%TD*%
D63*
%TO.C,IC10*%
X178390000Y-128678800D03*
X179040000Y-128678800D03*
X179690000Y-128678800D03*
X180340000Y-128678800D03*
X180990000Y-128678800D03*
X181640000Y-128678800D03*
X182290000Y-128678800D03*
X182290000Y-123040000D03*
X181640000Y-123040000D03*
X180990000Y-123040000D03*
X180340000Y-123040000D03*
X179690000Y-123040000D03*
X179040000Y-123040000D03*
X178390000Y-123040000D03*
%TD*%
D27*
%TO.C,C35*%
X176235000Y-95990000D03*
X177785000Y-95990000D03*
%TD*%
D16*
%TO.C,R13*%
X203940995Y-108582733D03*
X205590995Y-108582733D03*
%TD*%
D64*
%TO.C,R46*%
X131919013Y-129846945D03*
X131919013Y-128196945D03*
%TD*%
D65*
%TO.C,IC1*%
X189911540Y-106425000D03*
X189911540Y-106925000D03*
X189911540Y-107425000D03*
X189911540Y-107925000D03*
X189911540Y-108425000D03*
X189911540Y-108925000D03*
X189911540Y-109425000D03*
X189911540Y-109925000D03*
X189911540Y-110425000D03*
X189911540Y-110925000D03*
X189911540Y-111425000D03*
X189911540Y-111925000D03*
X189911540Y-112425000D03*
X189911540Y-112925000D03*
X189911540Y-113425000D03*
X189911540Y-113925000D03*
D66*
X191781290Y-115794750D03*
X192281290Y-115794750D03*
X192781290Y-115794750D03*
X193281290Y-115794750D03*
X193781290Y-115794750D03*
X194281290Y-115794750D03*
X194781290Y-115794750D03*
X195281290Y-115794750D03*
X195781290Y-115794750D03*
X196281290Y-115794750D03*
X196781290Y-115794750D03*
X197281290Y-115794750D03*
X197781290Y-115794750D03*
X198281290Y-115794750D03*
X198781290Y-115794750D03*
X199281290Y-115794750D03*
D65*
X201151040Y-113925000D03*
X201151040Y-113425000D03*
X201151040Y-112925000D03*
X201151040Y-112425000D03*
X201151040Y-111925000D03*
X201151040Y-111425000D03*
X201151040Y-110925000D03*
X201151040Y-110425000D03*
X201151040Y-109925000D03*
X201151040Y-109425000D03*
X201151040Y-108925000D03*
X201151040Y-108425000D03*
X201151040Y-107925000D03*
X201151040Y-107425000D03*
X201151040Y-106925000D03*
X201151040Y-106425000D03*
D66*
X199281290Y-104555250D03*
X198781290Y-104555250D03*
X198281290Y-104555250D03*
X197781290Y-104555250D03*
X197281290Y-104555250D03*
X196781290Y-104555250D03*
X196281290Y-104555250D03*
X195781290Y-104555250D03*
X195281290Y-104555250D03*
X194781290Y-104555250D03*
X194281290Y-104555250D03*
X193781290Y-104555250D03*
X193281290Y-104555250D03*
X192781290Y-104555250D03*
X192281290Y-104555250D03*
X191781290Y-104555250D03*
%TD*%
D29*
%TO.C,IN2P1*%
X179549768Y-112225343D03*
%TD*%
D27*
%TO.C,C30*%
X169445000Y-105660000D03*
X170995000Y-105660000D03*
%TD*%
D30*
%TO.C,C32*%
X189834166Y-130868245D03*
X189834166Y-129318245D03*
%TD*%
D13*
%TO.C,C48*%
X159567600Y-107470000D03*
X159567600Y-109020000D03*
%TD*%
%TO.C,C43*%
X146297600Y-107455000D03*
X146297600Y-109005000D03*
%TD*%
D44*
%TO.C,F4*%
X122382500Y-129230000D03*
X104782500Y-129230000D03*
%TD*%
D25*
%TO.C,C10*%
X192994645Y-119521678D03*
X191444645Y-119521678D03*
%TD*%
D52*
%TO.C,Q2*%
X109483500Y-115889600D03*
X109483500Y-117820000D03*
X111642500Y-116854800D03*
%TD*%
D16*
%TO.C,R9*%
X203936422Y-114630000D03*
X205586422Y-114630000D03*
%TD*%
D42*
%TO.C,IC11*%
X174655408Y-126601836D03*
X174005410Y-126601836D03*
X173355408Y-126601836D03*
X172705410Y-126601836D03*
X172055411Y-126601836D03*
X171405410Y-126601836D03*
X170755411Y-126601836D03*
X170105410Y-126601836D03*
X170105410Y-132151736D03*
X170755408Y-132151736D03*
X171405410Y-132151736D03*
X172055408Y-132151736D03*
X172705407Y-132151736D03*
X173355408Y-132151736D03*
X174005407Y-132151736D03*
X174655408Y-132151736D03*
%TD*%
D25*
%TO.C,C57*%
X182590000Y-121058800D03*
X181040000Y-121058800D03*
%TD*%
D13*
%TO.C,C39*%
X146317600Y-102435000D03*
X146317600Y-103985000D03*
%TD*%
D67*
%TO.C,D10*%
X183731863Y-124870000D03*
X185631863Y-124870000D03*
X184681863Y-122670000D03*
%TD*%
D17*
%TO.C,R4*%
X182674768Y-110605343D03*
X181024768Y-110605343D03*
%TD*%
%TO.C,R3*%
X182674768Y-112225343D03*
X181024768Y-112225343D03*
%TD*%
D26*
%TO.C,L4*%
X113577337Y-91720000D03*
X111877337Y-91720000D03*
%TD*%
D35*
%TO.C,R29*%
X110902500Y-113300000D03*
X109077500Y-113300000D03*
%TD*%
D27*
%TO.C,C34*%
X176225000Y-93300000D03*
X177775000Y-93300000D03*
%TD*%
%TO.C,C13*%
X193918090Y-101867800D03*
X195468090Y-101867800D03*
%TD*%
D68*
%TO.C,X2*%
X97000000Y-124835000D03*
X97000000Y-121025000D03*
X97000000Y-117215000D03*
X97000000Y-113405000D03*
X97000000Y-109595000D03*
X97000000Y-105785000D03*
X97000000Y-101975000D03*
X97000000Y-98165000D03*
%TD*%
D30*
%TO.C,C51*%
X161038800Y-101645000D03*
X161038800Y-100095000D03*
%TD*%
%TO.C,C21*%
X195429690Y-100358200D03*
X195429690Y-98808200D03*
%TD*%
D25*
%TO.C,C12*%
X192997990Y-118060300D03*
X191447990Y-118060300D03*
%TD*%
D69*
%TO.C,IC3*%
X191387590Y-125913300D03*
X191387590Y-126863300D03*
X191387590Y-127813300D03*
X193775190Y-127813300D03*
X193775190Y-125913300D03*
%TD*%
D27*
%TO.C,C25*%
X203600000Y-104210000D03*
X205150000Y-104210000D03*
%TD*%
D35*
%TO.C,R22*%
X120542500Y-91720000D03*
X118717500Y-91720000D03*
%TD*%
D30*
%TO.C,C15*%
X192473290Y-101900582D03*
X192473290Y-100350582D03*
%TD*%
D13*
%TO.C,C1*%
X187024768Y-114235343D03*
X187024768Y-115785343D03*
%TD*%
D40*
%TO.C,OK2*%
X170830000Y-122810000D03*
X170830000Y-120270000D03*
D41*
X161290000Y-120270000D03*
X161290000Y-122810000D03*
%TD*%
D70*
%TO.C,D2*%
X131930000Y-117020000D03*
X135130000Y-117020000D03*
%TD*%
D13*
%TO.C,C2*%
X187024768Y-110650343D03*
X187024768Y-112200343D03*
%TD*%
%TO.C,C45*%
X144864020Y-102430000D03*
X144864020Y-103980000D03*
%TD*%
D35*
%TO.C,R17*%
X146052500Y-91180000D03*
X144227500Y-91180000D03*
%TD*%
D36*
%TO.C,R24*%
X144237500Y-93080000D03*
X146062500Y-93080000D03*
%TD*%
D17*
%TO.C,R2*%
X182674768Y-114219751D03*
X181024768Y-114219751D03*
%TD*%
D15*
%TO.C,R33*%
X159130000Y-122715000D03*
X159130000Y-124540000D03*
%TD*%
D13*
%TO.C,C47*%
X159578800Y-96510000D03*
X159578800Y-98060000D03*
%TD*%
D18*
%TO.C,R16*%
X116852500Y-106600000D03*
D19*
X116382500Y-107525400D03*
X116382500Y-105674600D03*
D20*
X115682500Y-106600000D03*
D21*
X110782500Y-107525400D03*
X110782500Y-105674600D03*
D22*
X110312500Y-106600000D03*
D23*
X111482500Y-106600000D03*
%TD*%
D13*
%TO.C,C36*%
X146215000Y-115580000D03*
X146215000Y-117130000D03*
%TD*%
D16*
%TO.C,R40*%
X169655706Y-124742591D03*
X171305706Y-124742591D03*
%TD*%
M02*
