%TF.GenerationSoftware,KiCad,Pcbnew,10.0.4-10.0.4~ubuntu24.04.1*%
%TF.CreationDate,2026-07-19T11:47:03+02:00*%
%TF.ProjectId,EEZ DIB AFE3plus,45455a20-4449-4422-9041-464533706c75,rev?*%
%TF.SameCoordinates,Original*%
%TF.FileFunction,Profile,NP*%
%FSLAX46Y46*%
G04 Gerber Fmt 4.6, Leading zero omitted, Abs format (unit mm)*
G04 Created by KiCad (PCBNEW 10.0.4-10.0.4~ubuntu24.04.1) date 2026-07-19 11:47:03*
%MOMM*%
%LPD*%
G01*
G04 APERTURE LIST*
%TA.AperFunction,Profile*%
%ADD10C,0.050000*%
%TD*%
G04 APERTURE END LIST*
D10*
X91000000Y-90500000D02*
G75*
G02*
X92500000Y-89000000I1500000J0D01*
G01*
X91000000Y-132500000D02*
X91000000Y-90500000D01*
X92500000Y-134000000D02*
G75*
G02*
X91000000Y-132500000I0J1500000D01*
G01*
X93500000Y-111400000D02*
X93500000Y-111400000D01*
G75*
G02*
X94000000Y-110900000I500000J0D01*
G01*
X112000000Y-110900000D01*
G75*
G02*
X112500000Y-111400000I0J-500000D01*
G01*
X112500000Y-111600000D01*
G75*
G02*
X112000000Y-112100000I-500000J0D01*
G01*
X94000000Y-112100000D01*
G75*
G02*
X93500000Y-111600000I0J500000D01*
G01*
X93500000Y-111400000D01*
X108775000Y-89000000D02*
X92500000Y-89000000D01*
X108775000Y-89000000D02*
G75*
G02*
X110275000Y-87500000I1500000J0D01*
G01*
X108775000Y-134000000D02*
X92500000Y-134000000D01*
X110275000Y-87500000D02*
G75*
G02*
X111775000Y-89000000I0J-1500000D01*
G01*
X110275000Y-135500000D02*
G75*
G02*
X108775000Y-134000000I0J1500000D01*
G01*
X111775000Y-134000000D02*
G75*
G02*
X110275000Y-135500000I-1500000J0D01*
G01*
X111775000Y-134000000D02*
X215600000Y-134000000D01*
X116060000Y-111390000D02*
X116060000Y-111590000D01*
X116060000Y-111390000D02*
G75*
G02*
X116560000Y-110890000I500000J0D01*
G01*
X116560000Y-110890000D02*
X137190000Y-110890000D01*
X116560000Y-112090000D02*
G75*
G02*
X116060000Y-111590000I0J500000D01*
G01*
X136490000Y-112090000D02*
X116560000Y-112090000D01*
X136490000Y-119580000D02*
X136490000Y-112090000D01*
X136990000Y-120080000D02*
G75*
G02*
X136490000Y-119580000I0J500000D01*
G01*
X137190000Y-110890000D02*
G75*
G02*
X137690000Y-111390000I0J-500000D01*
G01*
X137690000Y-111390000D02*
X137690000Y-118880000D01*
X137690000Y-118880000D02*
X158140000Y-118880000D01*
X158140000Y-118880000D02*
G75*
G02*
X158640000Y-119380000I0J-500000D01*
G01*
X158140000Y-120080000D02*
X136990000Y-120080000D01*
X158640000Y-119380000D02*
X158640000Y-119580000D01*
X158640000Y-119580000D02*
G75*
G02*
X158140000Y-120080000I-500000J0D01*
G01*
X215500000Y-89000000D02*
X111775000Y-89000000D01*
X215500000Y-89000000D02*
G75*
G02*
X217000000Y-90500000I0J-1500000D01*
G01*
X217003330Y-132500000D02*
G75*
G02*
X215600000Y-134000000I-1503330J0D01*
G01*
X217003330Y-132500000D02*
X217000000Y-90500000D01*
M02*
