M48
; DRILL file KiCad 10.0.4-10.0.4~ubuntu24.04.1 date 2026-07-19T09:58:08
; FORMAT={-:-/ absolute / metric / decimal}
; #@! TF.CreationDate,2026-07-19T09:58:08+02:00
; #@! TF.GenerationSoftware,Kicad,Pcbnew,10.0.4-10.0.4~ubuntu24.04.1
; #@! TF.FileFunction,Plated,1,4,PTH
FMAT,2
METRIC
; #@! TA.AperFunction,Plated,PTH,ViaDrill
T1C0.300
; #@! TA.AperFunction,Plated,PTH,ComponentDrill
T2C0.610
; #@! TA.AperFunction,Plated,PTH,ComponentDrill
T3C1.000
; #@! TA.AperFunction,Plated,PTH,ComponentDrill
T4C1.400
%
G90
G05
T1
X104.73Y-113.3
X108.9Y-127.4
X108.9Y-128.0
X108.9Y-128.6
X108.9Y-129.2
X108.9Y-129.8
X108.9Y-130.4
X108.9Y-131.0
X109.387Y-109.416
X109.4Y-105.0
X109.4Y-105.633
X109.4Y-106.267
X109.4Y-106.9
X109.4Y-107.533
X109.4Y-108.167
X109.4Y-108.8
X109.5Y-127.4
X109.5Y-128.0
X109.5Y-128.6
X109.5Y-129.2
X109.5Y-129.8
X109.5Y-130.4
X109.5Y-131.0
X110.087Y-109.416
X110.1Y-108.8
X110.469Y-97.435
X110.473Y-96.9
X110.485Y-97.97
X110.787Y-109.416
X110.8Y-108.8
X111.031Y-96.9
X111.031Y-97.435
X111.031Y-97.97
X111.487Y-109.416
X111.5Y-108.8
X113.87Y-119.88
X114.4Y-119.9
X115.85Y-101.755
X115.85Y-102.417
X115.85Y-103.08
X115.85Y-103.742
X115.85Y-104.405
X116.555Y-101.755
X116.555Y-102.417
X116.555Y-103.08
X116.555Y-103.742
X116.555Y-104.405
X117.26Y-101.755
X117.26Y-102.417
X117.26Y-103.08
X117.26Y-103.742
X117.26Y-104.405
X117.5Y-127.4
X117.5Y-128.0
X117.5Y-128.6
X117.5Y-129.2
X117.5Y-129.8
X117.5Y-130.4
X117.5Y-131.0
X118.1Y-127.4
X118.1Y-128.0
X118.1Y-128.6
X118.1Y-129.2
X118.1Y-129.8
X118.1Y-130.4
X118.1Y-131.0
X120.802Y-114.53
X124.91Y-91.69
X125.6Y-126.2
X125.6Y-126.8
X125.6Y-127.4
X125.6Y-128.0
X125.6Y-130.7
X125.6Y-131.3
X125.6Y-131.9
X125.6Y-132.5
X126.2Y-126.2
X126.2Y-126.8
X126.2Y-127.4
X126.2Y-128.0
X126.2Y-130.7
X126.2Y-131.3
X126.2Y-131.9
X126.2Y-132.5
X127.03Y-117.4
X127.407Y-124.361
X127.72Y-118.41
X128.03Y-132.27
X128.03Y-132.77
X129.08Y-124.361
X130.807Y-124.361
X132.0Y-101.765
X132.0Y-102.54
X132.0Y-103.315
X132.0Y-107.765
X132.0Y-108.54
X132.0Y-109.315
X132.269Y-96.535
X132.273Y-96.0
X132.285Y-97.07
X132.65Y-93.46
X132.831Y-96.0
X132.831Y-96.535
X132.831Y-97.07
X133.2Y-101.765
X133.2Y-102.54
X133.2Y-103.315
X133.2Y-107.765
X133.2Y-108.54
X133.2Y-109.315
X135.832Y-119.317
X137.0Y-131.6
X137.04Y-123.37
X137.28Y-100.36
X137.39Y-125.52
X138.02Y-93.26
X138.02Y-101.34
X138.04Y-106.86
X138.43Y-127.2
X138.43Y-129.6
X138.95Y-98.06
X139.03Y-127.2
X139.03Y-129.6
X139.63Y-127.2
X139.63Y-129.6
X139.747Y-115.31
X140.23Y-127.2
X140.23Y-129.6
X140.83Y-127.2
X140.83Y-129.6
X141.04Y-131.86
X141.43Y-127.2
X141.43Y-129.6
X142.03Y-127.2
X142.03Y-129.6
X142.523Y-117.0
X142.63Y-127.2
X142.63Y-129.6
X143.23Y-127.2
X143.23Y-129.6
X143.83Y-127.2
X143.83Y-129.6
X144.3Y-93.9
X144.43Y-127.2
X144.43Y-129.6
X144.763Y-98.8
X144.838Y-109.72
X145.03Y-127.2
X145.03Y-129.6
X145.5Y-98.03
X145.57Y-109.01
X145.58Y-114.145
X145.6Y-103.98
X145.63Y-127.2
X145.63Y-129.6
X146.23Y-127.2
X146.23Y-129.6
X146.83Y-127.2
X146.83Y-129.6
X146.9Y-93.12
X147.13Y-103.28
X148.4Y-105.3
X148.41Y-117.06
X149.1Y-127.74
X149.1Y-128.4
X151.63Y-131.88
X156.59Y-132.54
X157.3Y-122.3
X157.75Y-92.01
X158.42Y-131.96
X158.85Y-105.66
X158.91Y-116.58
X159.14Y-110.87
X159.2Y-128.09
X159.2Y-131.6
X160.09Y-109.02
X160.17Y-98.05
X160.31Y-100.1
X160.32Y-111.254
X160.63Y-131.92
X161.33Y-121.11
X161.433Y-129.675
X161.455Y-126.426
X161.48Y-132.15
X161.51Y-100.59
X162.42Y-100.7
X162.46Y-111.87
X162.52Y-94.18
X163.32Y-101.7
X163.32Y-112.856
X163.59Y-91.4
X163.713Y-125.873
X164.23Y-124.36
X164.24Y-92.11
X165.02Y-125.86
X165.21Y-105.07
X165.67Y-128.0
X166.35Y-124.97
X167.285Y-108.615
X167.285Y-124.95
X167.381Y-130.049
X167.84Y-94.07
X167.94Y-124.743
X167.95Y-95.38
X167.95Y-132.187
X168.013Y-94.7
X168.03Y-93.06
X168.16Y-108.04
X168.18Y-127.46
X168.266Y-109.155
X168.37Y-111.03
X168.47Y-125.349
X169.03Y-129.98
X169.09Y-105.1
X169.111Y-131.621
X169.25Y-107.41
X169.305Y-127.395
X170.115Y-125.72
X170.14Y-108.615
X170.14Y-109.365
X170.14Y-110.115
X170.64Y-106.71
X170.747Y-131.42
X170.869Y-110.115
X170.89Y-109.365
X170.901Y-108.615
X171.04Y-93.798
X171.04Y-94.564
X171.04Y-95.33
X171.04Y-96.096
X171.04Y-96.862
X171.04Y-112.05
X171.4Y-131.41
X171.46Y-105.84
X171.64Y-108.615
X171.64Y-109.365
X171.64Y-110.115
X171.693Y-112.054
X171.743Y-106.516
X171.77Y-125.64
X171.83Y-93.798
X171.83Y-94.564
X171.83Y-95.33
X171.83Y-96.096
X171.83Y-96.862
X171.95Y-120.28
X172.14Y-105.12
X172.59Y-124.94
X172.6Y-93.798
X172.6Y-94.564
X172.6Y-95.33
X172.6Y-96.096
X172.6Y-96.862
X172.67Y-102.41
X173.14Y-129.35
X173.428Y-129.936
X173.52Y-107.5
X173.79Y-109.1
X174.005Y-131.42
X174.43Y-98.56
X174.673Y-128.6
X174.89Y-112.56
X175.25Y-124.94
X175.52Y-95.23
X175.521Y-113.681
X175.87Y-97.47
X176.019Y-114.179
X176.3Y-129.96
X176.41Y-132.436
X177.48Y-129.276
X177.77Y-93.91
X177.78Y-96.63
X178.07Y-130.12
X178.2Y-113.67
X178.36Y-91.89
X178.37Y-124.98
X178.48Y-112.0
X178.48Y-126.94
X179.02Y-127.55
X179.06Y-124.41
X179.41Y-90.03
X180.15Y-119.59
X180.326Y-129.914
X180.34Y-126.385
X180.98Y-131.643
X181.63Y-124.42
X181.63Y-127.55
X182.59Y-120.49
X182.99Y-124.87
X183.65Y-128.39
X184.35Y-121.872
X184.68Y-128.1
X184.92Y-126.94
X185.598Y-111.41
X185.598Y-115.0
X186.02Y-133.35
X186.92Y-130.77
X188.6Y-110.34
X188.6Y-111.0
X188.6Y-111.79
X190.51Y-126.863
X190.52Y-129.34
X191.012Y-99.69
X191.3Y-97.48
X191.445Y-118.78
X191.445Y-120.25
X191.74Y-101.892
X191.81Y-129.34
X192.24Y-126.863
X192.473Y-99.71
X192.56Y-128.74
X192.8Y-130.037
X192.995Y-120.26
X192.998Y-118.8
X193.843Y-101.09
X194.423Y-118.8
X194.7Y-98.808
X194.795Y-114.391
X195.251Y-126.84
X195.31Y-130.01
X195.85Y-117.39
X196.09Y-101.87
X196.12Y-128.12
X196.168Y-98.812
X196.69Y-119.568
X196.72Y-124.45
X196.72Y-125.1
X196.77Y-129.98
X197.23Y-105.89
X197.42Y-129.98
X197.642Y-99.315
X198.14Y-119.568
X198.7Y-97.4
X199.102Y-100.865
X199.3Y-97.4
X199.61Y-116.21
X199.78Y-112.59
X199.9Y-97.4
X199.958Y-111.083
X199.97Y-110.43
X200.01Y-108.93
X200.101Y-119.602
X200.562Y-99.315
X200.602Y-100.865
X201.156Y-103.654
X201.912Y-99.31
X202.18Y-104.52
X202.235Y-113.464
X202.53Y-116.24
X203.59Y-103.65
X203.64Y-101.7
X204.52Y-105.665
X204.52Y-107.121
X204.71Y-109.46
X204.71Y-112.22
X204.71Y-113.74
X205.26Y-114.07
X205.85Y-98.51
X206.09Y-95.57
X206.15Y-97.14
X207.519Y-107.651
X208.58Y-112.81
X208.638Y-117.522
X208.65Y-116.08
X208.97Y-108.969
X208.97Y-110.24
X208.99Y-99.17
X209.14Y-115.31
X209.14Y-114.049
X209.15Y-106.44
X209.161Y-103.887
X209.165Y-105.14
X209.206Y-111.045
X209.301Y-116.129
X209.71Y-119.64
X210.46Y-102.55
X211.5Y-106.41
X211.52Y-117.87
X211.545Y-119.137
X211.59Y-110.239
X211.6Y-111.52
X211.61Y-103.88
X211.67Y-114.06
X212.87Y-112.42
X213.175Y-111.745
X215.046Y-110.309
X215.98Y-108.969
T2
X179.55Y-110.605
X179.55Y-112.225
X179.55Y-114.22
X179.55Y-115.805
X200.373Y-123.79
X200.373Y-126.519
X200.373Y-129.248
T3
X95.63Y-129.014
X95.63Y-131.554
X129.7Y-116.777
X129.7Y-119.317
T4
X97.0Y-98.165
X97.0Y-101.975
X97.0Y-105.785
X97.0Y-109.595
X97.0Y-113.405
X97.0Y-117.215
X97.0Y-121.025
X97.0Y-124.835
M30
