%TF.GenerationSoftware,KiCad,Pcbnew,10.0.4-10.0.4~ubuntu24.04.1*%
%TF.CreationDate,2026-07-20T17:33:23+02:00*%
%TF.ProjectId,EEZ DIB AFE3plus,45455a20-4449-4422-9041-464533706c75,r1B1*%
%TF.SameCoordinates,Original*%
%TF.FileFunction,Copper,L2,Inr*%
%TF.FilePolarity,Positive*%
%FSLAX46Y46*%
G04 Gerber Fmt 4.6, Leading zero omitted, Abs format (unit mm)*
G04 Created by KiCad (PCBNEW 10.0.4-10.0.4~ubuntu24.04.1) date 2026-07-20 17:33:23*
%MOMM*%
%LPD*%
G01*
G04 APERTURE LIST*
G04 Aperture macros list*
%AMRoundRect*
0 Rectangle with rounded corners*
0 $1 Rounding radius*
0 $2 $3 $4 $5 $6 $7 $8 $9 X,Y pos of 4 corners*
0 Add a 4 corners polygon primitive as box body*
4,1,4,$2,$3,$4,$5,$6,$7,$8,$9,$2,$3,0*
0 Add four circle primitives for the rounded corners*
1,1,$1+$1,$2,$3*
1,1,$1+$1,$4,$5*
1,1,$1+$1,$6,$7*
1,1,$1+$1,$8,$9*
0 Add four rect primitives between the rounded corners*
20,1,$1+$1,$2,$3,$4,$5,0*
20,1,$1+$1,$4,$5,$6,$7,0*
20,1,$1+$1,$6,$7,$8,$9,0*
20,1,$1+$1,$8,$9,$2,$3,0*%
G04 Aperture macros list end*
%TA.AperFunction,ComponentPad*%
%ADD10C,1.270000*%
%TD*%
%TA.AperFunction,ComponentPad*%
%ADD11RoundRect,0.170000X-0.680000X-0.680000X0.680000X-0.680000X0.680000X0.680000X-0.680000X0.680000X0*%
%TD*%
%TA.AperFunction,ComponentPad*%
%ADD12O,1.700000X1.700000*%
%TD*%
%TA.AperFunction,ComponentPad*%
%ADD13O,2.400000X1.800000*%
%TD*%
%TA.AperFunction,ViaPad*%
%ADD14C,0.450000*%
%TD*%
G04 APERTURE END LIST*
D10*
%TO.N,IN1N*%
%TO.C,TP3*%
X179549768Y-114219751D03*
%TD*%
D11*
%TO.N,IN3N*%
%TO.C,JP3*%
X129700000Y-116776900D03*
D12*
%TO.N,GND*%
X129700000Y-119316900D03*
%TD*%
D11*
%TO.N,AIN4N*%
%TO.C,JP4*%
X95630000Y-129014300D03*
D12*
%TO.N,GND*%
X95630000Y-131554300D03*
%TD*%
D10*
%TO.N,-2V5_ISO*%
%TO.C,TP7*%
X200372604Y-126518773D03*
%TD*%
%TO.N,+2V5_ISO*%
%TO.C,TP6*%
X200372604Y-123790000D03*
%TD*%
%TO.N,IN1P*%
%TO.C,TP2*%
X179549768Y-115805343D03*
%TD*%
%TO.N,IN2N*%
%TO.C,TP5*%
X179549768Y-110605343D03*
%TD*%
%TO.N,GND*%
%TO.C,TP1*%
X200372604Y-129247546D03*
%TD*%
%TO.N,IN2P*%
%TO.C,TP4*%
X179549768Y-112225343D03*
%TD*%
D13*
%TO.N,AIN4N*%
%TO.C,X2*%
X97000000Y-124835000D03*
%TO.N,AIN4P*%
X97000000Y-121025000D03*
%TO.N,IN3N*%
X97000000Y-117215000D03*
%TO.N,AIN3P*%
X97000000Y-113405000D03*
%TO.N,/Isolated Ch#1\u002C Ch#2/AIN2N*%
X97000000Y-109595000D03*
%TO.N,/Isolated Ch#1\u002C Ch#2/AIN2P*%
X97000000Y-105785000D03*
%TO.N,/Isolated Ch#1\u002C Ch#2/AIN1N*%
X97000000Y-101975000D03*
%TO.N,/Isolated Ch#1\u002C Ch#2/AIN1P*%
X97000000Y-98165000D03*
%TD*%
D14*
%TO.N,GND*%
X172600000Y-96096245D03*
X171950000Y-120280000D03*
X171830000Y-94563755D03*
X202180000Y-104520000D03*
X191810000Y-129340000D03*
X170890000Y-109365000D03*
X204520000Y-107120970D03*
X170115410Y-125720000D03*
X203640000Y-101700000D03*
X171040000Y-94563755D03*
X160320000Y-111253893D03*
X161480000Y-132150000D03*
X209160733Y-103887395D03*
X171770000Y-125640000D03*
X159140000Y-110870000D03*
X169030000Y-129980000D03*
X190520000Y-129340000D03*
X204710000Y-109460000D03*
X171640000Y-108615000D03*
X170140000Y-110115000D03*
X160090000Y-109020000D03*
X171640000Y-109365000D03*
X170868554Y-110115000D03*
X200562263Y-99314678D03*
X192240000Y-126863300D03*
X171830000Y-95330000D03*
X135832224Y-119316900D03*
X171040000Y-96096245D03*
X176300000Y-129960000D03*
X137040000Y-123370000D03*
X172600000Y-93797510D03*
X204710000Y-112220000D03*
X209165306Y-105140282D03*
X171830000Y-93797510D03*
X160170000Y-98050000D03*
X160310000Y-100100000D03*
X167380887Y-130049011D03*
X211610000Y-103880000D03*
X204710000Y-113740000D03*
X166350000Y-124970000D03*
X211600000Y-111520000D03*
X191011502Y-100414418D03*
X192473290Y-100434418D03*
X175250409Y-124940000D03*
X172600000Y-94563755D03*
X171830000Y-96862490D03*
X185597591Y-111410000D03*
X185597591Y-115000000D03*
X195250732Y-126840000D03*
X158850000Y-105660000D03*
X171040000Y-95330000D03*
X170140000Y-109365000D03*
X137000000Y-131600000D03*
X172600000Y-95330000D03*
X170900722Y-108615000D03*
X161510000Y-100590000D03*
X178070000Y-130120000D03*
X161433074Y-129675058D03*
X204520000Y-105665371D03*
X158910000Y-116580000D03*
X195310000Y-130010000D03*
X170140000Y-108615000D03*
X201912263Y-99310000D03*
X169090000Y-105100000D03*
X180150000Y-119590000D03*
X177770000Y-93910000D03*
X171640000Y-110115000D03*
X180980000Y-131642600D03*
X172600000Y-96862490D03*
X157750000Y-92010000D03*
X182590000Y-120490000D03*
X171040000Y-96862490D03*
X211545044Y-119137050D03*
X190510000Y-126863300D03*
X171830000Y-96096245D03*
X177780000Y-96630000D03*
X171040000Y-93797510D03*
X163712996Y-125872580D03*
X202530000Y-116240000D03*
X209205780Y-111044679D03*
%TO.N,AIN4N*%
X108900000Y-128000000D03*
X108900000Y-129800000D03*
X108900000Y-131000000D03*
X108900000Y-129200000D03*
X109500000Y-131000000D03*
X109500000Y-127400000D03*
X108900000Y-127400000D03*
X128030000Y-132270000D03*
X108900000Y-128600000D03*
X109500000Y-128600000D03*
X108900000Y-130400000D03*
X109500000Y-129800000D03*
X109500000Y-130400000D03*
X109500000Y-128000000D03*
X128030000Y-132770000D03*
X109500000Y-129200000D03*
%TO.N,Net-(K3B-NC)*%
X149100000Y-127740000D03*
X113870000Y-119880000D03*
X130806950Y-124361200D03*
X114400000Y-119900000D03*
X127406950Y-124361200D03*
X149100000Y-128400000D03*
X129080000Y-124361200D03*
%TO.N,/Isolated Ch#1\u002C Ch#2/AIN1N*%
X144762600Y-98800000D03*
X145600000Y-103980000D03*
X148400000Y-105300000D03*
X145500000Y-98030000D03*
X144300000Y-93900000D03*
X137280000Y-100360000D03*
%TO.N,-5V_ISO*%
X208970000Y-108968800D03*
X186920000Y-130770000D03*
%TO.N,/ADC\u002C IOexp\u002C LDOs/AVSS*%
X198700000Y-97400000D03*
X196090000Y-101870000D03*
X197420000Y-129980000D03*
X199900000Y-97400000D03*
X194794690Y-114391400D03*
X196770000Y-129980000D03*
X200100604Y-119602147D03*
X197642263Y-99314678D03*
X197230000Y-105890000D03*
X196690000Y-119568313D03*
X199300000Y-97400000D03*
X191740000Y-102616694D03*
X195850000Y-117390000D03*
X191444645Y-120250000D03*
X194700000Y-98808200D03*
X191444645Y-118780000D03*
X199610000Y-116210000D03*
X198140000Y-119568313D03*
X196167708Y-98812395D03*
%TO.N,/Isolated Ch#1\u002C Ch#2/HGND*%
X148410000Y-117060000D03*
X145580000Y-114145000D03*
X142523200Y-117000000D03*
X145570000Y-109010000D03*
X144837600Y-109720000D03*
%TO.N,Net-(IC12C-D)*%
X159200000Y-131600000D03*
X170746878Y-131420205D03*
%TO.N,+5V_ISO*%
X186020000Y-133350000D03*
X160630000Y-131920000D03*
X138020000Y-101340000D03*
X156590000Y-132540000D03*
X179410000Y-90030000D03*
X206360000Y-95570000D03*
X215980000Y-108968800D03*
X185140000Y-90030000D03*
X169110594Y-131621342D03*
X138020000Y-93260000D03*
%TO.N,Net-(K1B-COM)*%
X133200000Y-107765000D03*
X115850000Y-104405000D03*
X116555000Y-102417500D03*
X117260000Y-103742500D03*
X133200000Y-108540000D03*
X117260000Y-101755000D03*
X115850000Y-102417500D03*
X117260000Y-104405000D03*
X116555000Y-101755000D03*
X117260000Y-102417500D03*
X133200000Y-103314999D03*
X133200000Y-109314999D03*
X132000000Y-109314999D03*
X116555000Y-103080000D03*
X132000000Y-107765000D03*
X132000000Y-103314999D03*
X117260000Y-103080000D03*
X132000000Y-102540000D03*
X115850000Y-103742500D03*
X133200000Y-102540000D03*
X116555000Y-104405000D03*
X133200000Y-101765000D03*
X132000000Y-101765000D03*
X115850000Y-103080000D03*
X115850000Y-101755000D03*
X116555000Y-103742500D03*
X132000000Y-108540000D03*
%TO.N,/Isolated Ch#1\u002C Ch#2/ISEL10#2*%
X164240000Y-92110000D03*
X138040000Y-106860000D03*
%TO.N,IN4N*%
X188600000Y-110340000D03*
X183650000Y-128390000D03*
%TO.N,Net-(K4B-NC)*%
X117500000Y-131000000D03*
X141430000Y-129600000D03*
X117500000Y-127400000D03*
X117500000Y-128000000D03*
X118100000Y-131000000D03*
X142030000Y-129600000D03*
X145630000Y-129600000D03*
X117500000Y-129800000D03*
X146830000Y-129600000D03*
X117500000Y-128600000D03*
X118100000Y-129200000D03*
X146230000Y-129600000D03*
X144430000Y-129600000D03*
X118100000Y-130400000D03*
X117500000Y-130400000D03*
X140830000Y-129600000D03*
X139630000Y-129600000D03*
X143230000Y-129600000D03*
X143830000Y-129600000D03*
X118100000Y-128000000D03*
X142630000Y-129600000D03*
X138430000Y-129600000D03*
X117500000Y-129200000D03*
X140230000Y-129600000D03*
X118100000Y-129800000D03*
X118100000Y-128600000D03*
X145030000Y-129600000D03*
X139030000Y-129600000D03*
X118100000Y-127400000D03*
%TO.N,-2V5_ISO*%
X177480000Y-129276133D03*
X180340000Y-126384800D03*
X137390000Y-125520000D03*
X205600000Y-97720000D03*
X192800000Y-130037000D03*
%TO.N,Net-(OK2-S2)*%
X161330000Y-121110000D03*
X104730000Y-113300000D03*
%TO.N,Net-(IC8-INP)*%
X124910000Y-91690000D03*
X146900000Y-93120000D03*
X147130000Y-103280000D03*
%TO.N,IN1P*%
X178200000Y-113670000D03*
%TO.N,+3V3_ISO*%
X203590000Y-103650000D03*
X163320000Y-101700000D03*
X201156193Y-103654024D03*
X205260000Y-114070000D03*
X163320000Y-112855531D03*
X171460000Y-105840000D03*
X207519083Y-107650974D03*
X178360000Y-91890000D03*
X192560000Y-128740000D03*
%TO.N,DIAG#1*%
X162420000Y-100700000D03*
X171040000Y-112050000D03*
%TO.N,/ADC\u002C IOexp\u002C LDOs/ISO_AFE_EXT_CLK*%
X211500000Y-106410000D03*
X208637674Y-117522326D03*
%TO.N,-15V_ISO*%
X208970000Y-110240000D03*
X172590409Y-124940000D03*
X164230000Y-124360000D03*
%TO.N,ISEL#4*%
X173140000Y-129350000D03*
X151630000Y-131880000D03*
X174430000Y-98560000D03*
%TO.N,IN2N*%
X176018902Y-114178902D03*
X178480000Y-112000000D03*
%TO.N,IN2P*%
X175521098Y-113681098D03*
%TO.N,DIAG#2*%
X171693189Y-112054114D03*
X162460000Y-111870000D03*
%TO.N,/ADC\u002C IOexp\u002C LDOs/AVDD*%
X192997990Y-118800000D03*
X199102263Y-100864678D03*
X196720000Y-124450000D03*
X200602263Y-100864678D03*
X193843090Y-101090000D03*
X196720000Y-125100000D03*
X192994645Y-120260000D03*
%TO.N,+2V5_ISO*%
X158420000Y-131960000D03*
X180326277Y-129913723D03*
X196120000Y-128120000D03*
%TO.N,Net-(IC10A-S)*%
X165019997Y-125860000D03*
X120802080Y-114530000D03*
%TO.N,+15V_ISO*%
X167950000Y-132187153D03*
X211590000Y-110238800D03*
X176410409Y-132435600D03*
%TO.N,Net-(IC1-VREFP)*%
X194423090Y-118800000D03*
X193900000Y-97450000D03*
%TO.N,USEL20#3*%
X167285000Y-108615000D03*
X167285000Y-124950000D03*
%TO.N,IN3P*%
X181630000Y-127550000D03*
X188600000Y-111790000D03*
X184680000Y-128100000D03*
X165669996Y-128000000D03*
X179020000Y-127550000D03*
%TO.N,USEL1#3*%
X167940000Y-124742591D03*
X168160000Y-108040000D03*
X161455000Y-126425600D03*
%TO.N,Net-(IC10B-S)*%
X159200000Y-128090000D03*
X127030000Y-117400000D03*
%TO.N,USEL100#3*%
X168469800Y-125348825D03*
X168266414Y-109155457D03*
%TO.N,Net-(K2C-COM)*%
X132273304Y-96000000D03*
X132830641Y-96535000D03*
X110485137Y-97970000D03*
X111030641Y-96900000D03*
X111030641Y-97970000D03*
X132830641Y-96000000D03*
X110469359Y-97435000D03*
X132285137Y-97070000D03*
X111030641Y-97435000D03*
X110473304Y-96900000D03*
X132269359Y-96535000D03*
X132830641Y-97070000D03*
%TO.N,~{RELAY_CS}*%
X168030000Y-93060000D03*
X215046200Y-110309362D03*
%TO.N,ISO_SCK*%
X172140000Y-105120000D03*
X167840000Y-94070000D03*
X211670000Y-114060000D03*
%TO.N,ISO_MOSI*%
X168013400Y-94700000D03*
X172669800Y-102409800D03*
X171742796Y-106516252D03*
X212870200Y-112420000D03*
%TO.N,ISO_MISO*%
X167950000Y-95380000D03*
X213175374Y-111745374D03*
X173520000Y-107500000D03*
%TO.N,/Isolated Ch#1\u002C Ch#2/ISEL#2*%
X138950000Y-98060000D03*
X163590000Y-91400000D03*
%TO.N,ISEL10#4*%
X173427849Y-129936359D03*
X141040000Y-131860000D03*
X175870000Y-97470000D03*
%TO.N,~{ISO_RESET}*%
X175520000Y-95230000D03*
X209150000Y-106440000D03*
X207898211Y-96379200D03*
X169250000Y-107410000D03*
X199780000Y-112590000D03*
%TO.N,USEL#1*%
X165210000Y-105070000D03*
X162520000Y-94180000D03*
%TO.N,Net-(K4B-COM)*%
X141430000Y-127200000D03*
X125600000Y-131300000D03*
X125600000Y-126200000D03*
X126200000Y-128000000D03*
X125600000Y-132500000D03*
X140830000Y-127200000D03*
X146830000Y-127200000D03*
X142630000Y-127200000D03*
X125600000Y-126800000D03*
X138430000Y-127200000D03*
X126200000Y-126200000D03*
X146230000Y-127200000D03*
X145030000Y-127200000D03*
X145630000Y-127200000D03*
X144430000Y-127200000D03*
X140230000Y-127200000D03*
X126200000Y-127400000D03*
X142030000Y-127200000D03*
X126200000Y-132500000D03*
X125600000Y-131900000D03*
X126200000Y-130700000D03*
X125600000Y-130700000D03*
X125600000Y-127400000D03*
X143830000Y-127200000D03*
X126200000Y-126800000D03*
X139630000Y-127200000D03*
X126200000Y-131900000D03*
X139030000Y-127200000D03*
X143230000Y-127200000D03*
X125600000Y-128000000D03*
X126200000Y-131300000D03*
%TO.N,Net-(D3-A)*%
X178480000Y-126940000D03*
X184920000Y-126940000D03*
%TO.N,/ADC\u002C IOexp\u002C LDOs/~{AFE_IOEXP_CS}*%
X173790000Y-109100000D03*
X209050000Y-97400000D03*
X211520000Y-117870000D03*
%TO.N,/ADC\u002C IOexp\u002C LDOs/~{AFE_IOEXP_INT}*%
X170640000Y-106710000D03*
X208520000Y-96890000D03*
X208650000Y-116080000D03*
%TO.N,ISEL_MID#4*%
X127720000Y-118410000D03*
X168180000Y-127460000D03*
X168370000Y-111030000D03*
%TO.N,Net-(IC12B-S)*%
X169305000Y-127395000D03*
X157300000Y-122300000D03*
%TO.N,ISEL_LOW#4*%
X174890000Y-112560000D03*
X174673203Y-128600000D03*
%TO.N,IN4P*%
X184350000Y-121871600D03*
X174005407Y-131420000D03*
X188600000Y-111000000D03*
X171400000Y-131410000D03*
X181630000Y-124420000D03*
X179060000Y-124410000D03*
%TO.N,Net-(D10-A)*%
X178370000Y-124980000D03*
X182990000Y-124870000D03*
%TO.N,/Isolated Ch#1\u002C Ch#2/AIN2N*%
X109400000Y-105633333D03*
X110086690Y-109415756D03*
X111486690Y-109415756D03*
X109400000Y-106266667D03*
X109400000Y-105000000D03*
X109400000Y-106900000D03*
X109386690Y-109415756D03*
X110800000Y-108800000D03*
X109400000Y-108800000D03*
X109400000Y-107533333D03*
X111500000Y-108800000D03*
X109400000Y-108166667D03*
X110100000Y-108800000D03*
X110786690Y-109415756D03*
%TO.N,/ADC\u002C IOexp\u002C LDOs/ISO_AFE_MOSI*%
X209140000Y-115310000D03*
X202234992Y-113464135D03*
%TO.N,/ADC\u002C IOexp\u002C LDOs/~{ADC_CS}*%
X208580000Y-112810000D03*
X199958126Y-111083095D03*
%TO.N,/ADC\u002C IOexp\u002C LDOs/~{ISO_AFE_DRDY}*%
X209760000Y-119580000D03*
X203860000Y-107680000D03*
%TO.N,/ADC\u002C IOexp\u002C LDOs/ISO_AFE_SCK*%
X209140200Y-114048800D03*
X199970000Y-110430000D03*
%TO.N,/ADC\u002C IOexp\u002C LDOs/ISO_AFE_MISO*%
X200010000Y-108930000D03*
X209301339Y-116129313D03*
%TD*%
%TA.AperFunction,Conductor*%
%TO.N,GND*%
G36*
X215502947Y-89200731D02*
G01*
X215697394Y-89216035D01*
X215709033Y-89217878D01*
X215895812Y-89262720D01*
X215907028Y-89266364D01*
X216084504Y-89339876D01*
X216095004Y-89345227D01*
X216246552Y-89438096D01*
X216258778Y-89445589D01*
X216268324Y-89452524D01*
X216414389Y-89577275D01*
X216422724Y-89585610D01*
X216436125Y-89601300D01*
X216547475Y-89731675D01*
X216554410Y-89741221D01*
X216654768Y-89904988D01*
X216660126Y-89915502D01*
X216733634Y-90092968D01*
X216737280Y-90104191D01*
X216782119Y-90290958D01*
X216783965Y-90302613D01*
X216799268Y-90497052D01*
X216799500Y-90502947D01*
X216799500Y-90539882D01*
X216799501Y-90539886D01*
X216799502Y-90546657D01*
X216799503Y-90546658D01*
X216802829Y-132497172D01*
X216802616Y-132502828D01*
X216788544Y-132689582D01*
X216786851Y-132700756D01*
X216745582Y-132880542D01*
X216742233Y-132891335D01*
X216674490Y-133062904D01*
X216669561Y-133073075D01*
X216576874Y-133232549D01*
X216570478Y-133241865D01*
X216454936Y-133385655D01*
X216447215Y-133393908D01*
X216311430Y-133518758D01*
X216302560Y-133525760D01*
X216149600Y-133628852D01*
X216139780Y-133634446D01*
X215973097Y-133713452D01*
X215962550Y-133717511D01*
X215785915Y-133770645D01*
X215774879Y-133773078D01*
X215595063Y-133798745D01*
X215584437Y-133799500D01*
X186358322Y-133799500D01*
X186309984Y-133781907D01*
X186284264Y-133737358D01*
X186293197Y-133686700D01*
X186305148Y-133671126D01*
X186363045Y-133613228D01*
X186397004Y-133554410D01*
X186419485Y-133515472D01*
X186448700Y-133406439D01*
X186448700Y-133293561D01*
X186419485Y-133184528D01*
X186378214Y-133113045D01*
X186363045Y-133086771D01*
X186283228Y-133006954D01*
X186185472Y-132950515D01*
X186076439Y-132921300D01*
X185963561Y-132921300D01*
X185854528Y-132950515D01*
X185854526Y-132950515D01*
X185756771Y-133006954D01*
X185676954Y-133086771D01*
X185620515Y-133184526D01*
X185620515Y-133184528D01*
X185591300Y-133293561D01*
X185591300Y-133406439D01*
X185620515Y-133515471D01*
X185620515Y-133515473D01*
X185676954Y-133613228D01*
X185734852Y-133671126D01*
X185756592Y-133717746D01*
X185743278Y-133767433D01*
X185701141Y-133796938D01*
X185681678Y-133799500D01*
X152646195Y-133799500D01*
X152626378Y-133792287D01*
X152605790Y-133787723D01*
X152600487Y-133782864D01*
X152597857Y-133781907D01*
X152586537Y-133770082D01*
X152574084Y-133753852D01*
X152564272Y-133736857D01*
X152521096Y-133632621D01*
X152516018Y-133613668D01*
X152500643Y-133496882D01*
X152500000Y-133487067D01*
X152500000Y-132483561D01*
X156161300Y-132483561D01*
X156161300Y-132596439D01*
X156190515Y-132705471D01*
X156190515Y-132705473D01*
X156246954Y-132803228D01*
X156326771Y-132883045D01*
X156383211Y-132915630D01*
X156424528Y-132939485D01*
X156533561Y-132968700D01*
X156533564Y-132968700D01*
X156646436Y-132968700D01*
X156646439Y-132968700D01*
X156755472Y-132939485D01*
X156853228Y-132883045D01*
X156933045Y-132803228D01*
X156989485Y-132705472D01*
X157018700Y-132596439D01*
X157018700Y-132483561D01*
X156989485Y-132374528D01*
X156939932Y-132288700D01*
X156933045Y-132276771D01*
X156853228Y-132196954D01*
X156755472Y-132140515D01*
X156646439Y-132111300D01*
X156533561Y-132111300D01*
X156424528Y-132140515D01*
X156424526Y-132140515D01*
X156326771Y-132196954D01*
X156246954Y-132276771D01*
X156190515Y-132374526D01*
X156190515Y-132374528D01*
X156161300Y-132483561D01*
X152500000Y-132483561D01*
X152500000Y-131903561D01*
X157991300Y-131903561D01*
X157991300Y-132016439D01*
X158016718Y-132111300D01*
X158020515Y-132125471D01*
X158020515Y-132125473D01*
X158076954Y-132223228D01*
X158156771Y-132303045D01*
X158197291Y-132326439D01*
X158254528Y-132359485D01*
X158363561Y-132388700D01*
X158363564Y-132388700D01*
X158476436Y-132388700D01*
X158476439Y-132388700D01*
X158585472Y-132359485D01*
X158683228Y-132303045D01*
X158763045Y-132223228D01*
X158819485Y-132125472D01*
X158848700Y-132016439D01*
X158848700Y-132016429D01*
X158849210Y-132012560D01*
X158872959Y-131966931D01*
X158920482Y-131947243D01*
X158961367Y-131957246D01*
X159007676Y-131983982D01*
X159034528Y-131999485D01*
X159143561Y-132028700D01*
X159143564Y-132028700D01*
X159256436Y-132028700D01*
X159256439Y-132028700D01*
X159365472Y-131999485D01*
X159463228Y-131943045D01*
X159542712Y-131863561D01*
X160201300Y-131863561D01*
X160201300Y-131976439D01*
X160221022Y-132050042D01*
X160230515Y-132085471D01*
X160230515Y-132085473D01*
X160286954Y-132183228D01*
X160366771Y-132263045D01*
X160411207Y-132288700D01*
X160464528Y-132319485D01*
X160573561Y-132348700D01*
X160573564Y-132348700D01*
X160686436Y-132348700D01*
X160686439Y-132348700D01*
X160795472Y-132319485D01*
X160893228Y-132263045D01*
X160973045Y-132183228D01*
X161003364Y-132130714D01*
X167521300Y-132130714D01*
X167521300Y-132243592D01*
X167550515Y-132352624D01*
X167550515Y-132352626D01*
X167606954Y-132450381D01*
X167686771Y-132530198D01*
X167732222Y-132556439D01*
X167784528Y-132586638D01*
X167893561Y-132615853D01*
X167893564Y-132615853D01*
X168006436Y-132615853D01*
X168006439Y-132615853D01*
X168115472Y-132586638D01*
X168213228Y-132530198D01*
X168293045Y-132450381D01*
X168334164Y-132379161D01*
X175981709Y-132379161D01*
X175981709Y-132492039D01*
X176009682Y-132596436D01*
X176010924Y-132601071D01*
X176010924Y-132601073D01*
X176067363Y-132698828D01*
X176147180Y-132778645D01*
X176203620Y-132811230D01*
X176244937Y-132835085D01*
X176353970Y-132864300D01*
X176353973Y-132864300D01*
X176466845Y-132864300D01*
X176466848Y-132864300D01*
X176575881Y-132835085D01*
X176673637Y-132778645D01*
X176753454Y-132698828D01*
X176809894Y-132601072D01*
X176839109Y-132492039D01*
X176839109Y-132379161D01*
X176809894Y-132270128D01*
X176803749Y-132259485D01*
X176753454Y-132172371D01*
X176673637Y-132092554D01*
X176575881Y-132036115D01*
X176466848Y-132006900D01*
X176353970Y-132006900D01*
X176244937Y-132036115D01*
X176244935Y-132036115D01*
X176147180Y-132092554D01*
X176067363Y-132172371D01*
X176010924Y-132270126D01*
X176010924Y-132270128D01*
X175981709Y-132379161D01*
X168334164Y-132379161D01*
X168349485Y-132352625D01*
X168378700Y-132243592D01*
X168378700Y-132130714D01*
X168349485Y-132021681D01*
X168348992Y-132020827D01*
X168293045Y-131923924D01*
X168213228Y-131844107D01*
X168115472Y-131787668D01*
X168006439Y-131758453D01*
X167893561Y-131758453D01*
X167784528Y-131787668D01*
X167784526Y-131787668D01*
X167686771Y-131844107D01*
X167606954Y-131923924D01*
X167550515Y-132021679D01*
X167550515Y-132021681D01*
X167521300Y-132130714D01*
X161003364Y-132130714D01*
X161006391Y-132125472D01*
X161027919Y-132088185D01*
X161029484Y-132085473D01*
X161029485Y-132085472D01*
X161058700Y-131976439D01*
X161058700Y-131863561D01*
X161029485Y-131754528D01*
X161029484Y-131754526D01*
X160973045Y-131656771D01*
X160893228Y-131576954D01*
X160872355Y-131564903D01*
X168681894Y-131564903D01*
X168681894Y-131677781D01*
X168705391Y-131765473D01*
X168711109Y-131786813D01*
X168711109Y-131786815D01*
X168767548Y-131884570D01*
X168847365Y-131964387D01*
X168881305Y-131983982D01*
X168945122Y-132020827D01*
X169054155Y-132050042D01*
X169054158Y-132050042D01*
X169167030Y-132050042D01*
X169167033Y-132050042D01*
X169276066Y-132020827D01*
X169373822Y-131964387D01*
X169453639Y-131884570D01*
X169510079Y-131786814D01*
X169539294Y-131677781D01*
X169539294Y-131564903D01*
X169510079Y-131455870D01*
X169507440Y-131451300D01*
X169475765Y-131396437D01*
X169475764Y-131396435D01*
X169456903Y-131363766D01*
X170318178Y-131363766D01*
X170318178Y-131476644D01*
X170347393Y-131585676D01*
X170347393Y-131585678D01*
X170403832Y-131683433D01*
X170483649Y-131763250D01*
X170524465Y-131786815D01*
X170581406Y-131819690D01*
X170690439Y-131848905D01*
X170690442Y-131848905D01*
X170803314Y-131848905D01*
X170803317Y-131848905D01*
X170912350Y-131819690D01*
X171010106Y-131763250D01*
X171025366Y-131747989D01*
X171071985Y-131726249D01*
X171121672Y-131739562D01*
X171131715Y-131747989D01*
X171136771Y-131753045D01*
X171193211Y-131785630D01*
X171234528Y-131809485D01*
X171343561Y-131838700D01*
X171343564Y-131838700D01*
X171456436Y-131838700D01*
X171456439Y-131838700D01*
X171565472Y-131809485D01*
X171663228Y-131753045D01*
X171743045Y-131673228D01*
X171799485Y-131575472D01*
X171828700Y-131466439D01*
X171828700Y-131363561D01*
X173576707Y-131363561D01*
X173576707Y-131476439D01*
X173603243Y-131575472D01*
X173605922Y-131585471D01*
X173605922Y-131585473D01*
X173662361Y-131683228D01*
X173742178Y-131763045D01*
X173783349Y-131786815D01*
X173839935Y-131819485D01*
X173948968Y-131848700D01*
X173948971Y-131848700D01*
X174061843Y-131848700D01*
X174061846Y-131848700D01*
X174170879Y-131819485D01*
X174268635Y-131763045D01*
X174348452Y-131683228D01*
X174404892Y-131585472D01*
X174434107Y-131476439D01*
X174434107Y-131363561D01*
X174404892Y-131254528D01*
X174400715Y-131247293D01*
X174348452Y-131156771D01*
X174268635Y-131076954D01*
X174170879Y-131020515D01*
X174061846Y-130991300D01*
X173948968Y-130991300D01*
X173839935Y-131020515D01*
X173839933Y-131020515D01*
X173742178Y-131076954D01*
X173662361Y-131156771D01*
X173605922Y-131254526D01*
X173605922Y-131254528D01*
X173576707Y-131363561D01*
X171828700Y-131363561D01*
X171828700Y-131353561D01*
X171799485Y-131244528D01*
X171773026Y-131198700D01*
X171743045Y-131146771D01*
X171663228Y-131066954D01*
X171565472Y-131010515D01*
X171456439Y-130981300D01*
X171343561Y-130981300D01*
X171234528Y-131010515D01*
X171234526Y-131010515D01*
X171136773Y-131066953D01*
X171121509Y-131082217D01*
X171074888Y-131103955D01*
X171025201Y-131090640D01*
X171015162Y-131082215D01*
X171010106Y-131077159D01*
X170912350Y-131020720D01*
X170911585Y-131020515D01*
X170803317Y-130991505D01*
X170690439Y-130991505D01*
X170581406Y-131020720D01*
X170581404Y-131020720D01*
X170483649Y-131077159D01*
X170403832Y-131156976D01*
X170347393Y-131254731D01*
X170347393Y-131254733D01*
X170318178Y-131363766D01*
X169456903Y-131363766D01*
X169453641Y-131358115D01*
X169373822Y-131278296D01*
X169276066Y-131221857D01*
X169167033Y-131192642D01*
X169054155Y-131192642D01*
X168945122Y-131221857D01*
X168945120Y-131221857D01*
X168847365Y-131278296D01*
X168767548Y-131358113D01*
X168711109Y-131455868D01*
X168711109Y-131455870D01*
X168681894Y-131564903D01*
X160872355Y-131564903D01*
X160795472Y-131520515D01*
X160686439Y-131491300D01*
X160573561Y-131491300D01*
X160464528Y-131520515D01*
X160464526Y-131520515D01*
X160366771Y-131576954D01*
X160286954Y-131656771D01*
X160230515Y-131754526D01*
X160230515Y-131754528D01*
X160201300Y-131863561D01*
X159542712Y-131863561D01*
X159543045Y-131863228D01*
X159543047Y-131863226D01*
X159567407Y-131821033D01*
X159567407Y-131821032D01*
X159582709Y-131794528D01*
X159599485Y-131765472D01*
X159628700Y-131656439D01*
X159628700Y-131543561D01*
X159599485Y-131434528D01*
X159577492Y-131396435D01*
X159543045Y-131336771D01*
X159463228Y-131256954D01*
X159365472Y-131200515D01*
X159358698Y-131198700D01*
X159256439Y-131171300D01*
X159143561Y-131171300D01*
X159034528Y-131200515D01*
X159034526Y-131200515D01*
X158936771Y-131256954D01*
X158856954Y-131336771D01*
X158800515Y-131434526D01*
X158800515Y-131434528D01*
X158774586Y-131531300D01*
X158771299Y-131543566D01*
X158770788Y-131547448D01*
X158747033Y-131593074D01*
X158699508Y-131612757D01*
X158658633Y-131602754D01*
X158611376Y-131575471D01*
X158585472Y-131560515D01*
X158476439Y-131531300D01*
X158363561Y-131531300D01*
X158254528Y-131560515D01*
X158254526Y-131560515D01*
X158156771Y-131616954D01*
X158076954Y-131696771D01*
X158020515Y-131794526D01*
X158020515Y-131794528D01*
X157991300Y-131903561D01*
X152500000Y-131903561D01*
X152500000Y-130713561D01*
X186491300Y-130713561D01*
X186491300Y-130826439D01*
X186520515Y-130935471D01*
X186520515Y-130935473D01*
X186576954Y-131033228D01*
X186656771Y-131113045D01*
X186693981Y-131134528D01*
X186754528Y-131169485D01*
X186863561Y-131198700D01*
X186863564Y-131198700D01*
X186976436Y-131198700D01*
X186976439Y-131198700D01*
X187085472Y-131169485D01*
X187183228Y-131113045D01*
X187263045Y-131033228D01*
X187319485Y-130935472D01*
X187348700Y-130826439D01*
X187348700Y-130713561D01*
X187319485Y-130604528D01*
X187319484Y-130604526D01*
X187263045Y-130506771D01*
X187183228Y-130426954D01*
X187085472Y-130370515D01*
X186976439Y-130341300D01*
X186863561Y-130341300D01*
X186754528Y-130370515D01*
X186754526Y-130370515D01*
X186656771Y-130426954D01*
X186576954Y-130506771D01*
X186520515Y-130604526D01*
X186520515Y-130604528D01*
X186491300Y-130713561D01*
X152500000Y-130713561D01*
X152500000Y-129293561D01*
X172711300Y-129293561D01*
X172711300Y-129406439D01*
X172740515Y-129515471D01*
X172740515Y-129515473D01*
X172796954Y-129613228D01*
X172876771Y-129693045D01*
X172976145Y-129750419D01*
X173009210Y-129789824D01*
X173011183Y-129835006D01*
X173005214Y-129857284D01*
X172999149Y-129879920D01*
X172999149Y-129992798D01*
X173028364Y-130101830D01*
X173028364Y-130101832D01*
X173084803Y-130199587D01*
X173164620Y-130279404D01*
X173187662Y-130292707D01*
X173262377Y-130335844D01*
X173371410Y-130365059D01*
X173371413Y-130365059D01*
X173484285Y-130365059D01*
X173484288Y-130365059D01*
X173593321Y-130335844D01*
X173691077Y-130279404D01*
X173770894Y-130199587D01*
X173827334Y-130101831D01*
X173856549Y-129992798D01*
X173856549Y-129879920D01*
X173850484Y-129857284D01*
X179897577Y-129857284D01*
X179897577Y-129970162D01*
X179926792Y-130079194D01*
X179926792Y-130079196D01*
X179983231Y-130176951D01*
X180063048Y-130256768D01*
X180102255Y-130279404D01*
X180160805Y-130313208D01*
X180269838Y-130342423D01*
X180269841Y-130342423D01*
X180382713Y-130342423D01*
X180382716Y-130342423D01*
X180491749Y-130313208D01*
X180589505Y-130256768D01*
X180669322Y-130176951D01*
X180725762Y-130079195D01*
X180752191Y-129980561D01*
X192371300Y-129980561D01*
X192371300Y-130093439D01*
X192393677Y-130176951D01*
X192400515Y-130202471D01*
X192400515Y-130202473D01*
X192456954Y-130300228D01*
X192536771Y-130380045D01*
X192586403Y-130408700D01*
X192634528Y-130436485D01*
X192743561Y-130465700D01*
X192743564Y-130465700D01*
X192856436Y-130465700D01*
X192856439Y-130465700D01*
X192965472Y-130436485D01*
X193063228Y-130380045D01*
X193143045Y-130300228D01*
X193199485Y-130202472D01*
X193228700Y-130093439D01*
X193228700Y-129980561D01*
X193213427Y-129923561D01*
X196341300Y-129923561D01*
X196341300Y-130036439D01*
X196358822Y-130101831D01*
X196370515Y-130145471D01*
X196370515Y-130145473D01*
X196426954Y-130243228D01*
X196506771Y-130323045D01*
X196528940Y-130335844D01*
X196604528Y-130379485D01*
X196713561Y-130408700D01*
X196713564Y-130408700D01*
X196826436Y-130408700D01*
X196826439Y-130408700D01*
X196935472Y-130379485D01*
X197011060Y-130335844D01*
X197033225Y-130323047D01*
X197033225Y-130323046D01*
X197033228Y-130323045D01*
X197041824Y-130314448D01*
X197088443Y-130292707D01*
X197138130Y-130306019D01*
X197148170Y-130314443D01*
X197156772Y-130323045D01*
X197156774Y-130323047D01*
X197188390Y-130341300D01*
X197254528Y-130379485D01*
X197363561Y-130408700D01*
X197363564Y-130408700D01*
X197476436Y-130408700D01*
X197476439Y-130408700D01*
X197585472Y-130379485D01*
X197683228Y-130323045D01*
X197763045Y-130243228D01*
X197819485Y-130145472D01*
X197848700Y-130036439D01*
X197848700Y-130006570D01*
X200152394Y-130006570D01*
X200295051Y-130034946D01*
X200450157Y-130034946D01*
X200592812Y-130006570D01*
X200592812Y-130006569D01*
X200372605Y-129786362D01*
X200372604Y-129786362D01*
X200152394Y-130006570D01*
X197848700Y-130006570D01*
X197848700Y-129923561D01*
X197819485Y-129814528D01*
X197803223Y-129786362D01*
X197763045Y-129716771D01*
X197683228Y-129636954D01*
X197585472Y-129580515D01*
X197476439Y-129551300D01*
X197363561Y-129551300D01*
X197254528Y-129580515D01*
X197254526Y-129580515D01*
X197156771Y-129636954D01*
X197148174Y-129645552D01*
X197101554Y-129667292D01*
X197051867Y-129653978D01*
X197041826Y-129645552D01*
X197033228Y-129636954D01*
X196935472Y-129580515D01*
X196826439Y-129551300D01*
X196713561Y-129551300D01*
X196604528Y-129580515D01*
X196604526Y-129580515D01*
X196506771Y-129636954D01*
X196426954Y-129716771D01*
X196370515Y-129814526D01*
X196370515Y-129814528D01*
X196341300Y-129923561D01*
X193213427Y-129923561D01*
X193199485Y-129871528D01*
X193194693Y-129863228D01*
X193143045Y-129773771D01*
X193063228Y-129693954D01*
X192965472Y-129637515D01*
X192954324Y-129634528D01*
X192856439Y-129608300D01*
X192743561Y-129608300D01*
X192634528Y-129637515D01*
X192634526Y-129637515D01*
X192536771Y-129693954D01*
X192456954Y-129773771D01*
X192400515Y-129871526D01*
X192400515Y-129871528D01*
X192371300Y-129980561D01*
X180752191Y-129980561D01*
X180754977Y-129970162D01*
X180754977Y-129857284D01*
X180725762Y-129748251D01*
X180715089Y-129729765D01*
X180669322Y-129650494D01*
X180589505Y-129570677D01*
X180491749Y-129514238D01*
X180382716Y-129485023D01*
X180269838Y-129485023D01*
X180160805Y-129514238D01*
X180160803Y-129514238D01*
X180063048Y-129570677D01*
X179983231Y-129650494D01*
X179926792Y-129748249D01*
X179926792Y-129748251D01*
X179897577Y-129857284D01*
X173850484Y-129857284D01*
X173827334Y-129770887D01*
X173815517Y-129750419D01*
X173770894Y-129673130D01*
X173691077Y-129593313D01*
X173604903Y-129543561D01*
X173593321Y-129536874D01*
X173593320Y-129536873D01*
X173591703Y-129535940D01*
X173558638Y-129496535D01*
X173556665Y-129451354D01*
X173568700Y-129406439D01*
X173568700Y-129293561D01*
X173548908Y-129219694D01*
X177051300Y-129219694D01*
X177051300Y-129332572D01*
X177080515Y-129441604D01*
X177080515Y-129441606D01*
X177136954Y-129539361D01*
X177216771Y-129619178D01*
X177271012Y-129650494D01*
X177314528Y-129675618D01*
X177423561Y-129704833D01*
X177423564Y-129704833D01*
X177536436Y-129704833D01*
X177536439Y-129704833D01*
X177645472Y-129675618D01*
X177743228Y-129619178D01*
X177823045Y-129539361D01*
X177879485Y-129441605D01*
X177908700Y-129332572D01*
X177908700Y-129219694D01*
X177895382Y-129169991D01*
X199585204Y-129169991D01*
X199585204Y-129325100D01*
X199613578Y-129467754D01*
X199833788Y-129247545D01*
X199793661Y-129207418D01*
X200067804Y-129207418D01*
X200067804Y-129287674D01*
X200088576Y-129365194D01*
X200128703Y-129434698D01*
X200185452Y-129491447D01*
X200254956Y-129531574D01*
X200332476Y-129552346D01*
X200412732Y-129552346D01*
X200490252Y-129531574D01*
X200559756Y-129491447D01*
X200616505Y-129434698D01*
X200656632Y-129365194D01*
X200677404Y-129287674D01*
X200677404Y-129247545D01*
X200911420Y-129247545D01*
X200911420Y-129247547D01*
X201131627Y-129467754D01*
X201131628Y-129467754D01*
X201160004Y-129325098D01*
X201160004Y-129169993D01*
X201131628Y-129027336D01*
X200911420Y-129247545D01*
X200677404Y-129247545D01*
X200677404Y-129207418D01*
X200656632Y-129129898D01*
X200616505Y-129060394D01*
X200559756Y-129003645D01*
X200490252Y-128963518D01*
X200412732Y-128942746D01*
X200332476Y-128942746D01*
X200254956Y-128963518D01*
X200185452Y-129003645D01*
X200128703Y-129060394D01*
X200088576Y-129129898D01*
X200067804Y-129207418D01*
X199793661Y-129207418D01*
X199613579Y-129027336D01*
X199613578Y-129027336D01*
X199585204Y-129169991D01*
X177895382Y-129169991D01*
X177879485Y-129110661D01*
X177850463Y-129060394D01*
X177823045Y-129012904D01*
X177743228Y-128933087D01*
X177645472Y-128876648D01*
X177536439Y-128847433D01*
X177423561Y-128847433D01*
X177314528Y-128876648D01*
X177314526Y-128876648D01*
X177216771Y-128933087D01*
X177136954Y-129012904D01*
X177080515Y-129110659D01*
X177080515Y-129110661D01*
X177051300Y-129219694D01*
X173548908Y-129219694D01*
X173539485Y-129184528D01*
X173530347Y-129168700D01*
X173483045Y-129086771D01*
X173403228Y-129006954D01*
X173305472Y-128950515D01*
X173276477Y-128942746D01*
X173196439Y-128921300D01*
X173083561Y-128921300D01*
X172974528Y-128950515D01*
X172974526Y-128950515D01*
X172876771Y-129006954D01*
X172796954Y-129086771D01*
X172740515Y-129184526D01*
X172740515Y-129184528D01*
X172711300Y-129293561D01*
X152500000Y-129293561D01*
X152500000Y-128543561D01*
X174244503Y-128543561D01*
X174244503Y-128656439D01*
X174267709Y-128743045D01*
X174273718Y-128765471D01*
X174273718Y-128765473D01*
X174330157Y-128863228D01*
X174409974Y-128943045D01*
X174422913Y-128950515D01*
X174507731Y-128999485D01*
X174616764Y-129028700D01*
X174616767Y-129028700D01*
X174729639Y-129028700D01*
X174729642Y-129028700D01*
X174838675Y-128999485D01*
X174936431Y-128943045D01*
X175016248Y-128863228D01*
X175072688Y-128765472D01*
X175101903Y-128656439D01*
X175101903Y-128543561D01*
X175072688Y-128434528D01*
X175050994Y-128396954D01*
X175033257Y-128366232D01*
X175033256Y-128366230D01*
X175016250Y-128336773D01*
X175013038Y-128333561D01*
X183221300Y-128333561D01*
X183221300Y-128446439D01*
X183250515Y-128555471D01*
X183250515Y-128555473D01*
X183306954Y-128653228D01*
X183386771Y-128733045D01*
X183404092Y-128743045D01*
X183484528Y-128789485D01*
X183593561Y-128818700D01*
X183593564Y-128818700D01*
X183706436Y-128818700D01*
X183706439Y-128818700D01*
X183815472Y-128789485D01*
X183913228Y-128733045D01*
X183962712Y-128683561D01*
X192131300Y-128683561D01*
X192131300Y-128796439D01*
X192144964Y-128847433D01*
X192160515Y-128905471D01*
X192160515Y-128905473D01*
X192216954Y-129003228D01*
X192296771Y-129083045D01*
X192344600Y-129110659D01*
X192394528Y-129139485D01*
X192503561Y-129168700D01*
X192503564Y-129168700D01*
X192616436Y-129168700D01*
X192616439Y-129168700D01*
X192725472Y-129139485D01*
X192757666Y-129120897D01*
X192791827Y-129101175D01*
X192823228Y-129083045D01*
X192903045Y-129003228D01*
X192937792Y-128943045D01*
X192959485Y-128905472D01*
X192988700Y-128796439D01*
X192988700Y-128683561D01*
X192959485Y-128574528D01*
X192959484Y-128574526D01*
X192903045Y-128476771D01*
X192823228Y-128396954D01*
X192725472Y-128340515D01*
X192616439Y-128311300D01*
X192503561Y-128311300D01*
X192394528Y-128340515D01*
X192394526Y-128340515D01*
X192296771Y-128396954D01*
X192216954Y-128476771D01*
X192160515Y-128574526D01*
X192160515Y-128574528D01*
X192131300Y-128683561D01*
X183962712Y-128683561D01*
X183993045Y-128653228D01*
X184000087Y-128641032D01*
X184049484Y-128555473D01*
X184049485Y-128555472D01*
X184078700Y-128446439D01*
X184078700Y-128333561D01*
X184049485Y-128224528D01*
X184018754Y-128171300D01*
X183993045Y-128126771D01*
X183913228Y-128046954D01*
X183907351Y-128043561D01*
X184251300Y-128043561D01*
X184251300Y-128156439D01*
X184277836Y-128255472D01*
X184280515Y-128265471D01*
X184280515Y-128265473D01*
X184336954Y-128363228D01*
X184416771Y-128443045D01*
X184469533Y-128473507D01*
X184514528Y-128499485D01*
X184623561Y-128528700D01*
X184623564Y-128528700D01*
X184736436Y-128528700D01*
X184736439Y-128528700D01*
X184845472Y-128499485D01*
X184943228Y-128443045D01*
X185023045Y-128363228D01*
X185079485Y-128265472D01*
X185108700Y-128156439D01*
X185108700Y-128063561D01*
X195691300Y-128063561D01*
X195691300Y-128176439D01*
X195720515Y-128285471D01*
X195720515Y-128285473D01*
X195776954Y-128383228D01*
X195856771Y-128463045D01*
X195900897Y-128488521D01*
X195954528Y-128519485D01*
X196063561Y-128548700D01*
X196063564Y-128548700D01*
X196176436Y-128548700D01*
X196176439Y-128548700D01*
X196285472Y-128519485D01*
X196339104Y-128488520D01*
X200152394Y-128488520D01*
X200152394Y-128488521D01*
X200372603Y-128708730D01*
X200372604Y-128708730D01*
X200592812Y-128488520D01*
X200450158Y-128460146D01*
X200295049Y-128460146D01*
X200152394Y-128488520D01*
X196339104Y-128488520D01*
X196383228Y-128463045D01*
X196386127Y-128460146D01*
X196389624Y-128456650D01*
X196463045Y-128383228D01*
X196486245Y-128343045D01*
X196519485Y-128285472D01*
X196548700Y-128176439D01*
X196548700Y-128063561D01*
X196519485Y-127954528D01*
X196519484Y-127954526D01*
X196463045Y-127856771D01*
X196383228Y-127776954D01*
X196285472Y-127720515D01*
X196176439Y-127691300D01*
X196063561Y-127691300D01*
X195954528Y-127720515D01*
X195954526Y-127720515D01*
X195856771Y-127776954D01*
X195776954Y-127856771D01*
X195720515Y-127954526D01*
X195720515Y-127954528D01*
X195691300Y-128063561D01*
X185108700Y-128063561D01*
X185108700Y-128043561D01*
X185079485Y-127934528D01*
X185079484Y-127934526D01*
X185023045Y-127836771D01*
X184943228Y-127756954D01*
X184845472Y-127700515D01*
X184843550Y-127700000D01*
X184736439Y-127671300D01*
X184623561Y-127671300D01*
X184514528Y-127700515D01*
X184514526Y-127700515D01*
X184416771Y-127756954D01*
X184336954Y-127836771D01*
X184280515Y-127934526D01*
X184280515Y-127934528D01*
X184251300Y-128043561D01*
X183907351Y-128043561D01*
X183815472Y-127990515D01*
X183706439Y-127961300D01*
X183593561Y-127961300D01*
X183484528Y-127990515D01*
X183484526Y-127990515D01*
X183386771Y-128046954D01*
X183306954Y-128126771D01*
X183250515Y-128224526D01*
X183250515Y-128224528D01*
X183221300Y-128333561D01*
X175013038Y-128333561D01*
X174936431Y-128256954D01*
X174838675Y-128200515D01*
X174729642Y-128171300D01*
X174616764Y-128171300D01*
X174507731Y-128200515D01*
X174507729Y-128200515D01*
X174409974Y-128256954D01*
X174330157Y-128336771D01*
X174273718Y-128434526D01*
X174273718Y-128434528D01*
X174244503Y-128543561D01*
X152500000Y-128543561D01*
X152500000Y-128033561D01*
X158771300Y-128033561D01*
X158771300Y-128146439D01*
X158800515Y-128255471D01*
X158800515Y-128255473D01*
X158856954Y-128353228D01*
X158936771Y-128433045D01*
X158983712Y-128460146D01*
X159034528Y-128489485D01*
X159143561Y-128518700D01*
X159143564Y-128518700D01*
X159256436Y-128518700D01*
X159256439Y-128518700D01*
X159365472Y-128489485D01*
X159381146Y-128480435D01*
X159393147Y-128473507D01*
X159463228Y-128433045D01*
X159543045Y-128353228D01*
X159552546Y-128336772D01*
X159599485Y-128255472D01*
X159628700Y-128146439D01*
X159628700Y-128033561D01*
X159604585Y-127943561D01*
X165241296Y-127943561D01*
X165241296Y-128056439D01*
X165268090Y-128156436D01*
X165270511Y-128165471D01*
X165270511Y-128165473D01*
X165326950Y-128263228D01*
X165406767Y-128343045D01*
X165463207Y-128375630D01*
X165504524Y-128399485D01*
X165613557Y-128428700D01*
X165613560Y-128428700D01*
X165726432Y-128428700D01*
X165726435Y-128428700D01*
X165835468Y-128399485D01*
X165933224Y-128343045D01*
X166013041Y-128263228D01*
X166069481Y-128165472D01*
X166098696Y-128056439D01*
X166098696Y-127943561D01*
X166069481Y-127834528D01*
X166065003Y-127826772D01*
X166013041Y-127736771D01*
X165933224Y-127656954D01*
X165835468Y-127600515D01*
X165831624Y-127599485D01*
X165726435Y-127571300D01*
X165613557Y-127571300D01*
X165504524Y-127600515D01*
X165504522Y-127600515D01*
X165406767Y-127656954D01*
X165326950Y-127736771D01*
X165270511Y-127834526D01*
X165270511Y-127834528D01*
X165241296Y-127943561D01*
X159604585Y-127943561D01*
X159599485Y-127924528D01*
X159581308Y-127893045D01*
X159543045Y-127826771D01*
X159463228Y-127746954D01*
X159365472Y-127690515D01*
X159256439Y-127661300D01*
X159143561Y-127661300D01*
X159034528Y-127690515D01*
X159034526Y-127690515D01*
X158936771Y-127746954D01*
X158856954Y-127826771D01*
X158800515Y-127924526D01*
X158800515Y-127924528D01*
X158771300Y-128033561D01*
X152500000Y-128033561D01*
X152500000Y-127403561D01*
X167751300Y-127403561D01*
X167751300Y-127516439D01*
X167780515Y-127625471D01*
X167780515Y-127625473D01*
X167836954Y-127723228D01*
X167916771Y-127803045D01*
X167934409Y-127813228D01*
X168014528Y-127859485D01*
X168123561Y-127888700D01*
X168123564Y-127888700D01*
X168236436Y-127888700D01*
X168236439Y-127888700D01*
X168345472Y-127859485D01*
X168443228Y-127803045D01*
X168523045Y-127723228D01*
X168579485Y-127625472D01*
X168608700Y-127516439D01*
X168608700Y-127403561D01*
X168591283Y-127338561D01*
X168876300Y-127338561D01*
X168876300Y-127451439D01*
X168905515Y-127560471D01*
X168905515Y-127560473D01*
X168961954Y-127658228D01*
X169041771Y-127738045D01*
X169098211Y-127770630D01*
X169139528Y-127794485D01*
X169248561Y-127823700D01*
X169248564Y-127823700D01*
X169361436Y-127823700D01*
X169361439Y-127823700D01*
X169470472Y-127794485D01*
X169568228Y-127738045D01*
X169648045Y-127658228D01*
X169704485Y-127560472D01*
X169733700Y-127451439D01*
X169733700Y-127338561D01*
X169704485Y-127229528D01*
X169704484Y-127229526D01*
X169648045Y-127131771D01*
X169568228Y-127051954D01*
X169470472Y-126995515D01*
X169361439Y-126966300D01*
X169248561Y-126966300D01*
X169139528Y-126995515D01*
X169139526Y-126995515D01*
X169041771Y-127051954D01*
X168961954Y-127131771D01*
X168905515Y-127229526D01*
X168905515Y-127229528D01*
X168876300Y-127338561D01*
X168591283Y-127338561D01*
X168579485Y-127294528D01*
X168575007Y-127286772D01*
X168523045Y-127196771D01*
X168443228Y-127116954D01*
X168345472Y-127060515D01*
X168236439Y-127031300D01*
X168123561Y-127031300D01*
X168014528Y-127060515D01*
X168014526Y-127060515D01*
X167916771Y-127116954D01*
X167836954Y-127196771D01*
X167780515Y-127294526D01*
X167780515Y-127294528D01*
X167751300Y-127403561D01*
X152500000Y-127403561D01*
X152500000Y-126883561D01*
X178051300Y-126883561D01*
X178051300Y-126996439D01*
X178068469Y-127060515D01*
X178080515Y-127105471D01*
X178080515Y-127105473D01*
X178136954Y-127203228D01*
X178216771Y-127283045D01*
X178273211Y-127315630D01*
X178314528Y-127339485D01*
X178423561Y-127368700D01*
X178423564Y-127368700D01*
X178526754Y-127368700D01*
X178575092Y-127386293D01*
X178600812Y-127430842D01*
X178599392Y-127463360D01*
X178591300Y-127493561D01*
X178591300Y-127606439D01*
X178620515Y-127715471D01*
X178620515Y-127715473D01*
X178676954Y-127813228D01*
X178756771Y-127893045D01*
X178811298Y-127924526D01*
X178854528Y-127949485D01*
X178963561Y-127978700D01*
X178963564Y-127978700D01*
X179076436Y-127978700D01*
X179076439Y-127978700D01*
X179185472Y-127949485D01*
X179283228Y-127893045D01*
X179363045Y-127813228D01*
X179419485Y-127715472D01*
X179448700Y-127606439D01*
X179448700Y-127493561D01*
X181201300Y-127493561D01*
X181201300Y-127606439D01*
X181230515Y-127715471D01*
X181230515Y-127715473D01*
X181286954Y-127813228D01*
X181366771Y-127893045D01*
X181421298Y-127924526D01*
X181464528Y-127949485D01*
X181573561Y-127978700D01*
X181573564Y-127978700D01*
X181686436Y-127978700D01*
X181686439Y-127978700D01*
X181795472Y-127949485D01*
X181893228Y-127893045D01*
X181973045Y-127813228D01*
X182029485Y-127715472D01*
X182058700Y-127606439D01*
X182058700Y-127493561D01*
X182029485Y-127384528D01*
X182011337Y-127353095D01*
X181973045Y-127286771D01*
X181893228Y-127206954D01*
X181795472Y-127150515D01*
X181686439Y-127121300D01*
X181573561Y-127121300D01*
X181464528Y-127150515D01*
X181464526Y-127150515D01*
X181366771Y-127206954D01*
X181286954Y-127286771D01*
X181230515Y-127384526D01*
X181230515Y-127384528D01*
X181201300Y-127493561D01*
X179448700Y-127493561D01*
X179419485Y-127384528D01*
X179401337Y-127353095D01*
X179363045Y-127286771D01*
X179283228Y-127206954D01*
X179185472Y-127150515D01*
X179076439Y-127121300D01*
X178973246Y-127121300D01*
X178924908Y-127103707D01*
X178899188Y-127059158D01*
X178900607Y-127026639D01*
X178908700Y-126996439D01*
X178908700Y-126883561D01*
X184491300Y-126883561D01*
X184491300Y-126996439D01*
X184508469Y-127060515D01*
X184520515Y-127105471D01*
X184520515Y-127105473D01*
X184576954Y-127203228D01*
X184656771Y-127283045D01*
X184713211Y-127315630D01*
X184754528Y-127339485D01*
X184863561Y-127368700D01*
X184863564Y-127368700D01*
X184976436Y-127368700D01*
X184976439Y-127368700D01*
X185085472Y-127339485D01*
X185183228Y-127283045D01*
X185263045Y-127203228D01*
X185319485Y-127105472D01*
X185348700Y-126996439D01*
X185348700Y-126883561D01*
X185319485Y-126774528D01*
X185317621Y-126771300D01*
X185263045Y-126676771D01*
X185183228Y-126596954D01*
X185085472Y-126540515D01*
X184976439Y-126511300D01*
X184863561Y-126511300D01*
X184754528Y-126540515D01*
X184754526Y-126540515D01*
X184656771Y-126596954D01*
X184576954Y-126676771D01*
X184520515Y-126774526D01*
X184520515Y-126774528D01*
X184491300Y-126883561D01*
X178908700Y-126883561D01*
X178879485Y-126774528D01*
X178877621Y-126771300D01*
X178823045Y-126676771D01*
X178743228Y-126596954D01*
X178645472Y-126540515D01*
X178536439Y-126511300D01*
X178423561Y-126511300D01*
X178314528Y-126540515D01*
X178314526Y-126540515D01*
X178216771Y-126596954D01*
X178136954Y-126676771D01*
X178080515Y-126774526D01*
X178080515Y-126774528D01*
X178051300Y-126883561D01*
X152500000Y-126883561D01*
X152500000Y-126369161D01*
X161026300Y-126369161D01*
X161026300Y-126482039D01*
X161055515Y-126591071D01*
X161055515Y-126591073D01*
X161111954Y-126688828D01*
X161191771Y-126768645D01*
X161246972Y-126800515D01*
X161289528Y-126825085D01*
X161398561Y-126854300D01*
X161398564Y-126854300D01*
X161511436Y-126854300D01*
X161511439Y-126854300D01*
X161620472Y-126825085D01*
X161640524Y-126813508D01*
X161640526Y-126813507D01*
X161718228Y-126768645D01*
X161798045Y-126688828D01*
X161848534Y-126601379D01*
X161854485Y-126591072D01*
X161883700Y-126482039D01*
X161883700Y-126369161D01*
X161872768Y-126328361D01*
X179911300Y-126328361D01*
X179911300Y-126441239D01*
X179927045Y-126500000D01*
X179940515Y-126550271D01*
X179940515Y-126550273D01*
X179996954Y-126648028D01*
X180076771Y-126727845D01*
X180133211Y-126760430D01*
X180174528Y-126784285D01*
X180283561Y-126813500D01*
X180283564Y-126813500D01*
X180396436Y-126813500D01*
X180396439Y-126813500D01*
X180505472Y-126784285D01*
X180603228Y-126727845D01*
X180683045Y-126648028D01*
X180739485Y-126550272D01*
X180768700Y-126441239D01*
X180768700Y-126436168D01*
X199533904Y-126436168D01*
X199533904Y-126601378D01*
X199566135Y-126763413D01*
X199629358Y-126916046D01*
X199721143Y-127053413D01*
X199721144Y-127053414D01*
X199721147Y-127053418D01*
X199837958Y-127170229D01*
X199837961Y-127170231D01*
X199837964Y-127170234D01*
X199975331Y-127262019D01*
X200127964Y-127325242D01*
X200220059Y-127343561D01*
X200289997Y-127357473D01*
X200289999Y-127357473D01*
X200455211Y-127357473D01*
X200509220Y-127346729D01*
X200617244Y-127325242D01*
X200769877Y-127262019D01*
X200907244Y-127170234D01*
X201024065Y-127053413D01*
X201115850Y-126916046D01*
X201179073Y-126763413D01*
X201211304Y-126601378D01*
X201211304Y-126436168D01*
X201179073Y-126274133D01*
X201115850Y-126121500D01*
X201024065Y-125984133D01*
X201024062Y-125984130D01*
X201024060Y-125984127D01*
X200907249Y-125867316D01*
X200907245Y-125867313D01*
X200907244Y-125867312D01*
X200769877Y-125775527D01*
X200617244Y-125712304D01*
X200617241Y-125712303D01*
X200617240Y-125712303D01*
X200455211Y-125680073D01*
X200455209Y-125680073D01*
X200289999Y-125680073D01*
X200289997Y-125680073D01*
X200127967Y-125712303D01*
X200127964Y-125712304D01*
X199975332Y-125775526D01*
X199837958Y-125867316D01*
X199721147Y-125984127D01*
X199629357Y-126121501D01*
X199566135Y-126274133D01*
X199566134Y-126274136D01*
X199547232Y-126369163D01*
X199533904Y-126436168D01*
X180768700Y-126436168D01*
X180768700Y-126328361D01*
X180739485Y-126219328D01*
X180730084Y-126203045D01*
X180683045Y-126121571D01*
X180603228Y-126041754D01*
X180505472Y-125985315D01*
X180501038Y-125984127D01*
X180396439Y-125956100D01*
X180283561Y-125956100D01*
X180174528Y-125985315D01*
X180174526Y-125985315D01*
X180076771Y-126041754D01*
X179996954Y-126121571D01*
X179940515Y-126219326D01*
X179940515Y-126219328D01*
X179911300Y-126328361D01*
X161872768Y-126328361D01*
X161854485Y-126260128D01*
X161821528Y-126203045D01*
X161798045Y-126162371D01*
X161718228Y-126082554D01*
X161620472Y-126026115D01*
X161618072Y-126025472D01*
X161511439Y-125996900D01*
X161398561Y-125996900D01*
X161289528Y-126026115D01*
X161289526Y-126026115D01*
X161191771Y-126082554D01*
X161111954Y-126162371D01*
X161055515Y-126260126D01*
X161055515Y-126260128D01*
X161026300Y-126369161D01*
X152500000Y-126369161D01*
X152500000Y-125803561D01*
X164591297Y-125803561D01*
X164591297Y-125916439D01*
X164616592Y-126010842D01*
X164620512Y-126025471D01*
X164620512Y-126025473D01*
X164676951Y-126123228D01*
X164756768Y-126203045D01*
X164813208Y-126235630D01*
X164854525Y-126259485D01*
X164963558Y-126288700D01*
X164963561Y-126288700D01*
X165076433Y-126288700D01*
X165076436Y-126288700D01*
X165185469Y-126259485D01*
X165283225Y-126203045D01*
X165363042Y-126123228D01*
X165419482Y-126025472D01*
X165448697Y-125916439D01*
X165448697Y-125803561D01*
X165419482Y-125694528D01*
X165419481Y-125694526D01*
X165363042Y-125596771D01*
X165283225Y-125516954D01*
X165185469Y-125460515D01*
X165076436Y-125431300D01*
X164963558Y-125431300D01*
X164854525Y-125460515D01*
X164854523Y-125460515D01*
X164756768Y-125516954D01*
X164676951Y-125596771D01*
X164620512Y-125694526D01*
X164620512Y-125694528D01*
X164591297Y-125803561D01*
X152500000Y-125803561D01*
X152500000Y-123600000D01*
X151992000Y-123600000D01*
X138008000Y-123600000D01*
X137500000Y-123600000D01*
X137500000Y-125016100D01*
X137482407Y-125064438D01*
X137437858Y-125090158D01*
X137424800Y-125091300D01*
X137333561Y-125091300D01*
X137224528Y-125120515D01*
X137224526Y-125120515D01*
X137126771Y-125176954D01*
X137046954Y-125256771D01*
X136990515Y-125354526D01*
X136990515Y-125354528D01*
X136961300Y-125463561D01*
X136961300Y-125576439D01*
X136990515Y-125685471D01*
X136990515Y-125685473D01*
X137046954Y-125783228D01*
X137126771Y-125863045D01*
X137179914Y-125893727D01*
X137224528Y-125919485D01*
X137333561Y-125948700D01*
X137333564Y-125948700D01*
X137424800Y-125948700D01*
X137473138Y-125966293D01*
X137498858Y-126010842D01*
X137500000Y-126023900D01*
X137500000Y-131487067D01*
X137499357Y-131496882D01*
X137499357Y-131496883D01*
X137483982Y-131613665D01*
X137478901Y-131632627D01*
X137435729Y-131736854D01*
X137425913Y-131753855D01*
X137357236Y-131843355D01*
X137343355Y-131857236D01*
X137253855Y-131925913D01*
X137236854Y-131935729D01*
X137132627Y-131978901D01*
X137113665Y-131983982D01*
X136996884Y-131999357D01*
X136987068Y-132000000D01*
X131912932Y-132000000D01*
X131903116Y-131999357D01*
X131786334Y-131983982D01*
X131767372Y-131978901D01*
X131690942Y-131947243D01*
X131663144Y-131935728D01*
X131646144Y-131925913D01*
X131556644Y-131857236D01*
X131542763Y-131843355D01*
X131483001Y-131765473D01*
X131474084Y-131753852D01*
X131464272Y-131736857D01*
X131421096Y-131632621D01*
X131416018Y-131613668D01*
X131400643Y-131496882D01*
X131400000Y-131487067D01*
X131400000Y-123600000D01*
X130892000Y-123600000D01*
X117208000Y-123600000D01*
X116700000Y-123600000D01*
X116700000Y-133487067D01*
X116699357Y-133496882D01*
X116699357Y-133496883D01*
X116683982Y-133613665D01*
X116678901Y-133632627D01*
X116635729Y-133736854D01*
X116625915Y-133753852D01*
X116613467Y-133770076D01*
X116570084Y-133797717D01*
X116553805Y-133799500D01*
X111814882Y-133799500D01*
X111735118Y-133799500D01*
X111661426Y-133830024D01*
X111661425Y-133830025D01*
X111661420Y-133830028D01*
X111605028Y-133886420D01*
X111605025Y-133886425D01*
X111605024Y-133886426D01*
X111574500Y-133960118D01*
X111574500Y-133960119D01*
X111574500Y-133997047D01*
X111574268Y-134002947D01*
X111558965Y-134197386D01*
X111557119Y-134209041D01*
X111549121Y-134242355D01*
X111520730Y-134285250D01*
X111475999Y-134300000D01*
X109074001Y-134300000D01*
X109025663Y-134282407D01*
X109000879Y-134242357D01*
X109000879Y-134242355D01*
X108992877Y-134209029D01*
X108991035Y-134197394D01*
X108975732Y-134002947D01*
X108975500Y-133997047D01*
X108975500Y-133960119D01*
X108975500Y-133960118D01*
X108944976Y-133886426D01*
X108944972Y-133886422D01*
X108944971Y-133886420D01*
X108888579Y-133830028D01*
X108888576Y-133830026D01*
X108888574Y-133830024D01*
X108814882Y-133799500D01*
X108814881Y-133799500D01*
X92502952Y-133799500D01*
X92497052Y-133799268D01*
X92302613Y-133783965D01*
X92290958Y-133782119D01*
X92104191Y-133737280D01*
X92092968Y-133733634D01*
X91915502Y-133660126D01*
X91904988Y-133654768D01*
X91741221Y-133554410D01*
X91731675Y-133547475D01*
X91659517Y-133485847D01*
X91585610Y-133422724D01*
X91577275Y-133414389D01*
X91452524Y-133268324D01*
X91445589Y-133258778D01*
X91400087Y-133184526D01*
X91345227Y-133095004D01*
X91339876Y-133084504D01*
X91266364Y-132907028D01*
X91262719Y-132895808D01*
X91217878Y-132709033D01*
X91216035Y-132697394D01*
X91200732Y-132502947D01*
X91200500Y-132497047D01*
X91200500Y-131935300D01*
X94702826Y-131935300D01*
X94741684Y-132029112D01*
X94851389Y-132193298D01*
X94991001Y-132332910D01*
X95155187Y-132442615D01*
X95249000Y-132481473D01*
X96011000Y-132481473D01*
X96104812Y-132442615D01*
X96268998Y-132332910D01*
X96408610Y-132193298D01*
X96518315Y-132029112D01*
X96557174Y-131935300D01*
X96011000Y-131935300D01*
X96011000Y-132481473D01*
X95249000Y-132481473D01*
X95249000Y-131935300D01*
X94702826Y-131935300D01*
X91200500Y-131935300D01*
X91200500Y-130746195D01*
X91207713Y-130726376D01*
X91212276Y-130705792D01*
X91217135Y-130700489D01*
X91218093Y-130697857D01*
X91229920Y-130686536D01*
X91246147Y-130674084D01*
X91263138Y-130664273D01*
X91367380Y-130621095D01*
X91386329Y-130616018D01*
X91487048Y-130602758D01*
X91503117Y-130600643D01*
X91512932Y-130600000D01*
X95006038Y-130600000D01*
X95054376Y-130617593D01*
X95080096Y-130662142D01*
X95071163Y-130712800D01*
X95047817Y-130737727D01*
X94991001Y-130775689D01*
X94851389Y-130915301D01*
X94741684Y-131079487D01*
X94702826Y-131173300D01*
X95303894Y-131173300D01*
X95229901Y-131247293D01*
X95164075Y-131361307D01*
X95130000Y-131488474D01*
X95130000Y-131620126D01*
X95164075Y-131747293D01*
X95229901Y-131861307D01*
X95322993Y-131954399D01*
X95437007Y-132020225D01*
X95564174Y-132054300D01*
X95695826Y-132054300D01*
X95822993Y-132020225D01*
X95937007Y-131954399D01*
X96030099Y-131861307D01*
X96095925Y-131747293D01*
X96130000Y-131620126D01*
X96130000Y-131488474D01*
X96095925Y-131361307D01*
X96030099Y-131247293D01*
X95956106Y-131173300D01*
X96557174Y-131173300D01*
X96518315Y-131079487D01*
X96408610Y-130915301D01*
X96268998Y-130775689D01*
X96212183Y-130737727D01*
X96181766Y-130696243D01*
X96185131Y-130644914D01*
X96220702Y-130607755D01*
X96253962Y-130600000D01*
X107487068Y-130600000D01*
X107496883Y-130600643D01*
X107515585Y-130603105D01*
X107613668Y-130616018D01*
X107632621Y-130621096D01*
X107736857Y-130664272D01*
X107753852Y-130674084D01*
X107753856Y-130674087D01*
X107843355Y-130742763D01*
X107857236Y-130756644D01*
X107925913Y-130846144D01*
X107935728Y-130863144D01*
X107957332Y-130915301D01*
X107978901Y-130967372D01*
X107983982Y-130986334D01*
X107999357Y-131103116D01*
X108000000Y-131112932D01*
X108000000Y-131700000D01*
X109892000Y-131700000D01*
X110400000Y-131700000D01*
X110400000Y-122243561D01*
X156871300Y-122243561D01*
X156871300Y-122356439D01*
X156900515Y-122465471D01*
X156900515Y-122465473D01*
X156956954Y-122563228D01*
X157036771Y-122643045D01*
X157093211Y-122675630D01*
X157134528Y-122699485D01*
X157243561Y-122728700D01*
X157243564Y-122728700D01*
X157356436Y-122728700D01*
X157356439Y-122728700D01*
X157465472Y-122699485D01*
X157563228Y-122643045D01*
X157643045Y-122563228D01*
X157699485Y-122465472D01*
X157728700Y-122356439D01*
X157728700Y-122243561D01*
X157699485Y-122134528D01*
X157696120Y-122128700D01*
X157643045Y-122036771D01*
X157563228Y-121956954D01*
X157465472Y-121900515D01*
X157356439Y-121871300D01*
X157243561Y-121871300D01*
X157134528Y-121900515D01*
X157134526Y-121900515D01*
X157036771Y-121956954D01*
X156956954Y-122036771D01*
X156900515Y-122134526D01*
X156900515Y-122134528D01*
X156871300Y-122243561D01*
X110400000Y-122243561D01*
X110400000Y-121412932D01*
X110400643Y-121403117D01*
X110405349Y-121367372D01*
X110416018Y-121286329D01*
X110421095Y-121267380D01*
X110464273Y-121163138D01*
X110474082Y-121146150D01*
X110542764Y-121056642D01*
X110556644Y-121042763D01*
X110646150Y-120974082D01*
X110663138Y-120964273D01*
X110767380Y-120921095D01*
X110786329Y-120916018D01*
X110887048Y-120902758D01*
X110903117Y-120900643D01*
X110912932Y-120900000D01*
X115200000Y-120900000D01*
X115200000Y-119697900D01*
X128772826Y-119697900D01*
X128811684Y-119791712D01*
X128921389Y-119955898D01*
X129061001Y-120095510D01*
X129225187Y-120205215D01*
X129319000Y-120244073D01*
X130081000Y-120244073D01*
X130174812Y-120205215D01*
X130338998Y-120095510D01*
X130478610Y-119955898D01*
X130588315Y-119791712D01*
X130627174Y-119697900D01*
X130081000Y-119697900D01*
X130081000Y-120244073D01*
X129319000Y-120244073D01*
X129319000Y-119697900D01*
X128772826Y-119697900D01*
X115200000Y-119697900D01*
X115200000Y-119251074D01*
X129200000Y-119251074D01*
X129200000Y-119382726D01*
X129234075Y-119509893D01*
X129299901Y-119623907D01*
X129392993Y-119716999D01*
X129507007Y-119782825D01*
X129634174Y-119816900D01*
X129765826Y-119816900D01*
X129892993Y-119782825D01*
X130007007Y-119716999D01*
X130100099Y-119623907D01*
X130165925Y-119509893D01*
X130200000Y-119382726D01*
X130200000Y-119251074D01*
X130165925Y-119123907D01*
X130100099Y-119009893D01*
X130007007Y-118916801D01*
X129892993Y-118850975D01*
X129765826Y-118816900D01*
X129634174Y-118816900D01*
X129507007Y-118850975D01*
X129392993Y-118916801D01*
X129299901Y-119009893D01*
X129234075Y-119123907D01*
X129200000Y-119251074D01*
X115200000Y-119251074D01*
X115200000Y-118935900D01*
X128772826Y-118935900D01*
X129319000Y-118935900D01*
X129319000Y-118389725D01*
X130081000Y-118389725D01*
X130081000Y-118935900D01*
X130627174Y-118935900D01*
X130588315Y-118842087D01*
X130478610Y-118677901D01*
X130338998Y-118538289D01*
X130174809Y-118428582D01*
X130174807Y-118428581D01*
X130081001Y-118389724D01*
X130081000Y-118389725D01*
X129319000Y-118389725D01*
X129318998Y-118389724D01*
X129225192Y-118428581D01*
X129225190Y-118428582D01*
X129061001Y-118538289D01*
X128921389Y-118677901D01*
X128811684Y-118842087D01*
X128772826Y-118935900D01*
X115200000Y-118935900D01*
X115200000Y-118353561D01*
X127291300Y-118353561D01*
X127291300Y-118466439D01*
X127310552Y-118538289D01*
X127320515Y-118575471D01*
X127320515Y-118575473D01*
X127376954Y-118673228D01*
X127456771Y-118753045D01*
X127467479Y-118759227D01*
X127554528Y-118809485D01*
X127663561Y-118838700D01*
X127663564Y-118838700D01*
X127776436Y-118838700D01*
X127776439Y-118838700D01*
X127885472Y-118809485D01*
X127983228Y-118753045D01*
X128063045Y-118673228D01*
X128119485Y-118575472D01*
X128148700Y-118466439D01*
X128148700Y-118353561D01*
X128119485Y-118244528D01*
X128101308Y-118213045D01*
X128063045Y-118146771D01*
X127983228Y-118066954D01*
X127885472Y-118010515D01*
X127776439Y-117981300D01*
X127663561Y-117981300D01*
X127554528Y-118010515D01*
X127554526Y-118010515D01*
X127456771Y-118066954D01*
X127376954Y-118146771D01*
X127320515Y-118244526D01*
X127320515Y-118244528D01*
X127291300Y-118353561D01*
X115200000Y-118353561D01*
X115200000Y-117343561D01*
X126601300Y-117343561D01*
X126601300Y-117456439D01*
X126630390Y-117565004D01*
X126630515Y-117565471D01*
X126630515Y-117565473D01*
X126686954Y-117663228D01*
X126766771Y-117743045D01*
X126805211Y-117765238D01*
X126864528Y-117799485D01*
X126973561Y-117828700D01*
X126973564Y-117828700D01*
X127086436Y-117828700D01*
X127086439Y-117828700D01*
X127195472Y-117799485D01*
X127293228Y-117743045D01*
X127373045Y-117663228D01*
X127429485Y-117565472D01*
X127458700Y-117456439D01*
X127458700Y-117343561D01*
X127429485Y-117234528D01*
X127429484Y-117234526D01*
X127373045Y-117136771D01*
X127293228Y-117056954D01*
X127195472Y-117000515D01*
X127086439Y-116971300D01*
X126973561Y-116971300D01*
X126864528Y-117000515D01*
X126864526Y-117000515D01*
X126766771Y-117056954D01*
X126686954Y-117136771D01*
X126630515Y-117234526D01*
X126630515Y-117234528D01*
X126601300Y-117343561D01*
X115200000Y-117343561D01*
X115200000Y-116412932D01*
X115200643Y-116403117D01*
X115204283Y-116375471D01*
X115216018Y-116286329D01*
X115221095Y-116267380D01*
X115264273Y-116163138D01*
X115274082Y-116146150D01*
X115342764Y-116056642D01*
X115356644Y-116042763D01*
X115446150Y-115974082D01*
X115463138Y-115964273D01*
X115567380Y-115921095D01*
X115586329Y-115916018D01*
X115687048Y-115902758D01*
X115703117Y-115900643D01*
X115712932Y-115900000D01*
X128582870Y-115900000D01*
X128631208Y-115917593D01*
X128656928Y-115962142D01*
X128657284Y-115986042D01*
X128646300Y-116061424D01*
X128646300Y-117492360D01*
X128646301Y-117492365D01*
X128656882Y-117565002D01*
X128656883Y-117565004D01*
X128711661Y-117677053D01*
X128799846Y-117765238D01*
X128799847Y-117765238D01*
X128799849Y-117765240D01*
X128911896Y-117820017D01*
X128984535Y-117830600D01*
X130415464Y-117830599D01*
X130488104Y-117820017D01*
X130600151Y-117765240D01*
X130688340Y-117677051D01*
X130743117Y-117565004D01*
X130745675Y-117547444D01*
X130753699Y-117492375D01*
X130753699Y-117492371D01*
X130753700Y-117492365D01*
X130753699Y-116061436D01*
X130743117Y-115988796D01*
X130742716Y-115986040D01*
X130753158Y-115935671D01*
X130793534Y-115903798D01*
X130817131Y-115900000D01*
X131987068Y-115900000D01*
X131996883Y-115900643D01*
X132015585Y-115903105D01*
X132113668Y-115916018D01*
X132132621Y-115921096D01*
X132236857Y-115964272D01*
X132253852Y-115974084D01*
X132269433Y-115986040D01*
X132343355Y-116042763D01*
X132357236Y-116056644D01*
X132425913Y-116146144D01*
X132435728Y-116163144D01*
X132452077Y-116202614D01*
X132478901Y-116267372D01*
X132483982Y-116286334D01*
X132499357Y-116403116D01*
X132500000Y-116412932D01*
X132500000Y-121000000D01*
X157487068Y-121000000D01*
X157496883Y-121000643D01*
X157515585Y-121003105D01*
X157613668Y-121016018D01*
X157632621Y-121021096D01*
X157736857Y-121064272D01*
X157753852Y-121074084D01*
X157798605Y-121108424D01*
X157843355Y-121142763D01*
X157857236Y-121156644D01*
X157925913Y-121246144D01*
X157935728Y-121263144D01*
X157945334Y-121286335D01*
X157978901Y-121367372D01*
X157983982Y-121386334D01*
X157999357Y-121503116D01*
X158000000Y-121512932D01*
X158000000Y-125400000D01*
X161992000Y-125400000D01*
X162500000Y-125400000D01*
X162500000Y-124893561D01*
X166856300Y-124893561D01*
X166856300Y-125006439D01*
X166882836Y-125105472D01*
X166885515Y-125115471D01*
X166885515Y-125115473D01*
X166941954Y-125213228D01*
X167021771Y-125293045D01*
X167073733Y-125323045D01*
X167119528Y-125349485D01*
X167228561Y-125378700D01*
X167228564Y-125378700D01*
X167341436Y-125378700D01*
X167341439Y-125378700D01*
X167450472Y-125349485D01*
X167548228Y-125293045D01*
X167628045Y-125213228D01*
X167645295Y-125183351D01*
X167657876Y-125161560D01*
X167697281Y-125128495D01*
X167748721Y-125128495D01*
X167760600Y-125134034D01*
X167774528Y-125142076D01*
X167883561Y-125171291D01*
X167883564Y-125171291D01*
X167975545Y-125171291D01*
X168023883Y-125188884D01*
X168049603Y-125233433D01*
X168048183Y-125265951D01*
X168041100Y-125292386D01*
X168041100Y-125405264D01*
X168070315Y-125514296D01*
X168070315Y-125514298D01*
X168126754Y-125612053D01*
X168206571Y-125691870D01*
X168241964Y-125712304D01*
X168304328Y-125748310D01*
X168413361Y-125777525D01*
X168413364Y-125777525D01*
X168526236Y-125777525D01*
X168526239Y-125777525D01*
X168635272Y-125748310D01*
X168733028Y-125691870D01*
X168812845Y-125612053D01*
X168869285Y-125514297D01*
X168898500Y-125405264D01*
X168898500Y-125292386D01*
X168869285Y-125183353D01*
X168865591Y-125176955D01*
X168812845Y-125085596D01*
X168733028Y-125005779D01*
X168635272Y-124949340D01*
X168526239Y-124920125D01*
X168434255Y-124920125D01*
X168385917Y-124902532D01*
X168374964Y-124883561D01*
X172161709Y-124883561D01*
X172161709Y-124996439D01*
X172190924Y-125105471D01*
X172190924Y-125105473D01*
X172247363Y-125203228D01*
X172327180Y-125283045D01*
X172383620Y-125315630D01*
X172424937Y-125339485D01*
X172533970Y-125368700D01*
X172533973Y-125368700D01*
X172646845Y-125368700D01*
X172646848Y-125368700D01*
X172755881Y-125339485D01*
X172853637Y-125283045D01*
X172933454Y-125203228D01*
X172989894Y-125105472D01*
X173019109Y-124996439D01*
X173019109Y-124923561D01*
X177941300Y-124923561D01*
X177941300Y-125036439D01*
X177969605Y-125142075D01*
X177970515Y-125145471D01*
X177970515Y-125145473D01*
X178026954Y-125243228D01*
X178106771Y-125323045D01*
X178152565Y-125349484D01*
X178204528Y-125379485D01*
X178313561Y-125408700D01*
X178313564Y-125408700D01*
X178426436Y-125408700D01*
X178426439Y-125408700D01*
X178535472Y-125379485D01*
X178633228Y-125323045D01*
X178713045Y-125243228D01*
X178769485Y-125145472D01*
X178798700Y-125036439D01*
X178798700Y-124923561D01*
X178791821Y-124897888D01*
X178796303Y-124846645D01*
X178832677Y-124810271D01*
X178883921Y-124805787D01*
X178893241Y-124808951D01*
X178894520Y-124809480D01*
X178894528Y-124809485D01*
X179003561Y-124838700D01*
X179003564Y-124838700D01*
X179116436Y-124838700D01*
X179116439Y-124838700D01*
X179225472Y-124809485D01*
X179323228Y-124753045D01*
X179403045Y-124673228D01*
X179459485Y-124575472D01*
X179488700Y-124466439D01*
X179488700Y-124363561D01*
X181201300Y-124363561D01*
X181201300Y-124476439D01*
X181228277Y-124577119D01*
X181230515Y-124585471D01*
X181230515Y-124585473D01*
X181286954Y-124683228D01*
X181366771Y-124763045D01*
X181403981Y-124784528D01*
X181464528Y-124819485D01*
X181573561Y-124848700D01*
X181573564Y-124848700D01*
X181686436Y-124848700D01*
X181686439Y-124848700D01*
X181795472Y-124819485D01*
X181805733Y-124813561D01*
X182561300Y-124813561D01*
X182561300Y-124926439D01*
X182590515Y-125035471D01*
X182590515Y-125035473D01*
X182646954Y-125133228D01*
X182726771Y-125213045D01*
X182779050Y-125243228D01*
X182824528Y-125269485D01*
X182933561Y-125298700D01*
X182933564Y-125298700D01*
X183046436Y-125298700D01*
X183046439Y-125298700D01*
X183155472Y-125269485D01*
X183253228Y-125213045D01*
X183333045Y-125133228D01*
X183389485Y-125035472D01*
X183418700Y-124926439D01*
X183418700Y-124813561D01*
X183389485Y-124704528D01*
X183388629Y-124703045D01*
X183333045Y-124606771D01*
X183253228Y-124526954D01*
X183155472Y-124470515D01*
X183046439Y-124441300D01*
X182933561Y-124441300D01*
X182824528Y-124470515D01*
X182824526Y-124470515D01*
X182726771Y-124526954D01*
X182646954Y-124606771D01*
X182590515Y-124704526D01*
X182590515Y-124704528D01*
X182561300Y-124813561D01*
X181805733Y-124813561D01*
X181893228Y-124763045D01*
X181896789Y-124759484D01*
X181900816Y-124755458D01*
X181973045Y-124683228D01*
X181999761Y-124636955D01*
X182029485Y-124585472D01*
X182058700Y-124476439D01*
X182058700Y-124393561D01*
X196291300Y-124393561D01*
X196291300Y-124506439D01*
X196318184Y-124606771D01*
X196320515Y-124615471D01*
X196320515Y-124615473D01*
X196376954Y-124713228D01*
X196385552Y-124721826D01*
X196407292Y-124768446D01*
X196393978Y-124818133D01*
X196385552Y-124828174D01*
X196376954Y-124836771D01*
X196320515Y-124934526D01*
X196320515Y-124934528D01*
X196291300Y-125043561D01*
X196291300Y-125156439D01*
X196314555Y-125243228D01*
X196320515Y-125265471D01*
X196320515Y-125265473D01*
X196376954Y-125363228D01*
X196456771Y-125443045D01*
X196492306Y-125463561D01*
X196554528Y-125499485D01*
X196663561Y-125528700D01*
X196663564Y-125528700D01*
X196776436Y-125528700D01*
X196776439Y-125528700D01*
X196885472Y-125499485D01*
X196983228Y-125443045D01*
X197063045Y-125363228D01*
X197119485Y-125265472D01*
X197148700Y-125156439D01*
X197148700Y-125043561D01*
X197119485Y-124934528D01*
X197114813Y-124926436D01*
X197063047Y-124836774D01*
X197063044Y-124836771D01*
X197054448Y-124828175D01*
X197032707Y-124781557D01*
X197046019Y-124731870D01*
X197054443Y-124721829D01*
X197063045Y-124713228D01*
X197068232Y-124704245D01*
X197086139Y-124673228D01*
X197119485Y-124615472D01*
X197148700Y-124506439D01*
X197148700Y-124393561D01*
X197119485Y-124284528D01*
X197103323Y-124256535D01*
X197063045Y-124186771D01*
X196983228Y-124106954D01*
X196885472Y-124050515D01*
X196776439Y-124021300D01*
X196663561Y-124021300D01*
X196554528Y-124050515D01*
X196554526Y-124050515D01*
X196456771Y-124106954D01*
X196376954Y-124186771D01*
X196320515Y-124284526D01*
X196320515Y-124284528D01*
X196291300Y-124393561D01*
X182058700Y-124393561D01*
X182058700Y-124363561D01*
X182029485Y-124254528D01*
X182029484Y-124254526D01*
X181973045Y-124156771D01*
X181893228Y-124076954D01*
X181795472Y-124020515D01*
X181786664Y-124018155D01*
X181686439Y-123991300D01*
X181573561Y-123991300D01*
X181464528Y-124020515D01*
X181464526Y-124020515D01*
X181366771Y-124076954D01*
X181286954Y-124156771D01*
X181230515Y-124254526D01*
X181230515Y-124254528D01*
X181201300Y-124363561D01*
X179488700Y-124363561D01*
X179488700Y-124353561D01*
X179459485Y-124244528D01*
X179431310Y-124195728D01*
X179403045Y-124146771D01*
X179323228Y-124066954D01*
X179225472Y-124010515D01*
X179116439Y-123981300D01*
X179003561Y-123981300D01*
X178894528Y-124010515D01*
X178894526Y-124010515D01*
X178796771Y-124066954D01*
X178716954Y-124146771D01*
X178660515Y-124244526D01*
X178660515Y-124244528D01*
X178631300Y-124353561D01*
X178631300Y-124466439D01*
X178634763Y-124479362D01*
X178638179Y-124492112D01*
X178633695Y-124543356D01*
X178597321Y-124579729D01*
X178546077Y-124584211D01*
X178536764Y-124581050D01*
X178535475Y-124580516D01*
X178535472Y-124580515D01*
X178426439Y-124551300D01*
X178313561Y-124551300D01*
X178204528Y-124580515D01*
X178204526Y-124580515D01*
X178106771Y-124636954D01*
X178026954Y-124716771D01*
X177970515Y-124814526D01*
X177970515Y-124814528D01*
X177941300Y-124923561D01*
X173019109Y-124923561D01*
X173019109Y-124883561D01*
X172989894Y-124774528D01*
X172965265Y-124731870D01*
X172933454Y-124676771D01*
X172853637Y-124596954D01*
X172755881Y-124540515D01*
X172728752Y-124533246D01*
X172646848Y-124511300D01*
X172533970Y-124511300D01*
X172424937Y-124540515D01*
X172424935Y-124540515D01*
X172327180Y-124596954D01*
X172247363Y-124676771D01*
X172190924Y-124774526D01*
X172190924Y-124774528D01*
X172161709Y-124883561D01*
X168374964Y-124883561D01*
X168360197Y-124857983D01*
X168361616Y-124825464D01*
X168368700Y-124799030D01*
X168368700Y-124686152D01*
X168339485Y-124577119D01*
X168339484Y-124577117D01*
X168283045Y-124479362D01*
X168203228Y-124399545D01*
X168105472Y-124343106D01*
X167996439Y-124313891D01*
X167883561Y-124313891D01*
X167774528Y-124343106D01*
X167774526Y-124343106D01*
X167676771Y-124399545D01*
X167596952Y-124479364D01*
X167567122Y-124531031D01*
X167527717Y-124564095D01*
X167476277Y-124564094D01*
X167464399Y-124558556D01*
X167450472Y-124550515D01*
X167341439Y-124521300D01*
X167228561Y-124521300D01*
X167119528Y-124550515D01*
X167119526Y-124550515D01*
X167021771Y-124606954D01*
X166941954Y-124686771D01*
X166885515Y-124784526D01*
X166885515Y-124784528D01*
X166856300Y-124893561D01*
X162500000Y-124893561D01*
X162500000Y-124303561D01*
X163801300Y-124303561D01*
X163801300Y-124416439D01*
X163826718Y-124511300D01*
X163830515Y-124525471D01*
X163830515Y-124525473D01*
X163886954Y-124623228D01*
X163966771Y-124703045D01*
X163999296Y-124721823D01*
X164064528Y-124759485D01*
X164173561Y-124788700D01*
X164173564Y-124788700D01*
X164286436Y-124788700D01*
X164286439Y-124788700D01*
X164395472Y-124759485D01*
X164493228Y-124703045D01*
X164573045Y-124623228D01*
X164629485Y-124525472D01*
X164658700Y-124416439D01*
X164658700Y-124303561D01*
X164629485Y-124194528D01*
X164625007Y-124186772D01*
X164573045Y-124096771D01*
X164493228Y-124016954D01*
X164395472Y-123960515D01*
X164286439Y-123931300D01*
X164173561Y-123931300D01*
X164064528Y-123960515D01*
X164064526Y-123960515D01*
X163966771Y-124016954D01*
X163886954Y-124096771D01*
X163830515Y-124194526D01*
X163830515Y-124194528D01*
X163801300Y-124303561D01*
X162500000Y-124303561D01*
X162500000Y-123707393D01*
X199533904Y-123707393D01*
X199533904Y-123872606D01*
X199551390Y-123960515D01*
X199566135Y-124034640D01*
X199629358Y-124187273D01*
X199721143Y-124324640D01*
X199721144Y-124324641D01*
X199721147Y-124324645D01*
X199837958Y-124441456D01*
X199837961Y-124441458D01*
X199837964Y-124441461D01*
X199975331Y-124533246D01*
X200127964Y-124596469D01*
X200223493Y-124615471D01*
X200289997Y-124628700D01*
X200289999Y-124628700D01*
X200455211Y-124628700D01*
X200521715Y-124615471D01*
X200617244Y-124596469D01*
X200769877Y-124533246D01*
X200907244Y-124441461D01*
X201024065Y-124324640D01*
X201115850Y-124187273D01*
X201179073Y-124034640D01*
X201211304Y-123872605D01*
X201211304Y-123707395D01*
X201179073Y-123545360D01*
X201115850Y-123392727D01*
X201024065Y-123255360D01*
X201024062Y-123255357D01*
X201024060Y-123255354D01*
X200907249Y-123138543D01*
X200907245Y-123138540D01*
X200907244Y-123138539D01*
X200769877Y-123046754D01*
X200617244Y-122983531D01*
X200617241Y-122983530D01*
X200617240Y-122983530D01*
X200455211Y-122951300D01*
X200455209Y-122951300D01*
X200289999Y-122951300D01*
X200289997Y-122951300D01*
X200127967Y-122983530D01*
X200127964Y-122983531D01*
X199975332Y-123046753D01*
X199837958Y-123138543D01*
X199721147Y-123255354D01*
X199629357Y-123392728D01*
X199566135Y-123545360D01*
X199566134Y-123545363D01*
X199533904Y-123707393D01*
X162500000Y-123707393D01*
X162500000Y-121815161D01*
X183921300Y-121815161D01*
X183921300Y-121928039D01*
X183950435Y-122036772D01*
X183950515Y-122037071D01*
X183950515Y-122037073D01*
X184006954Y-122134828D01*
X184086771Y-122214645D01*
X184136855Y-122243561D01*
X184184528Y-122271085D01*
X184293561Y-122300300D01*
X184293564Y-122300300D01*
X184406436Y-122300300D01*
X184406439Y-122300300D01*
X184515472Y-122271085D01*
X184613228Y-122214645D01*
X184693045Y-122134828D01*
X184749485Y-122037072D01*
X184778700Y-121928039D01*
X184778700Y-121815161D01*
X184749485Y-121706128D01*
X184749484Y-121706126D01*
X184693045Y-121608371D01*
X184613228Y-121528554D01*
X184515472Y-121472115D01*
X184406439Y-121442900D01*
X184293561Y-121442900D01*
X184184528Y-121472115D01*
X184184526Y-121472115D01*
X184086771Y-121528554D01*
X184006954Y-121608371D01*
X183950515Y-121706126D01*
X183950515Y-121706128D01*
X183921300Y-121815161D01*
X162500000Y-121815161D01*
X162500000Y-121244747D01*
X212047100Y-121244747D01*
X212047100Y-121432452D01*
X212068233Y-121538700D01*
X212083719Y-121616551D01*
X212155551Y-121789968D01*
X212259834Y-121946039D01*
X212259836Y-121946041D01*
X212259838Y-121946044D01*
X212392555Y-122078761D01*
X212392558Y-122078763D01*
X212392561Y-122078766D01*
X212548632Y-122183049D01*
X212722049Y-122254881D01*
X212844781Y-122279293D01*
X212906147Y-122291500D01*
X212906148Y-122291500D01*
X213093853Y-122291500D01*
X213139876Y-122282345D01*
X213277951Y-122254881D01*
X213451368Y-122183049D01*
X213607439Y-122078766D01*
X213740166Y-121946039D01*
X213844449Y-121789968D01*
X213916281Y-121616551D01*
X213952900Y-121432452D01*
X213952900Y-121244748D01*
X213916281Y-121060649D01*
X213844449Y-120887232D01*
X213740166Y-120731161D01*
X213740163Y-120731158D01*
X213740161Y-120731155D01*
X213607444Y-120598438D01*
X213607441Y-120598436D01*
X213607439Y-120598434D01*
X213451368Y-120494151D01*
X213277951Y-120422319D01*
X213277949Y-120422318D01*
X213277948Y-120422318D01*
X213093853Y-120385700D01*
X213093852Y-120385700D01*
X212906148Y-120385700D01*
X212906147Y-120385700D01*
X212722051Y-120422318D01*
X212722049Y-120422319D01*
X212548633Y-120494150D01*
X212392558Y-120598436D01*
X212392555Y-120598438D01*
X212259838Y-120731155D01*
X212259836Y-120731158D01*
X212155550Y-120887233D01*
X212083719Y-121060649D01*
X212083718Y-121060651D01*
X212047100Y-121244747D01*
X162500000Y-121244747D01*
X162500000Y-120193561D01*
X191015945Y-120193561D01*
X191015945Y-120306439D01*
X191021910Y-120328700D01*
X191045160Y-120415471D01*
X191045160Y-120415473D01*
X191101599Y-120513228D01*
X191181416Y-120593045D01*
X191198737Y-120603045D01*
X191279173Y-120649485D01*
X191388206Y-120678700D01*
X191388209Y-120678700D01*
X191501081Y-120678700D01*
X191501084Y-120678700D01*
X191610117Y-120649485D01*
X191707873Y-120593045D01*
X191787690Y-120513228D01*
X191844130Y-120415472D01*
X191873345Y-120306439D01*
X191873345Y-120203561D01*
X192565945Y-120203561D01*
X192565945Y-120316439D01*
X192592481Y-120415472D01*
X192595160Y-120425471D01*
X192595160Y-120425473D01*
X192651599Y-120523228D01*
X192731416Y-120603045D01*
X192787856Y-120635630D01*
X192829173Y-120659485D01*
X192938206Y-120688700D01*
X192938209Y-120688700D01*
X193051081Y-120688700D01*
X193051084Y-120688700D01*
X193160117Y-120659485D01*
X193257873Y-120603045D01*
X193337690Y-120523228D01*
X193394130Y-120425472D01*
X193423345Y-120316439D01*
X193423345Y-120203561D01*
X193394130Y-120094528D01*
X193394129Y-120094526D01*
X193337690Y-119996771D01*
X193257873Y-119916954D01*
X193160117Y-119860515D01*
X193051084Y-119831300D01*
X192938206Y-119831300D01*
X192829173Y-119860515D01*
X192829171Y-119860515D01*
X192731416Y-119916954D01*
X192651599Y-119996771D01*
X192595160Y-120094526D01*
X192595160Y-120094528D01*
X192565945Y-120203561D01*
X191873345Y-120203561D01*
X191873345Y-120193561D01*
X191844130Y-120084528D01*
X191813137Y-120030847D01*
X191787690Y-119986771D01*
X191707873Y-119906954D01*
X191610117Y-119850515D01*
X191501084Y-119821300D01*
X191388206Y-119821300D01*
X191279173Y-119850515D01*
X191279171Y-119850515D01*
X191181416Y-119906954D01*
X191101599Y-119986771D01*
X191045160Y-120084526D01*
X191045160Y-120084528D01*
X191015945Y-120193561D01*
X162500000Y-120193561D01*
X162500000Y-119511874D01*
X196261300Y-119511874D01*
X196261300Y-119624752D01*
X196290515Y-119733784D01*
X196290515Y-119733786D01*
X196346954Y-119831541D01*
X196426771Y-119911358D01*
X196447014Y-119923045D01*
X196524528Y-119967798D01*
X196633561Y-119997013D01*
X196633564Y-119997013D01*
X196746436Y-119997013D01*
X196746439Y-119997013D01*
X196855472Y-119967798D01*
X196953228Y-119911358D01*
X197033045Y-119831541D01*
X197089485Y-119733785D01*
X197118700Y-119624752D01*
X197118700Y-119511874D01*
X197711300Y-119511874D01*
X197711300Y-119624752D01*
X197740515Y-119733784D01*
X197740515Y-119733786D01*
X197796954Y-119831541D01*
X197876771Y-119911358D01*
X197897014Y-119923045D01*
X197974528Y-119967798D01*
X198083561Y-119997013D01*
X198083564Y-119997013D01*
X198196436Y-119997013D01*
X198196439Y-119997013D01*
X198305472Y-119967798D01*
X198403228Y-119911358D01*
X198483045Y-119831541D01*
X198539485Y-119733785D01*
X198568700Y-119624752D01*
X198568700Y-119545708D01*
X199671904Y-119545708D01*
X199671904Y-119658586D01*
X199695185Y-119745471D01*
X199701119Y-119767618D01*
X199701119Y-119767620D01*
X199757558Y-119865375D01*
X199837375Y-119945192D01*
X199876530Y-119967798D01*
X199935132Y-120001632D01*
X200044165Y-120030847D01*
X200044168Y-120030847D01*
X200157040Y-120030847D01*
X200157043Y-120030847D01*
X200266076Y-120001632D01*
X200363832Y-119945192D01*
X200443649Y-119865375D01*
X200500089Y-119767619D01*
X200529304Y-119658586D01*
X200529304Y-119545708D01*
X200523370Y-119523561D01*
X209331300Y-119523561D01*
X209331300Y-119636439D01*
X209357384Y-119733785D01*
X209360515Y-119745471D01*
X209360515Y-119745473D01*
X209416954Y-119843228D01*
X209496771Y-119923045D01*
X209535131Y-119945192D01*
X209594528Y-119979485D01*
X209703561Y-120008700D01*
X209703564Y-120008700D01*
X209816436Y-120008700D01*
X209816439Y-120008700D01*
X209925472Y-119979485D01*
X210023228Y-119923045D01*
X210103045Y-119843228D01*
X210159485Y-119745472D01*
X210188700Y-119636439D01*
X210188700Y-119523561D01*
X210159485Y-119414528D01*
X210159484Y-119414526D01*
X210103045Y-119316771D01*
X210023228Y-119236954D01*
X209925472Y-119180515D01*
X209907397Y-119175672D01*
X209816439Y-119151300D01*
X209703561Y-119151300D01*
X209594528Y-119180515D01*
X209594526Y-119180515D01*
X209496771Y-119236954D01*
X209416954Y-119316771D01*
X209360515Y-119414526D01*
X209360515Y-119414528D01*
X209331300Y-119523561D01*
X200523370Y-119523561D01*
X200500089Y-119436675D01*
X200500088Y-119436673D01*
X200443649Y-119338918D01*
X200363832Y-119259101D01*
X200266076Y-119202662D01*
X200254215Y-119199484D01*
X200157043Y-119173447D01*
X200044165Y-119173447D01*
X199935132Y-119202662D01*
X199935130Y-119202662D01*
X199837375Y-119259101D01*
X199757558Y-119338918D01*
X199701119Y-119436673D01*
X199701119Y-119436675D01*
X199671904Y-119545708D01*
X198568700Y-119545708D01*
X198568700Y-119511874D01*
X198539485Y-119402841D01*
X198539484Y-119402839D01*
X198483045Y-119305084D01*
X198403228Y-119225267D01*
X198305472Y-119168828D01*
X198196439Y-119139613D01*
X198083561Y-119139613D01*
X197974528Y-119168828D01*
X197974526Y-119168828D01*
X197876771Y-119225267D01*
X197796954Y-119305084D01*
X197740515Y-119402839D01*
X197740515Y-119402841D01*
X197711300Y-119511874D01*
X197118700Y-119511874D01*
X197089485Y-119402841D01*
X197089484Y-119402839D01*
X197033045Y-119305084D01*
X196953228Y-119225267D01*
X196855472Y-119168828D01*
X196746439Y-119139613D01*
X196633561Y-119139613D01*
X196524528Y-119168828D01*
X196524526Y-119168828D01*
X196426771Y-119225267D01*
X196346954Y-119305084D01*
X196290515Y-119402839D01*
X196290515Y-119402841D01*
X196261300Y-119511874D01*
X162500000Y-119511874D01*
X162500000Y-118900000D01*
X158681803Y-118900000D01*
X158633465Y-118882407D01*
X158628639Y-118877984D01*
X158586542Y-118835887D01*
X158504633Y-118781157D01*
X158471813Y-118759227D01*
X158456888Y-118753045D01*
X158385708Y-118723561D01*
X191015945Y-118723561D01*
X191015945Y-118836439D01*
X191045160Y-118945471D01*
X191045160Y-118945473D01*
X191101599Y-119043228D01*
X191181416Y-119123045D01*
X191237856Y-119155630D01*
X191279173Y-119179485D01*
X191388206Y-119208700D01*
X191388209Y-119208700D01*
X191501081Y-119208700D01*
X191501084Y-119208700D01*
X191610117Y-119179485D01*
X191707873Y-119123045D01*
X191787690Y-119043228D01*
X191844130Y-118945472D01*
X191873345Y-118836439D01*
X191873345Y-118743561D01*
X192569290Y-118743561D01*
X192569290Y-118856439D01*
X192598505Y-118965471D01*
X192598505Y-118965473D01*
X192654944Y-119063228D01*
X192734761Y-119143045D01*
X192779419Y-119168828D01*
X192832518Y-119199485D01*
X192941551Y-119228700D01*
X192941554Y-119228700D01*
X193054426Y-119228700D01*
X193054429Y-119228700D01*
X193163462Y-119199485D01*
X193261218Y-119143045D01*
X193341035Y-119063228D01*
X193397475Y-118965472D01*
X193426690Y-118856439D01*
X193426690Y-118743561D01*
X193994390Y-118743561D01*
X193994390Y-118856439D01*
X194023605Y-118965471D01*
X194023605Y-118965473D01*
X194080044Y-119063228D01*
X194159861Y-119143045D01*
X194204519Y-119168828D01*
X194257618Y-119199485D01*
X194366651Y-119228700D01*
X194366654Y-119228700D01*
X194479526Y-119228700D01*
X194479529Y-119228700D01*
X194588562Y-119199485D01*
X194686318Y-119143045D01*
X194766135Y-119063228D01*
X194822575Y-118965472D01*
X194851790Y-118856439D01*
X194851790Y-118743561D01*
X194822575Y-118634528D01*
X194811027Y-118614526D01*
X194766135Y-118536771D01*
X194686318Y-118456954D01*
X194588562Y-118400515D01*
X194479529Y-118371300D01*
X194366651Y-118371300D01*
X194257618Y-118400515D01*
X194257616Y-118400515D01*
X194159861Y-118456954D01*
X194080044Y-118536771D01*
X194023605Y-118634526D01*
X194023605Y-118634528D01*
X193994390Y-118743561D01*
X193426690Y-118743561D01*
X193397475Y-118634528D01*
X193385927Y-118614526D01*
X193341035Y-118536771D01*
X193261218Y-118456954D01*
X193163462Y-118400515D01*
X193054429Y-118371300D01*
X192941551Y-118371300D01*
X192832518Y-118400515D01*
X192832516Y-118400515D01*
X192734761Y-118456954D01*
X192654944Y-118536771D01*
X192598505Y-118634526D01*
X192598505Y-118634528D01*
X192569290Y-118743561D01*
X191873345Y-118743561D01*
X191873345Y-118723561D01*
X191844130Y-118614528D01*
X191844129Y-118614526D01*
X191787690Y-118516771D01*
X191707873Y-118436954D01*
X191610117Y-118380515D01*
X191596558Y-118376882D01*
X191501084Y-118351300D01*
X191388206Y-118351300D01*
X191279173Y-118380515D01*
X191279171Y-118380515D01*
X191181416Y-118436954D01*
X191101599Y-118516771D01*
X191045160Y-118614526D01*
X191045160Y-118614528D01*
X191015945Y-118723561D01*
X158385708Y-118723561D01*
X158344331Y-118706422D01*
X158344329Y-118706421D01*
X158208995Y-118679500D01*
X158179883Y-118679500D01*
X158179882Y-118679500D01*
X156346195Y-118679500D01*
X156326378Y-118672287D01*
X156305790Y-118667723D01*
X156300487Y-118662864D01*
X156297857Y-118661907D01*
X156286537Y-118650082D01*
X156274084Y-118633852D01*
X156264272Y-118616857D01*
X156221096Y-118512621D01*
X156216018Y-118493668D01*
X156202334Y-118389725D01*
X156200643Y-118376882D01*
X156200000Y-118367067D01*
X156200000Y-117333561D01*
X195421300Y-117333561D01*
X195421300Y-117446439D01*
X195442874Y-117526954D01*
X195450515Y-117555471D01*
X195450515Y-117555473D01*
X195506954Y-117653228D01*
X195586771Y-117733045D01*
X195604092Y-117743045D01*
X195684528Y-117789485D01*
X195793561Y-117818700D01*
X195793564Y-117818700D01*
X195906436Y-117818700D01*
X195906439Y-117818700D01*
X196015472Y-117789485D01*
X196113228Y-117733045D01*
X196193045Y-117653228D01*
X196249485Y-117555472D01*
X196273489Y-117465887D01*
X208208974Y-117465887D01*
X208208974Y-117578765D01*
X208235310Y-117677053D01*
X208238189Y-117687797D01*
X208238189Y-117687799D01*
X208294628Y-117785554D01*
X208374445Y-117865371D01*
X208430885Y-117897956D01*
X208472202Y-117921811D01*
X208581235Y-117951026D01*
X208581238Y-117951026D01*
X208694110Y-117951026D01*
X208694113Y-117951026D01*
X208803146Y-117921811D01*
X208900902Y-117865371D01*
X208952712Y-117813561D01*
X211091300Y-117813561D01*
X211091300Y-117926439D01*
X211106000Y-117981300D01*
X211120515Y-118035471D01*
X211120515Y-118035473D01*
X211176954Y-118133228D01*
X211256771Y-118213045D01*
X211299716Y-118237839D01*
X211354528Y-118269485D01*
X211463561Y-118298700D01*
X211463564Y-118298700D01*
X211576436Y-118298700D01*
X211576439Y-118298700D01*
X211685472Y-118269485D01*
X211783228Y-118213045D01*
X211863045Y-118133228D01*
X211919485Y-118035472D01*
X211948700Y-117926439D01*
X211948700Y-117813561D01*
X211919485Y-117704528D01*
X211919484Y-117704526D01*
X211863045Y-117606771D01*
X211783228Y-117526954D01*
X211685472Y-117470515D01*
X211668207Y-117465889D01*
X211576439Y-117441300D01*
X211463561Y-117441300D01*
X211354528Y-117470515D01*
X211354526Y-117470515D01*
X211256771Y-117526954D01*
X211176954Y-117606771D01*
X211120515Y-117704526D01*
X211120515Y-117704528D01*
X211091300Y-117813561D01*
X208952712Y-117813561D01*
X208980719Y-117785554D01*
X208989104Y-117771032D01*
X209037158Y-117687799D01*
X209037159Y-117687798D01*
X209066374Y-117578765D01*
X209066374Y-117465887D01*
X209037159Y-117356854D01*
X209037158Y-117356852D01*
X208980719Y-117259097D01*
X208900902Y-117179280D01*
X208803146Y-117122841D01*
X208779253Y-117116439D01*
X208694113Y-117093626D01*
X208581235Y-117093626D01*
X208472202Y-117122841D01*
X208472200Y-117122841D01*
X208374445Y-117179280D01*
X208294628Y-117259097D01*
X208238189Y-117356852D01*
X208238189Y-117356854D01*
X208208974Y-117465887D01*
X196273489Y-117465887D01*
X196278700Y-117446439D01*
X196278700Y-117333561D01*
X196249485Y-117224528D01*
X196249484Y-117224526D01*
X196193045Y-117126771D01*
X196113228Y-117046954D01*
X196015472Y-116990515D01*
X195906439Y-116961300D01*
X195793561Y-116961300D01*
X195684528Y-116990515D01*
X195684526Y-116990515D01*
X195586771Y-117046954D01*
X195506954Y-117126771D01*
X195450515Y-117224526D01*
X195450515Y-117224528D01*
X195421300Y-117333561D01*
X156200000Y-117333561D01*
X156200000Y-113624659D01*
X175092398Y-113624659D01*
X175092398Y-113737537D01*
X175121613Y-113846569D01*
X175121613Y-113846571D01*
X175178052Y-113944326D01*
X175257869Y-114024143D01*
X175299804Y-114048354D01*
X175355626Y-114080583D01*
X175464659Y-114109798D01*
X175464662Y-114109798D01*
X175515002Y-114109798D01*
X175563340Y-114127391D01*
X175589060Y-114171940D01*
X175590202Y-114184998D01*
X175590202Y-114235341D01*
X175619417Y-114344373D01*
X175619417Y-114344375D01*
X175675856Y-114442130D01*
X175755673Y-114521947D01*
X175812113Y-114554532D01*
X175853430Y-114578387D01*
X175962463Y-114607602D01*
X175962466Y-114607602D01*
X176075338Y-114607602D01*
X176075341Y-114607602D01*
X176184374Y-114578387D01*
X176282130Y-114521947D01*
X176361947Y-114442130D01*
X176418387Y-114344374D01*
X176447602Y-114235341D01*
X176447602Y-114137144D01*
X178711068Y-114137144D01*
X178711068Y-114302357D01*
X178740006Y-114447839D01*
X178743299Y-114464391D01*
X178806522Y-114617024D01*
X178898307Y-114754391D01*
X178898308Y-114754392D01*
X178898311Y-114754396D01*
X179015122Y-114871207D01*
X179015125Y-114871209D01*
X179015128Y-114871212D01*
X179133074Y-114950020D01*
X179163491Y-114991504D01*
X179160126Y-115042834D01*
X179133074Y-115075073D01*
X179029130Y-115144526D01*
X179015122Y-115153886D01*
X178898311Y-115270697D01*
X178806521Y-115408071D01*
X178743299Y-115560703D01*
X178743298Y-115560706D01*
X178711068Y-115722736D01*
X178711068Y-115887949D01*
X178742213Y-116044526D01*
X178743299Y-116049983D01*
X178806522Y-116202616D01*
X178898307Y-116339983D01*
X178898308Y-116339984D01*
X178898311Y-116339988D01*
X179015122Y-116456799D01*
X179015125Y-116456801D01*
X179015128Y-116456804D01*
X179152495Y-116548589D01*
X179305128Y-116611812D01*
X179402349Y-116631150D01*
X179467161Y-116644043D01*
X179467163Y-116644043D01*
X179632375Y-116644043D01*
X179696436Y-116631300D01*
X179794408Y-116611812D01*
X179947041Y-116548589D01*
X180084408Y-116456804D01*
X180201229Y-116339983D01*
X180293014Y-116202616D01*
X180313333Y-116153561D01*
X199181300Y-116153561D01*
X199181300Y-116266439D01*
X199210515Y-116375471D01*
X199210515Y-116375473D01*
X199266954Y-116473228D01*
X199346771Y-116553045D01*
X199378390Y-116571300D01*
X199444528Y-116609485D01*
X199553561Y-116638700D01*
X199553564Y-116638700D01*
X199666436Y-116638700D01*
X199666439Y-116638700D01*
X199775472Y-116609485D01*
X199873228Y-116553045D01*
X199953045Y-116473228D01*
X200009485Y-116375472D01*
X200038700Y-116266439D01*
X200038700Y-116153561D01*
X200009485Y-116044528D01*
X199997380Y-116023561D01*
X208221300Y-116023561D01*
X208221300Y-116136439D01*
X208239032Y-116202616D01*
X208250515Y-116245471D01*
X208250515Y-116245473D01*
X208306954Y-116343228D01*
X208386771Y-116423045D01*
X208443211Y-116455630D01*
X208484528Y-116479485D01*
X208593561Y-116508700D01*
X208593564Y-116508700D01*
X208706436Y-116508700D01*
X208706439Y-116508700D01*
X208815472Y-116479485D01*
X208911168Y-116424234D01*
X208961821Y-116415302D01*
X209001938Y-116436186D01*
X209038110Y-116472358D01*
X209079039Y-116495988D01*
X209135867Y-116528798D01*
X209244900Y-116558013D01*
X209244903Y-116558013D01*
X209357775Y-116558013D01*
X209357778Y-116558013D01*
X209466811Y-116528798D01*
X209564567Y-116472358D01*
X209644384Y-116392541D01*
X209700824Y-116294785D01*
X209730039Y-116185752D01*
X209730039Y-116072874D01*
X209700824Y-115963841D01*
X209676145Y-115921096D01*
X209644384Y-115866084D01*
X209564567Y-115786267D01*
X209564568Y-115786267D01*
X209462695Y-115727451D01*
X209429630Y-115688046D01*
X209429630Y-115636606D01*
X209447119Y-115609153D01*
X209483045Y-115573228D01*
X209539485Y-115475472D01*
X209568700Y-115366439D01*
X209568700Y-115253561D01*
X209539485Y-115144528D01*
X209539484Y-115144526D01*
X209483045Y-115046771D01*
X209403228Y-114966954D01*
X209305472Y-114910515D01*
X209196439Y-114881300D01*
X209083561Y-114881300D01*
X208974528Y-114910515D01*
X208974526Y-114910515D01*
X208876771Y-114966954D01*
X208796954Y-115046771D01*
X208740515Y-115144526D01*
X208740515Y-115144528D01*
X208711300Y-115253561D01*
X208711300Y-115366439D01*
X208740515Y-115475471D01*
X208740515Y-115475473D01*
X208776938Y-115538558D01*
X208785871Y-115589216D01*
X208760151Y-115633764D01*
X208711813Y-115651358D01*
X208710920Y-115651300D01*
X208706439Y-115651300D01*
X208593561Y-115651300D01*
X208484528Y-115680515D01*
X208484526Y-115680515D01*
X208386771Y-115736954D01*
X208306954Y-115816771D01*
X208250515Y-115914526D01*
X208250515Y-115914528D01*
X208221300Y-116023561D01*
X199997380Y-116023561D01*
X199968813Y-115974082D01*
X199953045Y-115946771D01*
X199873228Y-115866954D01*
X199775472Y-115810515D01*
X199666439Y-115781300D01*
X199553561Y-115781300D01*
X199444528Y-115810515D01*
X199444526Y-115810515D01*
X199346771Y-115866954D01*
X199266954Y-115946771D01*
X199210515Y-116044526D01*
X199210515Y-116044528D01*
X199181300Y-116153561D01*
X180313333Y-116153561D01*
X180356237Y-116049983D01*
X180382571Y-115917593D01*
X180388468Y-115887949D01*
X180388468Y-115722736D01*
X180374605Y-115653045D01*
X180356237Y-115560703D01*
X180293014Y-115408070D01*
X180201229Y-115270703D01*
X180201226Y-115270700D01*
X180201224Y-115270697D01*
X180084413Y-115153886D01*
X180084409Y-115153883D01*
X180084408Y-115153882D01*
X179966459Y-115075071D01*
X179936044Y-115033590D01*
X179939408Y-114982261D01*
X179966458Y-114950022D01*
X180084408Y-114871212D01*
X180201229Y-114754391D01*
X180293014Y-114617024D01*
X180356237Y-114464391D01*
X180381982Y-114334961D01*
X194365990Y-114334961D01*
X194365990Y-114447839D01*
X194385847Y-114521947D01*
X194395205Y-114556871D01*
X194395205Y-114556873D01*
X194451644Y-114654628D01*
X194531461Y-114734445D01*
X194587901Y-114767030D01*
X194629218Y-114790885D01*
X194738251Y-114820100D01*
X194738254Y-114820100D01*
X194851126Y-114820100D01*
X194851129Y-114820100D01*
X194960162Y-114790885D01*
X195057918Y-114734445D01*
X195137735Y-114654628D01*
X195194175Y-114556872D01*
X195223390Y-114447839D01*
X195223390Y-114334961D01*
X195194175Y-114225928D01*
X195187446Y-114214273D01*
X195137735Y-114128171D01*
X195057918Y-114048354D01*
X194997654Y-114013561D01*
X204831300Y-114013561D01*
X204831300Y-114126439D01*
X204857836Y-114225472D01*
X204860515Y-114235471D01*
X204860515Y-114235473D01*
X204916954Y-114333228D01*
X204996771Y-114413045D01*
X205047148Y-114442130D01*
X205094528Y-114469485D01*
X205203561Y-114498700D01*
X205203564Y-114498700D01*
X205316436Y-114498700D01*
X205316439Y-114498700D01*
X205425472Y-114469485D01*
X205523228Y-114413045D01*
X205603045Y-114333228D01*
X205659485Y-114235472D01*
X205688700Y-114126439D01*
X205688700Y-114013561D01*
X205683020Y-113992361D01*
X208711500Y-113992361D01*
X208711500Y-114105239D01*
X208740715Y-114214271D01*
X208740715Y-114214273D01*
X208797154Y-114312028D01*
X208876971Y-114391845D01*
X208913691Y-114413045D01*
X208974728Y-114448285D01*
X209083761Y-114477500D01*
X209083764Y-114477500D01*
X209196636Y-114477500D01*
X209196639Y-114477500D01*
X209305672Y-114448285D01*
X209403428Y-114391845D01*
X209483245Y-114312028D01*
X209539685Y-114214272D01*
X209568900Y-114105239D01*
X209568900Y-114003561D01*
X211241300Y-114003561D01*
X211241300Y-114116439D01*
X211270515Y-114225471D01*
X211270515Y-114225473D01*
X211326954Y-114323228D01*
X211406771Y-114403045D01*
X211424092Y-114413045D01*
X211504528Y-114459485D01*
X211613561Y-114488700D01*
X211613564Y-114488700D01*
X211726436Y-114488700D01*
X211726439Y-114488700D01*
X211835472Y-114459485D01*
X211933228Y-114403045D01*
X212013045Y-114323228D01*
X212069485Y-114225472D01*
X212098700Y-114116439D01*
X212098700Y-114003561D01*
X212069485Y-113894528D01*
X212063019Y-113883328D01*
X212013045Y-113796771D01*
X211933228Y-113716954D01*
X211835472Y-113660515D01*
X211726439Y-113631300D01*
X211613561Y-113631300D01*
X211504528Y-113660515D01*
X211504526Y-113660515D01*
X211406771Y-113716954D01*
X211326954Y-113796771D01*
X211270515Y-113894526D01*
X211270515Y-113894528D01*
X211241300Y-114003561D01*
X209568900Y-114003561D01*
X209568900Y-113992361D01*
X209539685Y-113883328D01*
X209538787Y-113881772D01*
X209483245Y-113785571D01*
X209403428Y-113705754D01*
X209305672Y-113649315D01*
X209196639Y-113620100D01*
X209083761Y-113620100D01*
X208974728Y-113649315D01*
X208974726Y-113649315D01*
X208876971Y-113705754D01*
X208797154Y-113785571D01*
X208740715Y-113883326D01*
X208740715Y-113883328D01*
X208711500Y-113992361D01*
X205683020Y-113992361D01*
X205659485Y-113904528D01*
X205659484Y-113904526D01*
X205603045Y-113806771D01*
X205523228Y-113726954D01*
X205425472Y-113670515D01*
X205316439Y-113641300D01*
X205203561Y-113641300D01*
X205094528Y-113670515D01*
X205094526Y-113670515D01*
X204996771Y-113726954D01*
X204916954Y-113806771D01*
X204860515Y-113904526D01*
X204860515Y-113904528D01*
X204831300Y-114013561D01*
X194997654Y-114013561D01*
X194960162Y-113991915D01*
X194851129Y-113962700D01*
X194738251Y-113962700D01*
X194629218Y-113991915D01*
X194629216Y-113991915D01*
X194531461Y-114048354D01*
X194451644Y-114128171D01*
X194395205Y-114225926D01*
X194395205Y-114225928D01*
X194365990Y-114334961D01*
X180381982Y-114334961D01*
X180388468Y-114302356D01*
X180388468Y-114137146D01*
X180386338Y-114126439D01*
X180365990Y-114024143D01*
X180356237Y-113975111D01*
X180293014Y-113822478D01*
X180201229Y-113685111D01*
X180201226Y-113685108D01*
X180201224Y-113685105D01*
X180084413Y-113568294D01*
X180084409Y-113568291D01*
X180084408Y-113568290D01*
X179947041Y-113476505D01*
X179794408Y-113413282D01*
X179794405Y-113413281D01*
X179794404Y-113413281D01*
X179766327Y-113407696D01*
X201806292Y-113407696D01*
X201806292Y-113520574D01*
X201831208Y-113613561D01*
X201835507Y-113629606D01*
X201835507Y-113629608D01*
X201891946Y-113727363D01*
X201971763Y-113807180D01*
X202028203Y-113839765D01*
X202069520Y-113863620D01*
X202178553Y-113892835D01*
X202178556Y-113892835D01*
X202291428Y-113892835D01*
X202291431Y-113892835D01*
X202400464Y-113863620D01*
X202498220Y-113807180D01*
X202578037Y-113727363D01*
X202634477Y-113629607D01*
X202663692Y-113520574D01*
X202663692Y-113407696D01*
X202634477Y-113298663D01*
X202602664Y-113243561D01*
X202578037Y-113200906D01*
X202498220Y-113121089D01*
X202400464Y-113064650D01*
X202398199Y-113064043D01*
X202291431Y-113035435D01*
X202178553Y-113035435D01*
X202069520Y-113064650D01*
X202069518Y-113064650D01*
X201971763Y-113121089D01*
X201891946Y-113200906D01*
X201835507Y-113298661D01*
X201835507Y-113298663D01*
X201806292Y-113407696D01*
X179766327Y-113407696D01*
X179632375Y-113381051D01*
X179632373Y-113381051D01*
X179467163Y-113381051D01*
X179467161Y-113381051D01*
X179305131Y-113413281D01*
X179305128Y-113413282D01*
X179152496Y-113476504D01*
X179015122Y-113568294D01*
X178898311Y-113685105D01*
X178806521Y-113822479D01*
X178743299Y-113975111D01*
X178743298Y-113975114D01*
X178711068Y-114137144D01*
X176447602Y-114137144D01*
X176447602Y-114122463D01*
X176418387Y-114013430D01*
X176401087Y-113983465D01*
X176361947Y-113915673D01*
X176282130Y-113835856D01*
X176184374Y-113779417D01*
X176075341Y-113750202D01*
X176024998Y-113750202D01*
X176007466Y-113743821D01*
X175989020Y-113741037D01*
X175983914Y-113735249D01*
X175976660Y-113732609D01*
X175967331Y-113716450D01*
X175954991Y-113702462D01*
X175952914Y-113691479D01*
X175950940Y-113688060D01*
X175949821Y-113676862D01*
X175949798Y-113675932D01*
X175949798Y-113624659D01*
X175946824Y-113613561D01*
X177771300Y-113613561D01*
X177771300Y-113726439D01*
X177797034Y-113822479D01*
X177800515Y-113835471D01*
X177800515Y-113835473D01*
X177856954Y-113933228D01*
X177936771Y-114013045D01*
X177993211Y-114045630D01*
X178034528Y-114069485D01*
X178143561Y-114098700D01*
X178143564Y-114098700D01*
X178256436Y-114098700D01*
X178256439Y-114098700D01*
X178365472Y-114069485D01*
X178366372Y-114068965D01*
X178367480Y-114068326D01*
X178463228Y-114013045D01*
X178543045Y-113933228D01*
X178572753Y-113881772D01*
X178599485Y-113835472D01*
X178628700Y-113726439D01*
X178628700Y-113613561D01*
X178599485Y-113504528D01*
X178576936Y-113465472D01*
X178543045Y-113406771D01*
X178463228Y-113326954D01*
X178365472Y-113270515D01*
X178256439Y-113241300D01*
X178143561Y-113241300D01*
X178034528Y-113270515D01*
X178034526Y-113270515D01*
X177936771Y-113326954D01*
X177856954Y-113406771D01*
X177800515Y-113504526D01*
X177800515Y-113504528D01*
X177771300Y-113613561D01*
X175946824Y-113613561D01*
X175920583Y-113515626D01*
X175914176Y-113504528D01*
X175864143Y-113417869D01*
X175784326Y-113338052D01*
X175686570Y-113281613D01*
X175577537Y-113252398D01*
X175464659Y-113252398D01*
X175355626Y-113281613D01*
X175355624Y-113281613D01*
X175257869Y-113338052D01*
X175178052Y-113417869D01*
X175121613Y-113515624D01*
X175121613Y-113515626D01*
X175092398Y-113624659D01*
X156200000Y-113624659D01*
X156200000Y-112799092D01*
X162891300Y-112799092D01*
X162891300Y-112911970D01*
X162909884Y-112981326D01*
X162920515Y-113021002D01*
X162920515Y-113021004D01*
X162976954Y-113118759D01*
X163056771Y-113198576D01*
X163113211Y-113231161D01*
X163154528Y-113255016D01*
X163263561Y-113284231D01*
X163263564Y-113284231D01*
X163376436Y-113284231D01*
X163376439Y-113284231D01*
X163485472Y-113255016D01*
X163583228Y-113198576D01*
X163663045Y-113118759D01*
X163719485Y-113021003D01*
X163748700Y-112911970D01*
X163748700Y-112799092D01*
X163719485Y-112690059D01*
X163694299Y-112646436D01*
X163663045Y-112592302D01*
X163583228Y-112512485D01*
X163567771Y-112503561D01*
X174461300Y-112503561D01*
X174461300Y-112616439D01*
X174490515Y-112725471D01*
X174490515Y-112725473D01*
X174546954Y-112823228D01*
X174626771Y-112903045D01*
X174642230Y-112911970D01*
X174724528Y-112959485D01*
X174833561Y-112988700D01*
X174833564Y-112988700D01*
X174946436Y-112988700D01*
X174946439Y-112988700D01*
X175055472Y-112959485D01*
X175153228Y-112903045D01*
X175233045Y-112823228D01*
X175289485Y-112725472D01*
X175318700Y-112616439D01*
X175318700Y-112503561D01*
X175289485Y-112394528D01*
X175271606Y-112363561D01*
X175233045Y-112296771D01*
X175153228Y-112216954D01*
X175055472Y-112160515D01*
X174946439Y-112131300D01*
X174833561Y-112131300D01*
X174724528Y-112160515D01*
X174724526Y-112160515D01*
X174626771Y-112216954D01*
X174546954Y-112296771D01*
X174490515Y-112394526D01*
X174490515Y-112394528D01*
X174461300Y-112503561D01*
X163567771Y-112503561D01*
X163485472Y-112456046D01*
X163376439Y-112426831D01*
X163263561Y-112426831D01*
X163154528Y-112456046D01*
X163154526Y-112456046D01*
X163056771Y-112512485D01*
X162976954Y-112592302D01*
X162920515Y-112690057D01*
X162920515Y-112690059D01*
X162891300Y-112799092D01*
X156200000Y-112799092D01*
X156200000Y-111813561D01*
X162031300Y-111813561D01*
X162031300Y-111926439D01*
X162060515Y-112035471D01*
X162060515Y-112035473D01*
X162116954Y-112133228D01*
X162196771Y-112213045D01*
X162253211Y-112245630D01*
X162294528Y-112269485D01*
X162403561Y-112298700D01*
X162403564Y-112298700D01*
X162516436Y-112298700D01*
X162516439Y-112298700D01*
X162625472Y-112269485D01*
X162723228Y-112213045D01*
X162803045Y-112133228D01*
X162859485Y-112035472D01*
X162870715Y-111993561D01*
X170611300Y-111993561D01*
X170611300Y-112106439D01*
X170627118Y-112165472D01*
X170640515Y-112215471D01*
X170640515Y-112215473D01*
X170696954Y-112313228D01*
X170776771Y-112393045D01*
X170829966Y-112423757D01*
X170874528Y-112449485D01*
X170983561Y-112478700D01*
X170983564Y-112478700D01*
X171096436Y-112478700D01*
X171096439Y-112478700D01*
X171205472Y-112449485D01*
X171303228Y-112393045D01*
X171311361Y-112384911D01*
X171357980Y-112363170D01*
X171407667Y-112376482D01*
X171417711Y-112384910D01*
X171429960Y-112397159D01*
X171477365Y-112424528D01*
X171527717Y-112453599D01*
X171636750Y-112482814D01*
X171636753Y-112482814D01*
X171749625Y-112482814D01*
X171749628Y-112482814D01*
X171858661Y-112453599D01*
X171956417Y-112397159D01*
X172036234Y-112317342D01*
X172092674Y-112219586D01*
X172121889Y-112110553D01*
X172121889Y-111997675D01*
X172107389Y-111943561D01*
X178051300Y-111943561D01*
X178051300Y-112056439D01*
X178079187Y-112160515D01*
X178080515Y-112165471D01*
X178080515Y-112165473D01*
X178136954Y-112263228D01*
X178216771Y-112343045D01*
X178251629Y-112363170D01*
X178314528Y-112399485D01*
X178423561Y-112428700D01*
X178423564Y-112428700D01*
X178536436Y-112428700D01*
X178536439Y-112428700D01*
X178645472Y-112399485D01*
X178645474Y-112399483D01*
X178647481Y-112398946D01*
X178698725Y-112403430D01*
X178735098Y-112439803D01*
X178740698Y-112456909D01*
X178743299Y-112469983D01*
X178806522Y-112622616D01*
X178898307Y-112759983D01*
X178898308Y-112759984D01*
X178898311Y-112759988D01*
X179015122Y-112876799D01*
X179015125Y-112876801D01*
X179015128Y-112876804D01*
X179152495Y-112968589D01*
X179305128Y-113031812D01*
X179402349Y-113051150D01*
X179467161Y-113064043D01*
X179467163Y-113064043D01*
X179632375Y-113064043D01*
X179686384Y-113053299D01*
X179794408Y-113031812D01*
X179947041Y-112968589D01*
X180084408Y-112876804D01*
X180201229Y-112759983D01*
X180293014Y-112622616D01*
X180329902Y-112533561D01*
X199351300Y-112533561D01*
X199351300Y-112646439D01*
X199380515Y-112755471D01*
X199380515Y-112755473D01*
X199436954Y-112853228D01*
X199516771Y-112933045D01*
X199558185Y-112956955D01*
X199614528Y-112989485D01*
X199723561Y-113018700D01*
X199723564Y-113018700D01*
X199836436Y-113018700D01*
X199836439Y-113018700D01*
X199945472Y-112989485D01*
X200043228Y-112933045D01*
X200123045Y-112853228D01*
X200179485Y-112755472D01*
X200179997Y-112753561D01*
X208151300Y-112753561D01*
X208151300Y-112866439D01*
X208178671Y-112968589D01*
X208180515Y-112975471D01*
X208180515Y-112975473D01*
X208236954Y-113073228D01*
X208316771Y-113153045D01*
X208373211Y-113185630D01*
X208414528Y-113209485D01*
X208523561Y-113238700D01*
X208523564Y-113238700D01*
X208636436Y-113238700D01*
X208636439Y-113238700D01*
X208745472Y-113209485D01*
X208843228Y-113153045D01*
X208923045Y-113073228D01*
X208979485Y-112975472D01*
X209008700Y-112866439D01*
X209008700Y-112753561D01*
X208979485Y-112644528D01*
X208949332Y-112592302D01*
X208923045Y-112546771D01*
X208843228Y-112466954D01*
X208768408Y-112423757D01*
X208745472Y-112410515D01*
X208636439Y-112381300D01*
X208523561Y-112381300D01*
X208414528Y-112410515D01*
X208414526Y-112410515D01*
X208316771Y-112466954D01*
X208236954Y-112546771D01*
X208180515Y-112644526D01*
X208180515Y-112644528D01*
X208151300Y-112753561D01*
X200179997Y-112753561D01*
X200208700Y-112646439D01*
X200208700Y-112533561D01*
X200179485Y-112424528D01*
X200167304Y-112403430D01*
X200144286Y-112363561D01*
X212441500Y-112363561D01*
X212441500Y-112476439D01*
X212464733Y-112563145D01*
X212470715Y-112585471D01*
X212470715Y-112585473D01*
X212527154Y-112683228D01*
X212606971Y-112763045D01*
X212663411Y-112795630D01*
X212704728Y-112819485D01*
X212813761Y-112848700D01*
X212813764Y-112848700D01*
X212926636Y-112848700D01*
X212926639Y-112848700D01*
X213035672Y-112819485D01*
X213133428Y-112763045D01*
X213213245Y-112683228D01*
X213269685Y-112585472D01*
X213298900Y-112476439D01*
X213298900Y-112363561D01*
X213269685Y-112254528D01*
X213269682Y-112254524D01*
X213268720Y-112252199D01*
X213268653Y-112250680D01*
X213268409Y-112249767D01*
X213268611Y-112249712D01*
X213266477Y-112200808D01*
X213297791Y-112159998D01*
X213318731Y-112150784D01*
X213340846Y-112144859D01*
X213438602Y-112088419D01*
X213518419Y-112008602D01*
X213574859Y-111910846D01*
X213604074Y-111801813D01*
X213604074Y-111688935D01*
X213574859Y-111579902D01*
X213544290Y-111526955D01*
X213518419Y-111482145D01*
X213438602Y-111402328D01*
X213340846Y-111345889D01*
X213330232Y-111343045D01*
X213231813Y-111316674D01*
X213118935Y-111316674D01*
X213009902Y-111345889D01*
X213009900Y-111345889D01*
X212912145Y-111402328D01*
X212832328Y-111482145D01*
X212775889Y-111579900D01*
X212775889Y-111579902D01*
X212746674Y-111688935D01*
X212746674Y-111801813D01*
X212763312Y-111863907D01*
X212775890Y-111910852D01*
X212776855Y-111913180D01*
X212776921Y-111914696D01*
X212777165Y-111915607D01*
X212776963Y-111915661D01*
X212779095Y-111964571D01*
X212747777Y-112005378D01*
X212726841Y-112014589D01*
X212704733Y-112020512D01*
X212704726Y-112020515D01*
X212606971Y-112076954D01*
X212527154Y-112156771D01*
X212470715Y-112254526D01*
X212470715Y-112254528D01*
X212441500Y-112363561D01*
X200144286Y-112363561D01*
X200123045Y-112326771D01*
X200043228Y-112246954D01*
X199945472Y-112190515D01*
X199941624Y-112189484D01*
X199836439Y-112161300D01*
X199723561Y-112161300D01*
X199614528Y-112190515D01*
X199614526Y-112190515D01*
X199516771Y-112246954D01*
X199436954Y-112326771D01*
X199380515Y-112424526D01*
X199380515Y-112424528D01*
X199351300Y-112533561D01*
X180329902Y-112533561D01*
X180356237Y-112469983D01*
X180383736Y-112331735D01*
X180388468Y-112307949D01*
X180388468Y-112142736D01*
X180370663Y-112053228D01*
X180356237Y-111980703D01*
X180293014Y-111828070D01*
X180201229Y-111690703D01*
X180201226Y-111690700D01*
X180201224Y-111690697D01*
X180084413Y-111573886D01*
X180084409Y-111573883D01*
X180084408Y-111573882D01*
X179947041Y-111482097D01*
X179947039Y-111482096D01*
X179947036Y-111482094D01*
X179946229Y-111481663D01*
X179945987Y-111481393D01*
X179943969Y-111480045D01*
X179944314Y-111479527D01*
X179911893Y-111443360D01*
X179910211Y-111391948D01*
X179941969Y-111351482D01*
X179946229Y-111349023D01*
X179947036Y-111348591D01*
X179947035Y-111348591D01*
X179947041Y-111348589D01*
X180084408Y-111256804D01*
X180201229Y-111139983D01*
X180293014Y-111002616D01*
X180356237Y-110849983D01*
X180388468Y-110687948D01*
X180388468Y-110522738D01*
X180385033Y-110505471D01*
X180365142Y-110405471D01*
X180356237Y-110360703D01*
X180324284Y-110283561D01*
X188171300Y-110283561D01*
X188171300Y-110396439D01*
X188199592Y-110502028D01*
X188200515Y-110505471D01*
X188200515Y-110505473D01*
X188256954Y-110603228D01*
X188270552Y-110616826D01*
X188292292Y-110663446D01*
X188278978Y-110713133D01*
X188270552Y-110723174D01*
X188256954Y-110736771D01*
X188200515Y-110834526D01*
X188200515Y-110834528D01*
X188171300Y-110943561D01*
X188171300Y-111056439D01*
X188193687Y-111139988D01*
X188200515Y-111165471D01*
X188200515Y-111165473D01*
X188256954Y-111263228D01*
X188335552Y-111341826D01*
X188357292Y-111388446D01*
X188343978Y-111438133D01*
X188335552Y-111448174D01*
X188256954Y-111526771D01*
X188200515Y-111624526D01*
X188200515Y-111624528D01*
X188171300Y-111733561D01*
X188171300Y-111846439D01*
X188197324Y-111943563D01*
X188200515Y-111955471D01*
X188200515Y-111955473D01*
X188256954Y-112053228D01*
X188336771Y-112133045D01*
X188392935Y-112165471D01*
X188434528Y-112189485D01*
X188543561Y-112218700D01*
X188543564Y-112218700D01*
X188656436Y-112218700D01*
X188656439Y-112218700D01*
X188765472Y-112189485D01*
X188863228Y-112133045D01*
X188943045Y-112053228D01*
X188999485Y-111955472D01*
X189028700Y-111846439D01*
X189028700Y-111733561D01*
X188999485Y-111624528D01*
X188997621Y-111621300D01*
X188943045Y-111526771D01*
X188864448Y-111448174D01*
X188842708Y-111401554D01*
X188856022Y-111351867D01*
X188864448Y-111341826D01*
X188943045Y-111263228D01*
X188982049Y-111195672D01*
X188999485Y-111165472D01*
X189028700Y-111056439D01*
X189028700Y-111026656D01*
X199529426Y-111026656D01*
X199529426Y-111139534D01*
X199558641Y-111248566D01*
X199558641Y-111248568D01*
X199615080Y-111346323D01*
X199694897Y-111426140D01*
X199751293Y-111458700D01*
X199792654Y-111482580D01*
X199901687Y-111511795D01*
X199901690Y-111511795D01*
X200014562Y-111511795D01*
X200014565Y-111511795D01*
X200123598Y-111482580D01*
X200221354Y-111426140D01*
X200301171Y-111346323D01*
X200357611Y-111248567D01*
X200386826Y-111139534D01*
X200386826Y-111026656D01*
X200357611Y-110917623D01*
X200357610Y-110917621D01*
X200301171Y-110819866D01*
X200296963Y-110815658D01*
X200275223Y-110769038D01*
X200288537Y-110719351D01*
X200296959Y-110709312D01*
X200313045Y-110693228D01*
X200369485Y-110595472D01*
X200398700Y-110486439D01*
X200398700Y-110373561D01*
X200369485Y-110264528D01*
X200336889Y-110208070D01*
X200322739Y-110183561D01*
X208541300Y-110183561D01*
X208541300Y-110296439D01*
X208570194Y-110404273D01*
X208570515Y-110405471D01*
X208570515Y-110405473D01*
X208626954Y-110503228D01*
X208706771Y-110583045D01*
X208763211Y-110615630D01*
X208804528Y-110639485D01*
X208913561Y-110668700D01*
X208913564Y-110668700D01*
X209026436Y-110668700D01*
X209026439Y-110668700D01*
X209135472Y-110639485D01*
X209233228Y-110583045D01*
X209313045Y-110503228D01*
X209369485Y-110405472D01*
X209398700Y-110296439D01*
X209398700Y-110183561D01*
X209398378Y-110182361D01*
X211161300Y-110182361D01*
X211161300Y-110295239D01*
X211188416Y-110396439D01*
X211190515Y-110404271D01*
X211190515Y-110404273D01*
X211246954Y-110502028D01*
X211326771Y-110581845D01*
X211363803Y-110603225D01*
X211424528Y-110638285D01*
X211533561Y-110667500D01*
X211533564Y-110667500D01*
X211646436Y-110667500D01*
X211646439Y-110667500D01*
X211755472Y-110638285D01*
X211853228Y-110581845D01*
X211933045Y-110502028D01*
X211989485Y-110404272D01*
X212018700Y-110295239D01*
X212018700Y-110252923D01*
X214617500Y-110252923D01*
X214617500Y-110365801D01*
X214636539Y-110436855D01*
X214646715Y-110474833D01*
X214646715Y-110474835D01*
X214703154Y-110572590D01*
X214782971Y-110652407D01*
X214824799Y-110676556D01*
X214880728Y-110708847D01*
X214989761Y-110738062D01*
X214989764Y-110738062D01*
X215102636Y-110738062D01*
X215102639Y-110738062D01*
X215211672Y-110708847D01*
X215309428Y-110652407D01*
X215389245Y-110572590D01*
X215445685Y-110474834D01*
X215474900Y-110365801D01*
X215474900Y-110252923D01*
X215445685Y-110143890D01*
X215431595Y-110119485D01*
X215389245Y-110046133D01*
X215309428Y-109966316D01*
X215211672Y-109909877D01*
X215102639Y-109880662D01*
X214989761Y-109880662D01*
X214880728Y-109909877D01*
X214880726Y-109909877D01*
X214782971Y-109966316D01*
X214703154Y-110046133D01*
X214646715Y-110143888D01*
X214646715Y-110143890D01*
X214617500Y-110252923D01*
X212018700Y-110252923D01*
X212018700Y-110182361D01*
X211989485Y-110073328D01*
X211989484Y-110073326D01*
X211933045Y-109975571D01*
X211853228Y-109895754D01*
X211755472Y-109839315D01*
X211646439Y-109810100D01*
X211533561Y-109810100D01*
X211424528Y-109839315D01*
X211424526Y-109839315D01*
X211326771Y-109895754D01*
X211246954Y-109975571D01*
X211190515Y-110073326D01*
X211190515Y-110073328D01*
X211161300Y-110182361D01*
X209398378Y-110182361D01*
X209369485Y-110074528D01*
X209344074Y-110030515D01*
X209313045Y-109976771D01*
X209233228Y-109896954D01*
X209135472Y-109840515D01*
X209130993Y-109839315D01*
X209026439Y-109811300D01*
X208913561Y-109811300D01*
X208804528Y-109840515D01*
X208804526Y-109840515D01*
X208706771Y-109896954D01*
X208626954Y-109976771D01*
X208570515Y-110074526D01*
X208570515Y-110074528D01*
X208541300Y-110183561D01*
X200322739Y-110183561D01*
X200313045Y-110166771D01*
X200233228Y-110086954D01*
X200135472Y-110030515D01*
X200026439Y-110001300D01*
X199913561Y-110001300D01*
X199804528Y-110030515D01*
X199804526Y-110030515D01*
X199706771Y-110086954D01*
X199626954Y-110166771D01*
X199570515Y-110264526D01*
X199570515Y-110264528D01*
X199541300Y-110373561D01*
X199541300Y-110486439D01*
X199570515Y-110595471D01*
X199570515Y-110595473D01*
X199626954Y-110693228D01*
X199631162Y-110697436D01*
X199652902Y-110744056D01*
X199639588Y-110793743D01*
X199631164Y-110803783D01*
X199615079Y-110819868D01*
X199558641Y-110917621D01*
X199558641Y-110917623D01*
X199529426Y-111026656D01*
X189028700Y-111026656D01*
X189028700Y-110943561D01*
X188999485Y-110834528D01*
X188943045Y-110736772D01*
X188929447Y-110723174D01*
X188907707Y-110676556D01*
X188921020Y-110626869D01*
X188929442Y-110616830D01*
X188943045Y-110603228D01*
X188999485Y-110505472D01*
X189028700Y-110396439D01*
X189028700Y-110283561D01*
X188999485Y-110174528D01*
X188995007Y-110166772D01*
X188943045Y-110076771D01*
X188863228Y-109996954D01*
X188765472Y-109940515D01*
X188656439Y-109911300D01*
X188543561Y-109911300D01*
X188434528Y-109940515D01*
X188434526Y-109940515D01*
X188336771Y-109996954D01*
X188256954Y-110076771D01*
X188200515Y-110174526D01*
X188200515Y-110174528D01*
X188171300Y-110283561D01*
X180324284Y-110283561D01*
X180293014Y-110208070D01*
X180201229Y-110070703D01*
X180201226Y-110070700D01*
X180201224Y-110070697D01*
X180084413Y-109953886D01*
X180084409Y-109953883D01*
X180084408Y-109953882D01*
X179947041Y-109862097D01*
X179926165Y-109853450D01*
X179833921Y-109815241D01*
X179794408Y-109798874D01*
X179794405Y-109798873D01*
X179794404Y-109798873D01*
X179632375Y-109766643D01*
X179632373Y-109766643D01*
X179467163Y-109766643D01*
X179467161Y-109766643D01*
X179305131Y-109798873D01*
X179305128Y-109798874D01*
X179152496Y-109862096D01*
X179015122Y-109953886D01*
X178898311Y-110070697D01*
X178806521Y-110208071D01*
X178743299Y-110360703D01*
X178743298Y-110360706D01*
X178711068Y-110522736D01*
X178711068Y-110687949D01*
X178737308Y-110819867D01*
X178743299Y-110849983D01*
X178806522Y-111002616D01*
X178898307Y-111139983D01*
X178898308Y-111139984D01*
X178898311Y-111139988D01*
X179015122Y-111256799D01*
X179015125Y-111256801D01*
X179015128Y-111256804D01*
X179152495Y-111348589D01*
X179152498Y-111348590D01*
X179152504Y-111348594D01*
X179153313Y-111349027D01*
X179153554Y-111349296D01*
X179155567Y-111350641D01*
X179155222Y-111351157D01*
X179187645Y-111387333D01*
X179189322Y-111438745D01*
X179157559Y-111479208D01*
X179153313Y-111481659D01*
X179152504Y-111482091D01*
X179015122Y-111573886D01*
X178898306Y-111690702D01*
X178896242Y-111693217D01*
X178851972Y-111719412D01*
X178801220Y-111711023D01*
X178784947Y-111698673D01*
X178743228Y-111656954D01*
X178645472Y-111600515D01*
X178643546Y-111599999D01*
X178536439Y-111571300D01*
X178423561Y-111571300D01*
X178314528Y-111600515D01*
X178314526Y-111600515D01*
X178216771Y-111656954D01*
X178136954Y-111736771D01*
X178080515Y-111834526D01*
X178080515Y-111834528D01*
X178051300Y-111943561D01*
X172107389Y-111943561D01*
X172092674Y-111888642D01*
X172092673Y-111888640D01*
X172036234Y-111790885D01*
X171956417Y-111711068D01*
X171858661Y-111654629D01*
X171843307Y-111650515D01*
X171749628Y-111625414D01*
X171636750Y-111625414D01*
X171527717Y-111654629D01*
X171527715Y-111654629D01*
X171429961Y-111711067D01*
X171421823Y-111719206D01*
X171375202Y-111740943D01*
X171325515Y-111727627D01*
X171315477Y-111719203D01*
X171303228Y-111706954D01*
X171205472Y-111650515D01*
X171096439Y-111621300D01*
X170983561Y-111621300D01*
X170874528Y-111650515D01*
X170874526Y-111650515D01*
X170776771Y-111706954D01*
X170696954Y-111786771D01*
X170640515Y-111884526D01*
X170640515Y-111884528D01*
X170611300Y-111993561D01*
X162870715Y-111993561D01*
X162888700Y-111926439D01*
X162888700Y-111813561D01*
X162859485Y-111704528D01*
X162852955Y-111693217D01*
X162803045Y-111606771D01*
X162723228Y-111526954D01*
X162625472Y-111470515D01*
X162516439Y-111441300D01*
X162403561Y-111441300D01*
X162294528Y-111470515D01*
X162294526Y-111470515D01*
X162196771Y-111526954D01*
X162116954Y-111606771D01*
X162060515Y-111704526D01*
X162060515Y-111704528D01*
X162031300Y-111813561D01*
X156200000Y-111813561D01*
X156200000Y-110973561D01*
X167941300Y-110973561D01*
X167941300Y-111086439D01*
X167962477Y-111165472D01*
X167970515Y-111195471D01*
X167970515Y-111195473D01*
X168026954Y-111293228D01*
X168106771Y-111373045D01*
X168157491Y-111402328D01*
X168204528Y-111429485D01*
X168313561Y-111458700D01*
X168313564Y-111458700D01*
X168426436Y-111458700D01*
X168426439Y-111458700D01*
X168535472Y-111429485D01*
X168633228Y-111373045D01*
X168713045Y-111293228D01*
X168769485Y-111195472D01*
X168798700Y-111086439D01*
X168798700Y-110973561D01*
X168769485Y-110864528D01*
X168764496Y-110855887D01*
X168713045Y-110766771D01*
X168633228Y-110686954D01*
X168535472Y-110630515D01*
X168426439Y-110601300D01*
X168313561Y-110601300D01*
X168204528Y-110630515D01*
X168204526Y-110630515D01*
X168106771Y-110686954D01*
X168026954Y-110766771D01*
X167970515Y-110864526D01*
X167970515Y-110864528D01*
X167941300Y-110973561D01*
X156200000Y-110973561D01*
X156200000Y-109099018D01*
X167837714Y-109099018D01*
X167837714Y-109211896D01*
X167852070Y-109265473D01*
X167866929Y-109320928D01*
X167866929Y-109320930D01*
X167923368Y-109418685D01*
X168003185Y-109498502D01*
X168055490Y-109528700D01*
X168100942Y-109554942D01*
X168209975Y-109584157D01*
X168209978Y-109584157D01*
X168322850Y-109584157D01*
X168322853Y-109584157D01*
X168431886Y-109554942D01*
X168529642Y-109498502D01*
X168609459Y-109418685D01*
X168665899Y-109320929D01*
X168695114Y-109211896D01*
X168695114Y-109099018D01*
X168680254Y-109043561D01*
X173361300Y-109043561D01*
X173361300Y-109156439D01*
X173388663Y-109258560D01*
X173390515Y-109265471D01*
X173390515Y-109265473D01*
X173446954Y-109363228D01*
X173526771Y-109443045D01*
X173577261Y-109472195D01*
X173624528Y-109499485D01*
X173733561Y-109528700D01*
X173733564Y-109528700D01*
X173846436Y-109528700D01*
X173846439Y-109528700D01*
X173955472Y-109499485D01*
X174053228Y-109443045D01*
X174133045Y-109363228D01*
X174189485Y-109265472D01*
X174218700Y-109156439D01*
X174218700Y-109043561D01*
X174189485Y-108934528D01*
X174155687Y-108875988D01*
X174154286Y-108873561D01*
X199581300Y-108873561D01*
X199581300Y-108986439D01*
X199602736Y-109066439D01*
X199610515Y-109095471D01*
X199610515Y-109095473D01*
X199666954Y-109193228D01*
X199746771Y-109273045D01*
X199778390Y-109291300D01*
X199844528Y-109329485D01*
X199953561Y-109358700D01*
X199953564Y-109358700D01*
X200066436Y-109358700D01*
X200066439Y-109358700D01*
X200175472Y-109329485D01*
X200273228Y-109273045D01*
X200353045Y-109193228D01*
X200409485Y-109095472D01*
X200438700Y-108986439D01*
X200438700Y-108912361D01*
X208541300Y-108912361D01*
X208541300Y-109025239D01*
X208561660Y-109101223D01*
X208570515Y-109134271D01*
X208570515Y-109134273D01*
X208626954Y-109232028D01*
X208706771Y-109311845D01*
X208737323Y-109329484D01*
X208804528Y-109368285D01*
X208913561Y-109397500D01*
X208913564Y-109397500D01*
X209026436Y-109397500D01*
X209026439Y-109397500D01*
X209135472Y-109368285D01*
X209233228Y-109311845D01*
X209313045Y-109232028D01*
X209369485Y-109134272D01*
X209398700Y-109025239D01*
X209398700Y-108912361D01*
X215551300Y-108912361D01*
X215551300Y-109025239D01*
X215571660Y-109101223D01*
X215580515Y-109134271D01*
X215580515Y-109134273D01*
X215636954Y-109232028D01*
X215716771Y-109311845D01*
X215747323Y-109329484D01*
X215814528Y-109368285D01*
X215923561Y-109397500D01*
X215923564Y-109397500D01*
X216036436Y-109397500D01*
X216036439Y-109397500D01*
X216145472Y-109368285D01*
X216243228Y-109311845D01*
X216323045Y-109232028D01*
X216379485Y-109134272D01*
X216408700Y-109025239D01*
X216408700Y-108912361D01*
X216379485Y-108803328D01*
X216366289Y-108780472D01*
X216323045Y-108705571D01*
X216243228Y-108625754D01*
X216145472Y-108569315D01*
X216036439Y-108540100D01*
X215923561Y-108540100D01*
X215814528Y-108569315D01*
X215814526Y-108569315D01*
X215716771Y-108625754D01*
X215636954Y-108705571D01*
X215580515Y-108803326D01*
X215580515Y-108803328D01*
X215551300Y-108912361D01*
X209398700Y-108912361D01*
X209369485Y-108803328D01*
X209356289Y-108780472D01*
X209313045Y-108705571D01*
X209233228Y-108625754D01*
X209135472Y-108569315D01*
X209026439Y-108540100D01*
X208913561Y-108540100D01*
X208804528Y-108569315D01*
X208804526Y-108569315D01*
X208706771Y-108625754D01*
X208626954Y-108705571D01*
X208570515Y-108803326D01*
X208570515Y-108803328D01*
X208541300Y-108912361D01*
X200438700Y-108912361D01*
X200438700Y-108873561D01*
X200409485Y-108764528D01*
X200402913Y-108753145D01*
X200353045Y-108666771D01*
X200273228Y-108586954D01*
X200175472Y-108530515D01*
X200066439Y-108501300D01*
X199953561Y-108501300D01*
X199844528Y-108530515D01*
X199844526Y-108530515D01*
X199746771Y-108586954D01*
X199666954Y-108666771D01*
X199610515Y-108764526D01*
X199610515Y-108764528D01*
X199581300Y-108873561D01*
X174154286Y-108873561D01*
X174133045Y-108836771D01*
X174053228Y-108756954D01*
X173955472Y-108700515D01*
X173846439Y-108671300D01*
X173733561Y-108671300D01*
X173624528Y-108700515D01*
X173624526Y-108700515D01*
X173526771Y-108756954D01*
X173446954Y-108836771D01*
X173390515Y-108934526D01*
X173390515Y-108934528D01*
X173361300Y-109043561D01*
X168680254Y-109043561D01*
X168665899Y-108989985D01*
X168655489Y-108971954D01*
X168609459Y-108892228D01*
X168529642Y-108812411D01*
X168431886Y-108755972D01*
X168421335Y-108753145D01*
X168322853Y-108726757D01*
X168209975Y-108726757D01*
X168100942Y-108755972D01*
X168100940Y-108755972D01*
X168003185Y-108812411D01*
X167923368Y-108892228D01*
X167866929Y-108989983D01*
X167866929Y-108989985D01*
X167837714Y-109099018D01*
X156200000Y-109099018D01*
X156200000Y-108558561D01*
X166856300Y-108558561D01*
X166856300Y-108671439D01*
X166881243Y-108764528D01*
X166885515Y-108780471D01*
X166885515Y-108780473D01*
X166941954Y-108878228D01*
X167021771Y-108958045D01*
X167070946Y-108986436D01*
X167119528Y-109014485D01*
X167228561Y-109043700D01*
X167228564Y-109043700D01*
X167341436Y-109043700D01*
X167341439Y-109043700D01*
X167450472Y-109014485D01*
X167548228Y-108958045D01*
X167628045Y-108878228D01*
X167684485Y-108780472D01*
X167713700Y-108671439D01*
X167713700Y-108558561D01*
X167684485Y-108449528D01*
X167646101Y-108383045D01*
X167628045Y-108351771D01*
X167548228Y-108271954D01*
X167450472Y-108215515D01*
X167341439Y-108186300D01*
X167228561Y-108186300D01*
X167119528Y-108215515D01*
X167119526Y-108215515D01*
X167021771Y-108271954D01*
X166941954Y-108351771D01*
X166885515Y-108449526D01*
X166885515Y-108449528D01*
X166856300Y-108558561D01*
X156200000Y-108558561D01*
X156200000Y-107983561D01*
X167731300Y-107983561D01*
X167731300Y-108096439D01*
X167755378Y-108186300D01*
X167760515Y-108205471D01*
X167760515Y-108205473D01*
X167816954Y-108303228D01*
X167896771Y-108383045D01*
X167953211Y-108415630D01*
X167994528Y-108439485D01*
X168103561Y-108468700D01*
X168103564Y-108468700D01*
X168216436Y-108468700D01*
X168216439Y-108468700D01*
X168325472Y-108439485D01*
X168423228Y-108383045D01*
X168503045Y-108303228D01*
X168559485Y-108205472D01*
X168588700Y-108096439D01*
X168588700Y-107983561D01*
X168559485Y-107874528D01*
X168542710Y-107845473D01*
X168503045Y-107776771D01*
X168423228Y-107696954D01*
X168325472Y-107640515D01*
X168216439Y-107611300D01*
X168103561Y-107611300D01*
X167994528Y-107640515D01*
X167994526Y-107640515D01*
X167896771Y-107696954D01*
X167816954Y-107776771D01*
X167760515Y-107874526D01*
X167760515Y-107874528D01*
X167731300Y-107983561D01*
X156200000Y-107983561D01*
X156200000Y-107353561D01*
X168821300Y-107353561D01*
X168821300Y-107466439D01*
X168850515Y-107575471D01*
X168850515Y-107575473D01*
X168906954Y-107673228D01*
X168986771Y-107753045D01*
X169004409Y-107763228D01*
X169084528Y-107809485D01*
X169193561Y-107838700D01*
X169193564Y-107838700D01*
X169306436Y-107838700D01*
X169306439Y-107838700D01*
X169415472Y-107809485D01*
X169513228Y-107753045D01*
X169593045Y-107673228D01*
X169649485Y-107575472D01*
X169678700Y-107466439D01*
X169678700Y-107443561D01*
X173091300Y-107443561D01*
X173091300Y-107556439D01*
X173109286Y-107623563D01*
X173120515Y-107665471D01*
X173120515Y-107665473D01*
X173176954Y-107763228D01*
X173256771Y-107843045D01*
X173268818Y-107850000D01*
X173354528Y-107899485D01*
X173463561Y-107928700D01*
X173463564Y-107928700D01*
X173576436Y-107928700D01*
X173576439Y-107928700D01*
X173685472Y-107899485D01*
X173783228Y-107843045D01*
X173863045Y-107763228D01*
X173919485Y-107665472D01*
X173930715Y-107623561D01*
X203431300Y-107623561D01*
X203431300Y-107736439D01*
X203459865Y-107843045D01*
X203460515Y-107845471D01*
X203460515Y-107845473D01*
X203516954Y-107943228D01*
X203596771Y-108023045D01*
X203644252Y-108050458D01*
X203694528Y-108079485D01*
X203803561Y-108108700D01*
X203803564Y-108108700D01*
X203916436Y-108108700D01*
X203916439Y-108108700D01*
X204025472Y-108079485D01*
X204123228Y-108023045D01*
X204203045Y-107943228D01*
X204259485Y-107845472D01*
X204288700Y-107736439D01*
X204288700Y-107623561D01*
X204280923Y-107594535D01*
X207090383Y-107594535D01*
X207090383Y-107707413D01*
X207114270Y-107796561D01*
X207119598Y-107816445D01*
X207119598Y-107816447D01*
X207176037Y-107914202D01*
X207255854Y-107994019D01*
X207306129Y-108023045D01*
X207353611Y-108050459D01*
X207462644Y-108079674D01*
X207462647Y-108079674D01*
X207575519Y-108079674D01*
X207575522Y-108079674D01*
X207684555Y-108050459D01*
X207782311Y-107994019D01*
X207862128Y-107914202D01*
X207918568Y-107816446D01*
X207947783Y-107707413D01*
X207947783Y-107594535D01*
X207918568Y-107485502D01*
X207907560Y-107466436D01*
X207862128Y-107387745D01*
X207782311Y-107307928D01*
X207684555Y-107251489D01*
X207683850Y-107251300D01*
X207575522Y-107222274D01*
X207462644Y-107222274D01*
X207353611Y-107251489D01*
X207353609Y-107251489D01*
X207255854Y-107307928D01*
X207176037Y-107387745D01*
X207119598Y-107485500D01*
X207119598Y-107485502D01*
X207090383Y-107594535D01*
X204280923Y-107594535D01*
X204259485Y-107514528D01*
X204218512Y-107443561D01*
X204203045Y-107416771D01*
X204123228Y-107336954D01*
X204025472Y-107280515D01*
X203916439Y-107251300D01*
X203803561Y-107251300D01*
X203694528Y-107280515D01*
X203694526Y-107280515D01*
X203596771Y-107336954D01*
X203516954Y-107416771D01*
X203460515Y-107514526D01*
X203460515Y-107514528D01*
X203431300Y-107623561D01*
X173930715Y-107623561D01*
X173948700Y-107556439D01*
X173948700Y-107443561D01*
X173919485Y-107334528D01*
X173904128Y-107307929D01*
X173863045Y-107236771D01*
X173783228Y-107156954D01*
X173685472Y-107100515D01*
X173576439Y-107071300D01*
X173463561Y-107071300D01*
X173354528Y-107100515D01*
X173354526Y-107100515D01*
X173256771Y-107156954D01*
X173176954Y-107236771D01*
X173120515Y-107334526D01*
X173120515Y-107334528D01*
X173091300Y-107443561D01*
X169678700Y-107443561D01*
X169678700Y-107353561D01*
X169649485Y-107244528D01*
X169645007Y-107236772D01*
X169593045Y-107146771D01*
X169513228Y-107066954D01*
X169415472Y-107010515D01*
X169306439Y-106981300D01*
X169193561Y-106981300D01*
X169084528Y-107010515D01*
X169084526Y-107010515D01*
X168986771Y-107066954D01*
X168906954Y-107146771D01*
X168850515Y-107244526D01*
X168850515Y-107244528D01*
X168821300Y-107353561D01*
X156200000Y-107353561D01*
X156200000Y-106653561D01*
X170211300Y-106653561D01*
X170211300Y-106766439D01*
X170240515Y-106875471D01*
X170240515Y-106875473D01*
X170296954Y-106973228D01*
X170376771Y-107053045D01*
X170408390Y-107071300D01*
X170474528Y-107109485D01*
X170583561Y-107138700D01*
X170583564Y-107138700D01*
X170696436Y-107138700D01*
X170696439Y-107138700D01*
X170805472Y-107109485D01*
X170903228Y-107053045D01*
X170983045Y-106973228D01*
X171039485Y-106875472D01*
X171068700Y-106766439D01*
X171068700Y-106653561D01*
X171039485Y-106544528D01*
X170994400Y-106466439D01*
X170983045Y-106446771D01*
X170903228Y-106366954D01*
X170805472Y-106310515D01*
X170788599Y-106305994D01*
X170696439Y-106281300D01*
X170583561Y-106281300D01*
X170474528Y-106310515D01*
X170474526Y-106310515D01*
X170376771Y-106366954D01*
X170296954Y-106446771D01*
X170240515Y-106544526D01*
X170240515Y-106544528D01*
X170211300Y-106653561D01*
X156200000Y-106653561D01*
X156200000Y-105783561D01*
X171031300Y-105783561D01*
X171031300Y-105896439D01*
X171060515Y-106005471D01*
X171060515Y-106005473D01*
X171116954Y-106103228D01*
X171196771Y-106183045D01*
X171196770Y-106183045D01*
X171294520Y-106239481D01*
X171294526Y-106239484D01*
X171294528Y-106239485D01*
X171297756Y-106240350D01*
X171339894Y-106269852D01*
X171353210Y-106319538D01*
X171344844Y-106346078D01*
X171345197Y-106346225D01*
X171343528Y-106350252D01*
X171343425Y-106350582D01*
X171343311Y-106350778D01*
X171338671Y-106368096D01*
X171314096Y-106459813D01*
X171314096Y-106572691D01*
X171341035Y-106673228D01*
X171343311Y-106681723D01*
X171343311Y-106681725D01*
X171399750Y-106779480D01*
X171479567Y-106859297D01*
X171507585Y-106875473D01*
X171577324Y-106915737D01*
X171686357Y-106944952D01*
X171686360Y-106944952D01*
X171799232Y-106944952D01*
X171799235Y-106944952D01*
X171908268Y-106915737D01*
X172006024Y-106859297D01*
X172085841Y-106779480D01*
X172142281Y-106681724D01*
X172171496Y-106572691D01*
X172171496Y-106459813D01*
X172151065Y-106383561D01*
X208721300Y-106383561D01*
X208721300Y-106496439D01*
X208742477Y-106575472D01*
X208750515Y-106605471D01*
X208750515Y-106605473D01*
X208806954Y-106703228D01*
X208886771Y-106783045D01*
X208922306Y-106803561D01*
X208984528Y-106839485D01*
X209093561Y-106868700D01*
X209093564Y-106868700D01*
X209206436Y-106868700D01*
X209206439Y-106868700D01*
X209315472Y-106839485D01*
X209413228Y-106783045D01*
X209493045Y-106703228D01*
X209549485Y-106605472D01*
X209578700Y-106496439D01*
X209578700Y-106383561D01*
X209570662Y-106353561D01*
X211071300Y-106353561D01*
X211071300Y-106466439D01*
X211092224Y-106544528D01*
X211100515Y-106575471D01*
X211100515Y-106575473D01*
X211156954Y-106673228D01*
X211236771Y-106753045D01*
X211282558Y-106779480D01*
X211334528Y-106809485D01*
X211443561Y-106838700D01*
X211443564Y-106838700D01*
X211556436Y-106838700D01*
X211556439Y-106838700D01*
X211665472Y-106809485D01*
X211763228Y-106753045D01*
X211843045Y-106673228D01*
X211899485Y-106575472D01*
X211928700Y-106466439D01*
X211928700Y-106353561D01*
X211899485Y-106244528D01*
X211897072Y-106240349D01*
X211843045Y-106146771D01*
X211763228Y-106066954D01*
X211665472Y-106010515D01*
X211664188Y-106010171D01*
X211556439Y-105981300D01*
X211443561Y-105981300D01*
X211334528Y-106010515D01*
X211334526Y-106010515D01*
X211236771Y-106066954D01*
X211156954Y-106146771D01*
X211100515Y-106244526D01*
X211100515Y-106244528D01*
X211071300Y-106353561D01*
X209570662Y-106353561D01*
X209549485Y-106274528D01*
X209537069Y-106253023D01*
X209493045Y-106176771D01*
X209413228Y-106096954D01*
X209315472Y-106040515D01*
X209301256Y-106036706D01*
X209206439Y-106011300D01*
X209093561Y-106011300D01*
X208984528Y-106040515D01*
X208984526Y-106040515D01*
X208886771Y-106096954D01*
X208806954Y-106176771D01*
X208750515Y-106274526D01*
X208750515Y-106274528D01*
X208721300Y-106383561D01*
X172151065Y-106383561D01*
X172142281Y-106350780D01*
X172139566Y-106346078D01*
X172085841Y-106253023D01*
X172006024Y-106173206D01*
X171908269Y-106116767D01*
X171908265Y-106116766D01*
X171905033Y-106115900D01*
X171862897Y-106086394D01*
X171849585Y-106036706D01*
X171857953Y-106010171D01*
X171857599Y-106010024D01*
X171859280Y-106005964D01*
X171859377Y-106005658D01*
X171859485Y-106005472D01*
X171888700Y-105896439D01*
X171888700Y-105833561D01*
X196801300Y-105833561D01*
X196801300Y-105946439D01*
X196827294Y-106043450D01*
X196830515Y-106055471D01*
X196830515Y-106055473D01*
X196886954Y-106153228D01*
X196966771Y-106233045D01*
X197001376Y-106253024D01*
X197064528Y-106289485D01*
X197173561Y-106318700D01*
X197173564Y-106318700D01*
X197286436Y-106318700D01*
X197286439Y-106318700D01*
X197395472Y-106289485D01*
X197493228Y-106233045D01*
X197573045Y-106153228D01*
X197629485Y-106055472D01*
X197658700Y-105946439D01*
X197658700Y-105833561D01*
X197629485Y-105724528D01*
X197629484Y-105724526D01*
X197573045Y-105626771D01*
X197493228Y-105546954D01*
X197395472Y-105490515D01*
X197383906Y-105487416D01*
X197286439Y-105461300D01*
X197173561Y-105461300D01*
X197064528Y-105490515D01*
X197064526Y-105490515D01*
X196966771Y-105546954D01*
X196886954Y-105626771D01*
X196830515Y-105724526D01*
X196830515Y-105724528D01*
X196801300Y-105833561D01*
X171888700Y-105833561D01*
X171888700Y-105783561D01*
X171859485Y-105674528D01*
X171808017Y-105585383D01*
X171799084Y-105534725D01*
X171824804Y-105490176D01*
X171873142Y-105472583D01*
X171910742Y-105482658D01*
X171974528Y-105519485D01*
X172083561Y-105548700D01*
X172083564Y-105548700D01*
X172196436Y-105548700D01*
X172196439Y-105548700D01*
X172305472Y-105519485D01*
X172403228Y-105463045D01*
X172483045Y-105383228D01*
X172539485Y-105285472D01*
X172568700Y-105176439D01*
X172568700Y-105063561D01*
X172539485Y-104954528D01*
X172532913Y-104943145D01*
X172483045Y-104856771D01*
X172403228Y-104776954D01*
X172305472Y-104720515D01*
X172196439Y-104691300D01*
X172083561Y-104691300D01*
X171974528Y-104720515D01*
X171974526Y-104720515D01*
X171876771Y-104776954D01*
X171796954Y-104856771D01*
X171740515Y-104954526D01*
X171740515Y-104954528D01*
X171711300Y-105063561D01*
X171711300Y-105176439D01*
X171734555Y-105263228D01*
X171740515Y-105285471D01*
X171740515Y-105285473D01*
X171791982Y-105374616D01*
X171800914Y-105425275D01*
X171775194Y-105469823D01*
X171726857Y-105487416D01*
X171689257Y-105477341D01*
X171625472Y-105440515D01*
X171516439Y-105411300D01*
X171403561Y-105411300D01*
X171294528Y-105440515D01*
X171294526Y-105440515D01*
X171196771Y-105496954D01*
X171116954Y-105576771D01*
X171060515Y-105674526D01*
X171060515Y-105674528D01*
X171031300Y-105783561D01*
X156200000Y-105783561D01*
X156200000Y-105013561D01*
X164781300Y-105013561D01*
X164781300Y-105126439D01*
X164810515Y-105235471D01*
X164810515Y-105235473D01*
X164866954Y-105333228D01*
X164946771Y-105413045D01*
X164994351Y-105440515D01*
X165044528Y-105469485D01*
X165153561Y-105498700D01*
X165153564Y-105498700D01*
X165266436Y-105498700D01*
X165266439Y-105498700D01*
X165375472Y-105469485D01*
X165473228Y-105413045D01*
X165553045Y-105333228D01*
X165609485Y-105235472D01*
X165638700Y-105126439D01*
X165638700Y-105013561D01*
X165609485Y-104904528D01*
X165581913Y-104856772D01*
X165553045Y-104806771D01*
X165473228Y-104726954D01*
X165375472Y-104670515D01*
X165266439Y-104641300D01*
X165153561Y-104641300D01*
X165044528Y-104670515D01*
X165044526Y-104670515D01*
X164946771Y-104726954D01*
X164866954Y-104806771D01*
X164810515Y-104904526D01*
X164810515Y-104904528D01*
X164781300Y-105013561D01*
X156200000Y-105013561D01*
X156200000Y-103597585D01*
X200727493Y-103597585D01*
X200727493Y-103710463D01*
X200751200Y-103798939D01*
X200756708Y-103819495D01*
X200756708Y-103819497D01*
X200813147Y-103917252D01*
X200892964Y-103997069D01*
X200949404Y-104029654D01*
X200990721Y-104053509D01*
X201099754Y-104082724D01*
X201099757Y-104082724D01*
X201212629Y-104082724D01*
X201212632Y-104082724D01*
X201321665Y-104053509D01*
X201419421Y-103997069D01*
X201499238Y-103917252D01*
X201555678Y-103819496D01*
X201584893Y-103710463D01*
X201584893Y-103597585D01*
X201583815Y-103593561D01*
X203161300Y-103593561D01*
X203161300Y-103706439D01*
X203163456Y-103714484D01*
X203190515Y-103815471D01*
X203190515Y-103815473D01*
X203246954Y-103913228D01*
X203326771Y-103993045D01*
X203348739Y-104005728D01*
X203424528Y-104049485D01*
X203533561Y-104078700D01*
X203533564Y-104078700D01*
X203646436Y-104078700D01*
X203646439Y-104078700D01*
X203755472Y-104049485D01*
X203853228Y-103993045D01*
X203933045Y-103913228D01*
X203989485Y-103815472D01*
X204018700Y-103706439D01*
X204018700Y-103593561D01*
X203989485Y-103484528D01*
X203987143Y-103480471D01*
X203933045Y-103386771D01*
X203853228Y-103306954D01*
X203755472Y-103250515D01*
X203736651Y-103245472D01*
X203646439Y-103221300D01*
X203533561Y-103221300D01*
X203424528Y-103250515D01*
X203424526Y-103250515D01*
X203326771Y-103306954D01*
X203246954Y-103386771D01*
X203190515Y-103484526D01*
X203190515Y-103484528D01*
X203161300Y-103593561D01*
X201583815Y-103593561D01*
X201555678Y-103488552D01*
X201553354Y-103484526D01*
X201499238Y-103390795D01*
X201419421Y-103310978D01*
X201321665Y-103254539D01*
X201306647Y-103250515D01*
X201212632Y-103225324D01*
X201099754Y-103225324D01*
X200990721Y-103254539D01*
X200990719Y-103254539D01*
X200892964Y-103310978D01*
X200813147Y-103390795D01*
X200756708Y-103488550D01*
X200756708Y-103488552D01*
X200727493Y-103597585D01*
X156200000Y-103597585D01*
X156200000Y-102353361D01*
X172241100Y-102353361D01*
X172241100Y-102466239D01*
X172266292Y-102560257D01*
X172270315Y-102575271D01*
X172270315Y-102575273D01*
X172326754Y-102673028D01*
X172406571Y-102752845D01*
X172457355Y-102782165D01*
X172504328Y-102809285D01*
X172613361Y-102838500D01*
X172613364Y-102838500D01*
X172726236Y-102838500D01*
X172726239Y-102838500D01*
X172835272Y-102809285D01*
X172933028Y-102752845D01*
X173012845Y-102673028D01*
X173069285Y-102575272D01*
X173073309Y-102560255D01*
X191311300Y-102560255D01*
X191311300Y-102673133D01*
X191332659Y-102752845D01*
X191340515Y-102782165D01*
X191340515Y-102782167D01*
X191396954Y-102879922D01*
X191476771Y-102959739D01*
X191533211Y-102992324D01*
X191574528Y-103016179D01*
X191683561Y-103045394D01*
X191683564Y-103045394D01*
X191796436Y-103045394D01*
X191796439Y-103045394D01*
X191905472Y-103016179D01*
X192003228Y-102959739D01*
X192083045Y-102879922D01*
X192139485Y-102782166D01*
X192168700Y-102673133D01*
X192168700Y-102560255D01*
X192139485Y-102451222D01*
X192139484Y-102451220D01*
X192083045Y-102353465D01*
X192003228Y-102273648D01*
X191905472Y-102217209D01*
X191796439Y-102187994D01*
X191683561Y-102187994D01*
X191574528Y-102217209D01*
X191574526Y-102217209D01*
X191476771Y-102273648D01*
X191396954Y-102353465D01*
X191340515Y-102451220D01*
X191340515Y-102451222D01*
X191311300Y-102560255D01*
X173073309Y-102560255D01*
X173098500Y-102466239D01*
X173098500Y-102353361D01*
X173069285Y-102244328D01*
X173041934Y-102196955D01*
X173012845Y-102146571D01*
X172933028Y-102066754D01*
X172835272Y-102010315D01*
X172726239Y-101981100D01*
X172613361Y-101981100D01*
X172504328Y-102010315D01*
X172504326Y-102010315D01*
X172406571Y-102066754D01*
X172326754Y-102146571D01*
X172270315Y-102244326D01*
X172270315Y-102244328D01*
X172241100Y-102353361D01*
X156200000Y-102353361D01*
X156200000Y-101643561D01*
X162891300Y-101643561D01*
X162891300Y-101756439D01*
X162908717Y-101821439D01*
X162920515Y-101865471D01*
X162920515Y-101865473D01*
X162976954Y-101963228D01*
X163056771Y-102043045D01*
X163113211Y-102075630D01*
X163154528Y-102099485D01*
X163263561Y-102128700D01*
X163263564Y-102128700D01*
X163376436Y-102128700D01*
X163376439Y-102128700D01*
X163485472Y-102099485D01*
X163583228Y-102043045D01*
X163663045Y-101963228D01*
X163719485Y-101865472D01*
X163733394Y-101813561D01*
X195661300Y-101813561D01*
X195661300Y-101926439D01*
X195685895Y-102018228D01*
X195690515Y-102035471D01*
X195690515Y-102035473D01*
X195746954Y-102133228D01*
X195826771Y-102213045D01*
X195862114Y-102233450D01*
X195924528Y-102269485D01*
X196033561Y-102298700D01*
X196033564Y-102298700D01*
X196146436Y-102298700D01*
X196146439Y-102298700D01*
X196255472Y-102269485D01*
X196353228Y-102213045D01*
X196433045Y-102133228D01*
X196489485Y-102035472D01*
X196518700Y-101926439D01*
X196518700Y-101813561D01*
X196489485Y-101704528D01*
X196454286Y-101643563D01*
X196439907Y-101618657D01*
X196439906Y-101618655D01*
X196433044Y-101606770D01*
X196411021Y-101584747D01*
X212047100Y-101584747D01*
X212047100Y-101772452D01*
X212078531Y-101930472D01*
X212083719Y-101956551D01*
X212155551Y-102129968D01*
X212259834Y-102286039D01*
X212259836Y-102286041D01*
X212259838Y-102286044D01*
X212392555Y-102418761D01*
X212392558Y-102418763D01*
X212392561Y-102418766D01*
X212548632Y-102523049D01*
X212722049Y-102594881D01*
X212844781Y-102619293D01*
X212906147Y-102631500D01*
X212906148Y-102631500D01*
X213093853Y-102631500D01*
X213139876Y-102622345D01*
X213277951Y-102594881D01*
X213451368Y-102523049D01*
X213607439Y-102418766D01*
X213740166Y-102286039D01*
X213844449Y-102129968D01*
X213916281Y-101956551D01*
X213952900Y-101772452D01*
X213952900Y-101584748D01*
X213916281Y-101400649D01*
X213844449Y-101227232D01*
X213740166Y-101071161D01*
X213740163Y-101071158D01*
X213740161Y-101071155D01*
X213607444Y-100938438D01*
X213607441Y-100938436D01*
X213607439Y-100938434D01*
X213451368Y-100834151D01*
X213277951Y-100762319D01*
X213277949Y-100762318D01*
X213277948Y-100762318D01*
X213093853Y-100725700D01*
X213093852Y-100725700D01*
X212906148Y-100725700D01*
X212906147Y-100725700D01*
X212722051Y-100762318D01*
X212722049Y-100762319D01*
X212548633Y-100834150D01*
X212392558Y-100938436D01*
X212392555Y-100938438D01*
X212259838Y-101071155D01*
X212259836Y-101071158D01*
X212155550Y-101227233D01*
X212083719Y-101400649D01*
X212083718Y-101400651D01*
X212047100Y-101584747D01*
X196411021Y-101584747D01*
X196353228Y-101526954D01*
X196255472Y-101470515D01*
X196146439Y-101441300D01*
X196033561Y-101441300D01*
X195924528Y-101470515D01*
X195924526Y-101470515D01*
X195826771Y-101526954D01*
X195746954Y-101606771D01*
X195690515Y-101704526D01*
X195690515Y-101704528D01*
X195661300Y-101813561D01*
X163733394Y-101813561D01*
X163748700Y-101756439D01*
X163748700Y-101643561D01*
X163719485Y-101534528D01*
X163710347Y-101518700D01*
X163663045Y-101436771D01*
X163583228Y-101356954D01*
X163485472Y-101300515D01*
X163376439Y-101271300D01*
X163263561Y-101271300D01*
X163154528Y-101300515D01*
X163154526Y-101300515D01*
X163056771Y-101356954D01*
X162976954Y-101436771D01*
X162920515Y-101534526D01*
X162920515Y-101534528D01*
X162891300Y-101643561D01*
X156200000Y-101643561D01*
X156200000Y-100643561D01*
X161991300Y-100643561D01*
X161991300Y-100756439D01*
X162013934Y-100840910D01*
X162020515Y-100865471D01*
X162020515Y-100865473D01*
X162076954Y-100963228D01*
X162156771Y-101043045D01*
X162205459Y-101071155D01*
X162254528Y-101099485D01*
X162363561Y-101128700D01*
X162363564Y-101128700D01*
X162476436Y-101128700D01*
X162476439Y-101128700D01*
X162585472Y-101099485D01*
X162683228Y-101043045D01*
X162692712Y-101033561D01*
X193414390Y-101033561D01*
X193414390Y-101146439D01*
X193443605Y-101255471D01*
X193443605Y-101255473D01*
X193500044Y-101353228D01*
X193579861Y-101433045D01*
X193636301Y-101465630D01*
X193677618Y-101489485D01*
X193786651Y-101518700D01*
X193786654Y-101518700D01*
X193899526Y-101518700D01*
X193899529Y-101518700D01*
X194008562Y-101489485D01*
X194106318Y-101433045D01*
X194186135Y-101353228D01*
X194242575Y-101255472D01*
X194271790Y-101146439D01*
X194271790Y-101033561D01*
X194242575Y-100924528D01*
X194234938Y-100911300D01*
X194194298Y-100840910D01*
X194194297Y-100840909D01*
X194186134Y-100826770D01*
X194167603Y-100808239D01*
X198673563Y-100808239D01*
X198673563Y-100921117D01*
X198693884Y-100996955D01*
X198702778Y-101030149D01*
X198702778Y-101030151D01*
X198759217Y-101127906D01*
X198839034Y-101207723D01*
X198872825Y-101227232D01*
X198936791Y-101264163D01*
X199045824Y-101293378D01*
X199045827Y-101293378D01*
X199158699Y-101293378D01*
X199158702Y-101293378D01*
X199267735Y-101264163D01*
X199365491Y-101207723D01*
X199445308Y-101127906D01*
X199501748Y-101030150D01*
X199530963Y-100921117D01*
X199530963Y-100808239D01*
X200173563Y-100808239D01*
X200173563Y-100921117D01*
X200193884Y-100996955D01*
X200202778Y-101030149D01*
X200202778Y-101030151D01*
X200259217Y-101127906D01*
X200339034Y-101207723D01*
X200372825Y-101227232D01*
X200436791Y-101264163D01*
X200545824Y-101293378D01*
X200545827Y-101293378D01*
X200658699Y-101293378D01*
X200658702Y-101293378D01*
X200767735Y-101264163D01*
X200865491Y-101207723D01*
X200945308Y-101127906D01*
X201001748Y-101030150D01*
X201030963Y-100921117D01*
X201030963Y-100808239D01*
X201001748Y-100699206D01*
X200979863Y-100661300D01*
X200945308Y-100601449D01*
X200865491Y-100521632D01*
X200767735Y-100465193D01*
X200658702Y-100435978D01*
X200545824Y-100435978D01*
X200436791Y-100465193D01*
X200436789Y-100465193D01*
X200339034Y-100521632D01*
X200259217Y-100601449D01*
X200202778Y-100699204D01*
X200202778Y-100699206D01*
X200173563Y-100808239D01*
X199530963Y-100808239D01*
X199501748Y-100699206D01*
X199479863Y-100661300D01*
X199445308Y-100601449D01*
X199365491Y-100521632D01*
X199267735Y-100465193D01*
X199158702Y-100435978D01*
X199045824Y-100435978D01*
X198936791Y-100465193D01*
X198936789Y-100465193D01*
X198839034Y-100521632D01*
X198759217Y-100601449D01*
X198702778Y-100699204D01*
X198702778Y-100699206D01*
X198673563Y-100808239D01*
X194167603Y-100808239D01*
X194106318Y-100746954D01*
X194008562Y-100690515D01*
X193899529Y-100661300D01*
X193786651Y-100661300D01*
X193677618Y-100690515D01*
X193677616Y-100690515D01*
X193579861Y-100746954D01*
X193500044Y-100826771D01*
X193443605Y-100924526D01*
X193443605Y-100924528D01*
X193414390Y-101033561D01*
X162692712Y-101033561D01*
X162696124Y-101030149D01*
X162750816Y-100975458D01*
X162763045Y-100963228D01*
X162819484Y-100865473D01*
X162819485Y-100865472D01*
X162848700Y-100756439D01*
X162848700Y-100643561D01*
X162819485Y-100534528D01*
X162819484Y-100534526D01*
X162763045Y-100436771D01*
X162683228Y-100356954D01*
X162585472Y-100300515D01*
X162476439Y-100271300D01*
X162363561Y-100271300D01*
X162254528Y-100300515D01*
X162254526Y-100300515D01*
X162156771Y-100356954D01*
X162076954Y-100436771D01*
X162020515Y-100534526D01*
X162020515Y-100534528D01*
X161991300Y-100643561D01*
X156200000Y-100643561D01*
X156200000Y-99258239D01*
X197213563Y-99258239D01*
X197213563Y-99371117D01*
X197242778Y-99480149D01*
X197242778Y-99480151D01*
X197299217Y-99577906D01*
X197379034Y-99657723D01*
X197435474Y-99690308D01*
X197476791Y-99714163D01*
X197585824Y-99743378D01*
X197585827Y-99743378D01*
X197698699Y-99743378D01*
X197698702Y-99743378D01*
X197807735Y-99714163D01*
X197905491Y-99657723D01*
X197985308Y-99577906D01*
X198041748Y-99480150D01*
X198070963Y-99371117D01*
X198070963Y-99258239D01*
X198041748Y-99149206D01*
X198018517Y-99108969D01*
X197985308Y-99051449D01*
X197905491Y-98971632D01*
X197807735Y-98915193D01*
X197698702Y-98885978D01*
X197585824Y-98885978D01*
X197476791Y-98915193D01*
X197476789Y-98915193D01*
X197379034Y-98971632D01*
X197299217Y-99051449D01*
X197242778Y-99149204D01*
X197242778Y-99149206D01*
X197213563Y-99258239D01*
X156200000Y-99258239D01*
X156200000Y-98503561D01*
X174001300Y-98503561D01*
X174001300Y-98616439D01*
X174030515Y-98725471D01*
X174030515Y-98725473D01*
X174086954Y-98823228D01*
X174166771Y-98903045D01*
X174223211Y-98935630D01*
X174264528Y-98959485D01*
X174373561Y-98988700D01*
X174373564Y-98988700D01*
X174486436Y-98988700D01*
X174486439Y-98988700D01*
X174595472Y-98959485D01*
X174693228Y-98903045D01*
X174773045Y-98823228D01*
X174814307Y-98751761D01*
X194271300Y-98751761D01*
X194271300Y-98864639D01*
X194299969Y-98971633D01*
X194300515Y-98973671D01*
X194300515Y-98973673D01*
X194356954Y-99071428D01*
X194436771Y-99151245D01*
X194493211Y-99183830D01*
X194534528Y-99207685D01*
X194643561Y-99236900D01*
X194643564Y-99236900D01*
X194756436Y-99236900D01*
X194756439Y-99236900D01*
X194865472Y-99207685D01*
X194963228Y-99151245D01*
X195043045Y-99071428D01*
X195099485Y-98973672D01*
X195128700Y-98864639D01*
X195128700Y-98755956D01*
X195739008Y-98755956D01*
X195739008Y-98868834D01*
X195768223Y-98977866D01*
X195768223Y-98977868D01*
X195824662Y-99075623D01*
X195904479Y-99155440D01*
X195960596Y-99187839D01*
X196002236Y-99211880D01*
X196111269Y-99241095D01*
X196111272Y-99241095D01*
X196224144Y-99241095D01*
X196224147Y-99241095D01*
X196333180Y-99211880D01*
X196430936Y-99155440D01*
X196510753Y-99075623D01*
X196567193Y-98977867D01*
X196596408Y-98868834D01*
X196596408Y-98755956D01*
X196567193Y-98646923D01*
X196533563Y-98588674D01*
X196510753Y-98549166D01*
X196430936Y-98469349D01*
X196333180Y-98412910D01*
X196224147Y-98383695D01*
X196111269Y-98383695D01*
X196002236Y-98412910D01*
X196002234Y-98412910D01*
X195904479Y-98469349D01*
X195824662Y-98549166D01*
X195768223Y-98646921D01*
X195768223Y-98646923D01*
X195739008Y-98755956D01*
X195128700Y-98755956D01*
X195128700Y-98751761D01*
X195099485Y-98642728D01*
X195068277Y-98588674D01*
X195043045Y-98544971D01*
X194963228Y-98465154D01*
X194865472Y-98408715D01*
X194756439Y-98379500D01*
X194643561Y-98379500D01*
X194534528Y-98408715D01*
X194534526Y-98408715D01*
X194436771Y-98465154D01*
X194356954Y-98544971D01*
X194300515Y-98642726D01*
X194300515Y-98642728D01*
X194271300Y-98751761D01*
X174814307Y-98751761D01*
X174829485Y-98725472D01*
X174858700Y-98616439D01*
X174858700Y-98503561D01*
X174829485Y-98394528D01*
X174823231Y-98383695D01*
X174773045Y-98296771D01*
X174693228Y-98216954D01*
X174595472Y-98160515D01*
X174486439Y-98131300D01*
X174373561Y-98131300D01*
X174264528Y-98160515D01*
X174264526Y-98160515D01*
X174166771Y-98216954D01*
X174086954Y-98296771D01*
X174030515Y-98394526D01*
X174030515Y-98394528D01*
X174001300Y-98503561D01*
X156200000Y-98503561D01*
X156200000Y-97413561D01*
X175441300Y-97413561D01*
X175441300Y-97526439D01*
X175466646Y-97621032D01*
X175470515Y-97635471D01*
X175470515Y-97635473D01*
X175526954Y-97733228D01*
X175606771Y-97813045D01*
X175663211Y-97845630D01*
X175704528Y-97869485D01*
X175813561Y-97898700D01*
X175813564Y-97898700D01*
X175926436Y-97898700D01*
X175926439Y-97898700D01*
X176035472Y-97869485D01*
X176133228Y-97813045D01*
X176213045Y-97733228D01*
X176269485Y-97635472D01*
X176298700Y-97526439D01*
X176298700Y-97413561D01*
X176293341Y-97393561D01*
X193471300Y-97393561D01*
X193471300Y-97506439D01*
X193496496Y-97600472D01*
X193500515Y-97615471D01*
X193500515Y-97615473D01*
X193556954Y-97713228D01*
X193636771Y-97793045D01*
X193693211Y-97825630D01*
X193734528Y-97849485D01*
X193843561Y-97878700D01*
X193843564Y-97878700D01*
X193956436Y-97878700D01*
X193956439Y-97878700D01*
X194065472Y-97849485D01*
X194163228Y-97793045D01*
X194243045Y-97713228D01*
X194299485Y-97615472D01*
X194328700Y-97506439D01*
X194328700Y-97393561D01*
X194315303Y-97343561D01*
X198271300Y-97343561D01*
X198271300Y-97456439D01*
X198297582Y-97554526D01*
X198300515Y-97565471D01*
X198300515Y-97565473D01*
X198356954Y-97663228D01*
X198436771Y-97743045D01*
X198477868Y-97766772D01*
X198534528Y-97799485D01*
X198643561Y-97828700D01*
X198643564Y-97828700D01*
X198756436Y-97828700D01*
X198756439Y-97828700D01*
X198865472Y-97799485D01*
X198962400Y-97743522D01*
X199013058Y-97734590D01*
X199037599Y-97743522D01*
X199134528Y-97799485D01*
X199243561Y-97828700D01*
X199243564Y-97828700D01*
X199356436Y-97828700D01*
X199356439Y-97828700D01*
X199465472Y-97799485D01*
X199562400Y-97743522D01*
X199613058Y-97734590D01*
X199637599Y-97743522D01*
X199734528Y-97799485D01*
X199843561Y-97828700D01*
X199843564Y-97828700D01*
X199956436Y-97828700D01*
X199956439Y-97828700D01*
X200065472Y-97799485D01*
X200163228Y-97743045D01*
X200242712Y-97663561D01*
X205171300Y-97663561D01*
X205171300Y-97776439D01*
X205200515Y-97885471D01*
X205200515Y-97885473D01*
X205256954Y-97983228D01*
X205336771Y-98063045D01*
X205377291Y-98086439D01*
X205434528Y-98119485D01*
X205543561Y-98148700D01*
X205543564Y-98148700D01*
X205656436Y-98148700D01*
X205656439Y-98148700D01*
X205765472Y-98119485D01*
X205863228Y-98063045D01*
X205943045Y-97983228D01*
X205999485Y-97885472D01*
X206028700Y-97776439D01*
X206028700Y-97663561D01*
X205999485Y-97554528D01*
X205971719Y-97506436D01*
X205943045Y-97456771D01*
X205863228Y-97376954D01*
X205765472Y-97320515D01*
X205758698Y-97318700D01*
X205656439Y-97291300D01*
X205543561Y-97291300D01*
X205434528Y-97320515D01*
X205434526Y-97320515D01*
X205336771Y-97376954D01*
X205256954Y-97456771D01*
X205200515Y-97554526D01*
X205200515Y-97554528D01*
X205171300Y-97663561D01*
X200242712Y-97663561D01*
X200243045Y-97663228D01*
X200243047Y-97663226D01*
X200267407Y-97621033D01*
X200267407Y-97621032D01*
X200299485Y-97565472D01*
X200328700Y-97456439D01*
X200328700Y-97343561D01*
X200299485Y-97234528D01*
X200298629Y-97233045D01*
X200243045Y-97136771D01*
X200163228Y-97056954D01*
X200065472Y-97000515D01*
X199956439Y-96971300D01*
X199843561Y-96971300D01*
X199734528Y-97000515D01*
X199734526Y-97000515D01*
X199637600Y-97056476D01*
X199586941Y-97065408D01*
X199562400Y-97056476D01*
X199465472Y-97000515D01*
X199356439Y-96971300D01*
X199243561Y-96971300D01*
X199134528Y-97000515D01*
X199134526Y-97000515D01*
X199037600Y-97056476D01*
X198986941Y-97065408D01*
X198962400Y-97056476D01*
X198865472Y-97000515D01*
X198756439Y-96971300D01*
X198643561Y-96971300D01*
X198534528Y-97000515D01*
X198534526Y-97000515D01*
X198436771Y-97056954D01*
X198356954Y-97136771D01*
X198300515Y-97234526D01*
X198300515Y-97234528D01*
X198271300Y-97343561D01*
X194315303Y-97343561D01*
X194299485Y-97284528D01*
X194290825Y-97269528D01*
X194243045Y-97186771D01*
X194163228Y-97106954D01*
X194065472Y-97050515D01*
X193956439Y-97021300D01*
X193843561Y-97021300D01*
X193734528Y-97050515D01*
X193734526Y-97050515D01*
X193636771Y-97106954D01*
X193556954Y-97186771D01*
X193500515Y-97284526D01*
X193500515Y-97284528D01*
X193471300Y-97393561D01*
X176293341Y-97393561D01*
X176269485Y-97304528D01*
X176260799Y-97289484D01*
X176213045Y-97206771D01*
X176133228Y-97126954D01*
X176035472Y-97070515D01*
X176016412Y-97065408D01*
X175926439Y-97041300D01*
X175813561Y-97041300D01*
X175704528Y-97070515D01*
X175704526Y-97070515D01*
X175606771Y-97126954D01*
X175526954Y-97206771D01*
X175470515Y-97304526D01*
X175470515Y-97304528D01*
X175441300Y-97413561D01*
X156200000Y-97413561D01*
X156200000Y-96322761D01*
X207469511Y-96322761D01*
X207469511Y-96435639D01*
X207491960Y-96519420D01*
X207498726Y-96544671D01*
X207498726Y-96544673D01*
X207555165Y-96642428D01*
X207634982Y-96722245D01*
X207682673Y-96749779D01*
X207732739Y-96778685D01*
X207841772Y-96807900D01*
X207841775Y-96807900D01*
X207954647Y-96807900D01*
X207954650Y-96807900D01*
X207996639Y-96796649D01*
X208047881Y-96801133D01*
X208084254Y-96837506D01*
X208091300Y-96869287D01*
X208091300Y-96946439D01*
X208111359Y-97021300D01*
X208120515Y-97055471D01*
X208120515Y-97055473D01*
X208176954Y-97153228D01*
X208256771Y-97233045D01*
X208313211Y-97265630D01*
X208354528Y-97289485D01*
X208463561Y-97318700D01*
X208463564Y-97318700D01*
X208546100Y-97318700D01*
X208594438Y-97336293D01*
X208620158Y-97380842D01*
X208621300Y-97393900D01*
X208621300Y-97456439D01*
X208647582Y-97554526D01*
X208650515Y-97565471D01*
X208650515Y-97565473D01*
X208706954Y-97663228D01*
X208786771Y-97743045D01*
X208827868Y-97766772D01*
X208884528Y-97799485D01*
X208993561Y-97828700D01*
X208993564Y-97828700D01*
X209106436Y-97828700D01*
X209106439Y-97828700D01*
X209215472Y-97799485D01*
X209313228Y-97743045D01*
X209393045Y-97663228D01*
X209449485Y-97565472D01*
X209478700Y-97456439D01*
X209478700Y-97343561D01*
X209449485Y-97234528D01*
X209448629Y-97233045D01*
X209393045Y-97136771D01*
X209313228Y-97056954D01*
X209215472Y-97000515D01*
X209106439Y-96971300D01*
X209023900Y-96971300D01*
X208975562Y-96953707D01*
X208949842Y-96909158D01*
X208948700Y-96896100D01*
X208948700Y-96833563D01*
X208948700Y-96833561D01*
X208919485Y-96724528D01*
X208905596Y-96700472D01*
X208863045Y-96626771D01*
X208783228Y-96546954D01*
X208685472Y-96490515D01*
X208576439Y-96461300D01*
X208463561Y-96461300D01*
X208449524Y-96465061D01*
X208421573Y-96472550D01*
X208370329Y-96468066D01*
X208333956Y-96431691D01*
X208326911Y-96399912D01*
X208326911Y-96322763D01*
X208326911Y-96322761D01*
X208297696Y-96213728D01*
X208269835Y-96165472D01*
X208241256Y-96115971D01*
X208161439Y-96036154D01*
X208063683Y-95979715D01*
X207954650Y-95950500D01*
X207841772Y-95950500D01*
X207732739Y-95979715D01*
X207732737Y-95979715D01*
X207634982Y-96036154D01*
X207555165Y-96115971D01*
X207498726Y-96213726D01*
X207498726Y-96213728D01*
X207469511Y-96322761D01*
X156200000Y-96322761D01*
X156200000Y-94123561D01*
X162091300Y-94123561D01*
X162091300Y-94236439D01*
X162120515Y-94345471D01*
X162120515Y-94345473D01*
X162176954Y-94443228D01*
X162256771Y-94523045D01*
X162313211Y-94555630D01*
X162354528Y-94579485D01*
X162463561Y-94608700D01*
X162463564Y-94608700D01*
X162576436Y-94608700D01*
X162576439Y-94608700D01*
X162685472Y-94579485D01*
X162783228Y-94523045D01*
X162863045Y-94443228D01*
X162919485Y-94345472D01*
X162948700Y-94236439D01*
X162948700Y-94123561D01*
X162919485Y-94014528D01*
X162918927Y-94013561D01*
X167411300Y-94013561D01*
X167411300Y-94126439D01*
X167440515Y-94235471D01*
X167440515Y-94235473D01*
X167496954Y-94333228D01*
X167576767Y-94413041D01*
X167576770Y-94413043D01*
X167576772Y-94413045D01*
X167592108Y-94421899D01*
X167625172Y-94461305D01*
X167625172Y-94512744D01*
X167619634Y-94524621D01*
X167613915Y-94534526D01*
X167601869Y-94579484D01*
X167584700Y-94643561D01*
X167584700Y-94756439D01*
X167613915Y-94865471D01*
X167613915Y-94865473D01*
X167672819Y-94967497D01*
X167671370Y-94968333D01*
X167684813Y-95010976D01*
X167665126Y-95058499D01*
X167662860Y-95060866D01*
X167606953Y-95116773D01*
X167550515Y-95214526D01*
X167550515Y-95214528D01*
X167521300Y-95323561D01*
X167521300Y-95436439D01*
X167550515Y-95545471D01*
X167550515Y-95545473D01*
X167606954Y-95643228D01*
X167686771Y-95723045D01*
X167743211Y-95755630D01*
X167784528Y-95779485D01*
X167893561Y-95808700D01*
X167893564Y-95808700D01*
X168006436Y-95808700D01*
X168006439Y-95808700D01*
X168115472Y-95779485D01*
X168213228Y-95723045D01*
X168293045Y-95643228D01*
X168349485Y-95545472D01*
X168378700Y-95436439D01*
X168378700Y-95323561D01*
X168349485Y-95214528D01*
X168325832Y-95173561D01*
X175091300Y-95173561D01*
X175091300Y-95286439D01*
X175120515Y-95395471D01*
X175120515Y-95395473D01*
X175176954Y-95493228D01*
X175256771Y-95573045D01*
X175304351Y-95600515D01*
X175354528Y-95629485D01*
X175463561Y-95658700D01*
X175463564Y-95658700D01*
X175576436Y-95658700D01*
X175576439Y-95658700D01*
X175685472Y-95629485D01*
X175783228Y-95573045D01*
X175842712Y-95513561D01*
X205931300Y-95513561D01*
X205931300Y-95626439D01*
X205960515Y-95735471D01*
X205960515Y-95735473D01*
X206016954Y-95833228D01*
X206096771Y-95913045D01*
X206149627Y-95943561D01*
X206194528Y-95969485D01*
X206303561Y-95998700D01*
X206303564Y-95998700D01*
X206416436Y-95998700D01*
X206416439Y-95998700D01*
X206525472Y-95969485D01*
X206623228Y-95913045D01*
X206703045Y-95833228D01*
X206759485Y-95735472D01*
X206788700Y-95626439D01*
X206788700Y-95513561D01*
X206759485Y-95404528D01*
X206754257Y-95395473D01*
X206703045Y-95306771D01*
X206623228Y-95226954D01*
X206525472Y-95170515D01*
X206416439Y-95141300D01*
X206303561Y-95141300D01*
X206194528Y-95170515D01*
X206194526Y-95170515D01*
X206096771Y-95226954D01*
X206016954Y-95306771D01*
X205960515Y-95404526D01*
X205960515Y-95404528D01*
X205931300Y-95513561D01*
X175842712Y-95513561D01*
X175863045Y-95493228D01*
X175875861Y-95471031D01*
X175875862Y-95471030D01*
X175914256Y-95404528D01*
X175919485Y-95395472D01*
X175948700Y-95286439D01*
X175948700Y-95173561D01*
X175919485Y-95064528D01*
X175919484Y-95064526D01*
X175863045Y-94966771D01*
X175783228Y-94886954D01*
X175685472Y-94830515D01*
X175576439Y-94801300D01*
X175463561Y-94801300D01*
X175354528Y-94830515D01*
X175354526Y-94830515D01*
X175256771Y-94886954D01*
X175176954Y-94966771D01*
X175120515Y-95064526D01*
X175120515Y-95064528D01*
X175091300Y-95173561D01*
X168325832Y-95173561D01*
X168293045Y-95116772D01*
X168291947Y-95115674D01*
X168288733Y-95110156D01*
X168284967Y-95089265D01*
X168278586Y-95069027D01*
X168280490Y-95064430D01*
X168279607Y-95059532D01*
X168290150Y-95041107D01*
X168298271Y-95021503D01*
X168300517Y-95019155D01*
X168356445Y-94963228D01*
X168412885Y-94865472D01*
X168442100Y-94756439D01*
X168442100Y-94643561D01*
X168412885Y-94534528D01*
X168400308Y-94512744D01*
X168356445Y-94436771D01*
X168276628Y-94356954D01*
X168261292Y-94348100D01*
X168228227Y-94308695D01*
X168228227Y-94257255D01*
X168233768Y-94245374D01*
X168235623Y-94242160D01*
X168239485Y-94235472D01*
X168268700Y-94126439D01*
X168268700Y-94013561D01*
X168239485Y-93904528D01*
X168239484Y-93904526D01*
X168183045Y-93806771D01*
X168103228Y-93726954D01*
X168005472Y-93670515D01*
X167896439Y-93641300D01*
X167783561Y-93641300D01*
X167674528Y-93670515D01*
X167674526Y-93670515D01*
X167576771Y-93726954D01*
X167496954Y-93806771D01*
X167440515Y-93904526D01*
X167440515Y-93904528D01*
X167411300Y-94013561D01*
X162918927Y-94013561D01*
X162885947Y-93956439D01*
X162863045Y-93916771D01*
X162783228Y-93836954D01*
X162685472Y-93780515D01*
X162576439Y-93751300D01*
X162463561Y-93751300D01*
X162354528Y-93780515D01*
X162354526Y-93780515D01*
X162256771Y-93836954D01*
X162176954Y-93916771D01*
X162120515Y-94014526D01*
X162120515Y-94014528D01*
X162091300Y-94123561D01*
X156200000Y-94123561D01*
X156200000Y-93003561D01*
X167601300Y-93003561D01*
X167601300Y-93116439D01*
X167617377Y-93176439D01*
X167630515Y-93225471D01*
X167630515Y-93225473D01*
X167686954Y-93323228D01*
X167766771Y-93403045D01*
X167805616Y-93425472D01*
X167864528Y-93459485D01*
X167973561Y-93488700D01*
X167973564Y-93488700D01*
X168086436Y-93488700D01*
X168086439Y-93488700D01*
X168195472Y-93459485D01*
X168293228Y-93403045D01*
X168373045Y-93323228D01*
X168429485Y-93225472D01*
X168458700Y-93116439D01*
X168458700Y-93003561D01*
X168429485Y-92894528D01*
X168429484Y-92894526D01*
X168373045Y-92796771D01*
X168293228Y-92716954D01*
X168195472Y-92660515D01*
X168086439Y-92631300D01*
X167973561Y-92631300D01*
X167864528Y-92660515D01*
X167864526Y-92660515D01*
X167766771Y-92716954D01*
X167686954Y-92796771D01*
X167630515Y-92894526D01*
X167630515Y-92894528D01*
X167601300Y-93003561D01*
X156200000Y-93003561D01*
X156200000Y-91343561D01*
X163161300Y-91343561D01*
X163161300Y-91456439D01*
X163190515Y-91565471D01*
X163190515Y-91565473D01*
X163246954Y-91663228D01*
X163326771Y-91743045D01*
X163368183Y-91766954D01*
X163424528Y-91799485D01*
X163533561Y-91828700D01*
X163533564Y-91828700D01*
X163646436Y-91828700D01*
X163646439Y-91828700D01*
X163755472Y-91799485D01*
X163765596Y-91793639D01*
X163816251Y-91784705D01*
X163860801Y-91810422D01*
X163878397Y-91858758D01*
X163868323Y-91896362D01*
X163840516Y-91944526D01*
X163840515Y-91944528D01*
X163811300Y-92053561D01*
X163811300Y-92166439D01*
X163829147Y-92233045D01*
X163840515Y-92275471D01*
X163840515Y-92275473D01*
X163896954Y-92373228D01*
X163976771Y-92453045D01*
X164033211Y-92485630D01*
X164074528Y-92509485D01*
X164183561Y-92538700D01*
X164183564Y-92538700D01*
X164296436Y-92538700D01*
X164296439Y-92538700D01*
X164405472Y-92509485D01*
X164503228Y-92453045D01*
X164583045Y-92373228D01*
X164639485Y-92275472D01*
X164668700Y-92166439D01*
X164668700Y-92053561D01*
X164639485Y-91944528D01*
X164639484Y-91944526D01*
X164594281Y-91866232D01*
X164583045Y-91846771D01*
X164569835Y-91833561D01*
X177931300Y-91833561D01*
X177931300Y-91946439D01*
X177960515Y-92055471D01*
X177960515Y-92055473D01*
X178016954Y-92153228D01*
X178096771Y-92233045D01*
X178153211Y-92265630D01*
X178194528Y-92289485D01*
X178303561Y-92318700D01*
X178303564Y-92318700D01*
X178416436Y-92318700D01*
X178416439Y-92318700D01*
X178525472Y-92289485D01*
X178623228Y-92233045D01*
X178703045Y-92153228D01*
X178759485Y-92055472D01*
X178788700Y-91946439D01*
X178788700Y-91833561D01*
X178759485Y-91724528D01*
X178759484Y-91724526D01*
X178703045Y-91626771D01*
X178623228Y-91546954D01*
X178525472Y-91490515D01*
X178416439Y-91461300D01*
X178303561Y-91461300D01*
X178194528Y-91490515D01*
X178194526Y-91490515D01*
X178096771Y-91546954D01*
X178016954Y-91626771D01*
X177960515Y-91724526D01*
X177960515Y-91724528D01*
X177931300Y-91833561D01*
X164569835Y-91833561D01*
X164503228Y-91766954D01*
X164405472Y-91710515D01*
X164296439Y-91681300D01*
X164183561Y-91681300D01*
X164074528Y-91710515D01*
X164064401Y-91716362D01*
X164013742Y-91725293D01*
X163969195Y-91699572D01*
X163951602Y-91651235D01*
X163961677Y-91613636D01*
X163989484Y-91565473D01*
X163989485Y-91565472D01*
X164018700Y-91456439D01*
X164018700Y-91343561D01*
X163989485Y-91234528D01*
X163989484Y-91234526D01*
X163933045Y-91136771D01*
X163853228Y-91056954D01*
X163755472Y-91000515D01*
X163646439Y-90971300D01*
X163533561Y-90971300D01*
X163424528Y-91000515D01*
X163424526Y-91000515D01*
X163326771Y-91056954D01*
X163246954Y-91136771D01*
X163190515Y-91234526D01*
X163190515Y-91234528D01*
X163161300Y-91343561D01*
X156200000Y-91343561D01*
X156200000Y-89973561D01*
X178981300Y-89973561D01*
X178981300Y-90086439D01*
X178984514Y-90098433D01*
X179010515Y-90195471D01*
X179010515Y-90195473D01*
X179066954Y-90293228D01*
X179146771Y-90373045D01*
X179203211Y-90405630D01*
X179244528Y-90429485D01*
X179353561Y-90458700D01*
X179353564Y-90458700D01*
X179466436Y-90458700D01*
X179466439Y-90458700D01*
X179575472Y-90429485D01*
X179673228Y-90373045D01*
X179753045Y-90293228D01*
X179809485Y-90195472D01*
X179838700Y-90086439D01*
X179838700Y-89973561D01*
X184711300Y-89973561D01*
X184711300Y-90086439D01*
X184714514Y-90098433D01*
X184740515Y-90195471D01*
X184740515Y-90195473D01*
X184796954Y-90293228D01*
X184876771Y-90373045D01*
X184933211Y-90405630D01*
X184974528Y-90429485D01*
X185083561Y-90458700D01*
X185083564Y-90458700D01*
X185196436Y-90458700D01*
X185196439Y-90458700D01*
X185305472Y-90429485D01*
X185403228Y-90373045D01*
X185483045Y-90293228D01*
X185539485Y-90195472D01*
X185568700Y-90086439D01*
X185568700Y-89973561D01*
X185539485Y-89864528D01*
X185539484Y-89864526D01*
X185483045Y-89766771D01*
X185403228Y-89686954D01*
X185305472Y-89630515D01*
X185196439Y-89601300D01*
X185083561Y-89601300D01*
X184974528Y-89630515D01*
X184974526Y-89630515D01*
X184876771Y-89686954D01*
X184796954Y-89766771D01*
X184740515Y-89864526D01*
X184740515Y-89864528D01*
X184711300Y-89973561D01*
X179838700Y-89973561D01*
X179809485Y-89864528D01*
X179809484Y-89864526D01*
X179753045Y-89766771D01*
X179673228Y-89686954D01*
X179575472Y-89630515D01*
X179466439Y-89601300D01*
X179353561Y-89601300D01*
X179244528Y-89630515D01*
X179244526Y-89630515D01*
X179146771Y-89686954D01*
X179066954Y-89766771D01*
X179010515Y-89864526D01*
X179010515Y-89864528D01*
X178981300Y-89973561D01*
X156200000Y-89973561D01*
X156200000Y-89512932D01*
X156200643Y-89503117D01*
X156202758Y-89487048D01*
X156216018Y-89386329D01*
X156221095Y-89367380D01*
X156264273Y-89263138D01*
X156274084Y-89246147D01*
X156286536Y-89229919D01*
X156329921Y-89202282D01*
X156346195Y-89200500D01*
X215460118Y-89200500D01*
X215497048Y-89200500D01*
X215502947Y-89200731D01*
G37*
%TD.AperFunction*%
%TD*%
%TA.AperFunction,Conductor*%
%TO.N,/Isolated Ch#1\u002C Ch#2/HGND*%
G36*
X149189502Y-106800159D02*
G01*
X149194442Y-106800483D01*
X149199307Y-106800962D01*
X149215583Y-106803104D01*
X149215584Y-106803105D01*
X149215585Y-106803105D01*
X149308786Y-106815375D01*
X149318426Y-106817292D01*
X149327860Y-106819820D01*
X149337166Y-106822978D01*
X149418183Y-106856537D01*
X149432306Y-106862387D01*
X149441123Y-106866735D01*
X149449586Y-106871621D01*
X149457756Y-106877080D01*
X149498605Y-106908424D01*
X149539449Y-106939766D01*
X149546841Y-106946249D01*
X149553748Y-106953156D01*
X149560234Y-106960551D01*
X149622914Y-107042236D01*
X149628376Y-107050410D01*
X149633262Y-107058873D01*
X149637613Y-107067694D01*
X149677016Y-107162824D01*
X149680177Y-107172134D01*
X149682704Y-107181563D01*
X149684624Y-107191214D01*
X149699036Y-107300682D01*
X149699517Y-107305571D01*
X149699839Y-107310484D01*
X149700000Y-107315389D01*
X149700000Y-117184606D01*
X149699838Y-117189535D01*
X149699516Y-117194437D01*
X149699035Y-117199324D01*
X149684624Y-117308784D01*
X149682704Y-117318435D01*
X149680177Y-117327864D01*
X149677016Y-117337174D01*
X149637613Y-117432304D01*
X149633259Y-117441132D01*
X149628376Y-117449588D01*
X149622914Y-117457762D01*
X149560234Y-117539447D01*
X149553748Y-117546842D01*
X149546842Y-117553748D01*
X149539447Y-117560234D01*
X149457762Y-117622914D01*
X149449588Y-117628376D01*
X149441132Y-117633259D01*
X149432304Y-117637613D01*
X149337174Y-117677016D01*
X149327864Y-117680177D01*
X149321798Y-117681802D01*
X149318432Y-117682704D01*
X149308784Y-117684624D01*
X149199317Y-117699036D01*
X149194427Y-117699517D01*
X149189537Y-117699838D01*
X149184611Y-117700000D01*
X142115389Y-117700000D01*
X142110484Y-117699839D01*
X142105571Y-117699517D01*
X142100682Y-117699036D01*
X141991214Y-117684624D01*
X141981569Y-117682705D01*
X141972134Y-117680177D01*
X141962824Y-117677016D01*
X141867694Y-117637613D01*
X141858873Y-117633262D01*
X141850410Y-117628376D01*
X141842236Y-117622914D01*
X141760551Y-117560234D01*
X141753156Y-117553748D01*
X141746250Y-117546842D01*
X141739764Y-117539447D01*
X141677088Y-117457767D01*
X141671624Y-117449590D01*
X141666737Y-117441126D01*
X141662385Y-117432302D01*
X141622978Y-117337166D01*
X141619821Y-117327864D01*
X141617288Y-117318411D01*
X141615376Y-117308796D01*
X141600961Y-117199299D01*
X141600483Y-117194437D01*
X141600159Y-117189503D01*
X141600000Y-117184608D01*
X141600000Y-107315390D01*
X141600160Y-107310488D01*
X141600162Y-107310464D01*
X141600483Y-107305556D01*
X141600963Y-107300682D01*
X141602758Y-107287048D01*
X141615375Y-107191209D01*
X141617293Y-107181571D01*
X141617978Y-107179013D01*
X141619819Y-107172140D01*
X141622975Y-107162838D01*
X141662390Y-107067683D01*
X141666735Y-107058873D01*
X141671623Y-107050407D01*
X141677075Y-107042249D01*
X141739765Y-106960551D01*
X141746248Y-106953159D01*
X141753159Y-106946248D01*
X141760547Y-106939767D01*
X141842249Y-106877075D01*
X141850407Y-106871623D01*
X141858873Y-106866735D01*
X141867683Y-106862390D01*
X141962838Y-106822975D01*
X141972140Y-106819819D01*
X141979013Y-106817978D01*
X141981571Y-106817293D01*
X141991209Y-106815375D01*
X142087048Y-106802758D01*
X142100714Y-106800959D01*
X142105556Y-106800483D01*
X142110491Y-106800159D01*
X142115390Y-106800000D01*
X149184610Y-106800000D01*
X149189502Y-106800159D01*
G37*
%TD.AperFunction*%
%TD*%
%TA.AperFunction,Conductor*%
%TO.N,/Isolated Ch#1\u002C Ch#2/AIN1N*%
G36*
X149196883Y-92400643D02*
G01*
X149215585Y-92403105D01*
X149313668Y-92416018D01*
X149332621Y-92421096D01*
X149436857Y-92464272D01*
X149453852Y-92474084D01*
X149498605Y-92508424D01*
X149543355Y-92542763D01*
X149557236Y-92556644D01*
X149625913Y-92646144D01*
X149635729Y-92663145D01*
X149678901Y-92767372D01*
X149683982Y-92786334D01*
X149699357Y-92903116D01*
X149700000Y-92912932D01*
X149700000Y-105387067D01*
X149699357Y-105396882D01*
X149699357Y-105396883D01*
X149683982Y-105513665D01*
X149678901Y-105532627D01*
X149635729Y-105636854D01*
X149625913Y-105653855D01*
X149557236Y-105743355D01*
X149543355Y-105757236D01*
X149453855Y-105825913D01*
X149436854Y-105835729D01*
X149332627Y-105878901D01*
X149313665Y-105883982D01*
X149196884Y-105899357D01*
X149187068Y-105900000D01*
X142112932Y-105900000D01*
X142103116Y-105899357D01*
X141986334Y-105883982D01*
X141967372Y-105878901D01*
X141863145Y-105835729D01*
X141846144Y-105825913D01*
X141756644Y-105757236D01*
X141742763Y-105743355D01*
X141674086Y-105653855D01*
X141664272Y-105636857D01*
X141621096Y-105532621D01*
X141616018Y-105513668D01*
X141600643Y-105396882D01*
X141600000Y-105387067D01*
X141600000Y-103223561D01*
X146701300Y-103223561D01*
X146701300Y-103336439D01*
X146730515Y-103445471D01*
X146730515Y-103445473D01*
X146786954Y-103543228D01*
X146866771Y-103623045D01*
X146923211Y-103655630D01*
X146964528Y-103679485D01*
X147073561Y-103708700D01*
X147073564Y-103708700D01*
X147186436Y-103708700D01*
X147186439Y-103708700D01*
X147295472Y-103679485D01*
X147393228Y-103623045D01*
X147473045Y-103543228D01*
X147529485Y-103445472D01*
X147558700Y-103336439D01*
X147558700Y-103223561D01*
X147529485Y-103114528D01*
X147529484Y-103114526D01*
X147473045Y-103016771D01*
X147393228Y-102936954D01*
X147295472Y-102880515D01*
X147186439Y-102851300D01*
X147073561Y-102851300D01*
X146964528Y-102880515D01*
X146964526Y-102880515D01*
X146866771Y-102936954D01*
X146786954Y-103016771D01*
X146730515Y-103114526D01*
X146730515Y-103114528D01*
X146701300Y-103223561D01*
X141600000Y-103223561D01*
X141600000Y-93063561D01*
X146471300Y-93063561D01*
X146471300Y-93176439D01*
X146500515Y-93285471D01*
X146500515Y-93285473D01*
X146556954Y-93383228D01*
X146636771Y-93463045D01*
X146693211Y-93495630D01*
X146734528Y-93519485D01*
X146843561Y-93548700D01*
X146843564Y-93548700D01*
X146956436Y-93548700D01*
X146956439Y-93548700D01*
X147065472Y-93519485D01*
X147163228Y-93463045D01*
X147243045Y-93383228D01*
X147299485Y-93285472D01*
X147328700Y-93176439D01*
X147328700Y-93063561D01*
X147299485Y-92954528D01*
X147299484Y-92954526D01*
X147243045Y-92856771D01*
X147163228Y-92776954D01*
X147065472Y-92720515D01*
X146956439Y-92691300D01*
X146843561Y-92691300D01*
X146734528Y-92720515D01*
X146734526Y-92720515D01*
X146636771Y-92776954D01*
X146556954Y-92856771D01*
X146500515Y-92954526D01*
X146500515Y-92954528D01*
X146471300Y-93063561D01*
X141600000Y-93063561D01*
X141600000Y-92912932D01*
X141600643Y-92903117D01*
X141602758Y-92887048D01*
X141616018Y-92786329D01*
X141621095Y-92767380D01*
X141664273Y-92663138D01*
X141674082Y-92646150D01*
X141742764Y-92556642D01*
X141756644Y-92542763D01*
X141846150Y-92474082D01*
X141863138Y-92464273D01*
X141967380Y-92421095D01*
X141986329Y-92416018D01*
X142087048Y-92402758D01*
X142103117Y-92400643D01*
X142112932Y-92400000D01*
X149187068Y-92400000D01*
X149196883Y-92400643D01*
G37*
%TD.AperFunction*%
%TD*%
M02*
